<?xml version="1.0" encoding="utf-8"?>
<!-- Generator: Adobe Illustrator 16.0.4, SVG Export Plug-In . SVG Version: 6.00 Build 0)  -->
<!DOCTYPE svg PUBLIC "-//W3C//DTD SVG 1.1//EN" "http://www.w3.org/Graphics/SVG/1.1/DTD/svg11.dtd">
<svg version="1.1" xmlns="http://www.w3.org/2000/svg" xmlns:xlink="http://www.w3.org/1999/xlink" x="0px" y="0px" width="2500px"
	 height="2488px" viewBox="0 0 2500 2488" enable-background="new 0 0 2500 2488" xml:space="preserve">
<g id="Layer_3_1_" display="none">
</g>
<g id="Layer_4_1_">
</g>
<g id="Layer_5_1_">
	<path fill="#CECFD1" d="M842.348,2211.985c15.073,95.729,105.724,161.715,201.448,146.644l1198.636-188.717
		c95.725-15.071,161.712-105.723,146.64-201.451l-261.88-1663.332c-15.071-95.725-105.723-161.715-201.447-146.644L727.11,347.203
		c-95.725,15.07-161.715,105.722-146.644,201.446L842.348,2211.985z"/>
	<path opacity="0.15" fill="#231F20" d="M2296.294,1379.182l-6.749,778.812c-14.348,8.512-47.878,12.213-65.951,14.938
		l-565.448,84.162c0,0-806.868-14.461-809.764-14.686l-92.401-675.99L731.528,425.252l32.154-7.402l1503.896,786.907
		L2296.294,1379.182z"/>
	<path fill="#F6F4F4" d="M675.393,2006.336c-3.095,96.852,73.615,178.633,170.471,181.729l1212.767,38.759
		c96.853,3.098,178.63-73.62,181.727-170.473l53.792-1682.961c3.098-96.855-73.617-178.633-170.469-181.728L910.914,152.898
		c-96.856-3.095-178.633,73.615-181.728,170.471L675.393,2006.336z"/>
	<path opacity="0.2" fill="#231F20" d="M1896.104,207.376l13.924,386.27c0,0-7.729,51.748,46.811,55.982
		c54.518,4.236,332.064-47.828,332.064-47.828L1896.104,207.376z"/>
	<path fill="#DEDEDE" d="M1896.477,185.823l-6.082,355.675c0,0-7.725,51.75,46.814,55.986c54.518,4.24,351.669,6.014,351.669,6.014
		L1896.477,185.823z"/>
	<path opacity="0.15" fill="#231F20" d="M1975.293,1133.556c-0.477,13.474-11.783,24.015-25.254,23.544l-931.799-29.312
		c-13.475-0.469-24.013-11.774-23.544-25.24l0,0c0.469-13.476,11.767-24.008,25.242-23.541l931.799,29.313
		C1965.206,1108.794,1975.757,1120.088,1975.293,1133.556L1975.293,1133.556z"/>
	<path opacity="0.15" fill="#231F20" d="M1700.217,1224.52c-0.468,13.487-11.781,24.016-25.255,23.546l-658.451-22.936
		c-13.474-0.467-24.012-11.76-23.541-25.247l0,0c0.467-13.466,11.767-24.004,25.24-23.533l658.448,22.937
		C1690.142,1199.753,1700.69,1211.053,1700.217,1224.52L1700.217,1224.52z"/>
	<path opacity="0.15" fill="#231F20" d="M1971.657,1338.892c-0.471,13.478-11.792,24.011-25.254,23.548l-931.8-29.313
		c-13.475-0.471-24.014-11.771-23.546-25.247l0,0c0.469-13.471,11.77-24.012,25.246-23.548l931.8,29.32
		C1961.572,1314.115,1972.124,1325.422,1971.657,1338.892L1971.657,1338.892z"/>
	<path opacity="0.15" fill="#231F20" d="M1606.56,1444.522c-0.474,13.49-11.784,24.011-25.265,23.54l-568.735-19.805
		c-13.475-0.47-24.013-11.756-23.543-25.24l0,0c0.47-13.49,11.768-24.011,25.247-23.54l568.734,19.812
		C1596.475,1419.76,1607.024,1431.038,1606.56,1444.522L1606.56,1444.522z"/>
	<path opacity="0.15" fill="#231F20" d="M1712.295,1556.263c-0.474,13.483-11.784,24.018-25.26,23.548l-676.387-23.562
		c-13.479-0.47-24.017-11.763-23.546-25.246l0,0c0.467-13.471,11.769-23.998,25.243-23.527l676.388,23.562
		C1702.211,1531.507,1712.766,1542.793,1712.295,1556.263L1712.295,1556.263z"/>
	<path opacity="0.15" fill="#231F20" d="M1965.634,1678.579c-0.471,13.484-11.78,24.012-25.254,23.548l-931.8-29.32
		c-13.474-0.463-24.011-11.756-23.543-25.24l0,0c0.473-13.463,11.769-23.997,25.244-23.533l931.802,29.313
		C1955.549,1653.816,1966.105,1665.117,1965.634,1678.579L1965.634,1678.579z"/>
	<path opacity="0.15" fill="#231F20" d="M1963.759,1784.315c-0.467,13.463-11.788,24.004-25.254,23.533l-931.796-29.313
		c-13.477-0.471-24.016-11.77-23.546-25.24l0,0c0.469-13.469,11.769-24.011,25.244-23.54l931.805,29.313
		C1953.678,1759.539,1964.23,1770.846,1963.759,1784.315L1963.759,1784.315z"/>
	<path opacity="0.2" fill="#919396" d="M1523.76,914.776c-0.404,22.739-19.162,40.842-41.895,40.438l-429.226-7.605
		c-22.736-0.403-40.841-19.161-40.441-41.896l5.521-311.337c0.401-22.736,19.16-40.843,41.896-40.439l429.224,7.606
		c22.736,0.403,40.841,19.163,40.438,41.897L1523.76,914.776z"/>
	<g>
		<path fill="#2F363E" d="M1120.32,458.16c-9.495,4.596-21.89,6.893-37.189,6.893c-19.959,0-35.652-5.864-47.082-17.6
			c-11.429-11.731-17.143-27.364-17.143-46.898c0-20.802,6.423-37.674,19.274-50.617c12.852-12.939,29.527-19.411,50.027-19.411
			c12.701,0,23.404,1.604,32.112,4.808v28.21c-8.708-5.2-18.625-7.798-29.752-7.798c-12.216,0-22.072,3.841-29.573,11.521
			c-7.496,7.679-11.247,18.08-11.247,31.202c0,12.581,3.536,22.604,10.612,30.072c7.075,7.469,16.602,11.201,28.575,11.201
			c11.43,0,21.891-2.781,31.385-8.344V458.16z"/>
		<path fill="#2F363E" d="M1251.31,332.703l-44.812,130.081h-33.2l-44.269-130.081h31.567l27.123,90.531
			c1.454,4.898,2.328,9.222,2.633,12.972h0.545c0.421-4.052,1.358-8.498,2.809-13.337l26.943-90.166H1251.31z"/>
	</g>
	<g>
		<path fill-rule="evenodd" clip-rule="evenodd" fill="#3C3A3A" d="M1168.814,640.018c3.112-2.564,1.292-6.874,3.458-9.773
			c1.344-0.648,2.694-0.283,3.645,0.562c7,6.223,16.028,8.426,24.262,12.101c9.149,4.084,18.17,8.41,26.949,13.179
			c15.299,8.312,31.687,13.532,48.467,17.549c20.338,4.867,40.999,7.864,61.904,9.066c16.49,1.088,32.955,1.561,49.215-2.158
			c4.81-1.1,8.568-4.295,12.606-6.926c4.277-2.787,5.234-2.393,6.975,2.304c0.848,2.492,0.025,5.001,0.078,7.502
			c0.482,1.077-0.09,1.892-0.971,2.128c-3.52,0.941-5.971,3.209-8.22,5.926c-1.176,1.422-2.79,2.443-4.746,1.006
			c-2.011-3.644-5.149-4.164-8.915-3.432c-7.003,1.363-14.12,1.943-21.194,2.855c-30.065,0.942-60.013-0.283-89.636-5.715
			c-15.489-2.842-30.685-7.033-45.361-12.868c-6.261-2.463-12.172-5.818-18.748-7.493c-2.896-1.213-5.834-2.86-8.27,0.798
			c-0.294,0.409-0.614,0.789-0.94,1.167c-3.858,3.839-6.572,8.413-8.651,13.4c-1.805,3.433-2.534,7.204-3.508,10.898
			c-0.508,1.925-0.835,3.959-2.677,5.208c-3.986-1.931-3.713-5.72-3.267-8.993c1.067-7.832,1.922-15.81,6.312-22.741
			c2.092-3.302,1.017-5.464-2.219-7.107c-5.51-2.798-9.594-7.435-14.237-11.334C1169.063,645.393,1166.862,643.262,1168.814,640.018
			z"/>
		<path fill-rule="evenodd" clip-rule="evenodd" fill="#545252" d="M1337.121,683.713c-15.412,0.393-30.646-2.065-45.581-4.959
			c-17.078-3.311-34.289-7.11-50.334-14.255c-11.494-5.119-22.529-11.255-33.901-16.661c-6.841-3.252-13.848-6.204-20.942-8.857
			c-5.343-1.998-9.141-6.244-14.089-8.736c1.64-6.852,5.956-12.01,10.703-16.894c3.803-0.97,3.508,1.444,3.041,3.801
			c-0.541,2.715-1.722,5.262-2.107,8.036c-0.519,3.723,0.512,6.462,4.191,8.043c6.096,2.619,11.598,6.56,18.156,8.166
			c2.12,0.697,4.139,1.648,6.033,2.785c18.659,11.211,39.821,13.998,60.607,18.018c6.877,1.331,13.876,1.86,20.839,2.619
			c3.559,1.228,7.338,0.241,10.937,1.063c12.186,1.571,24.452,1.04,36.62,0.483c11.226-0.512,22.502-1.703,33.552-4.171
			c1.628-0.364,3.274-0.654,4.881-1.107c8.366-2.362,10.973-7.524,7.626-15.66c-2.846-6.919-7.241-12.912-11.93-18.683
			c-1.289-1.586-2.743-3.091-3.212-5.136c-0.312-1.362-0.884-3.021,1.328-3.514c10.623,10.307,21.334,20.544,27.041,34.686
			c0.542,1.344,1.63,2.552,1.005,4.176c-2.404,1.448-2.203,4.131-2.938,6.339c-3.08,9.274-8.957,15.874-18.608,18.126
			C1365.908,684.717,1351.525,684.79,1337.121,683.713z"/>
		<path fill-rule="evenodd" clip-rule="evenodd" fill="#5E5C5D" d="M1373.537,618.095c-1.762,3.577,1.169,5.338,2.955,7.497
			c5.192,6.278,9.961,12.854,12.875,20.515c3.117,8.198-0.147,14.233-8.533,16.419c-8.729,2.273-17.68,3.312-26.591,4.387
			c-15.053,1.813-30.212,1.143-45.335,1.189c-1.449,0.006-3.001,0.277-4.104-1.082c2.889-2.54,6.411-1.188,9.648-1.574
			c2.528,0.017,5.061,0.029,7.587,0.025c17.366,0.508,34.4-1.038,50.508-8.256c1.524-0.682,3.025-1.407,4.421-2.334
			c5.605-3.722,6.592-7.137,3.702-13.219c-3.928-8.266-10.539-14.303-17.361-19.994c-20.07-16.74-43.979-25.197-69.163-29.661
			c-23-4.077-46.043-3.058-68.318,5.214c-0.876,0.326-1.713,0.691-2.481,1.207c-8.131,3.921-16.241,7.878-23.575,13.242
			c-4.207,3.076-8.048,6.5-10.675,11.046c-2.855,4.939-2.12,7.957,2.835,10.438c3.958,1.982,7.636,4.462,11.677,6.279
			c1.021,0.798,2.556,1.257,2.068,3.067c-7.916-1.721-14.687-6.033-21.45-10.096c-3.504-2.104-2.036-6.369-1.392-9.763
			c0.413-2.165,1.218-4.275,2.038-6.333c0.807-2.025-0.098-2.72-1.895-2.958c13.442-13.79,29.95-22.63,48.37-26.913
			c50.369-11.712,96.94-3.005,138.781,28.129C1371.421,615.529,1372.407,616.908,1373.537,618.095z"/>
		<path fill-rule="evenodd" clip-rule="evenodd" fill="#765C49" d="M1399.534,845.287c-2.865,12.372-9.51,22.839-17.224,32.56
			c-9.834,12.393-21.464,23.04-34.395,32.167c-26.521,18.722-55.407,21.111-85.125,10.064
			c-38.573-14.341-70.133-37.85-90.475-74.594c-2.545-4.596-5.537-7.205-11.13-4.973c-1.296,0.518-3.309,0.825-4.612-0.776
			c0.546-3.691,4.236-2.064,6.053-3.599c2.883-0.864,1.96-3.044,1.625-4.925c-0.735-4.104-1.566-8.189-1.184-12.399
			c0.271-1.397,0.061-3.357,1.914-3.536c1.742-0.169,2.283,1.675,2.821,3.007c14.996,37.079,43.346,62.646,74.545,85.47
			c11.253,8.232,24.257,14.077,38.252,15.797c27.561,3.388,52.421-2.604,73.373-22.263c16.402-15.391,30.498-32.337,40.573-52.506
			c0.249-0.498,0.479-1.009,0.79-1.47c0.945-1.404,2.16-3.286,3.845-2.468C1400.801,841.633,1400.207,843.711,1399.534,845.287z"/>
		<path fill-rule="evenodd" clip-rule="evenodd" fill="#8D715C" d="M1399.534,845.287c-0.129-1.229-0.258-2.46-0.391-3.742
			c-3.1,0.625-2.938,3.396-3.908,5.207c-8.055,15.049-17.464,29.185-29.531,41.271c-14.037,14.059-28.825,27.372-49.227,31.419
			c-9.07,1.798-18.222,2.242-27.649,1.94c-26.484-0.845-46.421-14.748-65.756-30.39c-18.686-15.116-33.674-33.642-48.042-52.702
			c-4.533-6.015-6.273-13.312-8.694-20.283c-0.216-0.618-0.16-2.106-1.506-1.571c-0.337,0.135-0.25,1.338-0.358,2.052
			c-1.107,0.179-1.824-0.466-2.038-1.371c-1.543-6.584-3.174-13.183-0.424-19.852c0.191-0.285,0.535-0.811,0.669-0.754
			c3.928,1.659,6.754-1.202,9.986-2.386c0.687,0.896,0.879,1.954,1.015,3.033c2.485,18.498,9.329,35.363,19.024,51.188
			c2.447,3.993,5.697,7.324,8.781,10.748c15.256,16.938,30.744,33.6,50.282,45.924c28.257,17.825,65.589,17.272,92.341-4.754
			c16.034-13.203,29.639-28.479,40.342-46.292c1.627-2.71,3.552-5.198,5.257-7.845c1.189-1.586,2.342-3.204,3.774-4.59
			c4.241-5.433,5.397-11.773,5.744-18.451c0.108-2.064-1.224-5.366,2.899-5.511c1.646,3.233,1.579,6.629,0.956,10.076
			C1400.84,833.317,1401.526,839.571,1399.534,845.287z"/>
		<path fill-rule="evenodd" clip-rule="evenodd" fill="#545253" d="M1147.999,664.831c3.438-9.651,7.296-18.985,17.586-23.51
			c0.376,2.212,3.393,3.747,1.665,6.509c-7.624,3.379-9.822,10.545-10.988,17.595c-1.434,8.66-0.579,17.382,3.857,25.38
			c2.427,4.373,4.277,9.059,7.092,13.22c1.702,2.515,3.206,2.217,4.271-0.517c1.153-2.961,1.265-6.166,2.009-9.219
			c2.018-8.285,2.749-16.831,5.155-25.034c1.142-3.892,1.121-7.612-1.285-11.179c-0.927-1.375-2.457-3.146-0.057-4.748
			c8.285,4.657,10.426,9.432,7.196,17.701c-2.48,6.349-2.763,13.062-3.094,19.551c-0.626,12.281-2.61,24.253-5.747,36.046
			c-1.453,5.467-5.438,9.216-10.888,11.019c-5.246,1.736-11.074-1.897-13.604-8.572c-2.245-5.92-3.1-12.211-3.677-18.447
			C1146.083,695.361,1144.806,680.061,1147.999,664.831z"/>
		<path fill-rule="evenodd" clip-rule="evenodd" fill="#4D4B4A" d="M1147.999,664.831c2.378,3.081-0.274,6.024-0.303,9.05
			c-0.169,16.797,0.021,33.552,3.447,50.093c0.187,0.897,0.502,1.768,0.774,2.646c1.792,5.793,6.574,10.814,10.224,10.323
			c4.748-0.64,10.908-5.434,12.436-11.799c3.834-15.972,5.893-32.152,6.646-48.533c0.056-1.249,0.479-2.525,0.939-3.71
			c3.931-10.12,3.296-12.403-5.468-19.251c-4.218-0.554-6.649-3.495-8.91-6.665c-1.423-1.62-4.494-2.601-2.199-5.664
			c0.977-0.68,1.896-1.505,3.229-1.304c-0.186,2.455,0.961,4.305,2.808,5.707c5.251,3.988,9.402,9.375,15.643,12.114
			c3.791,1.663,4.362,3.689,2.077,7.74c-5.489,9.727-8.563,20.156-5.013,31.472c1.47,4.566-1.018,8.631-1.631,12.936
			c-1.754,6.953-3.467,13.918-5.698,20.745c-5.295,14.42-5.593,29.156-3.607,44.237c0.82,6.221,2.113,12.82-1.208,18.932
			c-3.266,6.309-5.171,6.795-8.769,2.234c-2.878-5.158-1.195-11.042-2.595-16.451c-0.4-1.548-0.071-3.27-0.213-4.902
			c-0.129-0.561-0.227-1.133-0.312-1.704c-0.081-0.847,0.033-1.66,0.485-2.397c1.021-0.747,2.518,0.158,3.435-0.99
			c0.863-0.392,1.947-0.854,1.78-1.883c-0.843-5.199,1.301-10.682-1.841-15.721c-1.305-2.092-1.291-4.909-5.117-3.842
			c-1.301,0.361-1.927-1.881-2.723-3.13c-11.853-18.62-12.673-39.447-12.321-60.542c0.029-1.756,0.938-3.715-0.627-5.318
			C1144.165,674.207,1145.285,669.263,1147.999,664.831z"/>
		<path fill-rule="evenodd" clip-rule="evenodd" fill="#4C4B4B" d="M1143.367,679.254c3.368,0.783,2.126,3.538,2.102,5.481
			c-0.155,11.849,0.354,23.632,2.243,35.354c1.048,6.515,3.206,12.553,7.081,17.858c1.135,1.555,1.685,3.24,2.509,4.868
			c0.92,1.82-0.365,8.629,4.749,2.218c1.263-1.581,1.981,0.434,2.361,1.672c1.938,6.309,3.77,12.605,3.408,19.352
			c-0.164,3.063-0.009,5.901-4.447,4.537c0.006-5.341-3.352-8.826-6.218-12.952c-9.162-13.188-15.399-27.706-16.614-44.003
			c-0.033-0.456,0.372-1.114-0.162-1.165c-0.227,4.257,2.508,8.604-0.626,12.829
			C1137.792,709.705,1140.044,694.438,1143.367,679.254z"/>
		<path fill-rule="evenodd" clip-rule="evenodd" fill="#D8B296" d="M1144.42,820.665c-3.516-9.714-6.313-19.589-6.689-30.003
			c4.487-4.25,7.207-3.963,10.735,0.887c3.107,4.271,3.285,9.445,4.362,14.257c1.41,6.302,4.054,11.892,7.459,17.239
			c1.299,2.039,2.45,4.164,3.349,6.405c0.935,2.331,1.479,4.793-0.709,6.683c-2.321,2.005-4.896,1.354-7.239-0.098
			c-4.072-2.521-6.865-6.15-8.812-10.496C1146.134,823.881,1146.084,821.861,1144.42,820.665z"/>
		<path fill-rule="evenodd" clip-rule="evenodd" fill="#4F4C4D" d="M1393.083,692.592c0.681-0.237,1.699-0.267,1.991-0.742
			c2.658-4.334,6.387-7.153,11.299-8.427c2.184,6.981,3.296,14.166,4.037,21.42c-2.082,1.379-1.496,3.621-1.638,5.529
			c-0.373,5.021-1.698,9.791-3.621,14.38c-1.051,2.508-2.327,5.151-5.892,4.73c-1.06-1.079-1.479-2.467-1.911-3.854
			c-1.495-8.675-2.663-17.402-4.069-26.085c-0.177-0.523-0.3-1.064-0.402-1.607c-0.196-1.579-0.614-3.152-0.344-4.771
			C1392.715,692.974,1392.899,692.782,1393.083,692.592z"/>
		<path fill-rule="evenodd" clip-rule="evenodd" fill="#BF9A7E" d="M1144.42,820.665c2.267-2.627,1.92,0.883,1.979,1.121
			c1.393,5.543,5.124,9.389,9.347,12.769c1.839,1.473,4.264,2.885,6.539,0.802c2.092-1.917,0.772-4.132-0.247-6.101
			c-1.104-2.129-2.217-4.278-3.575-6.247c-4.914-7.126-7.016-15.231-8.489-23.583c-0.222-1.258-0.399-2.56-0.868-3.733
			c-2.726-6.842-4.886-7.771-11.375-5.03c-1.342-6.959-0.906-13.686,2.616-20.008c4.309-1.457,5.802,0.913,6.305,4.635
			c-1.484,1.621-5.152,0.655-5.226,3.396c-0.074,2.706,3.017,3.427,4.996,4.663c5.621,3.51,9.277,8.272,10.756,14.879
			c2.258,10.076,6.775,19.607,7.386,30.086c0.181,3.104,2.49,6.538-1.196,9.152c-1.911,1.814-4.941,0.284-6.794,2.271
			C1148.471,835.96,1146.953,827.989,1144.42,820.665z"/>
		<path fill-rule="evenodd" clip-rule="evenodd" fill="#3F3D3E" d="M1139.753,725.303c0-4.54,0-9.08,0-13.619
			c2.696,13.247,7.75,25.451,13.437,37.438c1.92,4.049,4.31,7.803,7.777,10.683c3.663,3.044,4.585,6.528,2.406,10.79
			c-0.703,1.244-1.356,0.126-2.031-0.041c-2.441-0.395-4.972-0.032-7.364-0.856c-1.721-0.553-3.198-1.462-4.268-2.958
			c-0.639-0.817-0.241-1.931-0.787-2.777c-2.48-8.41-4.867-16.849-7.476-25.217C1140.074,734.332,1139.654,729.866,1139.753,725.303
			z"/>
		<path fill-rule="evenodd" clip-rule="evenodd" fill="#454240" d="M1399.543,729.388c6.624-4.438,6.428-11.786,7.662-18.435
			c0.392-2.111,0.27-4.345,1.125-6.383c0.956-2.281,1.367,0.296,2.08,0.272c2.502,18.925-1.252,36.976-7.631,54.659
			c-1.054,1.506,0.26,3.205-0.371,4.751c-0.697,2.89,0.647,6.39-2.429,8.618c-1.894-1.304-1.962-3.207-1.979-5.043
			c-0.107-11.29-0.1-22.581-0.007-33.871C1398.008,732.288,1398.108,730.599,1399.543,729.388z"/>
		<path fill-rule="evenodd" clip-rule="evenodd" fill="#484647" d="M1337.121,683.713c12.004,0.295,23.916-0.573,35.824-2.17
			c14.426-1.934,21.405-7.953,25.337-22.934c0.545-2.072,0.426-4.607,3.301-1.653c1.57,6.321,5.564,12.041,4.713,18.965
			c-1.438-2.339-3.087-4.179-5.738-1.487c-8.146,8.271-18.964,9.356-29.486,10.186c-10.449,0.823-21.014,0.208-31.528,0.137
			C1338.732,684.752,1337.927,684.076,1337.121,683.713z"/>
		<path fill-rule="evenodd" clip-rule="evenodd" fill="#C19D81" d="M1403.082,827.651c-2.067-3.206-1.021-6.825-1.363-10.259
			c-2.979-4.954-1.266-10.294-1.296-15.49c1.073-3.734,1.174-7.644,1.938-11.432c1.182-5.861,2.979-7.452,8.11-7.628
			c-0.747,13.834-2.9,27.517-4.565,41.249C1405.726,825.564,1405.375,827.551,1403.082,827.651z"/>
		<path fill-rule="evenodd" clip-rule="evenodd" fill="#8A674C" d="M1399.543,729.388c0,14.077,0,28.153,0,43.099
			c2.096-3.612-0.17-7.086,1.993-9.748c3.22,4.07,0.968,8.84,1.691,13.23c-0.136,0.729,1.021,0.042,0.283,0.127
			c-0.324,0.038-0.455-0.105-0.339-0.41c1.286-3.404,2.23-7.223,7.298-6.125c0.017,2.926,0.034,5.852,0.051,8.777
			c-4.715,2.874-7.164,7.211-8.015,12.54c-0.207,1.297-0.247,2.597-1.787,3.104c-2.123,0.134-2.457-1.571-2.544-2.926
			c-0.271-4.249-1.75-8.366-1.876-12.534c-0.482-15.805-1.519-31.635,0.438-47.425c0.225-1.823,0.133-3.725,1.67-5.106
			C1399.649,726.835,1399.394,728.178,1399.543,729.388z"/>
		<path fill-rule="evenodd" clip-rule="evenodd" fill="#CDA88D" d="M1148.924,763.961c0.41,0.689,0.821,1.38,1.232,2.07
			c-0.392,6.175-0.369,6.222,7.631,14.775c1.306-2.003,0.209-3.504-0.64-5.04c-0.945-1.71-2.739-3.195-1.516-5.508
			c2.545-0.683,4.249,0.477,5.543,2.529l-0.006,0.002c1.027,4.845,0.448,9.794,0.92,14.688c0.343,3.545-1.645,4.652-4.841,2.647
			c-3.219-4.074-5.977-8.542-9.896-12.059c-0.633-0.899-1.298-1.795-0.729-2.987c-1.755-1.953-3.134-4.439-6.274-4.425
			C1141.484,766.218,1145.974,766.075,1148.924,763.961z"/>
		<path fill-rule="evenodd" clip-rule="evenodd" fill="#BC9A80" d="M1410.47,769.561c-4.616,0.643-5.153,5.235-8.002,8.441
			c-1.508-5.317-0.104-10.387-0.931-15.265c0.18-1.168,0.029-2.465,1.244-3.235c0.116,3.185,3.703,2.473,4.918,4.378
			C1408.833,765.659,1410.637,767.138,1410.47,769.561z"/>
		<path fill-rule="evenodd" clip-rule="evenodd" fill="#A8856A" d="M1401.667,792.835c0.073-5.502,1.092-10.572,5.87-14.173
			c1.074-0.811,1.918-0.863,2.983-0.324c-0.017,1.501-0.034,3.002-0.051,4.505c-5.039,1.227-6.378,4.881-7.004,9.569
			c-0.366,2.742,0.247,5.835-1.708,8.293C1399.404,798.108,1400.27,795.475,1401.667,792.835z"/>
		<path fill-rule="evenodd" clip-rule="evenodd" fill="#775437" d="M1226.799,671.614c14.329,5.386,29.017,9.774,44.002,12.589
			c13.145,2.468,26.487,4.133,39.889,5.18c17.354,1.355,34.71,0.867,52.068,1.01c0.235,3.084-2.233,3.643-4.281,4.606
			c-12.073,4.563-24.689,3.562-37.202,3.624c-3.138,0.015-6.277,0-9.414,0.024c-14.097-1.155-28.278-1.724-41.972-5.789
			c-12.927-3.657-25.669-7.866-37.481-14.388C1229.821,677.043,1225.826,676.197,1226.799,671.614z"/>
		<path fill-rule="evenodd" clip-rule="evenodd" fill="#C7A285" d="M1190.002,680.154c1.766-5.189,4.508-9.738,8.709-13.336
			c1.896-1.146,3.665-0.348,5.23,0.603c6.962,4.229,14.394,7.574,21.484,11.557c1.456,0.818,3.028,1.57,2.678,3.704
			c-2.97,1.652-5.488-0.707-8.251-0.917c-4.479-1.358-8.508-3.641-12.468-6.075c-0.787-0.504-1.626-0.904-2.475-1.275
			c-6.057-2.654-6.706-2.121-7.968,4.184c-1.386,6.929-0.539,13.706,0.737,20.438c2.293,12.104,3.274,24.073,1.1,36.423
			c-1.467,8.339-0.921,17.058-0.362,25.547c0.753,11.433-1.6,22.521-2.906,33.69c-2.364,20.2,1.976,38.217,15.092,53.927
			c0.96,1.148,1.982,2.223,2.055,3.831c-0.315,1.176-1.27,1.355-2.275,1.464c-2.504-0.168-4.362-1.458-5.867-3.366
			c-12.585-17.123-16.99-36.152-14.276-57.23c2.489-19.327,2.027-38.752,0.79-58.207c-0.706-11.108-1.551-22.116-3.397-33.116
			C1186.407,694.709,1187.195,687.217,1190.002,680.154z"/>
		<path fill-rule="evenodd" clip-rule="evenodd" fill="#C39E81" d="M1190.002,680.154c-2.463,12.771,0.031,25.213,1.826,37.833
			c1.501,10.55,0.839,21.389,1.665,32.058c1.487,19.205-1.856,38.177-2.298,57.281c-0.32,13.804,4.42,26.055,11.366,37.67
			c1.117,1.869,2.968,3.371,3.122,5.769c-0.266,0.157-0.531,0.312-0.797,0.47c-1.415,0.146-2.333-0.67-3.174-1.636
			c-13.551-13.283-17.057-30.282-15.59-48.013c2.01-24.293,3.224-48.377-1.514-72.486c-1.281-6.521-1.838-13.197-3.138-19.739
			c0.953-4.104,1.907-8.206,2.86-12.31C1186.491,691.51,1186.457,685.229,1190.002,680.154z"/>
		<path fill-rule="evenodd" clip-rule="evenodd" fill="#826147" d="M1226.799,671.614c3.926,6.47,10.998,8.167,17.225,10.821
			c8.184,3.489,16.743,6.098,25.142,9.085c-2.102,1.961-4.408,0.991-6.762,0.605c-7.123-1.164-13.513-4.69-20.515-6.198
			c-7.985-2.73-15.719-5.986-22.556-11.07c-1.922-2.6-4.839-3.864-7.423-5.596c-1.694-1.137-4.219-1.71-3.981-4.583
			C1214.839,665.302,1220.532,669.243,1226.799,671.614z"/>
		<path fill-rule="evenodd" clip-rule="evenodd" fill="#825F45" d="M1359.401,693.734c1.118-1.114,2.237-2.229,3.357-3.342
			c7.37-1.09,14.73-2.258,22.115-3.238c4.187-0.556,8.371-0.742,8.208,5.438c0.003,0-0.312,0.022-0.312,0.022
			c-1.613,1.681-3.801,1.847-5.707,1.319c-5.814-1.607-11.332-0.166-16.984,0.861
			C1366.535,695.438,1362.729,696.314,1359.401,693.734z"/>
		<path fill-rule="evenodd" clip-rule="evenodd" fill="#AE8A6F" d="M1220.14,673.729c4.94,4.613,11.535,6.116,17.298,9.184
			c1.276,0.68,2.605,1.257,3.911,1.88c0.39,0.525,0.354,1.021-0.103,1.488c-4.513,1.498-7.895-2.155-11.981-2.624
			c-0.529-0.238-0.954-0.6-1.283-1.076c-9.273-6.15-19.211-11.066-29.271-15.762c0.104-0.299,0.245-0.578,0.424-0.839
			c2.48-1.642,4.762-0.764,7.118,0.421C1210.932,668.752,1215.457,671.389,1220.14,673.729z"/>
		<path fill-rule="evenodd" clip-rule="evenodd" fill="#916E52" d="M1220.14,673.729c-5.562-0.105-9.505-4.092-14.294-6.057
			c-2.217-0.909-4.227-2.068-6.71-1.692c2.453-3.667,5.332-4.459,8.792-1.3C1211.27,668.679,1217.127,669.284,1220.14,673.729z"/>
		<path fill-rule="evenodd" clip-rule="evenodd" fill="#616060" d="M1340.501,680.362c-6.664,0-13.329,0.065-19.991-0.053
			c-1.393-0.024-3.865,0.974-3.831-1.58c0.024-1.712,2.137-1.682,3.626-1.694c5.713-0.046,11.382-0.388,17.091-0.961
			c10.049-1.008,20.135-1.618,30.105-3.35c1.082-0.187,2.218-0.16,3.319-0.088c1.312,0.088,2.911,0.438,3.243,1.686
			c0.445,1.674-1.027,2.606-2.442,3.228c-6.043,2.651-12.502,3.01-18.942,3.17c-4.05,0.101-8.114-0.332-12.171-0.525
			C1340.506,680.25,1340.504,680.306,1340.501,680.362z"/>
		<path fill-rule="evenodd" clip-rule="evenodd" fill="#464445" d="M1272.433,667.041c18.644,1.559,37.288,3.119,55.932,4.679
			c-19.25,6.547-37.88,4.708-56.082-2.952C1272.333,668.192,1272.383,667.617,1272.433,667.041z"/>
		<path fill-rule="evenodd" clip-rule="evenodd" fill="#6F6D6D" d="M1205.674,642.5c-0.747-0.738-1.494-1.476-2.242-2.213
			c0.196-0.182,0.392-0.365,0.587-0.549c2.683-1.043,4.508,1.218,6.787,1.745c4.966,2.313,9.723,5.063,14.852,7.045
			c18.814,6.221,37.856,11.471,57.626,13.573c3.69,0.393,7.308,1.004,10.899,1.9c0.596,0.334,0.899,0.843,0.912,1.525
			c-0.322,0.726-0.803,0.853-1.44,0.382c-20.044-0.809-39.344-5.687-58.723-10.362
			C1224.273,652.975,1215.367,646.967,1205.674,642.5z"/>
		<path fill-rule="evenodd" clip-rule="evenodd" fill="#676566" d="M1293.655,665.909c0.388-0.019,0.773-0.037,1.161-0.056
			c6.081-2.814,12.365-1.527,18.604-0.861c0.957,0.102,1.501,0.934,1.439,1.991c-3.353,0.013-6.704,0.023-10.057,0.036
			C1301.1,666.505,1297.187,668.114,1293.655,665.909z"/>
		<path fill-rule="evenodd" clip-rule="evenodd" fill="#777575" d="M1314.858,666.983c-6.566-2.431-13.38-0.442-20.042-1.129
			c-0.017-0.355-0.026-0.712-0.029-1.067c2.322-2.23,5.258-1.493,7.943-1.445c14.109,0.256,28.168,0.012,41.983-3.328
			c7.098-1.716,13.109-5.146,16.988-11.578c5.55-9.199,4.763-15.478-3.057-22.853c-7.904-7.454-17.1-12.965-27.011-17.333
			c-16.558-7.298-33.807-11.984-51.828-13.793c-7.84-0.889-15.673-0.915-23.506,0.035c-0.619,0.193-1.251,0.307-1.894,0.375
			c-4.422-0.069-8.691,0.926-12.984,1.8c-2.691,0.548-5.417,1.103-7.897-0.749c-0.47-1.988,1.171-1.998,2.288-2.259
			c6.359-1.489,12.774-2.694,19.26-3.507c8.699-0.274,17.396-0.319,26.083,0.004c0.62,0.004,1.249,0.031,1.869,0.074
			c4.513,1.387,9.25,1.407,13.866,2.174c0.573,0.032,1.137,0.131,1.689,0.281c3.194,1.116,6.498,1.715,9.863,2.035
			c17.397,4.834,34.04,11.354,48.827,21.969c6.022,4.322,11.75,8.979,16.203,15.017c6.764,9.171,5.555,17.608-3.45,24.681
			c-7.64,6-17.006,6.794-25.952,8.955c-7.082,1.711-14.353,0.363-21.44,1.645C1320.039,666.984,1317.449,666.983,1314.858,666.983z"
			/>
		<path fill-rule="evenodd" clip-rule="evenodd" fill="#676566" d="M1322.629,666.986c6.318-2.391,13.061-0.543,19.545-2.098
			c7.345-1.76,15.036-2.869,21.612-6.414c15.229-8.207,17.165-17.887,4.321-31.096c-10.57-10.871-23.54-18.314-37.537-23.968
			c-7.331-2.96-14.599-6.131-22.411-7.699c-3.277-1.032-6.728-1.281-10.024-2.229c-4.759-1.186-9.669-1.383-14.482-2.228
			c-0.37-0.001-0.741-0.002-1.112-0.003c-9.284-0.949-18.567-0.949-27.85,0c-7.064,1.451-14.365,1.776-21.174,4.449
			c-0.758,2.051-2.565,2.282-4.365,2.533c-2.246-0.273-4.581,1.263-6.77-0.304c1.101-2.916,4.074-2.237,6.175-2.999
			c9.741-3.526,19.836-5.195,30.199-6.011c19.515-1.536,38.444,1.155,57.017,6.802c23.345,7.098,44.457,18.022,60.847,36.708
			c0.245,0.278,0.543,0.518,0.749,0.82c8.759,12.872,10.833,19.134-5.952,26.095
			C1355.745,665.847,1339.349,667.363,1322.629,666.986z"/>
		<path fill-rule="evenodd" clip-rule="evenodd" fill="#6F6D6D" d="M1222.383,597.931c2.238-0.348,4.345-1.519,6.71-1.09
			c0.335,3.047-2.217,3.358-4.092,4.059c-2.182,0.815-4.135,2.171-6.437,2.667c-4.882,0.501-8.578,3.312-12.188,6.285
			c-3.452,3.575-7.826,6.115-11.086,9.912c-5.116,5.959-4.654,8.689,1.538,13.217c2.612,1.908,6.581,2.891,6.651,7.249l-0.048,0.058
			c-5.129-1.137-9.221-4.471-13.728-6.833c-4.821-2.525-5.119-6.091-2.052-11.25c4.9-8.241,12.836-13.071,20.775-17.706
			C1212.845,601.919,1217.342,599.287,1222.383,597.931z"/>
		<path fill-rule="evenodd" clip-rule="evenodd" fill="#A68367" d="M1146.622,775.079c0.386,0.728,0.771,1.456,1.154,2.185
			c-1.667,1.631-2.401,3.067,0.041,4.863c3.415,2.512,6.516,5.41,8.489,9.304c-0.513-1.167-0.487-2.18,0.431-3.093
			c3.214,2.786,4.644,2.31,4.446-2.189c-0.197-4.443-0.025-8.905-0.014-13.358c1.933,7.668,2.215,15.495,2.248,23.345
			c-2.165,7.569-1.49,15.005,1.056,22.353c-0.413,4.861,0.487,9.596,1.66,14.251c0.69,2.737,0.24,4.363-2.764,4.727
			c2.148-9.189-0.501-17.787-3.729-26.135c-1.601-4.143-3.284-8.262-3.936-12.59c-1-6.632-4.709-10.99-10.206-14.227
			c-0.476-0.281-1.09-0.4-1.461-0.773c-1.821-1.827-5.9-2.213-4.93-5.815C1140.124,774.146,1143.796,775.255,1146.622,775.079z"/>
		<path fill-rule="evenodd" clip-rule="evenodd" fill="#9C7F69" d="M1390.604,846.351c-6.295,11.506-13.401,22.577-22.103,32.31
			c-11.718,13.106-23.992,26.012-40.417,33.343c-20.781,9.274-42.167,9.991-63.25,1.108c-20.452-8.616-36.771-22.882-51.422-39.343
			c-6.629-7.447-14.371-13.982-20.051-22.208c-11.297-16.354-18.271-34.521-21.082-54.239c3.469-0.044,3.319,2.815,3.873,4.977
			c2.152,8.402,4.522,16.715,8.884,24.302c2.88,5.188,6.312,10.032,9.472,15.049c2.5,4.803,5.699,9.066,9.583,12.856
			c7.295,7.12,13.818,14.95,20.607,22.538c11.973,13.383,25.626,24.646,42.048,32.239c24.667,11.405,55.612,5.63,77.282-13.126
			c15.742-13.627,28.38-29.619,39.895-46.712c1.59-1.44,2.923-3.254,5.224-3.69C1389.702,845.78,1390.189,845.98,1390.604,846.351z"
			/>
		<path fill-rule="evenodd" clip-rule="evenodd" fill="#AB866A" d="M1184.51,827.406c-5.29-6.067-6.196-13.977-8.967-21.113
			c-1.154-2.972,0.238-6.88-3.265-8.972c-0.03-1.14-0.061-2.28-0.094-3.42c0.293-12.211-0.707-24.339-1.907-36.481
			c-0.967-9.78,3.208-18.732,5.646-27.941c2.325,0.486,2.491,2.578,2.967,4.268c2.221,7.874,3.345,15.891,4.145,24.068
			c1.165,11.908-0.149,23.696-0.225,35.534c-0.061,9.492,0.155,18.922,2.321,28.223
			C1185.586,823.521,1186.092,825.611,1184.51,827.406z"/>
		<path fill-rule="evenodd" clip-rule="evenodd" fill="#AB856A" d="M1390.604,846.351c-0.379-0.009-0.76-0.018-1.14-0.026
			c-1.016-2.312-0.003-4.41,0.899-6.393c6.073-13.337,6.504-27.209,3.967-41.338c-2.457-13.677-3.943-27.476-4.053-41.336
			c-0.077-9.725-1.787-19.169-3.253-28.66c-1.227-7.937-1.618-15.835-1.199-23.816c0.309-5.873-0.522-6.809-6.308-7.259
			c-2.19-0.171-4.486,0.265-6.464-1.131c-1.147-1.879,0.432-2.092,1.571-2.576c5.462-2.515,10.86,0.266,16.296,0.263
			c1.625-0.002,2.168,1.819,2.988,3.016c0.043,0.351,0.057,0.703,0.042,1.057c1.134,8.012,1.196,16.115,1.473,24.158
			c0.481,14.049,0.894,28.116,0.726,42.188c-0.155,13.131,2.465,26.045,3.333,39.072c0.891,13.375,2.262,27.137-5.57,39.416
			C1392.809,844.106,1391.708,845.229,1390.604,846.351z"/>
		<path fill-rule="evenodd" clip-rule="evenodd" fill="#9A775B" d="M1393.912,842.984c7.139-16.137,4.402-32.743,2.831-49.437
			c-0.872-9.268-2.093-18.54-1.889-27.947c0.37-17.066-0.423-34.115-1.797-51.148c-0.433-5.375,0.555-10.864,0.894-16.301
			c2.629,9.097,3.724,18.439,4.456,27.839c-0.447,11.945-1.419,23.86-1.228,35.845c0.161,10.03,1.703,19.912,2.288,29.884
			c0.11,1.86,1.072,1.531,2.201,1.116c0.029,2.623,0.06,5.247,0.089,7.869c-0.012,5.563-0.026,11.125-0.039,16.688
			c-2.384,4.771-0.198,10.207-2.257,15.068C1397.903,836.139,1397.579,840.428,1393.912,842.984z"/>
		<path fill-rule="evenodd" clip-rule="evenodd" fill="#666464" d="M1167.784,646.985c3.571,1.417,5.88,4.523,8.91,6.664
			c5.973,7.429,3.809,15.105,1.529,23.298c-2.401,8.623-3.291,17.66-4.991,26.487c-0.416,2.162-1.294,4.755-3.668,5.101
			c-1.992,0.291-2.673-2.231-3.59-3.766c-6.974-11.654-13.577-23.491-11.481-37.836c1.07-7.332,3.039-14.389,9.614-19.05
			C1165.258,647.067,1166.479,646.955,1167.784,646.985z"/>
		<path fill-rule="evenodd" clip-rule="evenodd" fill="#B79275" d="M1184.51,827.406c-3.843-14.844-4.272-30.052-3.134-45.122
			c1.32-17.501-0.437-34.489-4.703-51.36c-0.13-0.514-0.497-0.966-0.75-1.445c1.849-6.706,3.696-13.412,5.544-20.118
			c3.834,3.094,3.161,7.823,3.69,11.798c2.112,15.867,5.404,31.685,4.807,47.767c-0.435,11.754-2.19,23.452-2.972,35.2
			c-0.544,8.186,1.988,15.994,3.832,23.889c2.007,8.595,6.37,15.639,12.612,21.679c-2.466,1.55-3.732-0.445-5.075-1.836
			c-1.791-1.858-3.394-3.895-4.931-5.975C1190.016,837.329,1186.524,832.824,1184.51,827.406z"/>
		<path fill-rule="evenodd" clip-rule="evenodd" fill="#A68367" d="M1161.174,772.788c-1.882-0.708-3.764-1.417-5.646-2.125
			c-1.625,0.026-1.745-0.834-1.225-2.073c2.139,1.394,5.389-1.197,7.036,1.963C1161.286,771.298,1161.231,772.043,1161.174,772.788z
			"/>
		<path fill-rule="evenodd" clip-rule="evenodd" fill="#947056" d="M1393.909,697.094c-5.992-3.354-12.395-3.271-18.909-2.255
			c-5.353,0.757-10.558,2.173-15.775,3.55c-3.268,1.443-6.737,1.321-10.189,1.344c-9.513-0.367-19,0.971-28.489,0.523
			c-3.094-0.146-7.143,1.031-9.043-3.135c12.457-0.484,24.943,0.779,37.396-1.033c3.608-0.525,6.601-3.474,10.501-2.354
			c5.926,0.291,11.732-0.352,17.478-1.903c5.339-1.44,10.539,1.54,15.892,0.783C1393.601,693.992,1394.084,695.459,1393.909,697.094
			z"/>
		<path fill-rule="evenodd" clip-rule="evenodd" fill="#E5C0A6" d="M1154.304,768.59c0.409,0.691,0.815,1.382,1.225,2.072
			c0.908,3.35,5.089,5.079,4.504,9.195c-0.182,1.278,0.065,2.833-1.412,3.316c-1.193,0.39-2.005-0.801-2.646-1.639
			c-2.328-3.042-4.612-6.12-6.808-9.258c-1.624-2.323-1.391-4.488,0.989-6.246C1151.541,766.881,1152.5,768.419,1154.304,768.59z"/>
		<path fill-rule="evenodd" clip-rule="evenodd" fill="#8F6B4F" d="M1156.736,788.338c-0.248,1.988,1.874,3.729,0.284,6.419
			c-3.238-5.36-6.944-9.972-12.093-13.196c-0.895-0.56-1.71-1.552-1.047-2.814c0.842-1.602,2.441-1.392,3.896-1.482
			C1151.709,780.189,1155.033,783.608,1156.736,788.338z"/>
		<path fill-rule="evenodd" clip-rule="evenodd" fill="#9E7B62" d="M1311.503,697.121c5.768,2.929,12.217,1.969,18.066,1.728
			c6.583-0.272,13.211-0.304,19.809-0.651c-0.54,3.115-3.126,2.54-5.083,2.551c-3.27,0.018-6.442,0.539-9.625,1.135
			c-6.476,0.191-12.953,0.035-19.428,0.115c-11.068-1.347-22.292-1.322-33.25-3.666c-9.644-2.717-19.648-3.834-29.306-6.501
			c-4.061-1.443-9.017-1.158-11.406-5.857c0.022-0.394,0.045-0.786,0.068-1.181c7.612,0.152,13.895,5.069,21.353,5.955
			c2.142,0.253,4.268,0.813,6.464,0.772C1283.093,694.78,1297.281,696.087,1311.503,697.121z"/>
		<path fill-rule="evenodd" clip-rule="evenodd" fill="#B69882" d="M1210.131,853.031c0.742,0.001,1.483,0.001,2.227,0.002
			c2.327-0.318,4.376,0.809,6.565,1.248c0.519,0.111,1.021,0.261,1.524,0.426c5.13,0.607,8.869,3.406,11.936,7.384
			c2.942,3.817,5.467,7.94,8.505,11.681c14.493,17.836,33.597,27.038,56.182,28.748c7.481,0.566,14.529-2.565,20.183-7.915
			c1.06-1.003,2.178-2.254,1.666-3.884c-0.56-1.778-2.323-1.582-3.743-1.746c-3.676-0.423-7.307-1.201-11.039-1.19
			c-2.626,0.007-5.25-0.483-7.367-2.105c-1.491-1.142-3.657-2.54-0.877-4.67c8.377-0.849,16.751-1.771,25.028,0.674
			c4.956,6.172,9.114,7.073,16.666,3.699c4.833-2.159,8.458-5.806,12.012-9.556c7.878-6.156,15.149-12.82,19.629-22.041
			c1.265-2.604,3.554-4.208,6.621-4.351c2.446,0.23,4.59-1.86,7.127-0.948c0.307,0.49,0.425,1.023,0.359,1.598
			c-8.555,8.307-13.77,19.324-22.301,27.627c-18.045,17.561-37.542,32.843-63.511,36.373c-11.143,1.514-21.766-1.74-31.691-6.688
			c-8.499-4.236-16.215-9.737-23.028-16.421c-9.704-10.759-18.606-22.243-29.235-32.177
			C1211.951,857.289,1209.479,856.01,1210.131,853.031z"/>
		<path fill-rule="evenodd" clip-rule="evenodd" fill="#D1AC8F" d="M1209.018,674.799c3.351,2.586,7.074,4.422,11.143,5.571
			c0.359,0.619,0.254,1.146-0.31,1.582c-1.184,0.688-2.509,0.858-3.746,0.435c-5.163-1.769-5.659,1.404-5.473,5.152
			c0.376,7.561,1.482,15.057,2.372,22.561c0.72,6.073,0.894,12.136,1.085,18.211c0.03,3.473-3.08,4.693-4.988,6.719
			c-2.045,2.171-3.451,4.23-1.482,7.129c0.781,3.771-0.812,7.32-1.025,10.996c-0.308,5.323-0.13,10.49,5.436,13.458
			c1.55,1.854,0.161,3.364-1.015,4.248c-3.164,2.376-4.221,5.812-5.404,9.256c-1.532,1.032-3.312,1.933-3.503,4.03
			c-1.307,14.276-4.641,28.587,1.029,42.724c3.788,9.446,9.077,17.745,17.154,24.136c1.442,1.141,3.899,1.805,3.116,4.557
			c-1.479,0.242-2.963,0.58-4.359-0.311l-0.001-0.006c-11.162-4.918-15.759-15.083-20.056-25.376
			c-6.951-16.653-5.016-33.714-1.595-50.685c0.896-4.441,1.421-8.83,0.985-13.213c-1.246-12.516,0.106-24.713,3.138-36.87
			c2.412-9.668,2.373-19.51-0.198-29.163c-1.45-5.444-1.662-10.984-2.228-16.5C1198.226,674.965,1200.807,672.801,1209.018,674.799z
			"/>
		<path fill-rule="evenodd" clip-rule="evenodd" fill="#CFA98C" d="M1209.018,674.799c-8.352-0.463-8.737,1.115-8.257,9.875
			c0.627,11.451,5.191,22.33,3.984,34.04c-0.497,4.815-1.309,9.488-2.401,14.144c-2.625,11.186-4.295,22.334-2.347,33.919
			c1.445,8.592-2.88,16.606-3.858,25.022c-2.527,21.761,1.378,41.645,16.352,58.416c1.802,2.019,4.354,3.369,6.557,5.031
			c-2.445-0.086-4.75-0.595-6.689-2.213c-10.185-10.357-15.756-23.024-18.463-37.09c-1.094-5.681-1.188-11.604-0.29-17.14
			c3.392-20.896,1.727-42.056,3.723-62.884c1.477-15.4-0.221-29.931-2.646-44.749c-1.006-6.141,1.007-12.098,1.186-18.176
			c0.065-2.255,1.947-3.026,4.104-2.129C1203.007,672.129,1206.005,673.483,1209.018,674.799z"/>
		<path fill-rule="evenodd" clip-rule="evenodd" fill="#B79275" d="M1210.131,853.031c6.767,8.287,15.299,14.914,21.858,23.426
			c3.583,4.646,7.69,8.892,11.561,13.316c-3.287,1.723-4.692-1.212-6.327-2.84c-7.688-7.652-13.682-16.848-21.883-24.057
			c-2.621-2.303-4.976-4.896-7.724-7.082c-1.496-1.19-3.484-2.471-1.937-4.971l0.003-0.059
			C1207.166,851.52,1208.648,852.275,1210.131,853.031z"/>
		<path fill-rule="evenodd" clip-rule="evenodd" fill="#CFA98C" d="M1220.161,681.485c0-0.372,0-0.743,0-1.115
			c2.607,0.736,5.215,1.473,7.822,2.21c0.361,0.007,0.723,0.014,1.084,0.021c2.203,1.336,4.978,1.334,7.036,2.984
			c0.89,0.714,2.684,0.974,1.59,2.826C1230.788,688.787,1225.233,685.747,1220.161,681.485z"/>
		<path fill-rule="evenodd" clip-rule="evenodd" fill="#A58772" d="M1205.68,850.824c0.318,0.839,0.388,2.008,0.994,2.47
			c12.535,9.54,21.733,22.277,32.374,33.626c1.233,1.316,2.375,2.896,4.502,2.854c13.575,12.911,29.13,22.19,48.188,23.188
			c12.621,0.661,24.39-3.81,35.073-10.393c10.037-6.187,20.041-12.62,28.608-20.749c7.205-6.836,13.257-14.834,18.768-23.139
			c2.358-3.553,4.743-6.945,8.614-8.984c0.741-0.683,1.483-0.604,2.227-0.006c-8.824,14.381-18.973,27.722-31.137,39.459
			c-14.06,13.568-29.658,24.447-49.668,26.971c-16.934,2.136-32.654-1.681-47.331-10.301
			c-17.998-10.569-31.813-25.633-45.042-41.381c-5.576-6.639-12.938-11.721-17.132-19.571c-0.509-0.952-0.861-1.989-1.287-2.986
			c3.878,1.909,5.389,6.849,10.006,7.811C1203.923,850.586,1204.764,850.78,1205.68,850.824z"/>
		<path fill-rule="evenodd" clip-rule="evenodd" fill="#BA977F" d="M1237.998,688.149c-2.226-3.06-6.428-2.936-8.931-5.548
			c4.443-0.226,7.853,3.301,12.214,3.371c3.523,1.991,7.211,3.564,11.181,4.426c9.339,3.613,19.303,4.5,28.977,6.654
			c11.136,1.131,22.271,2.261,33.409,3.391c2.438,1.133,4.98,0.621,7.522,0.645c1.669,0.015,4.159-1.404,4.914,1.662
			c-0.742,1.062-1.796,1.662-2.994,2.058c-5.349,0.981-10.621-0.124-15.945-0.403c-15.686-0.821-31.086-3.322-46.357-6.819
			c-1.807-0.413-3.668-0.416-5.467-0.807c-0.558-0.156-1.13-0.298-1.706-0.395c-2.936-0.818-5.729-1.985-8.325-3.6
			c-2.198-2.288-5.508-2.38-8.035-4.028C1238.3,688.556,1238.149,688.353,1237.998,688.149z"/>
		<path fill-rule="evenodd" clip-rule="evenodd" fill="#929090" d="M1224.609,649.184c-5.292-1.219-9.676-4.396-14.459-6.713
			c-3.93-3.084-8.252-5.635-12.095-8.828c-5.515-4.584-5.957-8.253-1.338-13.736c7.482-8.881,17.422-14.121,27.852-18.781
			c7.724-3.452,15.931-4.64,24.026-6.476c11.441-0.013,22.776-1.835,34.336-0.187c21.831,3.115,42.662,8.895,61.41,20.724
			c13.847,8.738,16.949,21.618,9.397,35.379c-2.69,4.903-7.09,7.619-11.907,9.531c-8.173,3.244-16.71,4.534-25.507,2.959
			c-0.831-3.4,1.996-2.821,3.599-2.98c4.315-0.43,8.357-1.687,12.256-3.447c12.172-5.5,16.191-18.702,9.463-30.313
			c-4.403-7.602-11.285-12.166-18.872-15.798c-15.604-7.468-32.313-11.327-49.415-11.822c-22.516-0.649-44.399,2.73-63.125,16.925
			c-10.236,7.758-10.353,10.236-1.459,19.493c4.778,4.975,10.635,7.983,17.198,9.735c8.952,2.389,17.708,5.476,26.794,7.379
			c3.086,0.647,6.108,1.616,8.985,2.896c1.292,0.573,3.555,0.735,2.633,3.257c-5.139,1.885-9.736-1.013-14.354-2.123
			C1241.497,654.201,1233.046,651.681,1224.609,649.184z"/>
		<path fill-rule="evenodd" clip-rule="evenodd" fill="#888686" d="M1315.958,662.543c10.894,0.709,21.165-0.604,30.805-6.637
			c9.875-6.18,14.125-27.165,0.756-36.771c-12.538-9.01-26.563-14.27-41.006-18.933c-10.963-3.54-22.394-4.138-33.673-5.44
			c-8.217-0.948-16.496,1.762-24.832,0.949c1.298-3.531,4.819-0.397,6.684-2.229c0.371-0.004,0.741-0.004,1.112-0.003
			c8.17-0.876,16.342-0.873,24.512-0.002c16.626,0.597,32.208,5.566,47.512,11.54c11.951,4.667,23.053,10.88,32.319,19.898
			c9.183,8.936,7.641,23.243-2.726,30.908c-7.524,5.564-16.271,6.426-24.982,7.852c-12.512,2.047-25.105,0.682-37.654,1.111
			c-18.447-1.231-36.484-4.738-54.132-10.144c-5.391-1.651-11.275-1.962-16.046-5.46c7.449,0.277,14.241,3.316,21.343,5.059
			c6.204,1.521,12.199,4.089,18.767,3.847c0.276-0.046,0.554-0.093,0.83-0.144c3.975-0.218,7.774,1.261,11.742,1.201
			c0.599,0.08,1.177,0.225,1.751,0.406c6.573,2.605,13.441,1.062,20.169,1.438C1304.762,661.843,1310.432,661.414,1315.958,662.543z
			"/>
		<path fill-rule="evenodd" clip-rule="evenodd" fill="#828080" d="M1254.693,593.482c-1.691,2.35-4.992-0.121-6.684,2.229
			c-18.917,3.932-36.73,10.139-50.107,25.064c-4.551,5.08-4.03,8.247,1.421,12.344c3.822,2.873,8.155,5.15,10.827,9.354
			c-2.483,0.027-3.982-2.875-6.669-2.243c-2.647-3.392-6.164-5.687-9.883-7.678c-3.616-1.938-4.256-4.667-2.733-8.315
			c2.94-7.038,9.459-10.52,14.817-15.158c3.963-2.451,7.816-5.104,12.256-6.681c3.497-2.295,8.254-2.062,11.155-5.557
			c1.613,0.158,3.053-0.358,4.424-1.14C1240.737,596.483,1247.477,592.713,1254.693,593.482z"/>
		<path fill-rule="evenodd" clip-rule="evenodd" fill="#6F6D6D" d="M1254.692,591.252c9.283-1.822,18.566-1.825,27.85,0
			C1273.258,591.252,1263.975,591.252,1254.692,591.252z"/>
		<path fill-rule="evenodd" clip-rule="evenodd" fill="#828080" d="M1280.317,593.478c-8.17,0-16.342,0.001-24.512,0.002
			C1263.975,591.637,1272.147,591.644,1280.317,593.478z"/>
		<path fill-rule="evenodd" clip-rule="evenodd" fill="#6F6D6D" d="M1283.654,591.255c4.952-0.065,9.896-0.086,14.482,2.228
			C1293.185,593.543,1288.297,593.195,1283.654,591.255z"/>
		<path fill-rule="evenodd" clip-rule="evenodd" fill="#6F6D6D" d="M1298.136,593.482c3.522-0.071,6.94,0.328,10.024,2.229
			C1304.638,595.778,1301.221,595.378,1298.136,593.482z"/>
		<path fill-rule="evenodd" clip-rule="evenodd" fill="#777575" d="M1217.938,602.397c-3.96,2.455-7.636,5.435-12.256,6.681
			C1209.11,605.645,1212.887,602.853,1217.938,602.397z"/>
		<path fill-rule="evenodd" clip-rule="evenodd" fill="#B69174" d="M1385.028,849.691c-0.742,0.001-1.485,0.003-2.227,0.006
			c-0.005-0.379-0.011-0.757-0.015-1.134c-0.686-2.474,1.013-4.22,1.988-6.124c2.787-5.438,5.364-10.958,7.181-16.797
			c2.38-7.654,1.789-15.277-0.111-22.962c-1.806-7.3-2.164-14.878-3.877-22.194c-0.702-0.455-1.517-0.601-2.305-0.821
			c-0.821-0.238-1.567-0.602-2.154-1.245c-0.573-1.053-0.605-2.107-0.002-3.159c0.836-0.437,1.68-0.888,1.65,0.708
			c0.794-1.111-0.295-1.912-0.519-2.833c-0.724-2.976-2.658-5.18-4.814-7.258c-1.212-1.166-3.409-1.917-2.371-4.354
			c0.838-0.531,1.715-0.479,2.634-0.226c5.278,1.446,6.756,0.447,6.63-5.062c-0.12-5.315-1.396-10.471-3.137-15.497
			c2.798-3.341,0.727-5.839-1.575-8.103c-2.256-2.218-5.166-3.504-7.927-5.002c-1.14-0.621-3.797-0.823-1.964-3.369
			c4.275-1.131,5.814-4.153,5.796-8.296c-0.012-2.959,0.348-5.897,0.552-8.844c0.465-6.75-0.937-8.021-7.528-6.888
			c-7.271,1.25-14.516,2.651-21.902,3.155c-3.583-0.996-7.619,0.795-10.938-1.785c0.064-2.47,1.997-1.71,3.232-1.688
			c7.932,0.134,15.646-1.164,23.255-3.252c2.684-0.74,5.384-1.296,8.185-0.707c3.335,0.01,6.693-0.218,9.999,0.094
			c3.576,0.338,5.891,2.203,5.175,6.268c-1.558,8.855-0.696,17.639,0.744,26.403c2.141,13.024,3.555,26.036,3.344,39.335
			c-0.145,9.22,1.341,18.619,3.279,27.686c3.775,17.648,2.104,34.411-5.843,50.58
			C1387.986,847.447,1386.506,848.57,1385.028,849.691z"/>
		<path fill-rule="evenodd" clip-rule="evenodd" fill="#9E7B62" d="M1372.767,695.961c-2.556,0.654-5.087,1.481-7.791,1.125
			c-1.862,0.675-3.725,1.2-5.582-0.017c5.062-1.717,10.125-3.437,15.605-2.23C1374.087,694.876,1373.249,695.064,1372.767,695.961z"
			/>
		<path fill-rule="evenodd" clip-rule="evenodd" fill="#767474" d="M1160.013,661.414c0.002-0.37-0.013-0.74,0.005-1.107
			c0.358-6.996,3.42-11.521,7.45-11.016c4.435,0.557,10.188,8.1,9.083,13.016c-1.077,4.786-3.169,9.377-5.121,13.922
			c-1.021,2.382-2.822,2.551-4.789,0.591C1163.001,673.193,1160.006,666.412,1160.013,661.414z"/>
		<path fill-rule="evenodd" clip-rule="evenodd" fill="#AB856A" d="M1359.394,697.069c1.86,0.005,3.722,0.011,5.582,0.017
			c-5.633,3.467-12.133,2.205-18.196,3.325c-2.827,0.521-5.93-1.046-8.547,1.117c-0.954,0.96-2.024,0.979-3.17,0.394
			c-0.499-0.45-0.556-0.952-0.169-1.504c4.574-2.401,9.94,0.368,14.485-2.221C1352.777,698.35,1356.141,698.203,1359.394,697.069z"
			/>
		<path fill-rule="evenodd" clip-rule="evenodd" fill="#AE8A6F" d="M1281.439,697.053c-9.957-0.924-19.872-2.022-28.977-6.654
			C1262.083,692.777,1272.007,693.842,1281.439,697.053z"/>
		<path fill-rule="evenodd" clip-rule="evenodd" fill="#B69174" d="M1334.894,700.418c0.002,0.37,0.003,0.74,0.005,1.109
			c-0.931,1.25-2.332,1.644-3.727,2.059c-1.49,0.269-2.935,0.318-4.073-0.94c-1.878-1.854-4.115-1.246-6.202-0.701
			c-2.375,0.62-4.259-0.101-6.05-1.501C1321.53,700.435,1328.212,700.428,1334.894,700.418z"/>
		<path fill-rule="evenodd" clip-rule="evenodd" fill="#C5A893" d="M1219.048,855.252c1.487-0.002,2.973-0.004,4.46-0.006
			c2.962-2.62,7.359-0.48,10.309-3.128c4.511-2.534,8.843-5.379,13.366-7.882c3.354-1.857,6.729-4.019,10.922-2.975
			c5.35,3.572,2.891,7.92,1.223,12.197c-0.351,0.739-0.775,1.438-1.252,2.104c-0.319,0.426-0.708,0.783-1.161,1.066
			c-0.804,0.134-1.545-0.101-2.273-0.396c-6.275,0.929-9.547,5.551-6.294,10.164c4.208,5.97,7.613,12.7,13.741,17.207
			c3.953,2.907,8.281,4.806,13.105,5.63c2.642,0.45,5.157,0.138,7.523-1.135c1.132-0.609,2.485-1.175,2.64-2.613
			c0.208-1.941-1.522-2.391-2.839-2.879c-3.547-1.316-6.626-3.264-9.013-6.211c-1.421-1.753-2.821-3.573-0.978-5.9
			c0.697-0.298,1.416-0.434,2.147-0.188c7.512,2.512,13.496,7.66,20.134,11.679c1.562,3.359,4.832,4.312,7.864,4.284
			c4.676-0.041,9.161,1.18,13.774,1.284c1.838,0.042,3.946-0.272,4.721,1.975c0.686,1.99-0.528,3.686-1.754,5.011
			c-6.303,6.807-14.578,10.229-23.421,9.473c-20.55-1.759-38.52-9.897-52.719-25.214c-3.996-4.311-7.572-9.116-10.691-14.101
			C1229.315,859.473,1224.64,856.848,1219.048,855.252z"/>
		<path fill-rule="evenodd" clip-rule="evenodd" fill="#BE937E" d="M1294.81,881.986c-8.509-1.549-14.018-9.124-22.31-11.11
			c-4.785,0.2-6.818-4.524-10.692-5.966c-2.132-2.134-4.754-4.034-3.751-7.695c4.81-0.96,8.199,2.879,12.49,3.684
			c3.427,1.114,6.829,2.303,10.206,3.56c6.096,2.779,12.579,2.743,19.079,2.687c4.819-0.043,9.64-0.1,14.457,0.041
			c2.581,0.074,5.691-0.07,6.426,3.113c0.659,2.854-2.358,3.308-4.145,4.447c-0.333,0.212-0.572,0.472-0.942,1.727
			c5.534,1.35,9.873-0.54,14.029-3.804c3.429-2.691,5.91-6.726,10.616-7.656c2.716,3.233,0.633,5.871-1.184,8.397
			c-4.307,5.988-11.148,7.496-17.584,9.687c-6.593-2.329-13.411-0.601-20.108-1.087
			C1299.212,881.852,1297.006,881.986,1294.81,881.986z"/>
		<path fill-rule="evenodd" clip-rule="evenodd" fill="#CBA588" d="M1386.094,778.45c0.755-0.018,1.51-0.034,2.265-0.052
			c0.665,0.933,1.249,2.028,1.015,3.107c-1.829,8.383,1.061,16.19,3.133,23.996c3.078,11.591-0.037,21.988-5.312,32.012
			c-2.709,5.148-4.81,11.014-11.084,13.273c-3.088-0.305-4.721,1.557-5.938,4.01c-4.505,9.079-11.376,16-19.681,21.617
			c-0.409-0.389-0.668-0.861-0.801-1.408c-0.153-2.184,1.21-3.568,2.595-4.945c6.954-4.029,12.057-9.688,15.195-17.127
			c0.72-1.706,1.74-3.283,3.493-4.195c4.131-1.123,4.999-5.141,7.172-8.018c9.333-12.357,11.141-25.882,6.096-40.343
			c-1.765-5.056-2.068-10.09-1.326-15.288C1383.079,782.451,1384.415,780.367,1386.094,778.45z"/>
		<path fill-rule="evenodd" clip-rule="evenodd" fill="#CCA78B" d="M1350.48,875.289c0.004,0.375,0.007,0.75,0.011,1.125
			c-5.81,7.686-13.054,12.593-23.152,12.288c-3.808-0.115-5.856-1.688-5.833-5.605c1.893-3.282,5.575-3.165,8.501-4.491
			c5.785-2.623,10.478-6.13,10.476-13.316c0.429-2.797,1.232-5.164,4.888-4.269c1.536,2.434,1.88,5.201,2.068,7.974
			C1347.611,871.537,1348.472,873.671,1350.48,875.289z"/>
		<path fill-rule="evenodd" clip-rule="evenodd" fill="#C5A083" d="M1376.109,850.787c12.848-14.272,20.514-30.306,13.83-49.658
			c-2.681-7.758-2.276-15.076-1.58-22.73c1.259,0.601,2.171,1.543,2.156,2.974c-0.098,10.047,3.118,19.587,4.4,29.409
			c1.131,8.659-1.421,16.845-5.061,24.614c-2.111,4.505-4.697,8.786-7.068,13.168
			C1380.633,849.522,1378.681,851.086,1376.109,850.787z"/>
		<path fill-rule="evenodd" clip-rule="evenodd" fill="#DEBA9F" d="M1212.363,767.232c-5.102-0.403-8.752-7.1-7.539-13.699
			c0.726-3.947,1.331-7.916,1.99-11.876c7.843-5.75,17.205-5.969,26.285-7.12c2.547-0.322,5.163-0.097,7.745-0.074
			c6.291-0.56,11.021,2.387,15.028,6.818c3.464,3.835,7.012,7.656,9.436,12.254c2.112,4.007,0.083,8.096-4.308,7.82
			c-8.992-0.564-18.059,0.508-26.978-1.252c-1.832-2.779,0.917-2.707,2.139-2.941c3.798-0.729,7.421-2.215,11.309-2.544
			c1.277-0.107,2.703-0.338,3.18-1.778c0.604-1.824-0.88-2.671-2.065-3.477c-6.315-4.296-13.261-5.221-20.6-3.579
			c-2.049,0.459-3.577,1.866-4.757,3.581c-3.411,4.951-1.613,8.597,5.129,10.429c0.486,0.287,0.814,0.697,0.965,1.245
			c-3.292,3.11-7.565,4.076-11.695,5.355C1215.818,766.304,1214.297,768.095,1212.363,767.232z"/>
		<path fill-rule="evenodd" clip-rule="evenodd" fill="#DBB59A" d="M1246.882,691.516c2.605,1.134,5.211,2.268,7.816,3.4
			c-1.533,3.793-4.221,1.875-6.348,1.039c-5.713-2.243-11.605-3.914-17.448-5.723c-5.4-1.674-7.92-0.001-7.967,5.65
			c-0.076,9.275,3.744,17.249,9.313,24.482c1.813,2.354,5.488,1.228,7.082,3.918c-0.081,0.172-0.134,0.46-0.247,0.486
			c-8.427,1.941-16.563,5.467-25.488,4.672c-1.803-1.384-1.21-3.377-1.207-5.15c0.019-10.71-1.844-21.227-3.176-31.797
			c-0.184-1.463-0.174-2.954-0.184-4.432c-0.059-8.596-0.055-8.58,8.362-6.679c0.886,0.2,1.845,0.075,2.77,0.102
			c6.053,1.933,11.374,5.824,17.836,6.664c0.001,0-0.002,0.003-0.002,0.003C1240.812,689.658,1244.029,690.105,1246.882,691.516z"/>
		<path fill-rule="evenodd" clip-rule="evenodd" fill="#726C69" d="M1213.596,729.441c8.476-2.196,16.975-4.293,25.655-5.547
			c1.35-1.611,3.257-1.617,5.086-1.635c7.798-0.076,15.476,0.722,22.871,3.379c3.517,2.064,7.531,3.349,10.393,6.484
			c0.807,0.975,1.345,2.062,1.408,3.352c-0.012,0.997-0.306,1.884-1.005,2.617c-1.855,1.688-4.091,1.623-6.261,1.076
			c-8.061-2.029-16.535-1.076-24.559-3.519c-1.808-0.551-4.006-0.606-5.938,0.336c-11.891-0.623-23.203,2.272-34.431,5.671
			c-3.708-1.274-2.527-3.444-0.742-5.298C1208.431,733.908,1211.074,731.734,1213.596,729.441z"/>
		<path fill-rule="evenodd" clip-rule="evenodd" fill="#DBB699" d="M1234.634,853.021c-3.156,3.502-7.349,1.825-11.126,2.225
			c-11.536-7.646-18.684-18.397-23.022-31.421c-3.386-10.16-1.611-20.332-0.946-30.499c0.165-2.535,0.335-5.122,0.612-7.673
			c0.356-3.278,1.094-6.368,5.478-6.099c0.368,0.469,0.511,0.998,0.439,1.586c-0.096,0.727-0.491,1.513-0.217,2.18
			c3.828,9.344-0.227,18.494-0.576,27.736c-0.533,14.101,5.591,25.257,16.044,34.253
			C1225.25,848.692,1230.11,850.598,1234.634,853.021z"/>
		<path fill-rule="evenodd" clip-rule="evenodd" fill="#CFA98C" d="M1205.659,780.642c-0.004-0.362-0.014-0.726-0.029-1.087
			c-0.814-3.202-0.588-5.867,2.696-7.859c1.644-0.996,2.711-2.944,4.038-4.463c1.595-0.68,2.671-2.605,4.802-1.999
			c-0.123,2.904-2.704,4.1-4.194,6.059c-1.661,2.186-4.527,3.827-3.455,7.315c0.26,0.748,0.224,1.477-0.114,2.192
			C1208.091,782.231,1206.823,782.625,1205.659,780.642z"/>
		<path fill-rule="evenodd" clip-rule="evenodd" fill="#E9C5AB" d="M1267.967,727.192c-9.38-2.78-18.983-3.611-28.717-3.299
			c-4.773,0.644-8.147-1.423-10.462-5.464c-3.967-6.926-7.605-14.018-7.468-22.267c0.127-7.714,2.88-9.772,10.045-7.342
			c6.097,2.067,12.479,3.312,18.282,6.248c1.687,0.854,3.42,1.583,5.052-0.153c0.36-0.021,0.72-0.029,1.081-0.028
			c1.169,2.147,3.385,1.707,5.259,2.232c2.245,0.63,5.229,0.116,6.086,3.34c-2.862,2.269-5.983,1.222-9.017,0.604
			c-4.852-0.984-9.615-2.479-15.786-2.633c2.88,5.246,6.563,8.735,10.698,11.453c10.423,6.852,22.421,9.562,34.503,11.204
			c11.833,1.608,20.922-3.124,26.064-14.362c0.497-0.369,1.039-0.629,1.631-0.802c2.823-0.405,5.636-0.646,8.381,0.428
			c3.214,2.283,2.463,5.073,0.792,7.771c-7.187,11.604-18.23,16.649-31.289,16.421
			C1284.719,730.397,1276.316,728.58,1267.967,727.192z"/>
		<path fill-rule="evenodd" clip-rule="evenodd" fill="#D8B398" d="M1266.952,700.413c-1.919-1.634-4.251-1.992-6.651-2.271
			c-2.055-0.238-4.091-0.679-4.521-3.255c22.773,4.952,45.717,8.584,69.09,8.867c9.835-0.872,19.769,0.443,29.549-1.187
			c3.638-0.606,7.25-1.232,10.922-1.127c3.98,0.113,5.817,2.453,4.64,6.239c-1.312,4.212-3.058,8.294-5.335,12.119
			c-1.757,2.95-4.238,4.474-7.726,4.415c-1.831-0.03-3.697-0.118-5.456,0.587c-5.955,1.657-11.851,3.495-17.474,6.12
			c-4.578,2.051-9.563,2.936-14.14,5.012c-8.86,4.021-10.337,7.747-8.128,16.961c2.369,9.877,4.159,19.934,1.007,30.07
			c-3.209-0.508-2.659-3.149-2.644-5.156c0.034-4.832-0.391-9.592-1.243-14.341c-0.493-2.748-1.068-5.485-2.325-7.961
			c-1.596-3.144-3.32-6.657-7.634-6.133c-3.957,0.481-5.959,3.484-6.844,7.149c-1.343,5.569-2.74,11.133-2.459,16.959
			c0.134,2.768-0.034,5.521-0.891,8.235c-2.592,8.214-7.614,10.133-15.231,5.709c-0.214-2.812,1.921-3.375,3.9-3.777
			c4.607-0.939,6.522-4.078,6.745-8.33c0.457-8.698,0.245-17.411,0.11-26.118c-0.043-2.828-1.761-4.734-3.686-6.586
			c-1.491-1.433-3.949-2.59-2.443-5.432c0.029-0.738,0.058-1.477,0.086-2.215c5.584-0.711,10.477,1.934,15.47,3.584
			c5.045,1.668,9.281,1.198,13.717-1.536c8.066-4.972,16.608-9.021,25.469-12.404c6.467-2.47,12.358-5.959,17.553-10.545
			c1.496-1.321,3.418-2.884,2.437-5.129c-0.886-2.031-3.229-1.428-5.003-1.452c-9.98-0.138-19.985,0.378-29.901-1.265
			c-1.18-0.195-2.201-0.002-3.067,0.85c-0.376,0.021-0.754,0.042-1.13,0.063c-0.756,0.57-1.621,1.043-2.55,0.911
			c-13.481-1.92-27.318-1.188-40.49-5.421C1269.254,702.17,1267.852,701.724,1266.952,700.413z"/>
		<path fill-rule="evenodd" clip-rule="evenodd" fill="#C8A386" d="M1350.5,723.836c1.054-1.453,2.686-1.375,4.059-1.1
			c6.106,1.226,8.665-2.562,10.647-7.258c0.645-1.527,1.154-3.115,1.826-4.631c3.438-7.758,2.847-9.027-5.916-8.051
			c-9.163,1.021-18.24,2.514-27.516,2.139c-2.979-0.121-5.883-0.314-8.73-1.181c0.483-0.894,1.317-1.08,2.23-1.109
			c1.483-0.004,2.966-0.006,4.45-0.008c5.941-0.904,11.885-0.819,17.83-0.025c8.278-1.472,16.535-3.093,24.846-4.349
			c3.637-0.55,6.105,0.019,5.804,5.283c-0.278,4.861-0.804,9.773-0.731,14.704c0.069,4.704-2.427,7.593-7.707,6.736
			C1364.438,726.835,1357.426,726.104,1350.5,723.836z"/>
		<path fill-rule="evenodd" clip-rule="evenodd" fill="#CFA98C" d="M1246.882,691.516c-3.252-0.355-6.412-0.955-8.888-3.362
			C1241.248,688.505,1244.41,689.098,1246.882,691.516z"/>
		<path fill-rule="evenodd" clip-rule="evenodd" fill="#9B999A" d="M1315.958,662.543c-5.57,2.508-11.14-0.032-16.709,0.002
			c-6.962-1.627-14.246-0.202-21.167-2.225c-0.37-0.002-0.741-0.003-1.112-0.005c-4.029-1.043-8.209-1.258-12.253-2.227l0,0
			c-9.063-4.899-19.405-5.614-28.997-8.833c-10.113-3.395-21.086-4.8-28.562-13.644c-2.027-2.396-4.159-4.72-6.005-7.25
			c-1.944-2.667-1.23-5.114,1-7.438c11.735-12.227,26.555-18.55,42.772-21.714c7.737-1.51,15.756-2.362,23.625-2.227
			c14.225,0.246,28.249,2.489,41.823,7.059c9.339,3.145,18.28,6.934,25.92,13.418c7.877,6.686,11.228,15.188,9.566,25.157
			c-1.437,8.63-7.58,13.458-15.548,16.609C1325.616,661.086,1320.534,660.59,1315.958,662.543z"/>
		<path fill-rule="evenodd" clip-rule="evenodd" fill="#929090" d="M1278.083,660.32c7.135-0.012,14.3-0.321,21.167,2.225
			C1292.199,661.766,1284.777,664.494,1278.083,660.32z"/>
		<path fill-rule="evenodd" clip-rule="evenodd" fill="#929090" d="M1264.718,658.089c4.234-0.077,8.383,0.308,12.253,2.227
			C1272.738,660.395,1268.588,660.008,1264.718,658.089z"/>
		<path fill-rule="evenodd" clip-rule="evenodd" fill="#DCB79C" d="M1386.094,778.45c0.756,2.7-2.2,4.176-2.184,6.632
			c-2.715,7.721,0.535,14.861,2.283,22.098c2.42,10.012,1.139,19.384-4.178,28.173c-1.431,2.365-2.883,4.721-4.47,6.998
			c-5.142,7.382-7.419,8.042-15.575,4.162c-0.834-0.397-1.654-0.822-2.48-1.233c-4.087-2.194-8.146-4.443-12.364-6.4
			c-2.319-1.782-4.987-2.26-7.826-2.192c-4.749,0.115-7.033-2.627-7.826-6.946c-1.796-9.771-3.596-19.559-4.573-29.437
			c-0.419-4.235-2.092-9.52,3.988-11.837c2.587-0.056,5.031,0.24,6.521,2.77c-0.523,2.707-1.44,5.4-0.373,8.19
			c2.319,6.065,4.775,12.061,3.997,18.833c-0.25,2.174,1.34,3.807,3.22,4.861c5.093,2.857,9.138,6.822,13.001,11.179
			c2.604,2.937,5.716,6.681,10.296,5.377c4.747-1.353,6.308-5.995,7.686-10.259c1.138-3.521-0.001-6.953-0.985-10.367
			c-3.092-10.729-2.54-21.259,1.922-31.542c2.917-2.79,4.237-6.958,7.86-9.144C1384.722,778.394,1385.408,778.422,1386.094,778.45z"
			/>
		<path fill-rule="evenodd" clip-rule="evenodd" fill="#696360" d="M1350.5,723.836c7.057-0.098,14.101,0.039,21.092,1.151
			c5.497,3.026,12.054,4.61,14.756,11.356c1.085,2.709,0.875,4.255-2.443,4.204c-5.002-0.732-9.944-1.726-14.731-3.404
			c-10.686-1.298-21.306-0.95-31.906,0.897c-2.966,0.517-6.251,1.736-8.555-1.638c-0.655-4.054,2.967-4.987,5.114-6.998
			C1339.125,726.771,1344.703,724.978,1350.5,723.836z"/>
		<path fill-rule="evenodd" clip-rule="evenodd" fill="#EBEBEA" d="M1384.035,778.365c-1.906,3.274-3.256,6.969-6.81,8.997
			c-2.09,2.062-4.112,4.253-7.022,5.146c-2.178,0.668-4.366,0.91-5.85-1.448c-0.875-2.765,1.193-5.044,1.258-7.655
			c0.68-6.759-0.338-12.908-5.896-17.616c-1.191-1.01-3.112-2.159-2.301-4.005c0.734-1.665,2.814-1.463,4.469-1.539
			c1.293-0.059,2.59-0.055,3.886-0.011c6.443,0.7,12.052,3.101,16.087,8.348c1.412,1.837,2.977,3.813,2.079,6.478
			C1383.969,776.16,1384.001,777.262,1384.035,778.365z"/>
		<path fill-rule="evenodd" clip-rule="evenodd" fill="#C39E81" d="M1370.484,736.065c4.33,1.924,9.744,0.601,13.42,4.482
			c4.204,6.226,4.953,12.978,3.545,20.259c-0.901,4.664-2.754,5.084-6.253,2.374c-1.127-0.873-2.488-1.582-4.062-1.431
			c-0.05-0.268-0.101-0.534-0.153-0.802c4.612-9.259,2.394-16.144-6.851-21.323c-1.524-0.853-3.755-1.219-2.864-3.873
			C1368.375,735.497,1369.481,735.262,1370.484,736.065z"/>
		<path fill-rule="evenodd" clip-rule="evenodd" fill="#221A14" d="M1383.935,775.059c-3.337-7.938-9.634-11.975-17.819-13.523
			c-7.892-2.165-14.278,3.188-21.504,4.326c-2.122,0.709-3.866,2.58-6.379,2.111c-0.886-0.334-1.443-0.906-1.383-1.924
			c2.525-4.079,7.195-4.65,10.958-6.719c6.547-2.492,13.341-3.13,20.206-2.176c3.444,0.479,6.944,1.391,9.205,4.533
			c0,0-0.085,0.062-0.085,0.062c4.398,3.4,9.018,6.771,9.044,13.054C1386.196,778.956,1384.704,774.975,1383.935,775.059z"/>
		<path fill-rule="evenodd" clip-rule="evenodd" fill="#BA977F" d="M1349.38,702.612c-5.944,0.009-11.887,0.017-17.83,0.025
			c0.808-1.298,2.126-1.06,3.349-1.11c1.111,0,2.223,0.001,3.334,0.001C1341.934,702.035,1345.843,700.407,1349.38,702.612z"/>
		<path fill-rule="evenodd" clip-rule="evenodd" fill="#E4BFA5" d="M1205.659,780.642c1.052,0.582,2.1,0.882,3.128-0.047
			c2.521,1.994,5.83,3.305,6.217,7.16c2.453,12.097-1.164,24.376,1.116,36.483c0.555,2.949,1.192,5.905,2.9,8.358
			c7.637,10.975,12.808,12.38,22.668,6.915c5.377-2.98,11.052-5.246,16.944-7.008c3.831-1.146,7.687-1.256,11.563-0.515
			c4.181,0.801,5.806-1.372,6.224-5.081c0.494-4.371,0.067-8.548-2.764-12.152c-2.106-2.68-3.426-5.684-4.173-9.006
			c-1.751-7.794-1.794-7.729-9.828-8.37c-1.96-0.157-5.204,0.38-3.27-3.565c3.583-2.111,7.464-3.68,10.881-6.104
			c1.35-0.958,2.898-1.54,4.61-0.805c2.589,1.951,5.772,2.368,8.745,3.253c3.619,1.078,5.022-1.862,6.117-4.31
			c2.068-4.619,2.607-9.64,2.441-14.656c-0.121-3.628,0.817-7.005,2.056-10.25c1.442-3.778,3.979-6.909,8.435-7.039
			c4.617-0.135,6.886,3.206,8.385,6.955c1.939,4.848,2.462,10.012,2.598,15.193c0.127,4.833,1.316,9.475,2.208,14.185
			c1.257,6.636-1.787,10.888-8.438,11.731c-3.672,0.467-7.32,1.132-11.019,1.392c-4.594,0.322-7.424,2.63-8.732,7.163
			c-1.667,5.787-2.419,11.563-1.172,17.509c0.464,2.387,1.607,4.509,2.603,6.694c1.267,3.684-0.309,6.121-3.89,6.208
			c-8.067,0.198-16.099,1.236-24.179,0.952c-6.342,0.277-11.045,4.333-16.303,7.1c-2.407,1.266-4.734,2.685-7.097,4.035
			c-7.485-0.168-12.776-4.893-17.629-9.518c-7.559-7.205-11.849-16.55-13.357-26.845c-0.855-5.835,0.604-11.775,1.781-17.513
			c0.92-4.484,1.391-8.588-0.605-12.889C1204.007,784.498,1202.383,782.045,1205.659,780.642z"/>
		<path fill-rule="evenodd" clip-rule="evenodd" fill="#D1B49F" d="M1258.035,841.887c7.325-3.032,15.046-2.241,22.651-2.172
			c4.41,0.04,5.714-1.558,4.068-5.607c0.456-0.407,0.989-0.593,1.602-0.562c1.573,0.34,2.523,1.452,3.371,2.697
			c4.855,8.358,13.033,9.721,21.495,9.586c8.343-0.131,16.475,0.188,24.254,3.572c2.106,0.918,4.56,1.389,2.232,4.435
			c-11.426,2.598-22.904,4.26-34.606,2.044c-1.473-2.154,0.376-2.422,1.698-2.756c3.083-0.779,6.233-0.656,10.005-0.413
			c-5.552-0.837-10.368,0.388-15.221,0.803c-6.812,0.583-13.608,1.41-20.464,1.043c-2.132-0.114-3.995,0.551-5.781,1.62
			c-5.358,1.197-10.431,0.361-15.272-2.123C1258.695,849.996,1262.308,845.931,1258.035,841.887z"/>
		<path fill-rule="evenodd" clip-rule="evenodd" fill="#DCB79D" d="M1262.492,864.162c4.115,1.075,6.259,5.092,10.009,6.713
			c0.44,5.175,4.407,7.355,8.248,9.569c1.264,0.728,2.804,0.962,4.122,1.613c3.949,1.948,4.071,3.76,0.51,6.259
			c-5.715,4.013-14.916,2.91-22.871-2.512c-7.095-4.836-10.605-12.615-15.771-19.017c-2.246-2.782-1.389-6.582,0.965-9.291
			c2.017-2.32,4.615-4.178,8.017-2.165c-2.466,4.428-2.102,9.185-1.517,13.928c0.199,1.611,0.62,3.49,2.58,3.812
			c2.288,0.377,3.039-1.574,3.896-3.192C1261.63,868.083,1261.362,865.901,1262.492,864.162z"/>
		<path fill-rule="evenodd" clip-rule="evenodd" fill="#7A594B" d="M1270.317,862.062c-4.106-1.509-8.213-3.018-12.318-4.526
			c-0.94,0.215-1.312-0.241-1.323-1.121c0.078-0.393,0.158-0.784,0.236-1.178c3.801-1.543,7.221,0.704,10.823,1.111
			c20.904,2.365,41.752,1.673,62.602-0.801c5.246-0.622,10.013-2.521,14.865-4.306c1.604-0.383,3.167-0.554,4.347,0.968
			c0.228,1.002-0.248,1.753-0.877,2.447c-5.094,3.75-10.254,7.383-16.77,8.287c-4.444-0.165-8.903-1.342-13.323,0.226
			c-11.504,1.05-23.007,1.866-34.506,0.102C1279.555,862.201,1274.985,861.576,1270.317,862.062z"/>
		<path fill-rule="evenodd" clip-rule="evenodd" fill="#B78C76" d="M1346.149,851.975c-5.784,3.605-12.345,4.679-18.903,5.412
			c-22.981,2.566-45.951,3.914-68.673-2.178c-0.513-0.139-1.105,0.013-1.66,0.027c0.385-0.394,0.77-0.788,1.155-1.184
			c5.238-0.172,10.31,1.904,15.59,1.146c1.933-1.48,4.202-0.989,6.36-1.044c5.477-0.137,10.958,0.198,16.431-0.49
			c2.137-0.269,4.435-0.25,6.146,1.574c11.941,0.427,23.778-0.755,35.596-2.267C1340.642,851.037,1343.167,849.691,1346.149,851.975
			z"/>
		<path fill-rule="evenodd" clip-rule="evenodd" fill="#ECC9B2" d="M1256.676,856.414c0.44,0.373,0.882,0.747,1.323,1.121
			c1.497,2.209,2.995,4.418,4.493,6.627c1.689,4.076-0.478,7.137-2.88,9.951c-1.339,1.57-3.322,1.698-4.986,0.27
			c-3.51-3.016-2.711-16.205,1.095-19.051C1256.038,855.692,1256.357,856.054,1256.676,856.414z"/>
		<path fill-rule="evenodd" clip-rule="evenodd" fill="#B48973" d="M1332.651,861.939c5.688-1.63,10.304-5.367,15.529-7.906
			c1.625,3.568-0.259,5.436-3.275,6.752c-2.122,0.865-2.815,3.134-4.422,4.504c-3.16,2.785-6.373,5.515-9.47,8.369
			c-6.104,5.625-13.379,6.451-18.77,1.97c1.195-1.916,3.306-2.098,5.147-2.832c1.094-0.437,2.827-0.719,2.427-2.462
			c-0.34-1.475-1.799-1.689-3.142-1.693c-7.399-0.016-14.799,0.016-22.198-0.032c-4.962-0.032-9.917-0.199-14.165-3.321
			c0.717-0.871,1.704-1.229,2.76-1.455c11.345,0.17,22.694,0.297,34.033-0.185C1322.377,863.93,1327.405,861.942,1332.651,861.939z"
			/>
		<path fill-rule="evenodd" clip-rule="evenodd" fill="#877B75" d="M1282.518,865.239c-0.734,0.017-1.47,0.031-2.204,0.048
			c-3.628-0.161-6.653-2.189-9.997-3.227c0-0.75-0.762-2.473,0.283-2.056c3.898,1.554,8.271-0.38,11.961,1.917
			C1282.265,863.024,1283.197,864.143,1282.518,865.239z"/>
		<path fill-rule="evenodd" clip-rule="evenodd" fill="#CEB09A" d="M1344.905,860.785c1.232-2.182,3.406-3.906,3.275-6.75
			c0.34-0.355,0.682-0.712,1.023-1.066c2.53-3.959,6.753-5.968,10.207-8.863c14.858,5.576,11.719,5.238,20.789-7.836
			c6.729-9.698,7.283-20.08,4.317-31.096c-1.78-6.612-4.517-13.274-0.607-20.092c-0.523,6.462,0.81,12.643,2.703,18.768
			c3.973,12.858,1.709,24.692-5.939,35.648c-1.576,2.259-2.909,4.689-4.294,7.076c-1.316,2.268-3.069,3.618-5.84,3.107
			c-1.545,0.123-2.161,1.287-2.614,2.493c-2.57,6.846-6.232,12.778-13.057,16.208c-0.985,0.496-1.541,1.541-2.146,2.462
			c-0.635,1.538-2.396,2.509-2.243,4.444c-2.221,0.073-4.095-0.371-4.382-3.052C1345.688,868.422,1345.302,864.603,1344.905,860.785
			z"/>
		<path fill-rule="evenodd" clip-rule="evenodd" fill="#CCA78B" d="M1352.723,870.845c0.229-2.138,0.988-4.112,3.12-4.831
			c6.203-2.089,8.255-7.35,10.403-12.736c0.682-1.707,0.505-5.271,4.294-3.596C1366.514,858.347,1362.358,866.902,1352.723,870.845z
			"/>
		<path fill-rule="evenodd" clip-rule="evenodd" fill="#C9A388" d="M1278.085,737.184c0.34,0.835,0.455,2.142,1.057,2.431
			c6.766,3.251,7.159,9.053,6.814,15.5c-0.336,6.292-0.009,12.617-0.093,18.926c-0.099,7.534-1.876,9.632-9.259,11.063
			c-1.416,0.275-2.369,0.945-3.003,2.18c-1.71,0.332-1.667-0.859-1.721-1.971c4.937-10.995,2.274-16.008-9.618-18.06
			c-8.582-4.473-17.732-5.851-27.293-5.195c-1.996,0.136-4.091,0.218-5.733-1.36c-0.235-0.028-0.442-0.12-0.619-0.276
			c1.147-2.476,2.902-2.348,4.907-1.145c8.953,0.397,17.937-0.316,26.874,1.032c3.523,0.532,5.933-2.8,4.066-5.592
			c-4.076-6.094-8.417-11.984-14.331-16.592c-2.808-2.188-5.823-1.888-8.889-2.14c10.3-2.263,20.379,0.163,30.479,1.595
			C1273.978,737.898,1276.024,738.42,1278.085,737.184z"/>
		<path fill-rule="evenodd" clip-rule="evenodd" fill="#EBC7AD" d="M1233.526,759.276c-1.671,0.222-3.47-0.106-4.903,1.146
			c-3.735,0.182-7.729,0.875-8.441-4.559c-0.69-5.281,2.82-10.955,7.904-11.795c8.084-1.334,15.807-0.311,22.545,4.944
			c1.513,1.181,3.148,2.382,2.357,4.474c-0.701,1.855-2.428,2.637-4.494,2.632C1243.288,756.107,1238.571,758.483,1233.526,759.276z
			"/>
		<path fill-rule="evenodd" clip-rule="evenodd" fill="#201914" d="M1229.237,760.697c11.902-1.41,23.43-0.533,34.098,5.587
			c3.776,1.455,6.515,4.196,8.649,7.471c1.238,1.899,2.835,4.21-0.319,6.054c-0.538-0.137-1.132-0.297-1.443-0.737
			c-5.227-7.382-12.502-11.72-21.031-14.207c-9.711-1.262-19.153-0.943-27.739,4.566c-3.523,0.835-6.033,3.147-8.33,5.759
			c-1.187,1.35-2.156,2.956-4.131,3.316c-2.228,0.872-1.937-0.15-1.393-1.698c1.771-5.052,6.005-8.026,9.566-11.574
			C1221.189,763.721,1225.212,762.209,1229.237,760.697z"/>
		<path fill-rule="evenodd" clip-rule="evenodd" fill="#D8B499" d="M1314.844,707.071c0.166-1.224,0.678-2.272,2.085-1.999
			c10.455,2.033,21.007,0.381,31.5,0.909c2.526,0.128,6.112-0.712,6.861,2.061c0.745,2.76-1.506,5.539-3.914,7.429
			c-6.279,4.926-13.116,8.846-20.65,11.585c-9.057,3.293-17.407,8.067-25.729,12.849c-3.135,1.802-6.096,1.965-9.502,0.719
			c-5.701-2.087-11.543-3.79-17.324-5.654c-0.481-0.711-0.963-1.421-1.445-2.131c2.165-2.267,4.875-1.628,7.279-0.953
			c21.241,5.969,36.434-6.04,51.852-17.34c1.263-0.927,2.979-2.222,2.369-4.04c-0.721-2.151-3.016-1.717-4.796-1.885
			c-3.259-0.307-6.703,0.61-9.675-1.52C1320.785,707.091,1317.815,707.081,1314.844,707.071z"/>
		<path fill-rule="evenodd" clip-rule="evenodd" fill="#E5C1A7" d="M1323.755,707.101c4.071,0.01,8.146-0.085,12.212,0.071
			c2.058,0.079,4.285,0.734,5.085,2.775c0.733,1.873-1.294,2.897-2.44,3.969c-10.27,9.608-22.3,16.358-35.609,20.57
			c-6.066,1.919-12.472,0.09-18.604-1.058c-2.59-0.485-5.089-0.704-7.671-0.592c-2.922-1.881-5.842-3.764-8.762-5.645
			c7.592-1.755,14.958,0.472,22.26,1.733c11.544,1.994,28.58-6.07,33.744-16.622
			C1324.917,710.372,1324.755,708.797,1323.755,707.101z"/>
		<path fill-rule="evenodd" clip-rule="evenodd" fill="#EAEAEA" d="M1208.992,778.506c3.048-4.219,5.828-8.734,11.328-10.242
			c1.122,1.808,0.536,3.631-0.212,5.289c-1.644,3.642-1.825,7.473-1.843,11.355c-0.757,1.537-0.016,5.423-3.717,2.405
			c-1.337-2.738-5.529-3.03-5.757-6.719C1208.856,779.897,1208.924,779.201,1208.992,778.506z"/>
		<path fill-rule="evenodd" clip-rule="evenodd" fill="#F1CDB5" d="M1266.952,700.413c15.285,4.346,31.257,3.914,46.763,6.722
			c-0.556,7.357-9.867,15.648-18.868,15.428c-19.591-0.478-38.075-4.479-51.96-20.039c-1.287-1.443-3.529-2.635-2.104-5.091
			c1.378-2.375,3.338-0.472,4.991-0.34C1252.912,697.662,1259.611,701.071,1266.952,700.413z"/>
		<path fill-rule="evenodd" clip-rule="evenodd" fill="#D1AB8E" d="M1285.924,834.067c-0.389,0.013-0.78,0.026-1.169,0.04
			c-1.748-1.46-2.269-3.409-2.224-5.584c-1.261-4.215-0.536-8.423,0.352-12.534c1.465-6.784,5.371-11.075,12.659-12.052
			c4.193-0.562,8.429-1.241,12.48-2.563c5.813-1.896,7.16-4.64,5.559-10.484c-0.716-2.614-2.201-5.178-0.962-8.043
			c0.069-11.814,0.4-23.617-3.975-34.981c-1.62-4.205,1.814-8.771,8.208-12.248c5.355-2.91,11.415-3.877,16.975-6.213
			c-1.57,1.852-3.14,3.703-4.709,5.553c0.077,3.072-0.628,5.627-3.353,7.653c-4.4,3.27-4.926,8.57-6.021,13.404
			c-1.559,6.88-2.218,13.899-2.32,20.959c-0.035,2.44,0.47,4.8,1.24,7.096c0.591,1.758,1.157,3.847,3.507,3.691
			c2.438-0.161,2.474-2.372,2.791-4.194c0.375-1.518,1.093-2.601,2.907-2.279c0.794,0.387,1.188,1.088,1.473,1.872
			c0.125,2.327,2.403,3.894,2.273,6.319c-2.93,0.279-3.458,2.237-3.415,4.721c0.159,9.221,2.015,18.224,3.428,27.284
			c0.225,1.446,0.848,2.838,0.997,4.285c0.875,8.578,0.845,8.583,9.625,9.442c2.484,0.244,4.701,0.969,6.018,3.325
			c-7.136,1.623-14.145,1.929-20.746-1.991c-0.184-0.591-0.238-1.205-0.174-1.822c1.719-3.673,2.206-7.475,1.064-11.426
			c-0.486-2.121-1.402-4.09-2.202-6.099c-0.848-3.04-1.718-6.067-5.163-8.242c0.468,2.125,1.724,3.348,2.43,4.79
			c3.227,6.596,1.993,12.187-3.75,16.676c-7.667,5.992-23.063,4.219-28.627-3.07c-2.311-3.029-1.909-6.601-2.653-10.842
			c-3.625,4.176-3.672,8.178-2.859,12.342C1285.926,830.586,1287.343,832.226,1285.924,834.067z"/>
		<path fill-rule="evenodd" clip-rule="evenodd" fill="#D8B499" d="M1312.619,782.847c0.797,2.643,1.551,5.299,2.401,7.924
			c2.191,6.772,0.251,10.365-6.72,12.102c-3.39,0.845-6.812,1.589-10.251,2.204c-10.479,1.877-14.908,6.925-15.489,17.889
			c-0.098,1.849-0.022,3.705-0.027,5.559c-2.864-7.818-0.558-15.244,2.158-22.447c0.958-2.539,3.827-3.969,6.793-4.262
			c4.213-0.413,8.432-0.787,12.65-1.15c4.421-0.381,8.435-2.694,7.623-7.048c-1.959-10.489-0.739-21.445-4.758-31.588
			c-0.272-0.687-0.486-1.409-0.849-2.046c-1.495-2.633-3.133-5.266-6.693-4.92c-3.523,0.341-5.374,2.969-6.813,5.83
			c-2.911,5.789-1.9,12.33-3.404,18.398c-0.707,2.851-0.897,5.925-2.108,8.533c-1.726,3.715-4.176,7.025-8.813,2.954
			c-2.046-1.795-5.786-0.38-7.069-3.676c-1.399-1.757-1.323-3.538-0.087-5.337c2.829-0.08,2.009,1.608,1.519,3.139
			c-0.091,0.947,0.005,1.822,0.923,2.379c11.7,1.896,14.724-0.605,14.413-12.981c-0.166-6.571,1.424-12.797,2.554-19.106
			c0.732-4.085,3.745-6.813,7.821-7.826c4.299-1.068,6.581,2.137,8.366,5.063c3.749,6.15,4.013,13.267,4.768,20.214
			C1311.894,776.046,1310.377,779.652,1312.619,782.847z"/>
		<path fill-rule="evenodd" clip-rule="evenodd" fill="#A3A2A2" d="M1303.348,659.083c-19.167,0.86-35.636-5.335-52.008-11.687
			c-8.141-3.158-16.569-5.328-25.026-6.928c-9.645-1.826-14.213-8.697-18.767-15.885c-1.444-2.279,0.757-4.18,2.293-5.688
			c8.04-7.894,18.089-12.347,28.729-14.912c28.094-6.771,54.234-0.842,78.433,14.125c6.702,4.146,12.562,9.537,14.851,17.896
			c2.566,9.373-0.96,17.134-10.055,20.267c-3.139,1.08-6.322,2.246-9.579,2.709C1308.95,659.445,1305.561,659.083,1303.348,659.083z
			"/>
		<path fill-rule="evenodd" clip-rule="evenodd" fill="#E9C6AC" d="M1364.705,790.594c2.384,2.019,4.517,1.134,6.873-0.273
			c1.809-1.08,3.266-2.951,5.648-2.958c-3.848,11.5-4.893,22.957-0.587,34.692c2.155,5.872-1.654,15.183-6.749,18.759
			c-2.744,1.927-5.478,1.292-7.717-0.476c-2.849-2.25-6.074-4.018-8.104-7.402c-2.001-3.337-5.243-5.991-8.808-7.43
			c-5.37-2.164-6.755-5.91-5.802-11.025c0.851-4.566-1.83-8.119-3.014-12.124c-1.047-3.536-4.069-7.479,0.798-10.667
			c3.914-1.697,7.542,0.908,11.354,0.743c3.182,0.105,6.365-0.025,9.541,0.014C1360.722,793.25,1362.292,790.409,1364.705,790.594z"
			/>
		<path fill-rule="evenodd" clip-rule="evenodd" fill="#BFA18B" d="M1328.203,835.194c0.2,1.52,1.077,2.334,2.597,2.204
			c5.884-0.505,11.643,0.794,17.467,1.138c4.378,0.527,7.624,3.323,11.145,5.569c-1.974,4.6-6.482,6.279-10.206,8.863
			c-0.677-1.386-1.945-0.951-3.057-0.995c-2.777-0.667-5.228,1.271-7.957,1.001c-5.27-2.854-10.622-5.576-16.784-5.635
			c-8.58-0.082-17.156,0.871-25.442-2.883c-3.972-1.801-5.614-5.074-7.795-8.183c0.649-0.634,1.442-0.86,2.33-0.819
			c2.032,0.314,3.674,1.403,5.246,2.634c5.177,5.173,12.199,3.478,18.372,4.91c4.516,0.756,7.583-1.562,10.206-4.813
			C1325.379,836.876,1325.703,834.629,1328.203,835.194z"/>
		<path fill-rule="evenodd" clip-rule="evenodd" fill="#6C6353" d="M1348.145,793.824c-3.634-0.712-7.27-1.424-10.904-2.135
			c-1.608-1.42-3.625-1.793-5.627-2.211c-1.765-1.482-3.586-2.929-3.227-5.629c1.458-1.579,0.438-3.482,0.675-5.223
			c0.506-3.701,1.333-7.17,5.611-8.322c1.896,1.495,2.741,3.502,2.846,5.866c-2.448,8.187,2.156,14.3,10.588,14.12
			c1.954-0.042,3.976-1.066,5.87,0.292C1353.837,794.912,1350.012,792.603,1348.145,793.824z"/>
		<path fill-rule="evenodd" clip-rule="evenodd" fill="#B79276" d="M1325.904,783.928c1.543,3.623-0.78,5.323-3.565,6.137
			c-2.86,0.836-3.781-1.848-4.567-3.802c-1.748-4.349-2.281-8.977-1.765-13.605c0.916-8.212,1.458-16.494,4.226-24.41
			c0.88-2.519,1.76-5.155,4.063-6.409c2.91-1.584,3.767-4.212,4.824-6.881c1.251,3.782,4.149,2.338,6.442,1.777
			c10.92-2.67,21.991-1.76,33.03-1.618c0.636,0.009,1.263,0.62,1.893,0.949c-1.102,0.026-2.203,0.052-3.305,0.077
			c-3.351,2.346-7.166,1.201-10.76,1.254c-3.428,0.05-5.848,1.059-7.978,3.91c-3.642,4.876-7.737,9.413-11.96,13.82
			c-1.117,1.166-2.541,2.676-1.61,4.387c1,1.837,2.979,0.739,4.561,0.721c2.639-0.029,5.382-1.979,7.889,0.432
			c-3.359,1.893-6.719,3.784-10.079,5.677c-0.356,0.39-0.757,0.725-1.206,1.001c-3.811,1.69-7.301,4.402-12,2.772
			c-2.097-0.727-2.854,1.134-3.148,2.905C1320.099,777.779,1320.75,781.894,1325.904,783.928z"/>
		<path fill-rule="evenodd" clip-rule="evenodd" fill="#585F5F" d="M1343.844,764.941c7.253-2.253,14.242-6.232,22.271-3.406
			c-2.532,0-5.066,0-9.046,0c8.321,6.176,11.643,13.272,9.988,22.312c-3.819-1.623-2.246-5.968-4.302-8.479
			c-2.987-5.929-7.798-8.871-14.431-8.94C1346.708,766.411,1345,766.451,1343.844,764.941z"/>
		<path fill-rule="evenodd" clip-rule="evenodd" fill="#898F85" d="M1363.831,774.936c2.59,2.422,1.419,6.205,3.228,8.912
			c0.193,2.588-1.643,4.47-2.351,6.745c-1.873,0.783-2.119,4.088-5.038,3.243c-1.129-2.331,1.599-3.372,1.773-5.372
			c-2.225,0.657-4.159,3.294-6.758,1.005c-0.168-2.33,1.577-3.405,3.034-4.673c2.339-1.429,2.299-3.793,2.576-6.13
			C1360.528,776.691,1360.383,774.011,1363.831,774.936z"/>
		<path fill-rule="evenodd" clip-rule="evenodd" fill="#CDA88B" d="M1347.321,760.666c-3.636,0.456-7.261,1.065-10.91,1.326
			c-3.796,0.271-5.581-1.463-3.037-4.872c3.511-4.708,8.284-8.616,11.127-13.651c5.543-9.816,14.404-7.189,22.678-7.327
			c3.565,2.628,7.894,4.042,10.785,7.796c3.898,5.062,3.77,13.682-0.745,17.75C1367.409,756.759,1357.397,757.766,1347.321,760.666z
			"/>
		<path fill-rule="evenodd" clip-rule="evenodd" fill="#876F48" d="M1363.831,774.936c-2.876,0.619-2.154,2.945-2.156,4.798
			c-0.002,2.899-0.44,5.429-3.68,6.421c-0.914-1.391-0.306-2.852-0.194-4.287c0.778-9.949-5.178-14.787-14.748-11.96
			c-1.742,0.305-3.311-0.104-4.729-1.137c-0.426-0.48-0.444-0.979-0.057-1.492c1.859-0.779,3.717-1.557,5.576-2.337
			C1352.386,764.51,1360.214,765.512,1363.831,774.936z"/>
		<path fill-rule="evenodd" clip-rule="evenodd" fill="#4C4034" d="M1338.267,767.278c-0.046,0.289-0.067,0.581-0.063,0.874
			c-0.237,1.745-1.23,2.624-2.998,2.614c-3.246,1.815-4.714,4.589-4.852,8.3c-0.063,1.725,1.132,4.217-1.967,4.784
			c-0.137-0.694-0.272-1.389-0.41-2.083c-2.671-1.994-2.228-4.404-0.853-6.874c2.13-3.825,5.29-6.587,9.128-8.619
			c0.334-0.027,0.663-0.006,0.99,0.068C1337.583,766.654,1337.925,766.966,1338.267,767.278z"/>
		<path fill-rule="evenodd" clip-rule="evenodd" fill="#F1CEB5" d="M1214.547,787.313c2.705,1.27,2.166-0.981,2.491-2.294
			c3.016,0.986,2.635,5.468,6.144,5.943c3.23,1.543,6.95,1.479,10.147,3.106c6.122,1.155,12.254,0.771,18.377,0.15
			c1.334-0.814,2.009-2.552,3.793-2.742c1.144,0.498,1.474,1.446,1.434,2.6c-1.133,2.731,1.014,2.366,2.245,2.034
			c2.407-0.648,4.679-0.146,7.042,0.021c3.167,0.226,4.002,1.823,4.113,4.691c0.188,4.855,1.391,9.262,4.7,13.258
			c4.112,4.965,3.764,10.925,2.062,16.898c-0.799,2.805-2.771,3.689-5.065,2.956c-9.208-2.943-17,1.279-25.007,4.552
			c-4.268,1.743-8.011,4.598-12.633,5.637c-8.777,1.975-18.627-10.313-19.779-19.002c-0.798-6.027-1.515-11.924-0.225-18.111
			c1.123-5.391,0.185-11.057-1.143-16.484C1212.876,789.029,1212.098,787.578,1214.547,787.313z"/>
		<path fill-rule="evenodd" clip-rule="evenodd" fill="#F0CCB4" d="M1299.901,797.334c-7.756-0.077-9.314-2.101-7.808-9.209
			c1.03-4.863,1.771-9.788,2.783-14.656c0.54-2.597,1.565-5.37,4.398-5.896c3.284-0.609,4.214,2.512,5.276,4.78
			c2.879,6.157,2.854,12.965,3.346,19.487C1308.286,797.009,1303.642,797.539,1299.901,797.334z"/>
		<path fill-rule="evenodd" clip-rule="evenodd" fill="#EDEDEC" d="M1256.934,794.077c-0.858-0.434-1.102-1.206-1.147-2.087
			c-0.619-4.967,2.104-9.895,0.165-14.871c-1.433-3.561-2.981-7.018-5.708-9.871c-0.791-0.829-2.59-2.308,0.011-3.415
			c5.282,1.866,10.603,3.666,14.892,7.495c2.62,2.339,4.734,5.069,6.182,8.29c0.757,0.651,0.764,1.38,0.221,2.163
			c-0.1,1.774-0.2,3.549-0.301,5.322C1266.344,789.156,1262.682,793.756,1256.934,794.077z"/>
		<path fill-rule="evenodd" clip-rule="evenodd" fill="#B59073" d="M1290.347,836.313c-0.727-0.013-1.454-0.026-2.179-0.039
			c-0.748-0.735-1.496-1.472-2.244-2.207c-2.45-5.431-3.356-10.93-0.629-16.546c0.709-1.461,1.249-3.457,3.333-3.19
			c2.483,0.316,1.607,2.538,1.668,4.032c0.421,10.347,7.57,16.191,18.154,14.207c2.844-0.533,5.87-0.254,8.612-1.783
			c7.916-4.417,9.043-12.316,2.795-20.117c-0.855-1.067-3.534-1.969-1.31-3.853c1.635-1.386,3.025,0.138,4.293,1.269
			c2.751,2.455,4.572,5.327,4.387,9.172c-0.024,0.268-0.048,0.535-0.072,0.803c1.85,12.659-6.734,17.111-15.758,18.354
			c-8.407,1.158-16.133-0.66-22.913-6.979C1288.069,832.428,1291.353,833.816,1290.347,836.313z"/>
		<path fill-rule="evenodd" clip-rule="evenodd" fill="#E7C5AF" d="M1302.594,855.239c-9.646-0.013-19.291-0.026-28.937-0.04
			c0.416-2.789,2.617-2.178,4.345-2.146c10.188,0.196,20.278-0.778,30.353-2.178c3.877-0.538,7.715,0.036,12.141,2.067
			C1314.302,855.727,1307.985,852.414,1302.594,855.239z"/>
		<path fill-rule="evenodd" clip-rule="evenodd" fill="#9A938E" d="M1282.518,865.239c0.396-1.101-3.49-2.257,0.043-3.317
			c12.239,1.253,24.477,0.592,36.714-0.026c0.631-0.425,1.301-0.7,1.943-0.083c0.697,0.672,0.295,1.332-0.24,1.818
			c-0.811,0.734-1.963,0.926-2.816,1.621C1306.281,865.248,1294.399,865.244,1282.518,865.239z"/>
		<path fill-rule="evenodd" clip-rule="evenodd" fill="#8B7A72" d="M1318.162,865.252c-0.511-1.412,3.418-1.35,1.114-3.355
			c4.467-2.521,8.918-0.367,13.375,0.042C1327.925,863.498,1323.284,865.422,1318.162,865.252z"/>
		<path fill-rule="evenodd" clip-rule="evenodd" fill="#B18E74" d="M1271.55,781.781c-0.074-0.721-0.147-1.441-0.221-2.163
			c2.719-2.39,0.362-4.424-0.847-5.991c-2.071-2.688-4.732-4.921-7.145-7.343c6.803-0.433,10.502,4.028,13.007,9.214
			c1.792,3.708-1.245,6.711-3.666,9.406C1272.475,783.801,1272.615,782.574,1271.55,781.781z"/>
		<path fill-rule="evenodd" clip-rule="evenodd" fill="#4C5458" d="M1250.255,763.833c1.391,4.553,5.824,7.393,6.844,12.154
			c0.407,1.558,0.794,3.114-0.417,4.802c-3.125-0.868-3.081-4.233-4.875-6.029c-7.518-9.453-14.308-10.707-23.878-4.384
			c-0.548,0.61-1.133,1.18-1.75,1.717c-3.922,3.724-3.588,8.456-3.163,13.216c0.203,2.275,1.351,4.645-0.617,6.724
			c-4.189-0.504-4.06-4.308-5.361-7.016c-0.96-5.985,1.53-11.296,3.282-16.753C1229.614,762.169,1239.794,762.054,1250.255,763.833z
			"/>
		<path fill-rule="evenodd" clip-rule="evenodd" fill="#E1BCA0" d="M1305.05,829.787c-5.18,0.446-9.029-1.524-11.522-6.094
			c-1.863-3.413-0.933-6.467,1.423-9.188c3.579-4.135,7.983-6.535,13.628-5.691c1.434,0.215,2.854,0.809,4.173,1.451
			c4.41,2.152,8.317,5.842,8.097,10.405c-0.234,4.815-5.104,7.298-9.768,8.495C1309.145,829.664,1307.064,829.598,1305.05,829.787z"
			/>
		<path fill-rule="evenodd" clip-rule="evenodd" fill="#A98468" d="M1336.252,766.274c-2.267,2.819-5.153,5.034-7.307,8.026
			c-1.822,2.531-2.255,4.766-0.967,7.468c-1.34,0.099-1.917,0.929-2.074,2.159c-2.796,0.273-5.705-0.186-6.227-3.229
			c-0.7-4.104-1.394-8.49,1.495-12.26c0.297-0.388,1.192-0.865,1.339-0.741C1327.61,771.987,1331.706,766.922,1336.252,766.274z"/>
		<path fill-rule="evenodd" clip-rule="evenodd" fill="#B59073" d="M1328.203,835.194c-2.865,3.792-5.211,8.141-10.487,9.246
			c-1.064,0.223-2.021,0.878-2.871-0.31c-0.37-2.182,1.562-2.25,2.748-2.736c2.512-1.031,3.665-2.916,4.088-5.437
			c4.007-5.498,6.244-11.502,5.313-18.421c0,0,0.232-0.276,0.233-0.277c1.521,1.592,2.191,3.504,2.122,5.689
			c1.124,3.864,0.247,7.525-1.125,11.138C1328.214,834.455,1328.208,834.825,1328.203,835.194z"/>
		<path fill-rule="evenodd" clip-rule="evenodd" fill="#BFA18B" d="M1328.224,834.087c0.375-3.713,0.75-7.426,1.124-11.138
			C1330.835,826.85,1331.841,830.701,1328.224,834.087z"/>
		<path fill-rule="evenodd" clip-rule="evenodd" fill="#C0C2B1" d="M1355.123,789.571c3.42,0.371,5.148-3.037,8.352-3.705
			c0.555,3.593-2.589,5.346-3.806,7.97c-3.84-0.004-7.682-0.007-11.523-0.011c1.874-1.126,4.655-0.58,5.755-3.129
			C1354.021,790.011,1354.401,789.606,1355.123,789.571z"/>
		<path fill-rule="evenodd" clip-rule="evenodd" fill="#805D42" d="M1326.994,817.537c2.304,7.121,0.873,13.365-4.391,18.711
			c-6.631,6.988-18.417,7.983-27.833,2.352c-1.474-0.762-2.948-1.523-4.422-2.286c-0.421-0.603-0.792-1.248-1.272-1.798
			c-1.835-2.1-4.642-4.962-2.546-7.08c2.141-2.164,3.61,1.847,5.265,3.166c6.946,5.537,21.829,6.464,28.872,1.369
			c3.215-2.326,5.618-5.336,5.403-9.764C1325.993,820.643,1325.417,818.832,1326.994,817.537z"/>
		<path fill-rule="evenodd" clip-rule="evenodd" fill="#A3856F" d="M1294.769,838.6c9.644,3.537,18.921,2.756,27.834-2.351
			c0.961,6.12-4.675,5.744-7.759,7.882c-5.126,0.406-10.072-1.012-15.091-1.607C1297.628,842.271,1295.819,840.691,1294.769,838.6z"
			/>
		<path fill-rule="evenodd" clip-rule="evenodd" fill="#0A0807" d="M1355.123,789.571c-0.408,0.376-0.816,0.751-1.224,1.125
			c-9.352,2.101-13.86,1.075-17.167-4.589c-1.874-3.209-3.86-6.904,0.484-10.032c2.681-1.597,5.597-3.003,5.593-6.808
			c5.953-4.444,15.186-0.391,16.612,7.313c0.619,3.342,0.081,6.533-1.425,9.571C1356.863,787.146,1355.422,787.88,1355.123,789.571z
			"/>
		<path fill-rule="evenodd" clip-rule="evenodd" fill="#EDECE9" d="M1342.81,769.268c1.557,5.535,0.382,6.965-5.593,6.808
			c-1.229-1.558-2.552-3.081-2.011-5.309c1-0.871,1.999-1.742,2.997-2.614C1339.867,767.995,1341.368,768.506,1342.81,769.268z"/>
		<path fill-rule="evenodd" clip-rule="evenodd" fill="#DBB69B" d="M1361.616,757.222c-5.289,0-10.578,0.001-15.866,0
			c-1.518-0.001-3.167-0.074-3.679-1.771c-0.463-1.533,0.418-3.092,1.564-3.901c5.578-3.942,11.26-7.69,18.526-7.726
			c3.196-0.016,5.774,1.088,7.822,3.424c1.572,1.792,3.324,3.648,2.291,6.358c-1.079,2.833-3.429,3.638-6.229,3.597
			c-1.477-0.023-2.954-0.005-4.431-0.005C1361.616,757.206,1361.616,757.214,1361.616,757.222z"/>
		<path fill-rule="evenodd" clip-rule="evenodd" fill="#8A714A" d="M1222.398,792.032c0.116-4.044-1.501-7.864-1.279-11.989
			c0.212-3.948,1.333-7.093,4.621-9.354c1.114,2.291,1.418,4.739,1.425,7.254c-2.261,8.838,2.533,14.789,11.55,14.616
			c2.039-0.039,4.669-2.003,6.155,1.192c-3.727,3.742-8.201,1.367-12.365,1.524C1229.344,793.549,1225.403,794.249,1222.398,792.032
			z"/>
		<path fill-rule="evenodd" clip-rule="evenodd" fill="#8B8D7E" d="M1252.454,773.802c2.627,1.052,1.996,4.395,4.166,6.169
			c0.187-1.551,0.333-2.768,0.479-3.983c2.239,5.552,1.267,10.841-1.312,16c-0.739,1.034-1.478,2.065-2.216,3.097
			c-1.1,0.773-2.713,0.327-2.311-0.637c1.626-3.895-1.349-4.053-3.523-4.979c-0.345-1.871,0.669-3.209,1.75-4.523
			c1.728-1.524,1.375-3.606,1.503-5.562C1251.119,777.431,1250.785,775.352,1252.454,773.802z"/>
		<path fill-rule="evenodd" clip-rule="evenodd" fill="#C0BDA9" d="M1248.178,789.576c2.172,0.431,3.966-0.658,5.385-1.85
			c2.436,2.852-4.114,4.768,0.009,7.357c-7.006,1.963-14.032,1.703-21.067,0.191c4.092-0.621,8.816,2.04,12.18-2.352
			C1245.122,791.05,1246.222,789.867,1248.178,789.576z"/>
		<path fill-rule="evenodd" clip-rule="evenodd" fill="#856D46" d="M1252.454,773.802c-0.007,2.726,0,5.451-0.025,8.176
			c-0.019,1.907-0.258,3.697-2.654,4.066c-1.241-1.82-0.72-3.948-1.041-5.93c-1.232-7.592-8.724-11.638-15.061-8.128
			c-2.558,0.09-4.743-0.854-6.707-2.412C1235.059,761.974,1246.051,763.797,1252.454,773.802z"/>
		<path fill-rule="evenodd" clip-rule="evenodd" fill="#ECEAE8" d="M1226.965,769.574c2.609-0.697,4.714,0.26,6.576,2.006
			c1.975,2.663,1.046,4.927-1.233,6.67c-2.02,1.542-4.097,1.562-5.533-1.006c-1.849-1.949-2.03-4.159-1.034-6.556
			C1226.149,770.317,1226.557,769.946,1226.965,769.574z"/>
		<path fill-rule="evenodd" clip-rule="evenodd" fill="#EECBB2" d="M1304.471,826.406c-3.011-0.693-6.109-0.874-7.91-3.614
			c-1.395-2.123-0.01-4.067,1.303-5.463c2.712-2.884,6.082-5.012,10.235-4.149c2.076,0.432,4.083,1.686,5.865,2.934
			c2.859,2.002,2.281,4.596,0.014,6.465C1311.259,824.819,1307.772,825.63,1304.471,826.406z"/>
		<path fill-rule="evenodd" clip-rule="evenodd" fill="#030202" d="M1226.775,777.244c5.6,1.603,7.024,0.41,6.768-5.662
			c0.232-3.873,3.168-3.025,5.348-2.789c7.872,0.861,12.242,7.913,10.885,17.25c-0.534,1.178-1.065,2.355-1.598,3.533
			c-1.165,1.116-2.329,2.232-3.494,3.348c-10.758,2.43-16.48,0.344-19.118-7.308
			C1224.597,782.803,1223.286,779.578,1226.775,777.244z"/>
	</g>
</g>
<g id="Layer_6">
</g>
<g id="Layer_7">
</g>
<g id="Layer_8">
</g>
<g id="Layer_9">
</g>
<g id="Layer_10_1_">
</g>
<g id="Layer_11">
	<path fill="#2F363E" d="M421.369,2103.787c-15.47,17.98-45.379,17.613-66.803-0.82l0,0c-21.422-18.433-26.248-47.951-10.778-65.932
		l102.445-119.062c7.095-14.378,85.434,59.098,77.581,66.752L421.369,2103.787z"/>
	<path fill="#DC5921" d="M442.767,2119.129l0.317-0.368c3.512-4.082,3.434-9.906-0.177-13.013l-107.647-92.622
		c-3.61-3.106-9.381-2.314-12.893,1.767l-21.297,24.752c-0.025,0.029-0.041,0.064-0.066,0.092l-152.776,177.561
		c-38.829,45.127-43.271,104.969-9.924,133.662c33.347,28.692,91.857,15.371,130.686-29.756l173.831-202.028L442.767,2119.129z"/>
	<path fill="#2F363E" d="M816.81,1560.312c-117.458-101.046-294.577-87.758-395.623,29.681
		c-101.046,117.458-87.758,294.576,29.681,395.623c117.438,101.047,294.557,87.777,395.622-29.682
		C947.538,1838.495,934.249,1661.377,816.81,1560.312z M498.954,1929.723c-86.578-74.484-96.377-205.066-21.874-291.626
		c37.884-44.025,90.279-68.21,144.016-71.536c51.9-3.205,105.056,13.043,147.609,49.645
		c86.579,74.503,96.377,205.065,21.893,291.644c-16.36,19.013-35.403,34.304-56.098,45.82
		C660.899,1994.667,566.54,1987.865,498.954,1929.723z"/>
	<circle opacity="0.37" fill="#FCFBFA" cx="633.833" cy="1772.968" r="206.829"/>
	<path opacity="0.37" fill="#FCFBFA" d="M791.542,1906.727c-16.359,19.012-35.603,34.541-55.153,44.697l-0.02-0.017
		c23.893-250.378-110.563-382.436-114.329-385.968c51.9-3.206,105.057,13.043,147.61,49.643
		C856.229,1689.586,866.027,1820.148,791.542,1906.727z"/>
	<g>
	</g>
	<g>
	</g>
	<g>
	</g>
	<g>
	</g>
	<g>
	</g>
	<g>
	</g>
	<g>
	</g>
	<g>
	</g>
	<g>
	</g>
	<g>
	</g>
	<g>
	</g>
	<g>
	</g>
	<g>
	</g>
	<g>
	</g>
	<g>
	</g>
</g>
</svg>
