<?xml version="1.0" encoding="utf-8"?>
<!-- Generator: Adobe Illustrator 22.0.1, SVG Export Plug-In . SVG Version: 6.00 Build 0)  -->
<svg version="1.1" xmlns="http://www.w3.org/2000/svg" xmlns:xlink="http://www.w3.org/1999/xlink" x="0px" y="0px"
	 viewBox="0 0 574.5 373" style="enable-background:new 0 0 574.5 373;" xml:space="preserve">
<style type="text/css">
	.st0{display:none;}
	.st1{display:inline;fill:#158FCA;}
	.st2{display:inline;fill:#029DD3;}
	.st3{display:inline;fill:#05ABD8;}
	.st4{display:inline;fill:#03B4DD;}
	.st5{display:inline;fill:#03C5E5;}
	.st6{fill:none;stroke:#73C4BA;stroke-width:2;stroke-miterlimit:10;stroke-dasharray:6;}
	.st7{fill:#458077;}
	.st8{fill:#58A79A;}
	.st9{fill:#FFFFFF;}
	.st10{fill:#22403B;}
	.st11{fill:#65BFB2;}
	.st12{fill:#CECECE;}
	.st13{fill:none;stroke:#22403B;stroke-miterlimit:10;stroke-dasharray:3;}
	.st14{fill:none;stroke:#CECECE;stroke-miterlimit:10;stroke-dasharray:3;}
</style>
<g id="BACKGROUND" class="st0">
	<rect x="-71" y="-19" class="st1" width="750" height="500"/>
</g>
<g id="OBJECT">
	<g class="st0">
		<circle class="st2" cx="304" cy="231" r="174"/>
		<circle class="st3" cx="304" cy="231" r="149"/>
		<circle class="st4" cx="304" cy="231" r="124"/>
		<circle class="st5" cx="304" cy="231" r="99"/>
	</g>
	<g>
		<path class="st6" d="M102.8,130.2v5.2c0,16.6,13.5,30.1,30.1,30.1h97.9"/>
		<path class="st7" d="M61.7,66.5v22h86.8v-22c0-6.5-5.3-11.7-11.7-11.7H73.4C66.9,54.8,61.7,60,61.7,66.5z"/>
		<path class="st8" d="M61.7,88.5v41.4c0,6.5,5.3,11.7,11.7,11.7h63.3c6.5,0,11.7-5.3,11.7-11.7V88.5H61.7z"/>
		<circle class="st9" cx="105.1" cy="98.2" r="19.1"/>
		<circle class="st8" cx="105.1" cy="98.2" r="9.4"/>
		<circle class="st9" cx="132.2" cy="79.6" r="5.7"/>
	</g>
	<g>
		<line class="st6" x1="189.2" y1="209.3" x2="258.5" y2="209.3"/>
		<g>
			<path class="st10" d="M201,193.4v30.5c0,5.2-4.2,9.4-9.4,9.4h-30.5c-5.2,0-9.4-4.2-9.4-9.4v-30.5c0-5.2,4.2-9.4,9.4-9.4h30.5
				C196.8,184,201,188.2,201,193.4z"/>
		</g>
		<g>
			<path class="st9" d="M168.2,211.9c-1.3-0.4-3.2,0-4.9,1.3c-2.6,2.1-3.1,5.5-1.4,7.6c1.7,2.2,5.3,2.3,8,0.2c2-1.6,2.4-3.8,2.5-5.9
				l0.3-18.1h10.8v15c-1.9-0.5-3.6-0.1-5.4,1.2c-2.6,2.1-3.2,5.5-1.5,7.6c1.7,2.2,5.3,2.3,7.9,0.2c1.5-1.2,2-2.8,2.2-4.4l0.4-22
				l-18.8,0.2V211.9z"/>
		</g>
	</g>
	<g>
		<path class="st6" d="M351.2,132.3h92.5c16.6,0,30.1-13.5,30.1-30.1V95V60.3"/>
		<g>
			<path class="st10" d="M430.8,14.2v38.4v20.4c0,6,4.9,10.9,10.9,10.9h58.8c6,0,10.9-4.9,10.9-10.9V52.7V14.2
				c0-6-4.9-10.9-10.9-10.9h-58.8C435.6,3.3,430.8,8.2,430.8,14.2z"/>
		</g>
		<g>
			
				<ellipse transform="matrix(0.9717 -0.2362 0.2362 0.9717 4.4861 111.089)" class="st8" cx="465.8" cy="36.8" rx="20.9" ry="20.9"/>
			<rect x="453.7" y="46" class="st9" width="41.4" height="18.3"/>
			<ellipse transform="matrix(0.9722 -0.234 0.234 0.9722 0.83 117.4037)" class="st9" cx="495.1" cy="55.2" rx="9.2" ry="9.2"/>
			<circle class="st9" cx="453.7" cy="55.2" r="9.2"/>
			<ellipse transform="matrix(0.974 -0.2264 0.2264 0.974 2.2422 111.642)" class="st9" cx="487.8" cy="46" rx="7.3" ry="7.3"/>
			<circle class="st9" cx="459.4" cy="46" r="4.6"/>
			<path class="st9" d="M462.7,41.8c-1.2,7.5,5.2,14,12.7,12.7c4.6-0.7,8.3-4.4,9-9c1.2-7.5-5.2-14-12.7-12.7
				C467.2,33.5,463.5,37.2,462.7,41.8z"/>
		</g>
	</g>
	<g>
		<line class="st6" x1="366.5" y1="310.3" x2="435.8" y2="310.3"/>
		<g>
			<path class="st11" d="M423.9,279.2v38.4v20.4c0,6,4.9,10.9,10.9,10.9h58.8c6,0,10.9-4.9,10.9-10.9v-20.4v-38.4
				c0-6-4.9-10.9-10.9-10.9h-58.8C428.8,268.3,423.9,273.2,423.9,279.2z"/>
		</g>
		<g>
			<path class="st11" d="M464.2,282.4c-13.8,0-25,11.2-25,25c0,13.8,11.2,25,25,25c13.8,0,25-11.2,25-25
				C489.2,293.6,478,282.4,464.2,282.4z M470.4,316.3c-12,14.6-22.8,4.6-22.8,4.6l6.2-8.2l4.9,3.4c0,0,3.8-1.1,7.2-5.4
				c3.4-4.3,3.4-8,3.4-8l-3.3-3.3l6.8-9.5C472.9,289.9,484.5,299.2,470.4,316.3z"/>
			<path class="st9" d="M472.9,289.9l-6.8,9.5l3.3,3.3c0,0,0,3.7-3.4,8c-3.4,4.3-7.2,5.4-7.2,5.4l-4.9-3.4l-6.2,8.2
				c0,0,10.8,10,22.8-4.6C484.5,299.2,472.9,289.9,472.9,289.9z"/>
			<path class="st9" d="M464.2,279c-15.7,0-28.4,12.7-28.4,28.4c0,15.7,12.7,28.4,28.4,28.4c15.7,0,28.4-12.7,28.4-28.4
				C492.6,291.8,479.9,279,464.2,279z M464.2,332.5c-13.8,0-25-11.2-25-25c0-13.8,11.2-25,25-25c13.8,0,25,11.2,25,25
				C489.2,321.2,478,332.5,464.2,332.5z"/>
		</g>
	</g>
	<g>
		<g>
			<path class="st6" d="M539,208v7.2c0,16.6-13.5,30.1-30.1,30.1H374.6"/>
		</g>
		<g>
			<path class="st8" d="M508.7,159.9v28.9v15.4c0,4.5,3.7,8.2,8.2,8.2h44.2c4.5,0,8.2-3.7,8.2-8.2v-15.4v-28.9
				c0-4.5-3.7-8.2-8.2-8.2h-44.2C512.3,151.7,508.7,155.4,508.7,159.9z"/>
		</g>
		<path class="st9" d="M555.6,179.5l-24.3-14c-1.9-1.1-4.4,0.3-4.4,2.5v28c0,2.2,2.4,3.6,4.4,2.5l24.3-14
			C557.5,183.4,557.5,180.6,555.6,179.5z"/>
	</g>
	<g>
		<polyline class="st6" points="73,256.3 156.1,256.3 261.1,258 		"/>
		<g>
			<path class="st8" d="M3.4,224.3v38.4v20.4c0,6,4.9,10.9,10.9,10.9h58.8c6,0,10.9-4.9,10.9-10.9v-20.4v-38.4
				c0-6-4.9-10.9-10.9-10.9H14.3C8.3,213.4,3.4,218.3,3.4,224.3z"/>
		</g>
		<g>
			<path class="st9" d="M60.4,243.1c0.1,9.2-16.3,37.7-16.3,37.7s-17-28.1-17.2-37.4c-0.1-9.2,7.3-16.8,16.5-16.9
				C52.8,226.5,60.3,233.9,60.4,243.1z"/>
			<path class="st8" d="M34.6,243.4c-0.1-5,4-9.2,9-9.2c5-0.1,9.2,4,9.2,9c0.1,5-4,9.2-9,9.2C38.8,252.5,34.7,248.4,34.6,243.4z"/>
		</g>
	</g>
	<g>
		<g>
			<path class="st10" d="M349.3,98.2h-90.4c-12.5,0-22.6,10.1-22.6,22.6v226.8c0,12.5,10.1,22.6,22.6,22.6h90.4
				c12.5,0,22.6-10.1,22.6-22.6V120.8C371.9,108.3,361.8,98.2,349.3,98.2z"/>
			<path class="st9" d="M365.9,119.8v228.9c0,8.8-7.1,15.9-15.9,15.9h-91.7c-8.8,0-15.9-7.1-15.9-15.9V119.8
				c0-8.8,7.1-15.9,15.9-15.9H274c1.8,0,3.2,1.3,3.4,3.1l0.2,1.9c0.3,3.4,3.2,6.1,6.6,6.1h39.9c3.4,0,6.3-2.6,6.6-6.1l0.2-1.9
				c0.2-1.7,1.6-3.1,3.4-3.1h15.8C358.7,103.8,365.9,111,365.9,119.8z"/>
			<path class="st7" d="M319.4,108.4h-30.5c-0.4,0-0.8-0.4-0.8-0.8l0,0c0-0.4,0.4-0.8,0.8-0.8h30.5c0.4,0,0.8,0.4,0.8,0.8l0,0
				C320.2,108,319.8,108.4,319.4,108.4z"/>
		</g>
		<rect x="260.5" y="208.9" class="st12" width="87.1" height="11.1"/>
		<rect x="260.5" y="227.5" class="st12" width="87.1" height="11.1"/>
		<rect x="260.5" y="245.2" class="st12" width="87.1" height="11.1"/>
		<rect x="260.5" y="294.8" class="st12" width="87.1" height="21.1"/>
		<rect x="260.5" y="265.1" class="st12" width="44.6" height="11.1"/>
		<path class="st13" d="M284.4,144.3v14.8c0,2.5-2,4.6-4.6,4.6h-14.8c-2.5,0-4.6-2-4.6-4.6v-14.8c0-2.5,2-4.6,4.6-4.6h14.8
			C282.3,139.8,284.4,141.8,284.4,144.3z"/>
		<path class="st12" d="M316,144.3v14.8c0,2.5-2,4.6-4.6,4.6h-14.8c-2.5,0-4.6-2-4.6-4.6v-14.8c0-2.5,2-4.6,4.6-4.6h14.8
			C314,139.8,316,141.8,316,144.3z"/>
		<path class="st11" d="M347.7,144.3v14.8c0,2.5-2,4.6-4.6,4.6h-14.8c-2.5,0-4.6-2-4.6-4.6v-14.8c0-2.5,2-4.6,4.6-4.6h14.8
			C345.6,139.8,347.7,141.8,347.7,144.3z"/>
		<path class="st8" d="M323.8,180.6v14.8c0,2.5,2,4.6,4.6,4.6h14.8c2.5,0,4.6-2,4.6-4.6v-14.8c0-2.5-2-4.6-4.6-4.6h-14.8
			C325.8,176,323.8,178,323.8,180.6z"/>
		<path class="st14" d="M292.1,180.6v14.8c0,2.5,2,4.6,4.6,4.6h14.8c2.5,0,4.6-2,4.6-4.6v-14.8c0-2.5-2-4.6-4.6-4.6h-14.8
			C294.2,176,292.1,178,292.1,180.6z"/>
		<path class="st14" d="M260.5,180.6v14.8c0,2.5,2,4.6,4.6,4.6h14.8c2.5,0,4.6-2,4.6-4.6v-14.8c0-2.5-2-4.6-4.6-4.6h-14.8
			C262.6,176,260.5,178,260.5,180.6z"/>
	</g>
</g>
<g id="DESIGNED_BY_FREEPIK">
</g>
</svg>
