<?xml version="1.0" encoding="utf-8"?>
<!-- Generator: Adobe Illustrator 22.0.1, SVG Export Plug-In . SVG Version: 6.00 Build 0)  -->
<svg version="1.1" id="Ebene_1" xmlns="http://www.w3.org/2000/svg" xmlns:xlink="http://www.w3.org/1999/xlink" x="0px" y="0px"
	 viewBox="0 0 700 125" style="enable-background:new 0 0 700 125;" xml:space="preserve">
<style type="text/css">
	.st0{enable-background:new    ;}
	.st1{fill:#65BFB2;}
	.st2{fill:#73C4BA;}
	.st3{fill:#458077;}
	.st4{fill:#22403B;}
	.st5{fill:#58A79A;}
</style>
<g>
	<g transform="translate(350,154) rotate(0,0,0)">
		<g class="st0">
			<path class="st1" d="M-112.7-97.9c1.7-2.3,2.9-4.6,3.7-7c0.7-2.3,1.1-5,1.1-8.1v-24.5h4.3v24.3c0,3.4-0.5,6.5-1.4,9.2
				s-2.6,5.3-4.8,8.1L-112.7-97.9z M-108-144.7c-0.5-0.5-0.8-1.1-0.8-2c0-0.9,0.3-1.5,0.8-2c0.5-0.5,1.3-0.7,2.2-0.7
				c0.9,0,1.7,0.2,2.2,0.7c0.5,0.5,0.8,1.2,0.8,2c0,0.9-0.3,1.5-0.8,2c-0.5,0.5-1.3,0.7-2.2,0.7C-106.8-144-107.5-144.2-108-144.7z"
				/>
			<path class="st1" d="M-80.6-137c1.6,0.7,2.9,1.8,3.7,3.3s1.2,3.6,1.2,6.2v19.1h-3.6l-0.3-3.2h-0.3c-0.9,1.2-2.1,2.1-3.6,2.7
				c-1.5,0.7-3.1,1-4.8,1c-1.8,0-3.4-0.3-4.7-1c-1.3-0.6-2.3-1.5-3-2.7c-0.7-1.2-1.1-2.6-1.1-4.2c0-2.6,0.8-4.6,2.5-6
				c1.7-1.4,4.4-2.3,8-2.6l6.6-0.7v-2.5c0-1.7-0.3-3.1-0.8-4.1c-0.5-1-1.4-1.7-2.4-2.1c-1.1-0.4-2.5-0.6-4.2-0.6
				c-1.2,0-2.5,0.1-3.8,0.3c-1.4,0.2-2.7,0.5-4,1v-3.5c1.2-0.4,2.6-0.7,4.1-1c1.5-0.2,3-0.3,4.3-0.3C-84.3-138-82.2-137.6-80.6-137z
				 M-83.3-112.1c1.3-0.6,2.4-1.5,3.4-2.7v-7.5l-6.4,0.7c-2.3,0.2-3.9,0.8-4.9,1.7c-1,0.9-1.5,2.1-1.5,3.7c0,1.6,0.5,2.9,1.4,3.7
				s2.3,1.3,4.1,1.3C-85.9-111.3-84.5-111.6-83.3-112.1z"/>
			<path class="st1" d="M-48.4-137.5h4.3l-11,29.1h-5.5l-11-29.1h4.6l9.3,25.2L-48.4-137.5z"/>
			<path class="st1" d="M-25.8-137c1.6,0.7,2.9,1.8,3.7,3.3s1.2,3.6,1.2,6.2v19.1h-3.6l-0.3-3.2h-0.3c-0.9,1.2-2.1,2.1-3.6,2.7
				c-1.5,0.7-3.1,1-4.8,1c-1.8,0-3.4-0.3-4.7-1c-1.3-0.6-2.3-1.5-3-2.7c-0.7-1.2-1.1-2.6-1.1-4.2c0-2.6,0.8-4.6,2.5-6
				c1.7-1.4,4.4-2.3,8-2.6l6.6-0.7v-2.5c0-1.7-0.3-3.1-0.8-4.1c-0.5-1-1.4-1.7-2.4-2.1c-1.1-0.4-2.5-0.6-4.2-0.6
				c-1.2,0-2.5,0.1-3.8,0.3c-1.4,0.2-2.7,0.5-4,1v-3.5c1.2-0.4,2.6-0.7,4.1-1c1.5-0.2,3-0.3,4.3-0.3C-29.5-138-27.4-137.6-25.8-137z
				 M-28.4-112.1c1.3-0.6,2.4-1.5,3.4-2.7v-7.5l-6.4,0.7c-2.3,0.2-3.9,0.8-4.9,1.7c-1,0.9-1.5,2.1-1.5,3.7c0,1.6,0.5,2.9,1.4,3.7
				s2.3,1.3,4.1,1.3C-31-111.3-29.7-111.6-28.4-112.1z"/>
			<path class="st1" d="M-14.2-109.1v-3.5c2.7,0.8,5.4,1.2,8.1,1.2c4.8,0,7.2-1.6,7.2-4.9c0-1.3-0.3-2.3-1-3
				c-0.7-0.7-1.8-1.2-3.4-1.6l-3.9-0.8c-2.6-0.6-4.5-1.5-5.6-2.8c-1.2-1.3-1.7-3-1.7-5.1c0-1.7,0.4-3.1,1.3-4.4
				c0.8-1.3,2.1-2.3,3.8-3c1.7-0.7,3.9-1.1,6.4-1.1c2.3,0,4.6,0.3,6.9,0.9v3.5c-1.2-0.3-2.3-0.6-3.4-0.7c-1.1-0.1-2.2-0.2-3.4-0.2
				c-2.6,0-4.5,0.4-5.7,1.3c-1.2,0.9-1.8,2.1-1.8,3.6c0,1.2,0.3,2.2,1,2.9s1.8,1.3,3.4,1.6l3.9,0.8c2.6,0.6,4.6,1.5,5.7,2.7
				s1.8,3,1.8,5.2c0,2.7-1,4.8-2.9,6.3c-1.9,1.5-4.7,2.3-8.4,2.3C-9.1-107.9-11.8-108.3-14.2-109.1z"/>
			<path class="st1" d="M12.8-111.6c-2.2-2.4-3.3-6.2-3.3-11.4s1.2-9,3.5-11.4c2.3-2.4,5.8-3.6,10.4-3.6c2.2,0,4.2,0.3,6,0.8v3.6
				c-1.9-0.5-3.7-0.7-5.5-0.7c-2.3,0-4.2,0.4-5.6,1.1s-2.5,1.9-3.3,3.6c-0.7,1.6-1.1,3.8-1.1,6.6c0,2.8,0.3,5,1,6.7s1.7,2.9,3,3.7
				c1.3,0.8,3,1.1,5,1.1c1.9,0,4-0.4,6.4-1.2v3.6c-2.3,0.8-4.6,1.2-7,1.2C18.1-107.9,14.9-109.1,12.8-111.6z"/>
			<path class="st1" d="M34.5-137.5h3.6l0.3,3.9h0.3c1-1.3,2.2-2.4,3.7-3.1s3.1-1.1,4.8-1.1c0.8,0,1.6,0.1,2.3,0.2v4
				c-0.8-0.1-1.6-0.2-2.5-0.2c-1.5,0-3,0.4-4.6,1.1s-2.7,1.7-3.7,3v21.3h-4.3V-137.5z"/>
			<path class="st1" d="M54-144.5c-0.5-0.5-0.8-1.1-0.8-2c0-0.9,0.3-1.5,0.8-2c0.5-0.5,1.3-0.7,2.2-0.7s1.7,0.2,2.2,0.7
				c0.5,0.5,0.8,1.2,0.8,2c0,0.9-0.3,1.5-0.8,2c-0.5,0.5-1.3,0.7-2.2,0.7C55.2-143.8,54.5-144.1,54-144.5z M54-108.4v-29.1h4.3v29.1
				H54z"/>
			<path class="st1" d="M66.4-137.5h3.7l0.3,3.2h0.3c0.9-1.1,2.1-2,3.4-2.7s2.9-1,4.6-1c2.2,0,4.2,0.5,5.9,1.4
				c1.7,1,3.1,2.5,4.1,4.7c1,2.2,1.5,4.9,1.5,8.3c0,5.2-1.2,9.1-3.7,11.7s-6.1,3.9-11,3.9c-1.3,0-2.9-0.1-4.7-0.4v11.7h-4.3V-137.5z
				 M83.2-114.2c1.7-1.8,2.5-4.8,2.5-8.9s-0.7-7-2.1-8.6c-1.4-1.7-3.4-2.5-6-2.5c-1.4,0-2.7,0.3-3.9,0.9c-1.2,0.6-2.3,1.5-3.1,2.7
				v18.7c0.7,0.1,1.4,0.3,2.3,0.4c0.9,0.1,1.7,0.1,2.5,0.1C79-111.4,81.5-112.4,83.2-114.2z"/>
			<path class="st1" d="M111.5-112.1v3.6c-1.5,0.4-3,0.5-4.5,0.5c-6.3,0-9.4-3.2-9.4-9.6V-134h-5.5v-3.5h5.5l0.7-10.6h3.6v10.6h9.1
				v3.5H102v15.7c0,2.4,0.5,4.1,1.5,5.1c1,1,2.5,1.5,4.6,1.5C109-111.7,110.2-111.8,111.5-112.1z"/>
		</g>
	</g>
	<g transform="translate(346,178) rotate(0,0,0)">
		<g class="st0">
			<path class="st2" d="M-43.6-127.7h3.4v26.4h-2.7v-22.1l-8.6,18.5h-2.6l-8.6-18.3v21.9h-2.7v-26.4h3.4l9.2,19.9L-43.6-127.7z"/>
			<path class="st2" d="M-24.4-120.3c1.1,0.4,1.9,1.2,2.4,2.2c0.5,1,0.8,2.4,0.8,4.1v12.7h-2.4l-0.2-2.2H-24
				c-0.6,0.8-1.4,1.4-2.4,1.8c-1,0.4-2,0.7-3.2,0.7c-1.2,0-2.2-0.2-3.1-0.6s-1.6-1-2-1.8c-0.5-0.8-0.7-1.7-0.7-2.8
				c0-1.7,0.6-3,1.7-4c1.1-0.9,2.9-1.5,5.3-1.8l4.4-0.5v-1.7c0-1.2-0.2-2.1-0.5-2.7c-0.4-0.7-0.9-1.1-1.6-1.4
				c-0.7-0.3-1.7-0.4-2.8-0.4c-0.8,0-1.7,0.1-2.6,0.2c-0.9,0.1-1.8,0.4-2.7,0.7v-2.4c0.8-0.3,1.7-0.5,2.7-0.6c1-0.1,2-0.2,2.9-0.2
				C-26.9-121-25.5-120.8-24.4-120.3z M-26.2-103.8c0.8-0.4,1.6-1,2.2-1.8v-5l-4.2,0.5c-1.5,0.2-2.6,0.5-3.3,1.1
				c-0.7,0.6-1,1.4-1,2.4c0,1.1,0.3,1.9,0.9,2.5c0.6,0.6,1.5,0.8,2.8,0.8C-27.9-103.2-27.1-103.4-26.2-103.8z"/>
			<path class="st2" d="M-16-120.7h2.4l0.2,2.6h0.2c0.6-0.9,1.5-1.6,2.5-2.1c1-0.5,2.1-0.7,3.2-0.7c0.5,0,1,0,1.6,0.1v2.7
				c-0.5-0.1-1.1-0.1-1.7-0.1c-1,0-2,0.2-3,0.7c-1,0.5-1.8,1.1-2.4,2v14.2H-16V-120.7z"/>
			<path class="st2" d="M-3-125.4c-0.3-0.3-0.5-0.8-0.5-1.3c0-0.6,0.2-1,0.5-1.3c0.4-0.3,0.8-0.5,1.5-0.5s1.1,0.2,1.5,0.5
				c0.3,0.3,0.5,0.8,0.5,1.3c0,0.6-0.2,1-0.5,1.3c-0.3,0.3-0.8,0.5-1.5,0.5C-2.2-124.9-2.7-125-3-125.4z M-3-101.3v-19.4h2.9v19.4
				H-3z"/>
			<path class="st2" d="M15.3-120.3c1.1,0.4,1.9,1.2,2.4,2.2c0.5,1,0.8,2.4,0.8,4.1v12.7h-2.4l-0.2-2.2h-0.2
				c-0.6,0.8-1.4,1.4-2.4,1.8c-1,0.4-2,0.7-3.2,0.7c-1.2,0-2.2-0.2-3.1-0.6c-0.9-0.4-1.6-1-2-1.8c-0.5-0.8-0.7-1.7-0.7-2.8
				c0-1.7,0.6-3,1.7-4c1.1-0.9,2.9-1.5,5.3-1.8l4.4-0.5v-1.7c0-1.2-0.2-2.1-0.5-2.7c-0.4-0.7-0.9-1.1-1.6-1.4
				c-0.7-0.3-1.7-0.4-2.8-0.4c-0.8,0-1.7,0.1-2.6,0.2c-0.9,0.1-1.8,0.4-2.7,0.7v-2.4c0.8-0.3,1.7-0.5,2.7-0.6c1-0.1,2-0.2,2.9-0.2
				C12.8-121,14.2-120.8,15.3-120.3z M13.5-103.8c0.8-0.4,1.6-1,2.2-1.8v-5l-4.2,0.5c-1.5,0.2-2.6,0.5-3.3,1.1c-0.7,0.6-1,1.4-1,2.4
				c0,1.1,0.3,1.9,0.9,2.5c0.6,0.6,1.5,0.8,2.8,0.8C11.8-103.2,12.6-103.4,13.5-103.8z"/>
			<path class="st2" d="M24-101.5v-25.9c1.1-0.2,2.2-0.4,3.4-0.5c1.2-0.1,2.4-0.2,3.5-0.2c4.4,0,7.7,1.1,9.9,3.3s3.3,5.6,3.3,10.2
				c0,4.6-1.1,8-3.4,10.2c-2.3,2.2-5.8,3.3-10.4,3.3C28.3-101.1,26.2-101.2,24-101.5z M36.6-104.7c1.5-0.8,2.6-1.9,3.4-3.5
				c0.8-1.6,1.1-3.7,1.1-6.3c0-3.8-0.8-6.6-2.5-8.4c-1.7-1.8-4.2-2.6-7.6-2.6c-1.3,0-2.6,0.1-4.1,0.3v21.4c1.2,0.2,2.5,0.2,3.9,0.2
				C33.2-103.6,35.1-103.9,36.6-104.7z"/>
			<path class="st2" d="M65.9-112.8c0.9,1.1,1.4,2.5,1.4,4.3c0,1.7-0.4,3-1.2,4.1s-2,1.9-3.8,2.5c-1.7,0.6-4,0.8-6.7,0.8
				c-2.1,0-4.3-0.1-6.5-0.4v-25.8c2.4-0.5,4.8-0.7,7.3-0.7c3.5,0,6.1,0.6,7.7,1.7s2.4,2.9,2.4,5.3c0,1.5-0.4,2.8-1.2,3.9
				c-0.8,1.1-1.9,1.8-3.5,2.2C63.6-114.6,65-113.9,65.9-112.8z M51.9-125.3v9.3h5.2c2.3,0,4-0.4,5.1-1.2c1-0.8,1.6-2,1.6-3.6
				c0-1.2-0.2-2.1-0.7-2.8c-0.5-0.7-1.2-1.2-2.3-1.5c-1-0.3-2.4-0.5-4.1-0.5C54.8-125.7,53.2-125.6,51.9-125.3z M61.1-103.9
				c1.2-0.4,2.1-0.9,2.6-1.7c0.5-0.8,0.8-1.7,0.8-2.9c0-1.8-0.6-3-1.7-3.9c-1.1-0.8-2.8-1.2-5.2-1.2h-5.7v10.1
				c1.2,0.2,2.7,0.2,4.3,0.2C58.2-103.4,59.9-103.6,61.1-103.9z"/>
		</g>
	</g>
	<g transform="translate(452,150) rotate(90,0,0)">
		<g class="st0">
			<path class="st1" d="M-126-14.3l-8.2-11c-0.6,0-1.1,0-1.4,0c-1.2,0-2.4,0-3.7-0.1v11.1h-2.9v-26c2.4-0.5,4.8-0.7,7.1-0.7
				c3.5,0,6.1,0.6,7.8,1.9s2.5,3.3,2.5,5.9c0,2-0.5,3.7-1.6,5c-1.1,1.3-2.7,2.1-4.9,2.6l8.6,11.3H-126z M-137.4-27.6
				c0.5,0,1.1,0,1.8,0c2.8,0,4.9-0.5,6.1-1.4s1.9-2.3,1.9-4.3c0-1.3-0.3-2.4-0.8-3.2c-0.5-0.8-1.3-1.4-2.4-1.8
				c-1.1-0.4-2.5-0.6-4.2-0.6c-0.9,0-1.6,0-2.3,0.1s-1.4,0.2-2.1,0.3v10.6C-138.6-27.6-137.9-27.6-137.4-27.6z"/>
			<path class="st1" d="M-105.8-23h-12.4c0,1.6,0.3,2.9,0.8,3.9c0.5,1,1.2,1.7,2.2,2.1c1,0.4,2.2,0.7,3.6,0.7c1.4,0,3-0.3,4.8-0.8
				v2.3c-1.8,0.5-3.5,0.8-5.2,0.8c-3.1,0-5.4-0.8-6.9-2.4c-1.5-1.6-2.3-4.1-2.3-7.6c0-3.3,0.7-5.8,2.1-7.5c1.4-1.7,3.3-2.5,5.8-2.5
				c2.4,0,4.3,0.8,5.5,2.5c1.3,1.7,1.9,4.2,1.9,7.6V-23z M-116.9-30.3c-0.8,1.1-1.3,2.8-1.3,5.3h9.7c0-2.5-0.5-4.2-1.3-5.3
				c-0.8-1.1-2-1.6-3.5-1.6C-114.9-31.9-116.1-31.4-116.9-30.3z"/>
			<path class="st1" d="M-91.9-33.3c1.1,0.4,1.9,1.2,2.4,2.2c0.5,1,0.8,2.4,0.8,4.1v12.7H-91l-0.2-2.2h-0.2
				c-0.6,0.8-1.4,1.4-2.4,1.8c-1,0.4-2,0.7-3.2,0.7c-1.2,0-2.2-0.2-3.1-0.6s-1.6-1-2-1.8c-0.5-0.8-0.7-1.7-0.7-2.8
				c0-1.7,0.6-3,1.7-4c1.1-0.9,2.9-1.5,5.3-1.8l4.4-0.5v-1.7c0-1.2-0.2-2.1-0.5-2.7c-0.4-0.7-0.9-1.1-1.6-1.4
				c-0.7-0.3-1.7-0.4-2.8-0.4c-0.8,0-1.7,0.1-2.6,0.2c-0.9,0.1-1.8,0.4-2.7,0.7v-2.4c0.8-0.3,1.7-0.5,2.7-0.6c1-0.1,2-0.2,2.9-0.2
				C-94.4-34-93-33.8-91.9-33.3z M-93.7-16.8c0.8-0.4,1.6-1,2.2-1.8v-5l-4.2,0.5c-1.5,0.2-2.6,0.5-3.3,1.1c-0.7,0.6-1,1.4-1,2.4
				c0,1.1,0.3,1.9,0.9,2.5c0.6,0.6,1.5,0.8,2.8,0.8C-95.4-16.2-94.5-16.4-93.7-16.8z"/>
			<path class="st1" d="M-82.3-16.4c-1.5-1.6-2.2-4.2-2.2-7.6s0.8-6,2.3-7.6c1.6-1.6,3.9-2.4,6.9-2.4c1.4,0,2.8,0.2,4,0.5v2.4
				c-1.3-0.3-2.5-0.5-3.7-0.5c-1.5,0-2.8,0.2-3.7,0.7c-1,0.5-1.7,1.3-2.2,2.4c-0.5,1.1-0.7,2.6-0.7,4.4c0,1.8,0.2,3.3,0.7,4.5
				c0.4,1.1,1.1,1.9,2,2.4c0.9,0.5,2,0.8,3.4,0.8c1.3,0,2.7-0.3,4.3-0.8v2.4c-1.5,0.5-3.1,0.8-4.7,0.8C-78.7-14-80.9-14.8-82.3-16.4
				z"/>
			<path class="st1" d="M-57.1-16.7v2.4c-1,0.2-2,0.4-3,0.4c-4.2,0-6.3-2.1-6.3-6.4v-10.9H-70v-2.4h3.7l0.5-7.1h2.4v7.1h6.1v2.4
				h-6.1v10.5c0,1.6,0.3,2.7,1,3.4c0.6,0.7,1.7,1,3,1C-58.8-16.4-58-16.5-57.1-16.7z"/>
			<path class="st1" d="M-56.9-9.5c1.1-1.5,2-3.1,2.4-4.6c0.5-1.5,0.7-3.3,0.7-5.4v-21.2h2.9v21.6c-0.1,2.1-0.4,4.1-1.1,5.8
				c-0.6,1.7-1.7,3.4-3.1,5.2L-56.9-9.5z"/>
			<path class="st1" d="M-42.9-14.2c-1.1-0.2-2.2-0.4-3.2-0.8v-2.5c1.1,0.4,2.2,0.6,3.3,0.8s2.2,0.3,3.3,0.3c4.3,0,6.5-1.6,6.5-4.8
				c0-0.9-0.2-1.6-0.5-2.2s-0.9-1.1-1.7-1.5c-0.8-0.4-1.8-0.8-3.1-1.1l-1.4-0.4c-2.3-0.6-3.9-1.5-5.1-2.6c-1.1-1.2-1.7-2.7-1.7-4.6
				c0-1.5,0.4-2.8,1.1-3.9s1.8-1.9,3.2-2.5c1.4-0.6,3.1-0.9,5.2-0.9c1,0,2,0.1,3,0.2c1,0.1,1.9,0.3,2.7,0.6v2.5
				c-1.8-0.5-3.7-0.8-5.7-0.8c-2.2,0-3.9,0.4-5,1.2c-1.1,0.8-1.6,2-1.6,3.5c0,0.9,0.2,1.6,0.5,2.2s0.8,1.1,1.5,1.5
				c0.7,0.4,1.7,0.8,2.9,1.1l1.4,0.4c2.5,0.6,4.3,1.5,5.4,2.7c1.1,1.2,1.7,2.7,1.7,4.6c0,1.6-0.4,2.9-1.1,4.1
				c-0.7,1.1-1.8,2-3.2,2.6s-3.1,0.9-5.1,0.9C-40.7-14-41.8-14-42.9-14.2z"/>
		</g>
	</g>
	<g transform="translate(350,214) rotate(0,0,0)">
		<g class="st0">
			<path class="st1" d="M-35.9-127.7h2.8v26.4h-3l-14.5-22v22h-2.8v-26.4h3l14.5,22V-127.7z"/>
			<path class="st1" d="M-26.3-103.4c-1.4-1.6-2.2-4.2-2.2-7.5c0-3.4,0.7-5.9,2.2-7.6c1.4-1.6,3.5-2.5,6.1-2.5
				c2.6,0,4.7,0.8,6.1,2.4c1.4,1.6,2.2,4.2,2.2,7.6c0,3.4-0.7,5.9-2.2,7.5c-1.5,1.6-3.5,2.5-6.1,2.5S-24.8-101.8-26.3-103.4z
				 M-16.2-105c0.9-1.2,1.4-3.1,1.4-5.9c0-2.8-0.5-4.8-1.4-6c-0.9-1.2-2.2-1.8-4-1.8c-1.7,0-3,0.6-4,1.8c-0.9,1.2-1.4,3.1-1.4,5.9
				c0,2.8,0.5,4.8,1.4,6c0.9,1.2,2.2,1.8,4,1.8S-17.1-103.9-16.2-105z"/>
			<path class="st1" d="M-4.8-101.9c-1.1-0.7-2-1.7-2.7-3.1c-0.7-1.4-1-3.3-1-5.5c0-3.5,0.8-6.1,2.5-7.8s4.1-2.6,7.3-2.6
				c0.9,0,2,0.1,3.1,0.3v-9.5h2.9v28.9H4.9l-0.2-2.1H4.5c-0.6,0.8-1.4,1.3-2.3,1.8c-0.9,0.4-1.9,0.7-3.1,0.7
				C-2.3-101-3.6-101.3-4.8-101.9z M2.4-104c0.8-0.4,1.5-1,2.1-1.8v-12.5c-0.5-0.1-1-0.2-1.5-0.2c-0.6-0.1-1.1-0.1-1.7-0.1
				c-2.3,0-4,0.6-5.1,1.8c-1.1,1.2-1.7,3.2-1.7,5.9c0,2.7,0.5,4.6,1.4,5.7c0.9,1.1,2.3,1.7,4,1.7C0.7-103.4,1.6-103.6,2.4-104z"/>
			<path class="st1" d="M27-110H14.6c0,1.6,0.3,2.9,0.8,3.9c0.5,1,1.2,1.7,2.2,2.1c1,0.4,2.2,0.7,3.6,0.7c1.4,0,3-0.3,4.8-0.8v2.3
				c-1.8,0.5-3.5,0.8-5.2,0.8c-3.1,0-5.4-0.8-6.9-2.4s-2.3-4.1-2.3-7.6c0-3.3,0.7-5.8,2.1-7.5c1.4-1.7,3.3-2.5,5.8-2.5
				c2.4,0,4.3,0.8,5.5,2.5c1.3,1.7,1.9,4.2,1.9,7.6V-110z M15.9-117.3c-0.8,1.1-1.3,2.8-1.3,5.3h9.7c0-2.5-0.5-4.2-1.3-5.3
				c-0.8-1.1-2-1.6-3.5-1.6C18-118.9,16.8-118.4,15.9-117.3z"/>
			<path class="st1" d="M28.3-96.5c1.1-1.5,2-3.1,2.4-4.6c0.5-1.5,0.7-3.3,0.7-5.4v-21.2h2.9v21.6c-0.1,2.1-0.4,4.1-1.1,5.8
				c-0.6,1.7-1.7,3.4-3.1,5.2L28.3-96.5z"/>
			<path class="st1" d="M42.3-101.2c-1.1-0.2-2.2-0.4-3.2-0.8v-2.5c1.1,0.4,2.2,0.6,3.3,0.8c1.1,0.2,2.2,0.3,3.3,0.3
				c4.3,0,6.5-1.6,6.5-4.8c0-0.9-0.2-1.6-0.5-2.2s-0.9-1.1-1.7-1.5c-0.8-0.4-1.8-0.8-3.1-1.1l-1.4-0.4c-2.3-0.6-3.9-1.5-5.1-2.6
				c-1.1-1.2-1.7-2.7-1.7-4.6c0-1.5,0.4-2.8,1.1-3.9c0.7-1.1,1.8-1.9,3.2-2.5c1.4-0.6,3.1-0.9,5.2-0.9c1,0,2,0.1,3,0.2
				s1.9,0.3,2.7,0.6v2.5c-1.8-0.5-3.7-0.8-5.7-0.8c-2.2,0-3.9,0.4-5,1.2c-1.1,0.8-1.6,2-1.6,3.5c0,0.9,0.2,1.6,0.5,2.2
				c0.3,0.6,0.8,1.1,1.5,1.5s1.7,0.8,2.9,1.1l1.4,0.4c2.5,0.6,4.3,1.5,5.4,2.7c1.1,1.2,1.7,2.7,1.7,4.6c0,1.6-0.4,2.9-1.1,4.1
				c-0.7,1.1-1.8,2-3.2,2.6c-1.4,0.6-3.1,0.9-5.1,0.9C44.5-101,43.4-101,42.3-101.2z"/>
		</g>
	</g>
	<g transform="translate(484,150) rotate(90,0,0)">
		<g class="st0">
			<path class="st3" d="M-129.5-43.2h2.9v11.6h0.2c0.8-0.8,1.7-1.4,2.7-1.8c1-0.4,2.1-0.6,3.3-0.6c1.9,0,3.4,0.5,4.5,1.6
				s1.6,2.8,1.6,5.2v12.8h-2.9V-27c0-1.6-0.3-2.7-1-3.4c-0.7-0.7-1.7-1-3-1c-1,0-2,0.2-2.9,0.6c-1,0.4-1.8,1.1-2.4,1.9v14.5h-2.9
				V-43.2z"/>
			<path class="st3" d="M-98.8-16.7v2.4c-1,0.2-2,0.4-3,0.4c-4.2,0-6.3-2.1-6.3-6.4v-10.9h-3.7v-2.4h3.7l0.5-7.1h2.4v7.1h6.1v2.4
				h-6.1v10.5c0,1.6,0.3,2.7,1,3.4s1.7,1,3,1C-100.5-16.4-99.7-16.5-98.8-16.7z"/>
			<path class="st3" d="M-72.3-32.3c1,1.1,1.6,2.8,1.6,5.2v12.8h-2.9V-27c0-1.6-0.3-2.7-1-3.4c-0.6-0.7-1.5-1-2.7-1
				c-0.8,0-1.7,0.2-2.5,0.6c-0.8,0.4-1.6,1-2.2,1.9c0.1,0.5,0.1,1.1,0.1,1.8v12.9h-2.8V-27c0-1.6-0.3-2.7-0.9-3.4
				c-0.6-0.7-1.5-1-2.6-1c-0.9,0-1.7,0.2-2.6,0.7c-0.9,0.4-1.6,1.1-2.2,2v14.5h-2.9v-19.4h2.4l0.2,2.2h0.2c0.7-0.8,1.6-1.4,2.5-1.9
				c1-0.4,2-0.6,3.1-0.6c2.3,0,4,0.9,4.8,2.8c0.8-1,1.8-1.7,2.8-2.1c1-0.4,2.1-0.7,3.2-0.7C-74.8-34-73.4-33.4-72.3-32.3z"/>
			<path class="st3" d="M-65.6-14.3v-28.9h2.9v28.9H-65.6z"/>
			<path class="st3" d="M-47.3-28.4c1.6,0.6,2.7,1.5,3.4,2.5c0.7,1.1,1.1,2.5,1.1,4.1c0,2.5-0.8,4.5-2.4,5.8c-1.6,1.3-4,2-7.1,2
				c-1.1,0-2.2-0.1-3.3-0.3s-2.1-0.4-3.1-0.8v-2.4c1,0.3,2,0.6,3.1,0.8c1.1,0.2,2.2,0.3,3.2,0.3c2.3,0,4-0.4,5.1-1.3
				c1.1-0.9,1.7-2.2,1.7-4c0-1.2-0.3-2.1-0.8-2.9c-0.6-0.8-1.5-1.3-2.8-1.8s-3-0.7-5.2-0.8l-3.3-0.2l0.9-13.3h12.9v2.4h-10.3
				l-0.6,8.7l1.4,0.1C-50.8-29.4-48.8-29-47.3-28.4z"/>
		</g>
	</g>
	<g transform="translate(234,186) rotate(0,0,0)">
		<g class="st0">
			<path class="st4" d="M-24-127.7h2.9l-9.4,26.4h-4.2l-9.4-26.4h3.1l8.5,24.2L-24-127.7z"/>
			<path class="st4" d="M-17.9-102.6c-1.1-1.1-1.7-2.8-1.7-5.2v-12.9h2.9v12.7c0,1.6,0.3,2.7,1,3.4s1.7,1,2.9,1c1,0,1.9-0.2,2.9-0.6
				s1.8-1.1,2.4-1.9v-14.6h2.9v19.4H-7l-0.2-2.1h-0.2c-0.8,0.8-1.7,1.4-2.7,1.8c-1,0.4-2.1,0.6-3.2,0.6
				C-15.3-101-16.8-101.5-17.9-102.6z"/>
			<path class="st4" d="M15.1-110H2.6c0,1.6,0.3,2.9,0.8,3.9c0.5,1,1.2,1.7,2.2,2.1c1,0.4,2.2,0.7,3.6,0.7c1.4,0,3-0.3,4.8-0.8v2.3
				c-1.8,0.5-3.5,0.8-5.2,0.8c-3.1,0-5.4-0.8-6.9-2.4c-1.5-1.6-2.3-4.1-2.3-7.6c0-3.3,0.7-5.8,2.1-7.5c1.4-1.7,3.3-2.5,5.8-2.5
				c2.4,0,4.3,0.8,5.5,2.5c1.3,1.7,1.9,4.2,1.9,7.6V-110z M4-117.3c-0.8,1.1-1.3,2.8-1.3,5.3h9.7c0-2.5-0.5-4.2-1.3-5.3
				c-0.8-1.1-2-1.6-3.5-1.6C6-118.9,4.8-118.4,4-117.3z"/>
			<path class="st4" d="M16.3-96.5c1.1-1.5,2-3.1,2.4-4.6c0.5-1.5,0.7-3.3,0.7-5.4v-21.2h2.9v21.6c-0.1,2.1-0.4,4.1-1.1,5.8
				c-0.6,1.7-1.7,3.4-3.1,5.2L16.3-96.5z"/>
			<path class="st4" d="M30.3-101.2c-1.1-0.2-2.2-0.4-3.2-0.8v-2.5c1.1,0.4,2.2,0.6,3.3,0.8s2.2,0.3,3.3,0.3c4.3,0,6.5-1.6,6.5-4.8
				c0-0.9-0.2-1.6-0.5-2.2c-0.4-0.6-0.9-1.1-1.7-1.5c-0.8-0.4-1.8-0.8-3.1-1.1l-1.4-0.4c-2.3-0.6-3.9-1.5-5.1-2.6
				c-1.1-1.2-1.7-2.7-1.7-4.6c0-1.5,0.4-2.8,1.1-3.9c0.7-1.1,1.8-1.9,3.2-2.5s3.1-0.9,5.2-0.9c1,0,2,0.1,3,0.2
				c1,0.1,1.9,0.3,2.7,0.6v2.5c-1.8-0.5-3.7-0.8-5.7-0.8c-2.2,0-3.9,0.4-5,1.2c-1.1,0.8-1.6,2-1.6,3.5c0,0.9,0.2,1.6,0.5,2.2
				c0.3,0.6,0.8,1.1,1.5,1.5c0.7,0.4,1.7,0.8,2.9,1.1l1.4,0.4c2.5,0.6,4.3,1.5,5.4,2.7c1.1,1.2,1.7,2.7,1.7,4.6
				c0,1.6-0.4,2.9-1.1,4.1c-0.7,1.1-1.8,2-3.2,2.6s-3.1,0.9-5.1,0.9C32.6-101,31.5-101,30.3-101.2z"/>
		</g>
	</g>
	<g transform="translate(516,150) rotate(90,0,0)">
		<g class="st0">
			<path class="st2" d="M-121.3-9.5c1.1-1.5,2-3.1,2.4-4.6c0.5-1.5,0.7-3.3,0.7-5.4v-21.2h2.9v21.6c-0.1,2.1-0.4,4.1-1.1,5.8
				c-0.6,1.7-1.7,3.4-3.1,5.2L-121.3-9.5z"/>
			<path class="st2" d="M-95.7-16.8v2.5h-15.4v-1.6l7.6-10c1.3-1.7,2.2-3.1,2.7-4.3c0.5-1.2,0.8-2.4,0.8-3.5c0-1.7-0.5-2.9-1.4-3.7
				c-0.9-0.8-2.4-1.1-4.3-1.1c-2.1,0-4,0.3-5.7,1v-2.5c0.8-0.3,1.7-0.6,2.8-0.7c1.1-0.2,2.1-0.3,3.2-0.3c5.6,0,8.3,2.3,8.3,7
				c0,1-0.1,1.9-0.4,2.8s-0.7,1.9-1.3,2.9s-1.4,2.2-2.4,3.5l-6.1,8H-95.7z"/>
			<path class="st2" d="M-88.7-16.8H-75v2.5h-16.5v-26.4h16.3v2.5h-13.5v9.2h11.7v2.4h-11.7V-16.8z"/>
			<path class="st2" d="M-67.8-16.8h13.7v2.5h-16.5v-26.4h16.3v2.5h-13.5v9.2h11.7v2.4h-11.7V-16.8z"/>
		</g>
	</g>
	<g transform="translate(208,146) rotate(0,0,0)">
		<g class="st0">
			<path class="st5" d="M-32.1-94.3c1.1-1.5,2-3.1,2.5-4.6c0.5-1.5,0.7-3.3,0.7-5.4v-16.3h2.9v16.2c0,2.3-0.3,4.3-1,6.1
				c-0.6,1.8-1.7,3.6-3.2,5.4L-32.1-94.3z M-29-125.4c-0.3-0.3-0.5-0.8-0.5-1.3c0-0.6,0.2-1,0.5-1.3c0.4-0.3,0.8-0.5,1.5-0.5
				s1.1,0.2,1.5,0.5c0.3,0.3,0.5,0.8,0.5,1.3c0,0.6-0.2,1-0.5,1.3c-0.3,0.3-0.8,0.5-1.5,0.5C-28.1-125-28.6-125.1-29-125.4z"/>
			<path class="st5" d="M-10.7-120.3c1.1,0.4,1.9,1.2,2.4,2.2c0.5,1,0.8,2.4,0.8,4.1v12.7h-2.4l-0.2-2.2h-0.2
				c-0.6,0.8-1.4,1.4-2.4,1.8c-1,0.4-2,0.7-3.2,0.7c-1.2,0-2.2-0.2-3.1-0.6s-1.6-1-2-1.8c-0.5-0.8-0.7-1.7-0.7-2.8
				c0-1.7,0.6-3,1.7-4c1.1-0.9,2.9-1.5,5.3-1.8l4.4-0.5v-1.7c0-1.2-0.2-2.1-0.5-2.7c-0.4-0.7-0.9-1.1-1.6-1.4
				c-0.7-0.3-1.7-0.4-2.8-0.4c-0.8,0-1.7,0.1-2.6,0.2c-0.9,0.1-1.8,0.4-2.7,0.7v-2.4c0.8-0.3,1.7-0.5,2.7-0.6c1-0.1,2-0.2,2.9-0.2
				C-13.2-121-11.8-120.8-10.7-120.3z M-12.5-103.8c0.8-0.4,1.6-1,2.2-1.8v-5l-4.2,0.5c-1.5,0.2-2.6,0.5-3.3,1.1
				c-0.7,0.6-1,1.4-1,2.4c0,1.1,0.3,1.9,0.9,2.5c0.6,0.6,1.5,0.8,2.8,0.8C-14.2-103.2-13.3-103.4-12.5-103.8z"/>
			<path class="st5" d="M10.8-120.7h2.9l-7.3,19.4H2.7l-7.3-19.4h3l6.2,16.8L10.8-120.7z"/>
			<path class="st5" d="M25.9-120.3c1.1,0.4,1.9,1.2,2.4,2.2c0.5,1,0.8,2.4,0.8,4.1v12.7h-2.4l-0.2-2.2h-0.2
				c-0.6,0.8-1.4,1.4-2.4,1.8c-1,0.4-2,0.7-3.2,0.7c-1.2,0-2.2-0.2-3.1-0.6s-1.6-1-2-1.8c-0.5-0.8-0.7-1.7-0.7-2.8
				c0-1.7,0.6-3,1.7-4c1.1-0.9,2.9-1.5,5.3-1.8l4.4-0.5v-1.7c0-1.2-0.2-2.1-0.5-2.7c-0.4-0.7-0.9-1.1-1.6-1.4
				c-0.7-0.3-1.7-0.4-2.8-0.4c-0.8,0-1.7,0.1-2.6,0.2c-0.9,0.1-1.8,0.4-2.7,0.7v-2.4c0.8-0.3,1.7-0.5,2.7-0.6c1-0.1,2-0.2,2.9-0.2
				C23.4-121,24.8-120.8,25.9-120.3z M24.1-103.8c0.8-0.4,1.6-1,2.2-1.8v-5l-4.2,0.5c-1.5,0.2-2.6,0.5-3.3,1.1c-0.7,0.6-1,1.4-1,2.4
				c0,1.1,0.3,1.9,0.9,2.5c0.6,0.6,1.5,0.8,2.8,0.8C22.4-103.2,23.2-103.4,24.1-103.8z"/>
		</g>
	</g>
	<g transform="translate(440,182) rotate(0,0,0)">
		<g class="st0">
			<path class="st1" d="M-19.9-103.4c-1.5-1.6-2.2-4.2-2.2-7.6s0.8-6,2.3-7.6c1.6-1.6,3.9-2.4,6.9-2.4c1.4,0,2.8,0.2,4,0.5v2.4
				c-1.3-0.3-2.5-0.5-3.7-0.5c-1.5,0-2.8,0.2-3.7,0.7c-1,0.5-1.7,1.3-2.2,2.4c-0.5,1.1-0.7,2.6-0.7,4.4c0,1.8,0.2,3.3,0.7,4.5
				c0.4,1.1,1.1,1.9,2,2.4c0.9,0.5,2,0.8,3.4,0.8c1.3,0,2.7-0.3,4.3-0.8v2.4c-1.5,0.5-3.1,0.8-4.7,0.8
				C-16.3-101-18.5-101.8-19.9-103.4z"/>
			<path class="st1" d="M-6.4-101.7v-2.3c1.8,0.5,3.6,0.8,5.4,0.8c3.2,0,4.8-1.1,4.8-3.3c0-0.9-0.2-1.6-0.7-2
				c-0.5-0.5-1.2-0.8-2.3-1.1l-2.6-0.5c-1.7-0.4-3-1-3.8-1.8s-1.2-2-1.2-3.4c0-1.1,0.3-2.1,0.8-2.9c0.6-0.8,1.4-1.5,2.6-2
				s2.6-0.7,4.3-0.7c1.6,0,3.1,0.2,4.6,0.6v2.3c-0.8-0.2-1.5-0.4-2.3-0.5c-0.7-0.1-1.5-0.1-2.3-0.1c-1.8,0-3,0.3-3.8,0.9
				c-0.8,0.6-1.2,1.4-1.2,2.4c0,0.8,0.2,1.4,0.7,1.9s1.2,0.8,2.2,1.1l2.6,0.5c1.8,0.4,3,1,3.8,1.8s1.2,2,1.2,3.4
				c0,1.8-0.6,3.2-1.9,4.2c-1.3,1-3.2,1.5-5.6,1.5C-3-101-4.8-101.2-6.4-101.7z"/>
			<path class="st1" d="M9.7-101.7v-2.3c1.8,0.5,3.6,0.8,5.4,0.8c3.2,0,4.8-1.1,4.8-3.3c0-0.9-0.2-1.6-0.7-2
				c-0.5-0.5-1.2-0.8-2.3-1.1l-2.6-0.5c-1.7-0.4-3-1-3.8-1.8s-1.2-2-1.2-3.4c0-1.1,0.3-2.1,0.8-2.9c0.6-0.8,1.4-1.5,2.6-2
				s2.6-0.7,4.3-0.7c1.6,0,3.1,0.2,4.6,0.6v2.3c-0.8-0.2-1.5-0.4-2.3-0.5c-0.7-0.1-1.5-0.1-2.3-0.1c-1.8,0-3,0.3-3.8,0.9
				c-0.8,0.6-1.2,1.4-1.2,2.4c0,0.8,0.2,1.4,0.7,1.9s1.2,0.8,2.2,1.1l2.6,0.5c1.8,0.4,3,1,3.8,1.8s1.2,2,1.2,3.4
				c0,1.8-0.6,3.2-1.9,4.2c-1.3,1-3.2,1.5-5.6,1.5C13.1-101,11.3-101.2,9.7-101.7z"/>
		</g>
	</g>
	<g transform="translate(216,214) rotate(0,0,0)">
		<g class="st0">
			<path class="st2" d="M-27.6-120.7h2.4l0.2,2.1h0.2c0.6-0.8,1.4-1.3,2.3-1.8s1.9-0.7,3.1-0.7c1.5,0,2.8,0.3,3.9,1s2,1.7,2.7,3.1
				c0.7,1.4,1,3.3,1,5.5c0,3.5-0.8,6.1-2.5,7.8c-1.6,1.7-4.1,2.6-7.3,2.6c-0.9,0-1.9-0.1-3.1-0.3v7.8h-2.9V-120.7z M-16.4-105.1
				c1.1-1.2,1.7-3.2,1.7-5.9c0-2.7-0.5-4.6-1.4-5.8c-0.9-1.1-2.3-1.7-4-1.7c-0.9,0-1.8,0.2-2.6,0.6c-0.8,0.4-1.5,1-2.1,1.8v12.5
				c0.5,0.1,1,0.2,1.5,0.2s1.1,0.1,1.7,0.1C-19.2-103.3-17.5-103.9-16.4-105.1z"/>
			<path class="st2" d="M-7.5-130.2h2.9v11.6h0.2c0.8-0.8,1.7-1.4,2.7-1.8c1-0.4,2.1-0.6,3.3-0.6c1.9,0,3.4,0.5,4.5,1.6
				s1.6,2.8,1.6,5.2v12.8H4.8V-114c0-1.6-0.3-2.7-1-3.4s-1.7-1-3-1c-1,0-2,0.2-2.9,0.6c-1,0.4-1.8,1.1-2.4,1.9v14.5h-2.9V-130.2z"/>
			<path class="st2" d="M12.8-120.7h2.4l0.2,2.1h0.2c0.6-0.8,1.4-1.3,2.3-1.8s1.9-0.7,3.1-0.7c1.5,0,2.8,0.3,3.9,1s2,1.7,2.7,3.1
				c0.7,1.4,1,3.3,1,5.5c0,3.5-0.8,6.1-2.5,7.8c-1.6,1.7-4.1,2.6-7.3,2.6c-0.9,0-1.9-0.1-3.1-0.3v7.8h-2.9V-120.7z M24-105.1
				c1.1-1.2,1.7-3.2,1.7-5.9c0-2.7-0.5-4.6-1.4-5.8c-0.9-1.1-2.3-1.7-4-1.7c-0.9,0-1.8,0.2-2.6,0.6c-0.8,0.4-1.5,1-2.1,1.8v12.5
				c0.5,0.1,1,0.2,1.5,0.2s1.1,0.1,1.7,0.1C21.2-103.3,22.9-103.9,24-105.1z"/>
		</g>
	</g>
	<g transform="translate(154,148) rotate(90,0,0)">
		<g class="st0">
			<path class="st2" d="M-124.8-8.6c-1-1.1-1.5-2.8-1.5-5.1c0-1.6,0.2-2.8,0.7-3.8c0.4-1,1.1-1.7,1.9-2.2c0.8-0.5,1.8-0.7,2.9-0.7
				c1.7,0,3.1,0.6,4,1.7c1,1.1,1.5,2.8,1.5,5.1c0,1.5-0.2,2.8-0.7,3.8c-0.4,1-1.1,1.8-1.9,2.2s-1.8,0.7-2.9,0.7
				C-122.4-7-123.8-7.5-124.8-8.6z M-117.8-9.5c0.7-0.9,1-2.3,1-4.2c0-2-0.3-3.4-1-4.3c-0.7-0.9-1.7-1.3-2.9-1.3
				c-1.3,0-2.3,0.4-2.9,1.3c-0.7,0.9-1,2.3-1,4.2c0,2,0.3,3.4,1,4.3c0.7,0.9,1.7,1.3,2.9,1.3S-118.5-8.7-117.8-9.5z"/>
			<path class="st2" d="M-111.5-7.1c-0.5-0.1-1-0.2-1.4-0.3v-14.2h1.4v5.7h0.1c0.3-0.4,0.7-0.6,1.1-0.8c0.5-0.2,1-0.3,1.5-0.3
				c0.7,0,1.3,0.2,1.9,0.5c0.6,0.3,1,0.8,1.3,1.6s0.5,1.6,0.5,2.8c0,3.5-1.6,5.2-4.9,5.2C-110.5-7-111-7-111.5-7.1z M-107.3-9.1
				c0.6-0.6,0.8-1.6,0.8-3c0-1.4-0.2-2.3-0.7-2.9c-0.5-0.6-1.1-0.8-2-0.8c-0.5,0-0.9,0.1-1.3,0.3c-0.4,0.2-0.8,0.5-1,0.8v6.3
				c0.5,0.1,1,0.2,1.7,0.2C-108.7-8.1-107.9-8.5-107.3-9.1z"/>
			<path class="st2" d="M-104.5-3.6c0.6-0.8,1-1.5,1.2-2.3c0.2-0.8,0.4-1.7,0.4-2.7v-8.2h1.4v8.1c0,1.2-0.2,2.2-0.5,3.1
				c-0.3,0.9-0.9,1.8-1.6,2.7L-104.5-3.6z M-102.9-19.2c-0.2-0.2-0.3-0.4-0.3-0.7c0-0.3,0.1-0.5,0.3-0.7c0.2-0.2,0.4-0.2,0.7-0.2
				c0.3,0,0.6,0.1,0.7,0.2c0.2,0.2,0.3,0.4,0.3,0.7c0,0.3-0.1,0.5-0.3,0.7c-0.2,0.2-0.4,0.2-0.7,0.2
				C-102.5-19-102.7-19.1-102.9-19.2z"/>
			<path class="st2" d="M-91.6-11.5h-6.2c0,0.8,0.2,1.5,0.4,2s0.6,0.9,1.1,1.1c0.5,0.2,1.1,0.3,1.8,0.3c0.7,0,1.5-0.1,2.4-0.4v1.2
				C-92.9-7.1-93.8-7-94.6-7c-1.5,0-2.7-0.4-3.5-1.2s-1.1-2.1-1.1-3.8c0-1.7,0.3-2.9,1-3.7s1.7-1.3,2.9-1.3c1.2,0,2.1,0.4,2.8,1.2
				c0.6,0.8,1,2.1,1,3.8V-11.5z M-97.1-15.1c-0.4,0.5-0.6,1.4-0.7,2.6h4.8c0-1.2-0.2-2.1-0.6-2.6c-0.4-0.5-1-0.8-1.7-0.8
				C-96.1-15.9-96.7-15.7-97.1-15.1z"/>
			<path class="st2" d="M-84.4-8.4v1.2C-84.9-7-85.4-7-85.9-7C-88-7-89-8.1-89-10.2v-5.5h-1.8v-1.2h1.8l0.2-3.5h1.2v3.5h3v1.2h-3
				v5.2c0,0.8,0.2,1.4,0.5,1.7c0.3,0.3,0.8,0.5,1.5,0.5C-85.2-8.2-84.8-8.3-84.4-8.4z"/>
			<path class="st2" d="M-82.9-7.1v-9.7h1.4v9.7H-82.9z M-82.9-19.2c-0.2-0.2-0.3-0.4-0.3-0.7s0.1-0.5,0.3-0.7s0.4-0.2,0.7-0.2
				c0.3,0,0.6,0.1,0.7,0.2s0.3,0.4,0.3,0.7s-0.1,0.5-0.3,0.7c-0.2,0.2-0.4,0.2-0.7,0.2C-82.5-18.9-82.7-19-82.9-19.2z"/>
			<path class="st2" d="M-72.2-16.8h1.4l-3.7,9.7h-1.8l-3.7-9.7h1.5l3.1,8.4L-72.2-16.8z"/>
			<path class="st2" d="M-62.2-11.5h-6.2c0,0.8,0.2,1.5,0.4,2s0.6,0.9,1.1,1.1c0.5,0.2,1.1,0.3,1.8,0.3c0.7,0,1.5-0.1,2.4-0.4v1.2
				C-63.5-7.1-64.4-7-65.2-7c-1.5,0-2.7-0.4-3.5-1.2c-0.8-0.8-1.1-2.1-1.1-3.8c0-1.7,0.3-2.9,1-3.7c0.7-0.8,1.7-1.3,2.9-1.3
				c1.2,0,2.1,0.4,2.8,1.2c0.6,0.8,1,2.1,1,3.8V-11.5z M-67.7-15.1c-0.4,0.5-0.6,1.4-0.7,2.6h4.8c0-1.2-0.2-2.1-0.6-2.6
				c-0.4-0.5-1-0.8-1.7-0.8C-66.7-15.9-67.3-15.7-67.7-15.1z"/>
			<path class="st2" d="M-54.6-8.6c-1-1.1-1.6-2.8-1.6-5.2c0-2.3,0.5-4,1.6-5.2c1.1-1.1,2.6-1.7,4.5-1.7c1,0,1.9,0.1,2.9,0.4v1.3
				c-0.9-0.3-1.8-0.4-2.8-0.4c-1,0-1.9,0.2-2.6,0.5s-1.2,0.9-1.6,1.8c-0.4,0.8-0.5,1.9-0.5,3.2c0,1.4,0.2,2.5,0.5,3.3
				c0.4,0.8,0.9,1.4,1.5,1.7c0.7,0.3,1.5,0.5,2.5,0.5c0.5,0,1,0,1.4-0.1c0.5-0.1,1-0.2,1.5-0.4v1.3c-0.9,0.3-1.9,0.5-3,0.5
				C-52.1-7-53.6-7.5-54.6-8.6z"/>
		</g>
	</g>
	<g transform="translate(112,148) rotate(0,0,0)">
		<g class="st0">
			<path class="st3" d="M-39.8-103.8h1.2l0.1,1.1h0.1c0.3-0.4,0.7-0.7,1.1-0.9c0.5-0.2,1-0.3,1.5-0.3c0.7,0,1.4,0.2,2,0.5
				c0.6,0.3,1,0.8,1.4,1.6s0.5,1.6,0.5,2.8c0,1.7-0.4,3-1.2,3.9c-0.8,0.9-2,1.3-3.7,1.3c-0.4,0-1,0-1.6-0.1v3.9h-1.4V-103.8z
				 M-34.2-96.1c0.6-0.6,0.8-1.6,0.8-3c0-1.4-0.2-2.3-0.7-2.9c-0.5-0.6-1.1-0.8-2-0.8c-0.5,0-0.9,0.1-1.3,0.3
				c-0.4,0.2-0.8,0.5-1,0.9v6.2c0.2,0,0.5,0.1,0.8,0.1c0.3,0,0.6,0,0.8,0C-35.6-95.1-34.8-95.5-34.2-96.1z"/>
			<path class="st3" d="M-29.1-95.2c-0.7-0.8-1.1-2.1-1.1-3.8s0.4-3,1.1-3.8s1.7-1.2,3-1.2c1.3,0,2.3,0.4,3,1.2
				c0.7,0.8,1.1,2.1,1.1,3.8c0,1.7-0.4,2.9-1.1,3.8c-0.7,0.8-1.7,1.2-3,1.2C-27.4-94-28.4-94.4-29.1-95.2z M-24.1-96
				c0.5-0.6,0.7-1.6,0.7-2.9c0-1.4-0.2-2.4-0.7-3c-0.5-0.6-1.1-0.9-2-0.9c-0.9,0-1.5,0.3-2,0.9c-0.5,0.6-0.7,1.6-0.7,2.9
				c0,1.4,0.2,2.4,0.7,3s1.1,0.9,2,0.9C-25.2-95.1-24.5-95.4-24.1-96z"/>
			<path class="st3" d="M-20.1-94.4v-1.2c0.9,0.3,1.8,0.4,2.7,0.4c1.6,0,2.4-0.5,2.4-1.6c0-0.4-0.1-0.8-0.3-1
				c-0.2-0.2-0.6-0.4-1.1-0.5l-1.3-0.3c-0.9-0.2-1.5-0.5-1.9-0.9c-0.4-0.4-0.6-1-0.6-1.7c0-0.6,0.1-1,0.4-1.5c0.3-0.4,0.7-0.8,1.3-1
				s1.3-0.4,2.1-0.4c0.8,0,1.5,0.1,2.3,0.3v1.2c-0.4-0.1-0.8-0.2-1.1-0.2s-0.7-0.1-1.1-0.1c-0.9,0-1.5,0.1-1.9,0.4
				c-0.4,0.3-0.6,0.7-0.6,1.2c0,0.4,0.1,0.7,0.3,1c0.2,0.2,0.6,0.4,1.1,0.5l1.3,0.3c0.9,0.2,1.5,0.5,1.9,0.9s0.6,1,0.6,1.7
				c0,0.9-0.3,1.6-1,2.1c-0.6,0.5-1.6,0.8-2.8,0.8C-18.4-94-19.3-94.1-20.1-94.4z"/>
			<path class="st3" d="M-6.6-95.4v1.2C-7.1-94-7.6-94-8.1-94c-2.1,0-3.1-1.1-3.1-3.2v-5.5h-1.8v-1.2h1.8l0.2-3.5h1.2v3.5h3v1.2h-3
				v5.2c0,0.8,0.2,1.4,0.5,1.7c0.3,0.3,0.8,0.5,1.5,0.5C-7.5-95.2-7.1-95.3-6.6-95.4z"/>
			<path class="st3" d="M-3.7-90.1c-0.5-0.1-1-0.2-1.4-0.3v-1.2c1,0.3,1.9,0.5,2.8,0.5c0.7,0,1.3-0.1,1.7-0.3c0.4-0.2,0.8-0.5,1-1
				c0.2-0.4,0.3-1,0.3-1.8v-0.9H0.6c-0.3,0.4-0.7,0.6-1.1,0.8C-1-94.1-1.5-94-2-94c-0.7,0-1.3-0.2-1.9-0.5c-0.6-0.3-1-0.8-1.3-1.6
				s-0.5-1.6-0.5-2.7c0-1.7,0.4-3,1.2-3.9c0.8-0.9,2.1-1.3,3.7-1.3c0.5,0,1,0,1.5,0.1c0.5,0.1,1,0.2,1.4,0.3v9.1
				c0,1-0.2,1.9-0.5,2.5s-0.8,1.1-1.5,1.4C-0.5-90.2-1.3-90-2.3-90C-2.7-90-3.2-90.1-3.7-90.1z M-0.3-95.5c0.4-0.2,0.8-0.5,1-0.8
				v-6.3c-0.5-0.1-1.1-0.2-1.7-0.2c-1.1,0-1.9,0.3-2.5,0.9c-0.6,0.6-0.8,1.6-0.8,3c0,1.4,0.2,2.3,0.7,2.9c0.5,0.6,1.1,0.8,2,0.8
				C-1.2-95.2-0.7-95.3-0.3-95.5z"/>
			<path class="st3" d="M4.9-103.8H6l0.1,1.3h0.1c0.3-0.4,0.7-0.8,1.2-1c0.5-0.2,1-0.4,1.6-0.4c0.3,0,0.5,0,0.8,0.1v1.3
				c-0.3,0-0.5-0.1-0.8-0.1c-0.5,0-1,0.1-1.5,0.4s-0.9,0.6-1.2,1v7.1H4.9V-103.8z"/>
			<path class="st3" d="M18.2-98.5H12c0,0.8,0.2,1.5,0.4,2s0.6,0.9,1.1,1.1c0.5,0.2,1.1,0.3,1.8,0.3c0.7,0,1.5-0.1,2.4-0.4v1.2
				C16.9-94.1,16-94,15.2-94c-1.5,0-2.7-0.4-3.5-1.2s-1.1-2.1-1.1-3.8c0-1.7,0.3-2.9,1-3.7s1.7-1.3,2.9-1.3c1.2,0,2.1,0.4,2.8,1.2
				c0.6,0.8,1,2.1,1,3.8V-98.5z M12.7-102.1c-0.4,0.5-0.6,1.4-0.7,2.6h4.8c0-1.2-0.2-2.1-0.6-2.6c-0.4-0.5-1-0.8-1.7-0.8
				C13.7-102.9,13.1-102.7,12.7-102.1z"/>
			<path class="st3" d="M19.9-94.4v-1.2c0.9,0.3,1.8,0.4,2.7,0.4c1.6,0,2.4-0.5,2.4-1.6c0-0.4-0.1-0.8-0.3-1
				c-0.2-0.2-0.6-0.4-1.1-0.5l-1.3-0.3c-0.9-0.2-1.5-0.5-1.9-0.9c-0.4-0.4-0.6-1-0.6-1.7c0-0.6,0.1-1,0.4-1.5c0.3-0.4,0.7-0.8,1.3-1
				s1.3-0.4,2.1-0.4c0.8,0,1.5,0.1,2.3,0.3v1.2c-0.4-0.1-0.8-0.2-1.1-0.2s-0.7-0.1-1.1-0.1c-0.9,0-1.5,0.1-1.9,0.4
				c-0.4,0.3-0.6,0.7-0.6,1.2c0,0.4,0.1,0.7,0.3,1c0.2,0.2,0.6,0.4,1.1,0.5l1.3,0.3c0.9,0.2,1.5,0.5,1.9,0.9s0.6,1,0.6,1.7
				c0,0.9-0.3,1.6-1,2.1c-0.6,0.5-1.6,0.8-2.8,0.8C21.6-94,20.7-94.1,19.9-94.4z"/>
			<path class="st3" d="M34.3-95.1L34.3-95.1c-0.4,0.4-0.8,0.6-1.2,0.8c-0.5,0.2-1,0.3-1.5,0.3c-0.7,0-1.3-0.2-1.9-0.5
				c-0.6-0.3-1-0.8-1.3-1.6s-0.5-1.6-0.5-2.8c0-3.5,1.6-5.2,4.9-5.2c0.5,0,1,0,1.5,0.1c0.5,0.1,1,0.2,1.4,0.3v13.3h-1.4V-95.1z
				 M33.2-95.5c0.4-0.2,0.8-0.5,1-0.8v-6.3c-0.5-0.1-1.1-0.2-1.7-0.2c-1.1,0-1.9,0.3-2.5,0.9c-0.6,0.6-0.8,1.6-0.8,3
				c0,1.4,0.2,2.3,0.7,2.9c0.5,0.6,1.1,0.8,2,0.8C32.4-95.2,32.8-95.3,33.2-95.5z"/>
			<path class="st3" d="M38.4-94.1v-14.4h1.4v14.4H38.4z"/>
		</g>
	</g>
	<g transform="translate(554,148) rotate(90,0,0)">
		<g class="st0">
			<path class="st5" d="M-126.8-7.1v-12h-4.4v-1.3h10.3v1.3h-4.4v12H-126.8z"/>
			<path class="st5" d="M-113.5-11.5h-6.2c0,0.8,0.2,1.5,0.4,2s0.6,0.9,1.1,1.1c0.5,0.2,1.1,0.3,1.8,0.3c0.7,0,1.5-0.1,2.4-0.4v1.2
				c-0.9,0.3-1.7,0.4-2.6,0.4c-1.5,0-2.7-0.4-3.5-1.2s-1.1-2.1-1.1-3.8c0-1.7,0.3-2.9,1-3.7s1.7-1.3,2.9-1.3c1.2,0,2.1,0.4,2.8,1.2
				c0.6,0.8,1,2.1,1,3.8V-11.5z M-119.1-15.1c-0.4,0.5-0.6,1.4-0.7,2.6h4.8c0-1.2-0.2-2.1-0.6-2.6c-0.4-0.5-1-0.8-1.7-0.8
				C-118.1-15.9-118.7-15.7-119.1-15.1z"/>
			<path class="st5" d="M-111.5-16.8h1.2l0.1,1.1h0.1c0.4-0.4,0.9-0.7,1.4-0.9c0.5-0.2,1.1-0.3,1.7-0.3c1,0,1.7,0.3,2.3,0.8
				c0.6,0.5,0.8,1.4,0.8,2.6v6.4h-1.4v-6.3c0-0.8-0.2-1.4-0.5-1.7c-0.3-0.3-0.9-0.5-1.5-0.5c-0.5,0-1,0.1-1.4,0.3
				c-0.5,0.2-0.9,0.5-1.2,1v7.3h-1.4V-16.8z"/>
			<path class="st5" d="M-101.7-7.4v-1.2c0.9,0.3,1.8,0.4,2.7,0.4c1.6,0,2.4-0.5,2.4-1.6c0-0.4-0.1-0.8-0.3-1
				c-0.2-0.2-0.6-0.4-1.1-0.5l-1.3-0.3c-0.9-0.2-1.5-0.5-1.9-0.9c-0.4-0.4-0.6-1-0.6-1.7c0-0.6,0.1-1,0.4-1.5c0.3-0.4,0.7-0.8,1.3-1
				s1.3-0.4,2.1-0.4c0.8,0,1.5,0.1,2.3,0.3v1.2c-0.4-0.1-0.8-0.2-1.1-0.2s-0.7-0.1-1.1-0.1c-0.9,0-1.5,0.1-1.9,0.4
				c-0.4,0.3-0.6,0.7-0.6,1.2c0,0.4,0.1,0.7,0.3,1c0.2,0.2,0.6,0.4,1.1,0.5l1.3,0.3c0.9,0.2,1.5,0.5,1.9,0.9s0.6,1,0.6,1.7
				c0,0.9-0.3,1.6-1,2.1C-96.9-7.2-97.8-7-99-7C-100-7-100.9-7.1-101.7-7.4z"/>
			<path class="st5" d="M-92.7-8.2c-0.7-0.8-1.1-2.1-1.1-3.8s0.4-3,1.1-3.8s1.7-1.2,3-1.2c1.3,0,2.3,0.4,3,1.2
				c0.7,0.8,1.1,2.1,1.1,3.8c0,1.7-0.4,2.9-1.1,3.8c-0.7,0.8-1.7,1.2-3,1.2C-91-7-92-7.4-92.7-8.2z M-87.7-9
				c0.5-0.6,0.7-1.6,0.7-2.9c0-1.4-0.2-2.4-0.7-3c-0.5-0.6-1.1-0.9-2-0.9c-0.9,0-1.5,0.3-2,0.9c-0.5,0.6-0.7,1.6-0.7,2.9
				c0,1.4,0.2,2.4,0.7,3s1.1,0.9,2,0.9C-88.8-8.1-88.2-8.4-87.7-9z"/>
			<path class="st5" d="M-83.4-16.8h1.2l0.1,1.3h0.1c0.3-0.4,0.7-0.8,1.2-1c0.5-0.2,1-0.4,1.6-0.4c0.3,0,0.5,0,0.8,0.1v1.3
				c-0.3,0-0.5-0.1-0.8-0.1c-0.5,0-1,0.1-1.5,0.4c-0.5,0.2-0.9,0.6-1.2,1v7.1h-1.4V-16.8z"/>
			<path class="st5" d="M-75.1-20.9c0.6-0.6,1.4-0.9,2.6-0.9c0.5,0,0.9,0,1.3,0.1v1.2c-0.4-0.1-0.8-0.1-1.2-0.1
				c-0.7,0-1.3,0.2-1.6,0.5c-0.4,0.3-0.5,0.9-0.5,1.6v1.6h3v1.2h-3v8.5H-76v-8.5h-1.8v-1.2h1.8v-1.5C-76-19.5-75.7-20.3-75.1-20.9z
				 M-70.2-21.6h1.4v14.4h-1.4V-21.6z"/>
			<path class="st5" d="M-65.5-8.2c-0.7-0.8-1.1-2.1-1.1-3.8s0.4-3,1.1-3.8s1.7-1.2,3-1.2c1.3,0,2.3,0.4,3,1.2
				c0.7,0.8,1.1,2.1,1.1,3.8c0,1.7-0.4,2.9-1.1,3.8s-1.7,1.2-3,1.2C-63.8-7-64.8-7.4-65.5-8.2z M-60.5-9c0.5-0.6,0.7-1.6,0.7-2.9
				c0-1.4-0.2-2.4-0.7-3c-0.5-0.6-1.1-0.9-2-0.9c-0.9,0-1.5,0.3-2,0.9c-0.5,0.6-0.7,1.6-0.7,2.9c0,1.4,0.2,2.4,0.7,3
				c0.5,0.6,1.1,0.9,2,0.9C-61.6-8.1-61-8.4-60.5-9z"/>
			<path class="st5" d="M-44.5-16.8h1.3L-46-7.1h-1.7l-2.5-8.3l-2.5,8.3h-1.7l-2.8-9.7h1.4l2.3,8.2l2.5-8.2h1.7l2.4,8.2L-44.5-16.8z
				"/>
		</g>
	</g>
	<g transform="translate(118,172) rotate(0,0,0)">
		<g class="st0">
			<path class="st1" d="M-28.8-99.9c0.5,0.6,0.7,1.3,0.7,2.1c0,0.8-0.2,1.5-0.6,2.1s-1,1-1.9,1.2c-0.9,0.3-2,0.4-3.4,0.4
				c-1.1,0-2.1-0.1-3.3-0.2v-12.9c1.2-0.2,2.4-0.4,3.6-0.4c1.8,0,3,0.3,3.9,0.9s1.2,1.5,1.2,2.7c0,0.8-0.2,1.4-0.6,1.9
				c-0.4,0.5-1,0.9-1.8,1.1C-29.9-100.8-29.2-100.5-28.8-99.9z M-35.8-106.2v4.6h2.6c1.2,0,2-0.2,2.5-0.6c0.5-0.4,0.8-1,0.8-1.8
				c0-0.6-0.1-1.1-0.4-1.4c-0.2-0.4-0.6-0.6-1.1-0.8s-1.2-0.2-2.1-0.2C-34.3-106.4-35.1-106.3-35.8-106.2z M-31.2-95.5
				c0.6-0.2,1-0.5,1.3-0.8c0.3-0.4,0.4-0.9,0.4-1.5c0-0.9-0.3-1.5-0.8-1.9c-0.6-0.4-1.4-0.6-2.6-0.6h-2.9v5c0.6,0.1,1.3,0.1,2.1,0.1
				C-32.6-95.2-31.8-95.3-31.2-95.5z"/>
			<path class="st1" d="M-25.5-95.2c-0.7-0.8-1.1-2.1-1.1-3.8s0.4-3,1.1-3.8s1.7-1.2,3-1.2c1.3,0,2.3,0.4,3,1.2
				c0.7,0.8,1.1,2.1,1.1,3.8c0,1.7-0.4,2.9-1.1,3.8c-0.7,0.8-1.7,1.2-3,1.2C-23.8-94-24.8-94.4-25.5-95.2z M-20.5-96
				c0.5-0.6,0.7-1.6,0.7-2.9c0-1.4-0.2-2.4-0.7-3c-0.5-0.6-1.1-0.9-2-0.9c-0.9,0-1.5,0.3-2,0.9c-0.5,0.6-0.7,1.6-0.7,2.9
				c0,1.4,0.2,2.4,0.7,3s1.1,0.9,2,0.9C-21.6-95.1-21-95.4-20.5-96z"/>
			<path class="st1" d="M-15.5-95.2c-0.7-0.8-1.1-2.1-1.1-3.8s0.4-3,1.1-3.8s1.7-1.2,3-1.2c1.3,0,2.3,0.4,3,1.2
				c0.7,0.8,1.1,2.1,1.1,3.8c0,1.7-0.4,2.9-1.1,3.8c-0.7,0.8-1.7,1.2-3,1.2C-13.8-94-14.8-94.4-15.5-95.2z M-10.5-96
				c0.5-0.6,0.7-1.6,0.7-2.9c0-1.4-0.2-2.4-0.7-3c-0.5-0.6-1.1-0.9-2-0.9c-0.9,0-1.5,0.3-2,0.9c-0.5,0.6-0.7,1.6-0.7,2.9
				c0,1.4,0.2,2.4,0.7,3s1.1,0.9,2,0.9C-11.6-95.1-11-95.4-10.5-96z"/>
			<path class="st1" d="M-1.2-95.4v1.2C-1.8-94-2.3-94-2.7-94c-2.1,0-3.1-1.1-3.1-3.2v-5.5h-1.8v-1.2h1.8l0.2-3.5h1.2v3.5h3v1.2h-3
				v5.2c0,0.8,0.2,1.4,0.5,1.7c0.3,0.3,0.8,0.5,1.5,0.5C-2.1-95.2-1.7-95.3-1.2-95.4z"/>
			<path class="st1" d="M-0.4-94.4v-1.2c0.9,0.3,1.8,0.4,2.7,0.4c1.6,0,2.4-0.5,2.4-1.6c0-0.4-0.1-0.8-0.3-1
				c-0.2-0.2-0.6-0.4-1.1-0.5l-1.3-0.3C1.1-98.7,0.4-99,0-99.5c-0.4-0.4-0.6-1-0.6-1.7c0-0.6,0.1-1,0.4-1.5c0.3-0.4,0.7-0.8,1.3-1
				s1.3-0.4,2.1-0.4c0.8,0,1.5,0.1,2.3,0.3v1.2c-0.4-0.1-0.8-0.2-1.1-0.2s-0.7-0.1-1.1-0.1c-0.9,0-1.5,0.1-1.9,0.4
				c-0.4,0.3-0.6,0.7-0.6,1.2c0,0.4,0.1,0.7,0.3,1c0.2,0.2,0.6,0.4,1.1,0.5l1.3,0.3c0.9,0.2,1.5,0.5,1.9,0.9s0.6,1,0.6,1.7
				c0,0.9-0.3,1.6-1,2.1C4.5-94.2,3.5-94,2.3-94C1.4-94,0.5-94.1-0.4-94.4z"/>
			<path class="st1" d="M13.2-95.4v1.2c-0.5,0.1-1,0.2-1.5,0.2c-2.1,0-3.1-1.1-3.1-3.2v-5.5H6.7v-1.2h1.8l0.2-3.5H10v3.5h3v1.2h-3
				v5.2c0,0.8,0.2,1.4,0.5,1.7c0.3,0.3,0.8,0.5,1.5,0.5C12.3-95.2,12.7-95.3,13.2-95.4z"/>
			<path class="st1" d="M14.6-103.8h1.2l0.1,1.3H16c0.3-0.4,0.7-0.8,1.2-1c0.5-0.2,1-0.4,1.6-0.4c0.3,0,0.5,0,0.8,0.1v1.3
				c-0.3,0-0.5-0.1-0.8-0.1c-0.5,0-1,0.1-1.5,0.4s-0.9,0.6-1.2,1v7.1h-1.4V-103.8z"/>
			<path class="st1" d="M25.7-103.7c0.5,0.2,0.9,0.6,1.2,1.1c0.3,0.5,0.4,1.2,0.4,2.1v6.4h-1.2l-0.1-1.1H26
				c-0.3,0.4-0.7,0.7-1.2,0.9c-0.5,0.2-1,0.3-1.6,0.3c-0.6,0-1.1-0.1-1.6-0.3c-0.4-0.2-0.8-0.5-1-0.9c-0.2-0.4-0.4-0.9-0.4-1.4
				c0-0.9,0.3-1.5,0.8-2c0.6-0.5,1.5-0.8,2.7-0.9l2.2-0.2v-0.8c0-0.6-0.1-1-0.3-1.4c-0.2-0.3-0.5-0.6-0.8-0.7s-0.8-0.2-1.4-0.2
				c-0.4,0-0.8,0-1.3,0.1s-0.9,0.2-1.3,0.3v-1.2c0.4-0.1,0.9-0.2,1.4-0.3c0.5-0.1,1-0.1,1.4-0.1C24.5-104,25.2-103.9,25.7-103.7z
				 M24.9-95.4c0.4-0.2,0.8-0.5,1.1-0.9v-2.5l-2.1,0.2c-0.8,0.1-1.3,0.3-1.6,0.6c-0.3,0.3-0.5,0.7-0.5,1.2c0,0.5,0.2,1,0.5,1.2
				c0.3,0.3,0.8,0.4,1.4,0.4C24-95.1,24.4-95.2,24.9-95.4z"/>
			<path class="st1" d="M30-103.8h1.2l0.1,1.1h0.1c0.3-0.4,0.7-0.7,1.1-0.9c0.5-0.2,1-0.3,1.5-0.3c0.7,0,1.4,0.2,2,0.5
				c0.6,0.3,1,0.8,1.4,1.6s0.5,1.6,0.5,2.8c0,1.7-0.4,3-1.2,3.9c-0.8,0.9-2,1.3-3.7,1.3c-0.4,0-1,0-1.6-0.1v3.9H30V-103.8z
				 M35.6-96.1c0.6-0.6,0.8-1.6,0.8-3c0-1.4-0.2-2.3-0.7-2.9c-0.5-0.6-1.1-0.8-2-0.8c-0.5,0-0.9,0.1-1.3,0.3c-0.4,0.2-0.8,0.5-1,0.9
				v6.2c0.2,0,0.5,0.1,0.8,0.1c0.3,0,0.6,0,0.8,0C34.2-95.1,35-95.5,35.6-96.1z"/>
		</g>
	</g>
	<g transform="translate(134,112) rotate(0,0,0)">
		<g class="st0">
			<path class="st1" d="M-26-107.4h1.4l-3.7,13.2h-1.9l-3.3-11.6l-3.4,11.6h-1.9l-3.7-13.2h1.5l3.3,11.9l3.4-11.9h1.7l3.4,11.9
				L-26-107.4z"/>
			<path class="st1" d="M-22.9-95.2C-23.6-96-24-97.3-24-99s0.4-3,1.1-3.8s1.7-1.2,3-1.2c1.3,0,2.3,0.4,3,1.2
				c0.7,0.8,1.1,2.1,1.1,3.8c0,1.7-0.4,2.9-1.1,3.8c-0.7,0.8-1.7,1.2-3,1.2C-21.2-94-22.2-94.4-22.9-95.2z M-17.9-96
				c0.5-0.6,0.7-1.6,0.7-2.9c0-1.4-0.2-2.4-0.7-3c-0.5-0.6-1.1-0.9-2-0.9c-0.9,0-1.5,0.3-2,0.9c-0.5,0.6-0.7,1.6-0.7,2.9
				c0,1.4,0.2,2.4,0.7,3s1.1,0.9,2,0.9C-19-95.1-18.3-95.4-17.9-96z"/>
			<path class="st1" d="M-13.5-103.8h1.2l0.1,1.3h0.1c0.3-0.4,0.7-0.8,1.2-1c0.5-0.2,1-0.4,1.6-0.4c0.3,0,0.5,0,0.8,0.1v1.3
				c-0.3,0-0.5-0.1-0.8-0.1c-0.5,0-1,0.1-1.5,0.4s-0.9,0.6-1.2,1v7.1h-1.4V-103.8z"/>
			<path class="st1" d="M-6-94.5c-0.6-0.3-1-0.9-1.4-1.6s-0.5-1.6-0.5-2.8c0-1.7,0.4-3,1.2-3.9c0.8-0.9,2-1.3,3.7-1.3
				c0.5,0,1,0,1.6,0.1v-4.7h1.4v14.4h-1.2l-0.1-1.1h-0.1c-0.3,0.4-0.7,0.7-1.1,0.9C-2.9-94.1-3.5-94-4-94C-4.8-94-5.4-94.1-6-94.5z
				 M-2.4-95.5c0.4-0.2,0.8-0.5,1-0.9v-6.2c-0.2,0-0.5-0.1-0.8-0.1c-0.3,0-0.6,0-0.8,0c-1.1,0-2,0.3-2.6,0.9c-0.6,0.6-0.8,1.6-0.8,3
				c0,1.4,0.2,2.3,0.7,2.9c0.5,0.6,1.1,0.8,2,0.8C-3.2-95.2-2.8-95.3-2.4-95.5z"/>
			<path class="st1" d="M2.8-103.8H4l0.1,1.1h0.1c0.3-0.4,0.7-0.7,1.1-0.9c0.5-0.2,1-0.3,1.5-0.3c0.7,0,1.4,0.2,2,0.5
				c0.6,0.3,1,0.8,1.4,1.6s0.5,1.6,0.5,2.8c0,1.7-0.4,3-1.2,3.9c-0.8,0.9-2,1.3-3.7,1.3c-0.4,0-1,0-1.6-0.1v3.9H2.8V-103.8z
				 M8.4-96.1c0.6-0.6,0.8-1.6,0.8-3c0-1.4-0.2-2.3-0.7-2.9c-0.5-0.6-1.1-0.8-2-0.8c-0.5,0-0.9,0.1-1.3,0.3c-0.4,0.2-0.8,0.5-1,0.9
				v6.2c0.2,0,0.5,0.1,0.8,0.1c0.3,0,0.6,0,0.8,0C6.9-95.1,7.8-95.5,8.4-96.1z"/>
			<path class="st1" d="M12.9-103.8h1.2l0.1,1.3h0.1c0.3-0.4,0.7-0.8,1.2-1c0.5-0.2,1-0.4,1.6-0.4c0.3,0,0.5,0,0.8,0.1v1.3
				c-0.3,0-0.5-0.1-0.8-0.1c-0.5,0-1,0.1-1.5,0.4s-0.9,0.6-1.2,1v7.1h-1.4V-103.8z"/>
			<path class="st1" d="M26.2-98.5H20c0,0.8,0.2,1.5,0.4,2s0.6,0.9,1.1,1.1c0.5,0.2,1.1,0.3,1.8,0.3c0.7,0,1.5-0.1,2.4-0.4v1.2
				C24.9-94.1,24-94,23.2-94c-1.5,0-2.7-0.4-3.5-1.2s-1.1-2.1-1.1-3.8c0-1.7,0.3-2.9,1-3.7s1.7-1.3,2.9-1.3c1.2,0,2.1,0.4,2.8,1.2
				c0.6,0.8,1,2.1,1,3.8V-98.5z M20.7-102.1c-0.4,0.5-0.6,1.4-0.7,2.6h4.8c0-1.2-0.2-2.1-0.6-2.6c-0.4-0.5-1-0.8-1.7-0.8
				C21.7-102.9,21.1-102.7,20.7-102.1z"/>
			<path class="st1" d="M27.9-94.4v-1.2c0.9,0.3,1.8,0.4,2.7,0.4c1.6,0,2.4-0.5,2.4-1.6c0-0.4-0.1-0.8-0.3-1
				c-0.2-0.2-0.6-0.4-1.1-0.5l-1.3-0.3c-0.9-0.2-1.5-0.5-1.9-0.9c-0.4-0.4-0.6-1-0.6-1.7c0-0.6,0.1-1,0.4-1.5c0.3-0.4,0.7-0.8,1.3-1
				s1.3-0.4,2.1-0.4c0.8,0,1.5,0.1,2.3,0.3v1.2c-0.4-0.1-0.8-0.2-1.1-0.2s-0.7-0.1-1.1-0.1c-0.9,0-1.5,0.1-1.9,0.4
				c-0.4,0.3-0.6,0.7-0.6,1.2c0,0.4,0.1,0.7,0.3,1c0.2,0.2,0.6,0.4,1.1,0.5l1.3,0.3c0.9,0.2,1.5,0.5,1.9,0.9s0.6,1,0.6,1.7
				c0,0.9-0.3,1.6-1,2.1c-0.6,0.5-1.6,0.8-2.8,0.8C29.6-94,28.7-94.1,27.9-94.4z"/>
			<path class="st1" d="M35.9-94.4v-1.2c0.9,0.3,1.8,0.4,2.7,0.4c1.6,0,2.4-0.5,2.4-1.6c0-0.4-0.1-0.8-0.3-1
				c-0.2-0.2-0.6-0.4-1.1-0.5l-1.3-0.3c-0.9-0.2-1.5-0.5-1.9-0.9c-0.4-0.4-0.6-1-0.6-1.7c0-0.6,0.1-1,0.4-1.5c0.3-0.4,0.7-0.8,1.3-1
				s1.3-0.4,2.1-0.4c0.8,0,1.5,0.1,2.3,0.3v1.2c-0.4-0.1-0.8-0.2-1.1-0.2s-0.7-0.1-1.1-0.1c-0.9,0-1.5,0.1-1.9,0.4
				c-0.4,0.3-0.6,0.7-0.6,1.2c0,0.4,0.1,0.7,0.3,1c0.2,0.2,0.6,0.4,1.1,0.5l1.3,0.3c0.9,0.2,1.5,0.5,1.9,0.9s0.6,1,0.6,1.7
				c0,0.9-0.3,1.6-1,2.1c-0.6,0.5-1.6,0.8-2.8,0.8C37.7-94,36.8-94.1,35.9-94.4z"/>
		</g>
	</g>
	<g transform="translate(574,148) rotate(90,0,0)">
		<g class="st0">
			<path class="st1" d="M-119.1-7.2v-12.9c0.5-0.1,1.1-0.2,1.7-0.3s1.2-0.1,1.7-0.1c2.2,0,3.8,0.6,4.9,1.7c1.1,1.1,1.7,2.8,1.7,5.1
				c0,2.3-0.6,4-1.7,5.1s-2.9,1.6-5.2,1.6C-116.9-7-118-7.1-119.1-7.2z M-112.8-8.8c0.8-0.4,1.3-1,1.7-1.8s0.6-1.9,0.6-3.1
				c0-1.9-0.4-3.3-1.2-4.2c-0.8-0.9-2.1-1.3-3.8-1.3c-0.6,0-1.3,0.1-2.1,0.2v10.7c0.6,0.1,1.3,0.1,2,0.1
				C-114.5-8.3-113.5-8.5-112.8-8.8z"/>
			<path class="st1" d="M-106.2-8.2c-0.7-0.8-1.1-2.1-1.1-3.8s0.4-3,1.1-3.8s1.7-1.2,3-1.2c1.3,0,2.3,0.4,3,1.2
				C-99.4-15-99-13.7-99-12c0,1.7-0.4,2.9-1.1,3.8s-1.7,1.2-3,1.2C-104.4-7-105.4-7.4-106.2-8.2z M-101.1-9c0.5-0.6,0.7-1.6,0.7-2.9
				c0-1.4-0.2-2.4-0.7-3c-0.5-0.6-1.1-0.9-2-0.9c-0.9,0-1.5,0.3-2,0.9c-0.5,0.6-0.7,1.6-0.7,2.9c0,1.4,0.2,2.4,0.7,3
				c0.5,0.6,1.1,0.9,2,0.9C-102.2-8.1-101.6-8.4-101.1-9z"/>
			<path class="st1" d="M-96.2-8.2c-0.7-0.8-1.1-2.1-1.1-3.8c0-1.7,0.4-3,1.2-3.8c0.8-0.8,1.9-1.2,3.5-1.2c0.7,0,1.4,0.1,2,0.3v1.2
				c-0.6-0.2-1.2-0.2-1.8-0.2c-0.8,0-1.4,0.1-1.9,0.4s-0.8,0.6-1.1,1.2s-0.4,1.3-0.4,2.2c0,0.9,0.1,1.7,0.3,2.2c0.2,0.6,0.6,1,1,1.2
				c0.4,0.3,1,0.4,1.7,0.4c0.6,0,1.3-0.1,2.1-0.4v1.2C-91.4-7.1-92.2-7-93-7C-94.4-7-95.4-7.4-96.2-8.2z"/>
			<path class="st1" d="M-83.5-8.4v1.2C-84-7-84.5-7-85-7c-2.1,0-3.1-1.1-3.1-3.2v-5.5H-90v-1.2h1.8l0.2-3.5h1.2v3.5h3v1.2h-3v5.2
				c0,0.8,0.2,1.4,0.5,1.7c0.3,0.3,0.8,0.5,1.5,0.5C-84.4-8.2-84-8.3-83.5-8.4z"/>
			<path class="st1" d="M-82.1-16.8h1.2l0.1,1.3h0.1c0.3-0.4,0.7-0.8,1.2-1c0.5-0.2,1-0.4,1.6-0.4c0.3,0,0.5,0,0.8,0.1v1.3
				c-0.3,0-0.5-0.1-0.8-0.1c-0.5,0-1,0.1-1.5,0.4c-0.5,0.2-0.9,0.6-1.2,1v7.1h-1.4V-16.8z"/>
			<path class="st1" d="M-75.5-7.1v-9.7h1.4v9.7H-75.5z M-75.6-19.2c-0.2-0.2-0.3-0.4-0.3-0.7s0.1-0.5,0.3-0.7s0.4-0.2,0.7-0.2
				s0.6,0.1,0.7,0.2s0.3,0.4,0.3,0.7s-0.1,0.5-0.3,0.7c-0.2,0.2-0.4,0.2-0.7,0.2C-75.1-18.9-75.4-19-75.6-19.2z"/>
			<path class="st1" d="M-71.4-16.8h1.2l0.1,1.1h0.1c0.4-0.4,0.9-0.7,1.4-0.9c0.5-0.2,1.1-0.3,1.7-0.3c1,0,1.7,0.3,2.3,0.8
				s0.8,1.4,0.8,2.6v6.4h-1.4v-6.3c0-0.8-0.2-1.4-0.5-1.7c-0.3-0.3-0.8-0.5-1.5-0.5c-0.5,0-1,0.1-1.4,0.3c-0.5,0.2-0.9,0.5-1.2,1
				v7.3h-1.4V-16.8z"/>
			<path class="st1" d="M-54.1-11.5h-6.2c0,0.8,0.2,1.5,0.4,2s0.6,0.9,1.1,1.1s1.1,0.3,1.8,0.3c0.7,0,1.5-0.1,2.4-0.4v1.2
				C-55.5-7.1-56.3-7-57.2-7c-1.5,0-2.7-0.4-3.5-1.2c-0.8-0.8-1.1-2.1-1.1-3.8c0-1.7,0.3-2.9,1-3.7c0.7-0.8,1.7-1.3,2.9-1.3
				c1.2,0,2.1,0.4,2.8,1.2c0.6,0.8,1,2.1,1,3.8V-11.5z M-59.6-15.1c-0.4,0.5-0.6,1.4-0.7,2.6h4.8c0-1.2-0.2-2.1-0.6-2.6
				c-0.4-0.5-1-0.8-1.7-0.8C-58.6-15.9-59.2-15.7-59.6-15.1z"/>
		</g>
	</g>
	<g transform="translate(148,212) rotate(0,0,0)">
		<g class="st0">
			<path class="st2" d="M-34.2-95.6c-1-1.1-1.5-2.8-1.5-5.1c0-1.6,0.2-2.8,0.7-3.8c0.4-1,1.1-1.7,1.9-2.2c0.8-0.5,1.8-0.7,2.9-0.7
				c1.7,0,3.1,0.6,4,1.7c1,1.1,1.5,2.8,1.5,5.1c0,1.5-0.2,2.8-0.7,3.8c-0.5,1-1.1,1.8-1.9,2.2C-28-94.2-29-94-30.1-94
				C-31.9-94-33.2-94.5-34.2-95.6z M-27.2-96.5c0.7-0.9,1-2.3,1-4.2c0-2-0.3-3.4-1-4.3c-0.7-0.9-1.7-1.3-2.9-1.3
				c-1.3,0-2.3,0.4-2.9,1.3c-0.7,0.9-1,2.3-1,4.2c0,2,0.3,3.4,1,4.3c0.7,0.9,1.7,1.3,2.9,1.3S-27.9-95.7-27.2-96.5z"/>
			<path class="st2" d="M-22.4-103.8h1.2l0.1,1.3h0.1c0.3-0.4,0.7-0.8,1.2-1s1-0.4,1.6-0.4c0.3,0,0.5,0,0.8,0.1v1.3
				c-0.3,0-0.5-0.1-0.8-0.1c-0.5,0-1,0.1-1.5,0.4c-0.5,0.2-0.9,0.6-1.2,1v7.1h-1.4V-103.8z"/>
			<path class="st2" d="M-11.3-103.7c0.5,0.2,1,0.6,1.2,1.1c0.3,0.5,0.4,1.2,0.4,2.1v6.4h-1.2l-0.1-1.1H-11
				c-0.3,0.4-0.7,0.7-1.2,0.9c-0.5,0.2-1,0.3-1.6,0.3c-0.6,0-1.1-0.1-1.6-0.3c-0.4-0.2-0.8-0.5-1-0.9c-0.2-0.4-0.4-0.9-0.4-1.4
				c0-0.9,0.3-1.5,0.8-2c0.6-0.5,1.5-0.8,2.7-0.9l2.2-0.2v-0.8c0-0.6-0.1-1-0.3-1.4c-0.2-0.3-0.5-0.6-0.8-0.7s-0.8-0.2-1.4-0.2
				c-0.4,0-0.8,0-1.3,0.1c-0.5,0.1-0.9,0.2-1.3,0.3v-1.2c0.4-0.1,0.9-0.2,1.4-0.3c0.5-0.1,1-0.1,1.4-0.1
				C-12.5-104-11.8-103.9-11.3-103.7z M-12.1-95.4c0.4-0.2,0.8-0.5,1.1-0.9v-2.5l-2.1,0.2c-0.8,0.1-1.3,0.3-1.6,0.6
				s-0.5,0.7-0.5,1.2c0,0.5,0.2,1,0.5,1.2c0.3,0.3,0.8,0.4,1.4,0.4C-13-95.1-12.6-95.2-12.1-95.4z"/>
			<path class="st2" d="M-6.5-95.2C-7.2-96-7.5-97.3-7.5-99c0-1.7,0.4-3,1.2-3.8c0.8-0.8,1.9-1.2,3.5-1.2c0.7,0,1.4,0.1,2,0.3v1.2
				c-0.6-0.2-1.2-0.2-1.8-0.2c-0.8,0-1.4,0.1-1.9,0.4s-0.8,0.6-1.1,1.2s-0.4,1.3-0.4,2.2c0,0.9,0.1,1.7,0.3,2.2c0.2,0.6,0.6,1,1,1.2
				c0.4,0.3,1,0.4,1.7,0.4c0.6,0,1.3-0.1,2.1-0.4v1.2C-1.7-94.1-2.4-94-3.3-94C-4.7-94-5.7-94.4-6.5-95.2z"/>
			<path class="st2" d="M0.8-94.1v-14.4h1.4v14.4H0.8z"/>
			<path class="st2" d="M12.1-98.5H5.9c0,0.8,0.2,1.5,0.4,2s0.6,0.9,1.1,1.1c0.5,0.2,1.1,0.3,1.8,0.3c0.7,0,1.5-0.1,2.4-0.4v1.2
				C10.8-94.1,9.9-94,9-94c-1.5,0-2.7-0.4-3.5-1.2C4.8-96,4.5-97.2,4.5-99c0-1.7,0.3-2.9,1-3.7c0.7-0.8,1.7-1.3,2.9-1.3
				c1.2,0,2.1,0.4,2.8,1.2c0.6,0.8,1,2.1,1,3.8V-98.5z M6.6-102.1c-0.4,0.5-0.6,1.4-0.7,2.6h4.8c0-1.2-0.2-2.1-0.6-2.6
				s-1-0.8-1.7-0.8C7.6-102.9,7-102.7,6.6-102.1z"/>
			<path class="st2" d="M14.3-94.2v-12.9c0.5-0.1,1.1-0.2,1.7-0.3s1.2-0.1,1.7-0.1c2.2,0,3.8,0.6,4.9,1.7c1.1,1.1,1.7,2.8,1.7,5.1
				c0,2.3-0.6,4-1.7,5.1S19.8-94,17.5-94C16.5-94,15.4-94.1,14.3-94.2z M20.6-95.8c0.8-0.4,1.3-1,1.7-1.8c0.4-0.8,0.6-1.9,0.6-3.1
				c0-1.9-0.4-3.3-1.2-4.2c-0.8-0.9-2.1-1.3-3.8-1.3c-0.6,0-1.3,0.1-2.1,0.2v10.7c0.6,0.1,1.3,0.1,2,0.1
				C18.9-95.3,19.9-95.5,20.6-95.8z"/>
			<path class="st2" d="M35.2-99.9c0.5,0.6,0.7,1.3,0.7,2.1c0,0.8-0.2,1.5-0.6,2.1c-0.4,0.5-1,1-1.9,1.2c-0.9,0.3-2,0.4-3.4,0.4
				c-1.1,0-2.1-0.1-3.3-0.2v-12.9c1.2-0.2,2.4-0.4,3.6-0.4c1.8,0,3,0.3,3.9,0.9c0.8,0.6,1.2,1.5,1.2,2.7c0,0.8-0.2,1.4-0.6,1.9
				s-1,0.9-1.8,1.1C34.1-100.8,34.8-100.5,35.2-99.9z M28.3-106.2v4.6h2.6c1.2,0,2-0.2,2.5-0.6c0.5-0.4,0.8-1,0.8-1.8
				c0-0.6-0.1-1.1-0.4-1.4s-0.6-0.6-1.1-0.8c-0.5-0.2-1.2-0.2-2.1-0.2C29.7-106.4,28.9-106.3,28.3-106.2z M32.9-95.5
				c0.6-0.2,1-0.5,1.3-0.8c0.3-0.4,0.4-0.9,0.4-1.5c0-0.9-0.3-1.5-0.8-1.9c-0.6-0.4-1.4-0.6-2.6-0.6h-2.8v5c0.6,0.1,1.3,0.1,2.1,0.1
				C31.4-95.2,32.3-95.3,32.9-95.5z"/>
		</g>
	</g>
	<g transform="translate(124,192) rotate(0,0,0)">
		<g class="st0">
			<path class="st3" d="M-29.8-94.5c-0.7-0.4-1.3-0.9-1.6-1.7c-0.3-0.8-0.5-1.7-0.5-2.9v-8.2h1.4v8.4c0,1.3,0.3,2.3,0.8,2.9
				c0.6,0.6,1.4,0.9,2.6,0.9c1.2,0,2.1-0.3,2.6-0.9c0.6-0.6,0.8-1.6,0.8-2.9v-8.4h1.4v8.2c0,1.2-0.2,2.2-0.5,2.9s-0.9,1.3-1.6,1.7
				C-25-94.2-25.9-94-27-94C-28.1-94-29.1-94.2-29.8-94.5z"/>
			<path class="st3" d="M-19.4-103.8h1.2l0.1,1.1h0.1c0.4-0.4,0.9-0.7,1.4-0.9c0.5-0.2,1.1-0.3,1.7-0.3c1,0,1.7,0.3,2.3,0.8
				c0.6,0.5,0.8,1.4,0.8,2.6v6.4h-1.4v-6.3c0-0.8-0.2-1.4-0.5-1.7c-0.3-0.3-0.9-0.5-1.5-0.5c-0.5,0-1,0.1-1.4,0.3
				c-0.5,0.2-0.9,0.5-1.2,1v7.3h-1.4V-103.8z"/>
			<path class="st3" d="M-9.2-106.2c-0.2-0.2-0.3-0.4-0.3-0.7s0.1-0.5,0.3-0.7s0.4-0.2,0.7-0.2c0.3,0,0.6,0.1,0.7,0.2
				s0.3,0.4,0.3,0.7s-0.1,0.5-0.3,0.7c-0.2,0.2-0.4,0.2-0.7,0.2C-8.8-105.9-9-106-9.2-106.2z M-9.2-94.1v-9.7h1.4v9.7H-9.2z"/>
			<path class="st3" d="M0.1-95.4v1.2C-0.4-94-0.9-94-1.3-94c-2.1,0-3.1-1.1-3.1-3.2v-5.5h-1.8v-1.2h1.8l0.2-3.5h1.2v3.5h3v1.2h-3
				v5.2c0,0.8,0.2,1.4,0.5,1.7c0.3,0.3,0.8,0.5,1.5,0.5C-0.7-95.2-0.3-95.3,0.1-95.4z"/>
			<path class="st3" d="M4.8-94.1v-12H0.4v-1.3h10.3v1.3H6.3v12H4.8z"/>
			<path class="st3" d="M18-98.5h-6.2c0,0.8,0.2,1.5,0.4,2s0.6,0.9,1.1,1.1c0.5,0.2,1.1,0.3,1.8,0.3c0.7,0,1.5-0.1,2.4-0.4v1.2
				C16.7-94.1,15.8-94,15-94c-1.5,0-2.7-0.4-3.5-1.2s-1.1-2.1-1.1-3.8c0-1.7,0.3-2.9,1-3.7s1.7-1.3,2.9-1.3c1.2,0,2.1,0.4,2.8,1.2
				c0.6,0.8,1,2.1,1,3.8V-98.5z M12.5-102.1c-0.4,0.5-0.6,1.4-0.7,2.6h4.8c0-1.2-0.2-2.1-0.6-2.6c-0.4-0.5-1-0.8-1.7-0.8
				C13.5-102.9,12.9-102.7,12.5-102.1z"/>
			<path class="st3" d="M19.7-94.4v-1.2c0.9,0.3,1.8,0.4,2.7,0.4c1.6,0,2.4-0.5,2.4-1.6c0-0.4-0.1-0.8-0.3-1
				c-0.2-0.2-0.6-0.4-1.1-0.5L22-98.6c-0.9-0.2-1.5-0.5-1.9-0.9c-0.4-0.4-0.6-1-0.6-1.7c0-0.6,0.1-1,0.4-1.5c0.3-0.4,0.7-0.8,1.3-1
				s1.3-0.4,2.1-0.4c0.8,0,1.5,0.1,2.3,0.3v1.2c-0.4-0.1-0.8-0.2-1.1-0.2s-0.7-0.1-1.1-0.1c-0.9,0-1.5,0.1-1.9,0.4
				c-0.4,0.3-0.6,0.7-0.6,1.2c0,0.4,0.1,0.7,0.3,1c0.2,0.2,0.6,0.4,1.1,0.5l1.3,0.3c0.9,0.2,1.5,0.5,1.9,0.9s0.6,1,0.6,1.7
				c0,0.9-0.3,1.6-1,2.1c-0.6,0.5-1.6,0.8-2.8,0.8C21.4-94,20.5-94.1,19.7-94.4z"/>
			<path class="st3" d="M33.2-95.4v1.2c-0.5,0.1-1,0.2-1.5,0.2c-2.1,0-3.1-1.1-3.1-3.2v-5.5h-1.8v-1.2h1.8l0.2-3.5H30v3.5h3v1.2h-3
				v5.2c0,0.8,0.2,1.4,0.5,1.7c0.3,0.3,0.8,0.5,1.5,0.5C32.4-95.2,32.8-95.3,33.2-95.4z"/>
		</g>
	</g>
	<g transform="translate(626,148) rotate(0,0,0)">
		<g class="st0">
			<path class="st1" d="M-21-94.1l-1.5-4.3h-5.6l-1.5,4.3h-1.5l4.7-13.2h2l4.7,13.2H-21z M-27.7-99.7h4.7l-2.4-6.7L-27.7-99.7z"/>
			<path class="st1" d="M-17.9-103.8h1.2l0.1,1.3h0.1c0.3-0.4,0.7-0.8,1.2-1c0.5-0.2,1-0.4,1.6-0.4c0.3,0,0.5,0,0.8,0.1v1.3
				c-0.3,0-0.5-0.1-0.8-0.1c-0.5,0-1,0.1-1.5,0.4c-0.5,0.2-0.9,0.6-1.2,1v7.1h-1.4V-103.8z"/>
			<path class="st1" d="M-10.4-94.5c-0.6-0.3-1-0.9-1.4-1.6c-0.3-0.7-0.5-1.6-0.5-2.8c0-1.7,0.4-3,1.2-3.9c0.8-0.9,2-1.3,3.7-1.3
				c0.5,0,1,0,1.6,0.1v-4.7h1.4v14.4h-1.2l-0.1-1.1h-0.1c-0.3,0.4-0.7,0.7-1.1,0.9c-0.5,0.2-1,0.3-1.5,0.3
				C-9.1-94-9.8-94.1-10.4-94.5z M-6.8-95.5c0.4-0.2,0.8-0.5,1-0.9v-6.2c-0.2,0-0.5-0.1-0.8-0.1c-0.3,0-0.6,0-0.8,0
				c-1.1,0-2,0.3-2.6,0.9s-0.8,1.6-0.8,3c0,1.4,0.2,2.3,0.7,2.9c0.5,0.6,1.1,0.8,2,0.8C-7.6-95.2-7.2-95.3-6.8-95.5z"/>
			<path class="st1" d="M-0.9-94.8c-0.6-0.5-0.8-1.4-0.8-2.6v-6.4h1.4v6.4c0,0.8,0.2,1.4,0.5,1.7c0.3,0.3,0.8,0.5,1.5,0.5
				c0.5,0,1-0.1,1.4-0.3c0.5-0.2,0.9-0.5,1.2-1v-7.3h1.4v9.7H4.6l-0.1-1.1H4.4C4-94.8,3.5-94.5,3-94.3c-0.5,0.2-1,0.3-1.6,0.3
				C0.4-94-0.3-94.3-0.9-94.8z"/>
			<path class="st1" d="M8.4-106.2c-0.2-0.2-0.3-0.4-0.3-0.7s0.1-0.5,0.3-0.7s0.4-0.2,0.7-0.2s0.6,0.1,0.7,0.2s0.3,0.4,0.3,0.7
				s-0.1,0.5-0.3,0.7c-0.2,0.2-0.4,0.2-0.7,0.2C8.9-105.9,8.6-106,8.4-106.2z M8.5-94.1v-9.7h1.4v9.7H8.5z"/>
			<path class="st1" d="M12.6-103.8h1.2l0.1,1.1H14c0.4-0.4,0.9-0.7,1.4-0.9c0.5-0.2,1.1-0.3,1.7-0.3c1,0,1.7,0.3,2.3,0.8
				s0.8,1.4,0.8,2.6v6.4h-1.4v-6.3c0-0.8-0.2-1.4-0.5-1.7c-0.3-0.3-0.8-0.5-1.5-0.5c-0.5,0-1,0.1-1.4,0.3c-0.5,0.2-0.9,0.5-1.2,1
				v7.3h-1.4V-103.8z"/>
			<path class="st1" d="M23.3-95.2c-0.7-0.8-1.1-2.1-1.1-3.8s0.4-3,1.1-3.8s1.7-1.2,3-1.2c1.3,0,2.3,0.4,3,1.2
				c0.7,0.8,1.1,2.1,1.1,3.8c0,1.7-0.4,2.9-1.1,3.8c-0.7,0.8-1.7,1.2-3,1.2S24.1-94.4,23.3-95.2z M28.3-96c0.5-0.6,0.7-1.6,0.7-2.9
				c0-1.4-0.2-2.4-0.7-3c-0.5-0.6-1.1-0.9-2-0.9c-0.9,0-1.5,0.3-2,0.9c-0.5,0.6-0.7,1.6-0.7,2.9c0,1.4,0.2,2.4,0.7,3
				c0.5,0.6,1.1,0.9,2,0.9S27.9-95.4,28.3-96z"/>
		</g>
	</g>
	<g transform="translate(46,150) rotate(90,0,0)">
		<g class="st0">
			<path class="st1" d="M-119.6-8.4h6.8v1.2h-8.3v-13.2h8.2v1.2h-6.7v4.6h5.9v1.2h-5.9V-8.4z"/>
			<path class="st1" d="M-109.7-7.1c-0.6-0.1-1.1-0.2-1.6-0.4v-1.3c0.5,0.2,1.1,0.3,1.6,0.4c0.6,0.1,1.1,0.1,1.6,0.1
				c2.2,0,3.2-0.8,3.2-2.4c0-0.4-0.1-0.8-0.3-1.1s-0.5-0.6-0.8-0.8c-0.4-0.2-0.9-0.4-1.5-0.6l-0.7-0.2c-1.1-0.3-2-0.7-2.5-1.3
				s-0.8-1.3-0.8-2.3c0-0.8,0.2-1.4,0.5-2c0.4-0.6,0.9-1,1.6-1.3c0.7-0.3,1.6-0.4,2.6-0.4c0.5,0,1,0,1.5,0.1c0.5,0.1,1,0.2,1.4,0.3
				v1.3c-0.9-0.3-1.8-0.4-2.8-0.4c-1.1,0-1.9,0.2-2.5,0.6c-0.5,0.4-0.8,1-0.8,1.7c0,0.4,0.1,0.8,0.2,1.1s0.4,0.5,0.8,0.8
				c0.4,0.2,0.8,0.4,1.4,0.5l0.7,0.2c1.2,0.3,2.1,0.8,2.7,1.3c0.6,0.6,0.9,1.4,0.9,2.3c0,0.8-0.2,1.5-0.6,2c-0.4,0.6-0.9,1-1.6,1.3
				S-107-7-108-7C-108.6-7-109.1-7-109.7-7.1z"/>
			<path class="st1" d="M-101.2-20.2c1.2-0.2,2.3-0.3,3.4-0.3c1.8,0,3.1,0.4,4,1.1s1.3,1.9,1.3,3.4c0,1.5-0.5,2.6-1.4,3.4
				s-2.3,1.1-4.2,1.1c-0.5,0-1.1,0-1.7-0.1v4.4h-1.4V-20.2z M-94.9-13.5c0.6-0.5,1-1.4,1-2.5c0-1.2-0.3-2-0.9-2.5
				c-0.6-0.5-1.6-0.8-2.8-0.8c-0.7,0-1.4,0.1-2,0.2v6.4c0.6,0.1,1.2,0.1,1.8,0.1C-96.5-12.7-95.5-12.9-94.9-13.5z"/>
			<path class="st1" d="M-82-12.5c0.4,0.5,0.6,1.2,0.6,2c0,0.7-0.2,1.3-0.5,1.9s-0.9,1-1.6,1.3C-84.2-7.1-85-7-86-7
				c-1,0-1.9-0.1-2.6-0.4c-0.7-0.3-1.2-0.7-1.6-1.2c-0.4-0.5-0.5-1.1-0.5-1.9c0-0.8,0.2-1.5,0.7-2.1c0.4-0.6,1.1-1.1,1.9-1.4
				c-0.7-0.4-1.3-0.8-1.6-1.3c-0.3-0.5-0.5-1.1-0.5-1.8c0-0.7,0.2-1.3,0.5-1.8c0.3-0.5,0.8-0.9,1.5-1.2c0.6-0.3,1.4-0.4,2.3-0.4
				c0.9,0,1.6,0.1,2.3,0.4c0.6,0.3,1.1,0.7,1.5,1.2c0.3,0.5,0.5,1.1,0.5,1.8c0,0.7-0.2,1.4-0.6,1.9c-0.4,0.6-0.9,1-1.7,1.4
				C-83.1-13.5-82.4-13.1-82-12.5z M-83.6-8.7c0.6-0.4,0.8-1,0.8-1.8c0-0.5-0.1-0.9-0.3-1.2c-0.2-0.3-0.6-0.6-1-0.8
				c-0.5-0.2-1.1-0.5-2-0.7c-0.4-0.1-0.7-0.2-1-0.3c-0.7,0.3-1.3,0.6-1.7,1.1c-0.4,0.5-0.6,1.1-0.6,1.7c0,0.8,0.3,1.4,0.9,1.9
				c0.6,0.4,1.4,0.6,2.5,0.6C-84.9-8.1-84.2-8.3-83.6-8.7z M-88.6-15.9c0.2,0.3,0.5,0.6,1,0.9s1.2,0.5,2,0.7l0.3,0.1
				c0.8-0.3,1.3-0.7,1.6-1.2c0.3-0.4,0.5-1,0.5-1.7c0-0.8-0.3-1.3-0.8-1.7c-0.5-0.4-1.2-0.6-2.2-0.6c-0.9,0-1.6,0.2-2.1,0.6
				c-0.5,0.4-0.7,1-0.7,1.7C-88.9-16.6-88.8-16.2-88.6-15.9z"/>
			<path class="st1" d="M-72.5-8.4v1.3h-7.7V-8l3.8-5c0.6-0.8,1.1-1.6,1.4-2.2c0.3-0.6,0.4-1.2,0.4-1.8c0-0.8-0.2-1.5-0.7-1.8
				c-0.5-0.4-1.2-0.6-2.1-0.6c-1,0-2,0.2-2.9,0.5V-20c0.4-0.2,0.8-0.3,1.4-0.4c0.5-0.1,1.1-0.1,1.6-0.1c2.8,0,4.2,1.2,4.2,3.5
				c0,0.5-0.1,1-0.2,1.4c-0.1,0.5-0.3,0.9-0.6,1.4c-0.3,0.5-0.7,1.1-1.2,1.8l-3,4H-72.5z"/>
			<path class="st1" d="M-64.2-14.3c0.6,0.3,1.1,0.7,1.4,1.3c0.3,0.6,0.5,1.3,0.5,2.1c0,0.8-0.2,1.6-0.5,2.1c-0.3,0.6-0.8,1-1.4,1.3
				S-65.5-7-66.3-7c-3.1,0-4.6-2.1-4.6-6.4c0-4.8,1.9-7.2,5.6-7.2c1,0,1.8,0.1,2.4,0.4v1.2c-0.3-0.1-0.7-0.2-1.1-0.3
				s-0.8-0.1-1.2-0.1c-1.4,0-2.5,0.4-3.2,1.3c-0.7,0.9-1,2.3-1.1,4.2c0.4-0.3,0.9-0.6,1.4-0.7s1.1-0.3,1.7-0.3
				C-65.5-14.8-64.8-14.6-64.2-14.3z M-64.3-8.8c0.5-0.4,0.7-1.1,0.7-2c0-0.9-0.3-1.6-0.8-2.1c-0.5-0.5-1.2-0.7-2.2-0.7
				c-0.5,0-1,0.1-1.5,0.3c-0.5,0.2-1,0.4-1.3,0.8c0.1,1.6,0.4,2.8,0.9,3.4c0.5,0.7,1.3,1,2.3,1C-65.5-8.1-64.8-8.4-64.3-8.8z"/>
			<path class="st1" d="M-53.9-14.3c0.6,0.3,1.1,0.7,1.4,1.3c0.3,0.6,0.5,1.3,0.5,2.1c0,0.8-0.2,1.6-0.5,2.1c-0.3,0.6-0.8,1-1.4,1.3
				S-55.2-7-56-7c-3.1,0-4.6-2.1-4.6-6.4c0-4.8,1.9-7.2,5.6-7.2c1,0,1.8,0.1,2.4,0.4v1.2c-0.3-0.1-0.7-0.2-1.1-0.3
				c-0.4-0.1-0.8-0.1-1.2-0.1c-1.4,0-2.5,0.4-3.2,1.3c-0.7,0.9-1,2.3-1.1,4.2c0.4-0.3,0.9-0.6,1.4-0.7c0.6-0.2,1.1-0.3,1.7-0.3
				C-55.2-14.8-54.5-14.6-53.9-14.3z M-54.1-8.8c0.5-0.4,0.7-1.1,0.7-2c0-0.9-0.3-1.6-0.8-2.1c-0.5-0.5-1.2-0.7-2.2-0.7
				c-0.5,0-1,0.1-1.5,0.3c-0.5,0.2-1,0.4-1.3,0.8c0.1,1.6,0.4,2.8,0.9,3.4c0.5,0.7,1.3,1,2.3,1C-55.2-8.1-54.5-8.4-54.1-8.8z"/>
		</g>
	</g>
	<g transform="translate(618,116) rotate(0,0,0)">
		<g class="st0">
			<path class="st2" d="M-27.3-107.4h1.7v13.2H-27v-11.1l-4.3,9.2h-1.3l-4.3-9.1v11h-1.4v-13.2h1.7l4.6,9.9L-27.3-107.4z"/>
			<path class="st2" d="M-22.1-95.2c-0.7-0.8-1.1-2.1-1.1-3.8s0.4-3,1.1-3.8s1.7-1.2,3-1.2c1.3,0,2.3,0.4,3,1.2
				c0.7,0.8,1.1,2.1,1.1,3.8c0,1.7-0.4,2.9-1.1,3.8s-1.7,1.2-3,1.2C-20.4-94-21.4-94.4-22.1-95.2z M-17.1-96
				c0.5-0.6,0.7-1.6,0.7-2.9c0-1.4-0.2-2.4-0.7-3s-1.1-0.9-2-0.9c-0.9,0-1.5,0.3-2,0.9c-0.5,0.6-0.7,1.6-0.7,2.9
				c0,1.4,0.2,2.4,0.7,3c0.5,0.6,1.1,0.9,2,0.9C-18.2-95.1-17.6-95.4-17.1-96z"/>
			<path class="st2" d="M-12.8-103.8h1.2l0.1,1.1h0.1c0.4-0.4,0.9-0.7,1.4-0.9c0.5-0.2,1.1-0.3,1.7-0.3c1,0,1.7,0.3,2.3,0.8
				s0.8,1.4,0.8,2.6v6.4h-1.4v-6.3c0-0.8-0.2-1.4-0.5-1.7c-0.3-0.3-0.9-0.5-1.5-0.5c-0.5,0-1,0.1-1.4,0.3c-0.5,0.2-0.9,0.5-1.2,1
				v7.3h-1.4V-103.8z"/>
			<path class="st2" d="M-1.1-90.1c-0.5-0.1-1-0.2-1.4-0.3v-1.2c1,0.3,1.9,0.5,2.8,0.5c0.7,0,1.3-0.1,1.7-0.3c0.4-0.2,0.8-0.5,1-1
				c0.2-0.4,0.3-1,0.3-1.8v-0.9H3.3c-0.3,0.4-0.7,0.6-1.1,0.8c-0.5,0.2-1,0.3-1.5,0.3c-0.7,0-1.3-0.2-1.9-0.5
				c-0.6-0.3-1-0.8-1.3-1.6c-0.3-0.7-0.5-1.6-0.5-2.7c0-1.7,0.4-3,1.2-3.9c0.8-0.9,2.1-1.3,3.7-1.3c0.5,0,1,0,1.5,0.1
				c0.5,0.1,1,0.2,1.4,0.3v9.1c0,1-0.2,1.9-0.5,2.5c-0.3,0.6-0.8,1.1-1.5,1.4S1.3-90,0.3-90C-0.1-90-0.6-90.1-1.1-90.1z M2.3-95.5
				c0.4-0.2,0.8-0.5,1-0.8v-6.3c-0.5-0.1-1.1-0.2-1.7-0.2c-1.1,0-1.9,0.3-2.5,0.9c-0.6,0.6-0.8,1.6-0.8,3c0,1.4,0.2,2.3,0.7,2.9
				s1.1,0.8,2,0.8C1.5-95.2,1.9-95.3,2.3-95.5z"/>
			<path class="st2" d="M8.1-95.2C7.3-96,7-97.3,7-99s0.4-3,1.1-3.8s1.7-1.2,3-1.2c1.3,0,2.3,0.4,3,1.2c0.7,0.8,1.1,2.1,1.1,3.8
				c0,1.7-0.4,2.9-1.1,3.8s-1.7,1.2-3,1.2C9.8-94,8.8-94.4,8.1-95.2z M13.1-96c0.5-0.6,0.7-1.6,0.7-2.9c0-1.4-0.2-2.4-0.7-3
				s-1.1-0.9-2-0.9c-0.9,0-1.5,0.3-2,0.9c-0.5,0.6-0.7,1.6-0.7,2.9c0,1.4,0.2,2.4,0.7,3c0.5,0.6,1.1,0.9,2,0.9
				C12-95.1,12.6-95.4,13.1-96z"/>
			<path class="st2" d="M17.6-94.2v-12.9c0.5-0.1,1.1-0.2,1.7-0.3s1.2-0.1,1.7-0.1c2.2,0,3.8,0.6,4.9,1.7c1.1,1.1,1.7,2.8,1.7,5.1
				c0,2.3-0.6,4-1.7,5.1S23-94,20.7-94C19.7-94,18.7-94.1,17.6-94.2z M23.9-95.8c0.8-0.4,1.3-1,1.7-1.8s0.6-1.9,0.6-3.1
				c0-1.9-0.4-3.3-1.2-4.2c-0.8-0.9-2.1-1.3-3.8-1.3c-0.6,0-1.3,0.1-2.1,0.2v10.7c0.6,0.1,1.3,0.1,2,0.1
				C22.1-95.3,23.1-95.5,23.9-95.8z"/>
			<path class="st2" d="M38.5-99.9c0.5,0.6,0.7,1.3,0.7,2.1c0,0.8-0.2,1.5-0.6,2.1c-0.4,0.5-1,1-1.9,1.2c-0.9,0.3-2,0.4-3.4,0.4
				c-1.1,0-2.1-0.1-3.3-0.2v-12.9c1.2-0.2,2.4-0.4,3.6-0.4c1.8,0,3,0.3,3.9,0.9c0.8,0.6,1.2,1.5,1.2,2.7c0,0.8-0.2,1.4-0.6,1.9
				c-0.4,0.5-1,0.9-1.8,1.1C37.3-100.8,38-100.5,38.5-99.9z M31.5-106.2v4.6h2.6c1.2,0,2-0.2,2.5-0.6c0.5-0.4,0.8-1,0.8-1.8
				c0-0.6-0.1-1.1-0.4-1.4c-0.2-0.4-0.6-0.6-1.1-0.8s-1.2-0.2-2.1-0.2C32.9-106.4,32.2-106.3,31.5-106.2z M36.1-95.5
				c0.6-0.2,1-0.5,1.3-0.8c0.3-0.4,0.4-0.9,0.4-1.5c0-0.9-0.3-1.5-0.8-1.9c-0.6-0.4-1.4-0.6-2.6-0.6h-2.8v5c0.6,0.1,1.3,0.1,2.1,0.1
				C34.7-95.2,35.5-95.3,36.1-95.5z"/>
		</g>
	</g>
	<g transform="translate(654,150) rotate(90,0,0)">
		<g class="st0">
			<path class="st2" d="M-119.4-7.1c-0.6-0.1-1.1-0.2-1.6-0.4v-1.3c0.5,0.2,1.1,0.3,1.6,0.4c0.6,0.1,1.1,0.1,1.6,0.1
				c2.1,0,3.2-0.8,3.2-2.4c0-0.4-0.1-0.8-0.3-1.1s-0.5-0.6-0.8-0.8c-0.4-0.2-0.9-0.4-1.5-0.6l-0.7-0.2c-1.1-0.3-2-0.7-2.5-1.3
				c-0.6-0.6-0.8-1.3-0.8-2.3c0-0.8,0.2-1.4,0.5-2c0.4-0.6,0.9-1,1.6-1.3s1.6-0.4,2.6-0.4c0.5,0,1,0,1.5,0.1c0.5,0.1,1,0.2,1.4,0.3
				v1.3c-0.9-0.3-1.8-0.4-2.8-0.4c-1.1,0-1.9,0.2-2.5,0.6c-0.5,0.4-0.8,1-0.8,1.7c0,0.4,0.1,0.8,0.2,1.1c0.2,0.3,0.4,0.5,0.8,0.8
				c0.4,0.2,0.8,0.4,1.4,0.5l0.7,0.2c1.2,0.3,2.1,0.8,2.7,1.3c0.6,0.6,0.9,1.4,0.9,2.3c0,0.8-0.2,1.5-0.6,2c-0.4,0.6-0.9,1-1.6,1.3
				c-0.7,0.3-1.6,0.4-2.5,0.4C-118.3-7-118.9-7-119.4-7.1z"/>
			<path class="st2" d="M-104.6-16.8h1.4l-5.1,13.6h-1.4l1.5-3.9h-0.4l-3.7-9.7h1.5l3.1,8.5L-104.6-16.8z"/>
			<path class="st2" d="M-89.9-16.2c0.5,0.5,0.8,1.4,0.8,2.6v6.4h-1.4v-6.4c0-0.8-0.2-1.4-0.5-1.7c-0.3-0.3-0.8-0.5-1.3-0.5
				c-0.4,0-0.8,0.1-1.3,0.3c-0.4,0.2-0.8,0.5-1.1,0.9c0,0.3,0.1,0.6,0.1,0.9v6.5h-1.4v-6.4c0-0.8-0.2-1.4-0.5-1.7s-0.8-0.5-1.3-0.5
				c-0.4,0-0.9,0.1-1.3,0.3c-0.4,0.2-0.8,0.6-1.1,1v7.2h-1.4v-9.7h1.2l0.1,1.1h0.1c0.4-0.4,0.8-0.7,1.3-0.9c0.5-0.2,1-0.3,1.5-0.3
				c1.2,0,2,0.5,2.4,1.4c0.4-0.5,0.9-0.8,1.4-1.1c0.5-0.2,1-0.3,1.6-0.3C-91.1-17-90.4-16.7-89.9-16.2z"/>
			<path class="st2" d="M-83.9-20c-0.4,0.3-0.5,0.9-0.5,1.7v1.5h3v1.2h-3v8.5h-1.4v-8.5h-1.8v-1.2h1.8v-1.4c0-1.1,0.3-2,0.9-2.6
				c0.6-0.6,1.5-0.9,2.6-0.9c0.4,0,0.9,0,1.3,0.1v1.2c-0.4-0.1-0.8-0.1-1.2-0.1C-83-20.6-83.5-20.4-83.9-20z"/>
			<path class="st2" d="M-79.7-8.2c-0.7-0.8-1.1-2.1-1.1-3.8s0.4-3,1.1-3.8s1.7-1.2,3-1.2c1.3,0,2.3,0.4,3,1.2
				c0.7,0.8,1.1,2.1,1.1,3.8c0,1.7-0.4,2.9-1.1,3.8c-0.7,0.8-1.7,1.2-3,1.2C-77.9-7-79-7.4-79.7-8.2z M-74.7-9
				c0.5-0.6,0.7-1.6,0.7-2.9c0-1.4-0.2-2.4-0.7-3c-0.5-0.6-1.1-0.9-2-0.9c-0.9,0-1.5,0.3-2,0.9c-0.5,0.6-0.7,1.6-0.7,2.9
				c0,1.4,0.2,2.4,0.7,3s1.1,0.9,2,0.9C-75.8-8.1-75.1-8.4-74.7-9z"/>
			<path class="st2" d="M-70.3-16.8h1.2l0.1,1.1h0.1c0.4-0.4,0.9-0.7,1.4-0.9c0.5-0.2,1.1-0.3,1.7-0.3c1,0,1.7,0.3,2.3,0.8
				s0.8,1.4,0.8,2.6v6.4h-1.4v-6.3c0-0.8-0.2-1.4-0.5-1.7c-0.3-0.3-0.9-0.5-1.5-0.5c-0.5,0-1,0.1-1.4,0.3c-0.5,0.2-0.9,0.5-1.2,1
				v7.3h-1.4V-16.8z"/>
			<path class="st2" d="M-53.7-16.8h1.4l-5.1,13.6h-1.4l1.5-3.9h-0.4l-3.7-9.7h1.5l3.1,8.5L-53.7-16.8z"/>
		</g>
	</g>
	<g transform="translate(628,168) rotate(0,0,0)">
		<g class="st0">
			<path class="st4" d="M-19-94.1l-1.5-4.3h-5.6l-1.5,4.3H-29l4.7-13.2h2l4.7,13.2H-19z M-25.6-99.7h4.7l-2.4-6.7L-25.6-99.7z"/>
			<path class="st4" d="M-15.9-103.8h1.2l0.1,1.1h0.1c0.3-0.4,0.7-0.7,1.1-0.9c0.5-0.2,1-0.3,1.5-0.3c0.7,0,1.4,0.2,2,0.5
				c0.6,0.3,1,0.8,1.4,1.6c0.3,0.7,0.5,1.6,0.5,2.8c0,1.7-0.4,3-1.2,3.9c-0.8,0.9-2,1.3-3.7,1.3c-0.4,0-1,0-1.6-0.1v3.9h-1.4V-103.8
				z M-10.3-96.1c0.6-0.6,0.8-1.6,0.8-3c0-1.4-0.2-2.3-0.7-2.9c-0.5-0.6-1.1-0.8-2-0.8c-0.5,0-0.9,0.1-1.3,0.3
				c-0.4,0.2-0.8,0.5-1,0.9v6.2c0.2,0,0.5,0.1,0.8,0.1c0.3,0,0.6,0,0.8,0C-11.7-95.1-10.8-95.5-10.3-96.1z"/>
			<path class="st4" d="M-0.8-103.7c0.5,0.2,0.9,0.6,1.2,1.1c0.3,0.5,0.4,1.2,0.4,2.1v6.4h-1.2l-0.1-1.1h-0.1
				c-0.3,0.4-0.7,0.7-1.2,0.9c-0.5,0.2-1,0.3-1.6,0.3C-4-94-4.5-94.1-5-94.3c-0.4-0.2-0.8-0.5-1-0.9c-0.2-0.4-0.4-0.9-0.4-1.4
				c0-0.9,0.3-1.5,0.8-2c0.6-0.5,1.5-0.8,2.7-0.9l2.2-0.2v-0.8c0-0.6-0.1-1-0.3-1.4c-0.2-0.3-0.5-0.6-0.8-0.7s-0.8-0.2-1.4-0.2
				c-0.4,0-0.8,0-1.3,0.1c-0.5,0.1-0.9,0.2-1.3,0.3v-1.2c0.4-0.1,0.9-0.2,1.4-0.3s1-0.1,1.4-0.1C-2.1-104-1.4-103.9-0.8-103.7z
				 M-1.7-95.4c0.4-0.2,0.8-0.5,1.1-0.9v-2.5l-2.1,0.2C-3.5-98.5-4-98.3-4.4-98c-0.3,0.3-0.5,0.7-0.5,1.2c0,0.5,0.2,1,0.5,1.2
				c0.3,0.3,0.8,0.4,1.4,0.4C-2.6-95.1-2.1-95.2-1.7-95.4z"/>
			<path class="st4" d="M4-95.2C3.3-96,2.9-97.3,2.9-99c0-1.7,0.4-3,1.2-3.8c0.8-0.8,1.9-1.2,3.5-1.2c0.7,0,1.4,0.1,2,0.2v1.2
				c-0.6-0.2-1.2-0.2-1.8-0.2c-0.8,0-1.4,0.1-1.9,0.4s-0.8,0.6-1.1,1.2S4.4-99.9,4.4-99c0,0.9,0.1,1.7,0.3,2.2c0.2,0.6,0.6,1,1,1.2
				s1,0.4,1.7,0.4c0.6,0,1.3-0.1,2.1-0.4v1.2C8.8-94.1,8-94,7.2-94C5.8-94,4.7-94.4,4-95.2z"/>
			<path class="st4" d="M11.3-108.6h1.4v5.8h0.1c0.4-0.4,0.8-0.7,1.3-0.9c0.5-0.2,1.1-0.3,1.6-0.3c0.9,0,1.7,0.3,2.2,0.8
				s0.8,1.4,0.8,2.6v6.4h-1.4v-6.4c0-0.8-0.2-1.4-0.5-1.7s-0.9-0.5-1.5-0.5c-0.5,0-1,0.1-1.5,0.3c-0.5,0.2-0.9,0.5-1.2,1v7.3h-1.4
				V-108.6z"/>
			<path class="st4" d="M28.6-98.5h-6.2c0,0.8,0.2,1.5,0.4,2s0.6,0.9,1.1,1.1s1.1,0.3,1.8,0.3c0.7,0,1.5-0.1,2.4-0.4v1.2
				c-0.9,0.3-1.7,0.4-2.6,0.4c-1.5,0-2.7-0.4-3.5-1.2c-0.8-0.8-1.1-2.1-1.1-3.8c0-1.7,0.3-2.9,1-3.7c0.7-0.8,1.7-1.2,2.9-1.2
				c1.2,0,2.1,0.4,2.8,1.2c0.6,0.8,1,2.1,1,3.8V-98.5z M23-102.1c-0.4,0.5-0.6,1.4-0.7,2.6h4.8c0-1.2-0.2-2.1-0.6-2.6
				c-0.4-0.5-1-0.8-1.7-0.8C24-102.9,23.4-102.7,23-102.1z"/>
		</g>
	</g>
	<g transform="translate(30,150) rotate(90,0,0)">
		<g class="st0">
			<path class="st5" d="M-112.4-8.6c-1-1.1-1.6-2.8-1.6-5.2c0-2.3,0.5-4,1.6-5.2c1.1-1.1,2.6-1.7,4.5-1.7c1,0,1.9,0.1,2.9,0.4v1.3
				c-0.9-0.3-1.8-0.4-2.8-0.4c-1,0-1.9,0.2-2.6,0.5c-0.7,0.4-1.2,0.9-1.6,1.8c-0.4,0.8-0.5,1.9-0.5,3.2c0,1.4,0.2,2.5,0.5,3.3
				c0.4,0.8,0.9,1.4,1.5,1.7s1.5,0.5,2.5,0.5c0.5,0,1,0,1.4-0.1c0.5-0.1,1-0.2,1.5-0.4v1.3c-0.9,0.3-1.9,0.5-3,0.5
				C-109.9-7-111.3-7.5-112.4-8.6z"/>
			<path class="st5" d="M-103.1-8.2c-0.7-0.8-1.1-2.1-1.1-3.8s0.4-3,1.1-3.8s1.7-1.2,3-1.2c1.3,0,2.3,0.4,3,1.2
				c0.7,0.8,1.1,2.1,1.1,3.8c0,1.7-0.4,2.9-1.1,3.8c-0.7,0.8-1.7,1.2-3,1.2S-102.3-7.4-103.1-8.2z M-98.1-9c0.5-0.6,0.7-1.6,0.7-2.9
				c0-1.4-0.2-2.4-0.7-3c-0.5-0.6-1.1-0.9-2-0.9c-0.9,0-1.5,0.3-2,0.9c-0.5,0.6-0.7,1.6-0.7,2.9c0,1.4,0.2,2.4,0.7,3
				c0.5,0.6,1.1,0.9,2,0.9S-98.5-8.4-98.1-9z"/>
			<path class="st5" d="M-93.7-16.8h1.2l0.1,1.1h0.1c0.4-0.4,0.9-0.7,1.4-0.9c0.5-0.2,1.1-0.3,1.7-0.3c1,0,1.7,0.3,2.3,0.8
				s0.8,1.4,0.8,2.6v6.4h-1.4v-6.3c0-0.8-0.2-1.4-0.5-1.7c-0.3-0.3-0.8-0.5-1.5-0.5c-0.5,0-1,0.1-1.4,0.3c-0.5,0.2-0.9,0.5-1.2,1
				v7.3h-1.4V-16.8z"/>
			<path class="st5" d="M-78.4-8.4v1.2C-78.9-7-79.4-7-79.9-7C-81.9-7-83-8-83-10.2v-5.5h-1.8v-1.2h1.8l0.2-3.5h1.2v3.5h3v1.2h-3
				v5.2c0,0.8,0.2,1.4,0.5,1.7c0.3,0.3,0.8,0.5,1.5,0.5C-79.2-8.2-78.8-8.3-78.4-8.4z"/>
			<path class="st5" d="M-71.9-16.7c0.5,0.2,0.9,0.6,1.2,1.1c0.3,0.5,0.4,1.2,0.4,2.1v6.4h-1.2l-0.1-1.1h-0.1
				c-0.3,0.4-0.7,0.7-1.2,0.9c-0.5,0.2-1,0.3-1.6,0.3c-0.6,0-1.1-0.1-1.6-0.3c-0.4-0.2-0.8-0.5-1-0.9c-0.2-0.4-0.4-0.9-0.4-1.4
				c0-0.9,0.3-1.5,0.8-2c0.6-0.5,1.5-0.8,2.7-0.9l2.2-0.2v-0.8c0-0.6-0.1-1-0.3-1.4c-0.2-0.3-0.5-0.6-0.8-0.7s-0.8-0.2-1.4-0.2
				c-0.4,0-0.8,0-1.3,0.1c-0.5,0.1-0.9,0.2-1.3,0.3v-1.2c0.4-0.1,0.9-0.2,1.4-0.3s1-0.1,1.4-0.1C-73.1-17-72.4-16.9-71.9-16.7z
				 M-72.8-8.4c0.4-0.2,0.8-0.5,1.1-0.9v-2.5l-2.1,0.2c-0.8,0.1-1.3,0.3-1.6,0.6c-0.3,0.3-0.5,0.7-0.5,1.2c0,0.5,0.2,1,0.5,1.2
				c0.3,0.3,0.8,0.4,1.4,0.4C-73.7-8.1-73.2-8.2-72.8-8.4z"/>
			<path class="st5" d="M-67.1-8.2c-0.7-0.8-1.1-2.1-1.1-3.8s0.4-3,1.1-3.8s1.7-1.2,3-1.2c1.3,0,2.3,0.4,3,1.2
				c0.7,0.8,1.1,2.1,1.1,3.8c0,1.7-0.4,2.9-1.1,3.8c-0.7,0.8-1.7,1.2-3,1.2S-66.4-7.4-67.1-8.2z M-62.1-9c0.5-0.6,0.7-1.6,0.7-2.9
				c0-1.4-0.2-2.4-0.7-3c-0.5-0.6-1.1-0.9-2-0.9c-0.9,0-1.5,0.3-2,0.9c-0.5,0.6-0.7,1.6-0.7,2.9c0,1.4,0.2,2.4,0.7,3
				c0.5,0.6,1.1,0.9,2,0.9S-62.5-8.4-62.1-9z"/>
		</g>
	</g>
	<g transform="translate(674,150) rotate(90,0,0)">
		<g class="st0">
			<path class="st2" d="M-113.5-3.6c0.6-0.8,1-1.5,1.2-2.3c0.2-0.8,0.4-1.7,0.4-2.7v-8.2h1.4v8.1c0,1.2-0.2,2.2-0.5,3.1
				c-0.3,0.9-0.9,1.8-1.6,2.7L-113.5-3.6z M-112-19.2c-0.2-0.2-0.3-0.4-0.3-0.7c0-0.3,0.1-0.5,0.3-0.7c0.2-0.2,0.4-0.2,0.7-0.2
				c0.3,0,0.6,0.1,0.7,0.2c0.2,0.2,0.3,0.4,0.3,0.7c0,0.3-0.1,0.5-0.3,0.7c-0.2,0.2-0.4,0.2-0.7,0.2C-111.5-19-111.8-19.1-112-19.2z
				"/>
			<path class="st2" d="M-98.4-9c-0.8,1.1-2,1.8-3.5,1.9c1.3,0.4,2.8,0.6,4.5,0.8l-0.2,1.2c-2.7-0.3-4.8-0.8-6.3-1.5
				c-1.5-0.7-2.6-1.6-3.2-2.7s-1-2.6-1-4.4c0-2.3,0.5-4,1.5-5.1c1-1.1,2.3-1.7,4-1.7c1.7,0,3.1,0.6,4,1.7s1.5,2.8,1.5,5.1
				C-97.2-11.7-97.6-10.1-98.4-9z M-105.7-9.5c0.7,0.9,1.7,1.3,3,1.3c1.3,0,2.3-0.4,2.9-1.3s1-2.3,1-4.2c0-2-0.3-3.4-1-4.3
				c-0.7-0.9-1.7-1.3-2.9-1.3c-1.3,0-2.3,0.4-2.9,1.3c-0.7,0.9-1,2.3-1,4.2C-106.7-11.8-106.3-10.4-105.7-9.5z"/>
			<path class="st2" d="M-94.2-7.8c-0.6-0.5-0.8-1.4-0.8-2.6v-6.4h1.4v6.4c0,0.8,0.2,1.4,0.5,1.7c0.3,0.3,0.8,0.5,1.5,0.5
				c0.5,0,1-0.1,1.4-0.3c0.5-0.2,0.9-0.5,1.2-1v-7.3h1.4v9.7h-1.2l-0.1-1.1H-89c-0.4,0.4-0.9,0.7-1.4,0.9s-1,0.3-1.6,0.3
				C-92.9-7-93.7-7.3-94.2-7.8z"/>
			<path class="st2" d="M-77.7-11.5h-6.2c0,0.8,0.2,1.5,0.4,2s0.6,0.9,1.1,1.1c0.5,0.2,1.1,0.3,1.8,0.3c0.7,0,1.5-0.1,2.4-0.4v1.2
				C-79.1-7.1-79.9-7-80.8-7c-1.5,0-2.7-0.4-3.5-1.2C-85-9-85.4-10.2-85.4-12c0-1.7,0.3-2.9,1-3.7c0.7-0.8,1.7-1.3,2.9-1.3
				c1.2,0,2.1,0.4,2.8,1.2c0.6,0.8,1,2.1,1,3.8V-11.5z M-83.3-15.1c-0.4,0.5-0.6,1.4-0.7,2.6h4.8c0-1.2-0.2-2.1-0.6-2.6
				c-0.4-0.5-1-0.8-1.7-0.8C-82.2-15.9-82.8-15.7-83.3-15.1z"/>
			<path class="st2" d="M-75.7-16.8h1.2l0.1,1.3h0.1c0.3-0.4,0.7-0.8,1.2-1c0.5-0.2,1-0.4,1.6-0.4c0.3,0,0.5,0,0.8,0.1v1.3
				c-0.3,0-0.5-0.1-0.8-0.1c-0.5,0-1,0.1-1.5,0.4s-0.9,0.6-1.2,1v7.1h-1.4V-16.8z"/>
			<path class="st2" d="M-62.3-16.8h1.4L-66-3.2h-1.4l1.5-3.9h-0.4l-3.7-9.7h1.5l3.1,8.5L-62.3-16.8z"/>
		</g>
	</g>
	<g transform="translate(14,150) rotate(90,0,0)">
		<g class="st0">
			<path class="st2" d="M-113.7-16.8h1.2l0.1,1.1h0.1c0.3-0.4,0.7-0.7,1.1-0.9s1-0.3,1.5-0.3c0.7,0,1.4,0.2,2,0.5
				c0.6,0.3,1,0.8,1.4,1.6c0.3,0.7,0.5,1.6,0.5,2.8c0,1.7-0.4,3-1.2,3.9c-0.8,0.9-2,1.3-3.7,1.3c-0.4,0-1,0-1.6-0.1v3.9h-1.4V-16.8z
				 M-108.1-9.1c0.6-0.6,0.8-1.6,0.8-3c0-1.4-0.2-2.3-0.7-2.9c-0.5-0.6-1.1-0.8-2-0.8c-0.5,0-0.9,0.1-1.3,0.3
				c-0.4,0.2-0.8,0.5-1,0.9v6.2c0.2,0,0.5,0.1,0.8,0.1c0.3,0,0.6,0,0.8,0C-109.6-8.1-108.7-8.5-108.1-9.1z"/>
			<path class="st2" d="M-97.4-16.8h1.4l-5.1,13.6h-1.4l1.5-3.9h-0.4l-3.7-9.7h1.5l3.1,8.5L-97.4-16.8z"/>
			<path class="st2" d="M-89.3-8.4v1.2C-89.8-7-90.3-7-90.8-7c-2.1,0-3.1-1.1-3.1-3.2v-5.5h-1.8v-1.2h1.8l0.2-3.5h1.2v3.5h3v1.2h-3
				v5.2c0,0.8,0.2,1.4,0.5,1.7c0.3,0.3,0.8,0.5,1.5,0.5C-90.1-8.2-89.7-8.3-89.3-8.4z"/>
			<path class="st2" d="M-87.8-21.6h1.4v5.8h0.1c0.4-0.4,0.8-0.7,1.3-0.9c0.5-0.2,1.1-0.3,1.6-0.3c0.9,0,1.7,0.3,2.2,0.8
				s0.8,1.4,0.8,2.6v6.4h-1.4v-6.4c0-0.8-0.2-1.4-0.5-1.7s-0.8-0.5-1.5-0.5c-0.5,0-1,0.1-1.5,0.3c-0.5,0.2-0.9,0.5-1.2,1v7.3h-1.4
				V-21.6z"/>
			<path class="st2" d="M-77-8.2c-0.7-0.8-1.1-2.1-1.1-3.8s0.4-3,1.1-3.8s1.7-1.2,3-1.2c1.3,0,2.3,0.4,3,1.2
				c0.7,0.8,1.1,2.1,1.1,3.8c0,1.7-0.4,2.9-1.1,3.8S-72.7-7-74-7C-75.3-7-76.3-7.4-77-8.2z M-72-9c0.5-0.6,0.7-1.6,0.7-2.9
				c0-1.4-0.2-2.4-0.7-3c-0.5-0.6-1.1-0.9-2-0.9c-0.9,0-1.5,0.3-2,0.9c-0.5,0.6-0.7,1.6-0.7,2.9c0,1.4,0.2,2.4,0.7,3
				c0.5,0.6,1.1,0.9,2,0.9C-73.1-8.1-72.5-8.4-72-9z"/>
			<path class="st2" d="M-67.7-16.8h1.2l0.1,1.1h0.1c0.4-0.4,0.9-0.7,1.4-0.9c0.5-0.2,1.1-0.3,1.7-0.3c1,0,1.7,0.3,2.3,0.8
				c0.6,0.5,0.8,1.4,0.8,2.6v6.4h-1.4v-6.3c0-0.8-0.2-1.4-0.5-1.7c-0.3-0.3-0.9-0.5-1.5-0.5c-0.5,0-1,0.1-1.4,0.3
				c-0.5,0.2-0.9,0.5-1.2,1v7.3h-1.4V-16.8z"/>
		</g>
	</g>
	<g transform="translate(434,204) rotate(0,0,0)">
		<g class="st0">
			<path class="st3" d="M-21.1-94.1c-0.6-0.1-1.1-0.2-1.6-0.4v-1.3c0.5,0.2,1.1,0.3,1.6,0.4c0.6,0.1,1.1,0.1,1.6,0.1
				c2.2,0,3.2-0.8,3.2-2.4c0-0.4-0.1-0.8-0.3-1.1s-0.5-0.6-0.8-0.8c-0.4-0.2-0.9-0.4-1.5-0.6l-0.7-0.2c-1.1-0.3-2-0.7-2.5-1.3
				s-0.8-1.3-0.8-2.3c0-0.8,0.2-1.4,0.5-2c0.4-0.6,0.9-1,1.6-1.3c0.7-0.3,1.6-0.4,2.6-0.4c0.5,0,1,0,1.5,0.1c0.5,0.1,1,0.2,1.4,0.3
				v1.3c-0.9-0.3-1.8-0.4-2.8-0.4c-1.1,0-1.9,0.2-2.5,0.6c-0.5,0.4-0.8,1-0.8,1.7c0,0.4,0.1,0.8,0.2,1.1s0.4,0.5,0.8,0.8
				c0.4,0.2,0.8,0.4,1.4,0.5l0.7,0.2c1.2,0.3,2.1,0.8,2.7,1.3c0.6,0.6,0.9,1.4,0.9,2.3c0,0.8-0.2,1.5-0.6,2c-0.4,0.6-0.9,1-1.6,1.3
				s-1.6,0.4-2.5,0.4C-20-94-20.5-94-21.1-94.1z"/>
			<path class="st3" d="M-7.6-95.4v1.2C-8.1-94-8.6-94-9.1-94c-2.1,0-3.1-1.1-3.1-3.2v-5.5h-1.8v-1.2h1.8l0.2-3.5h1.2v3.5h3v1.2h-3
				v5.2c0,0.8,0.2,1.4,0.5,1.7c0.3,0.3,0.8,0.5,1.5,0.5C-8.5-95.2-8.1-95.3-7.6-95.4z"/>
			<path class="st3" d="M-6.1-103.8h1.2l0.1,1.3h0.1c0.3-0.4,0.7-0.8,1.2-1s1-0.4,1.6-0.4c0.3,0,0.5,0,0.8,0.1v1.3
				c-0.3,0-0.5-0.1-0.8-0.1c-0.5,0-1,0.1-1.5,0.4c-0.5,0.2-0.9,0.6-1.2,1v7.1h-1.4V-103.8z"/>
			<path class="st3" d="M1-94.8c-0.6-0.5-0.8-1.4-0.8-2.6v-6.4h1.4v6.4c0,0.8,0.2,1.4,0.5,1.7c0.3,0.3,0.8,0.5,1.5,0.5
				c0.5,0,1-0.1,1.4-0.3c0.5-0.2,0.9-0.5,1.2-1v-7.3h1.4v9.7H6.5l-0.1-1.1H6.3c-0.4,0.4-0.9,0.7-1.4,0.9c-0.5,0.2-1,0.3-1.6,0.3
				C2.3-94,1.6-94.3,1-94.8z"/>
			<path class="st3" d="M15.6-95.4v1.2c-0.5,0.1-1,0.2-1.5,0.2C12.1-94,11-95,11-97.2v-5.5H9.2v-1.2H11l0.2-3.5h1.2v3.5h3v1.2h-3
				v5.2c0,0.8,0.2,1.4,0.5,1.7c0.3,0.3,0.8,0.5,1.5,0.5C14.8-95.2,15.2-95.3,15.6-95.4z"/>
			<path class="st3" d="M16.5-94.4v-1.2c0.9,0.3,1.8,0.4,2.7,0.4c1.6,0,2.4-0.5,2.4-1.6c0-0.4-0.1-0.8-0.3-1s-0.6-0.4-1.1-0.5
				l-1.3-0.3c-0.9-0.2-1.5-0.5-1.9-0.9c-0.4-0.4-0.6-1-0.6-1.7c0-0.6,0.1-1,0.4-1.5s0.7-0.8,1.3-1c0.6-0.2,1.3-0.4,2.1-0.4
				c0.8,0,1.5,0.1,2.3,0.3v1.2c-0.4-0.1-0.8-0.2-1.1-0.2s-0.7-0.1-1.1-0.1c-0.9,0-1.5,0.1-1.9,0.4s-0.6,0.7-0.6,1.2
				c0,0.4,0.1,0.7,0.3,1s0.6,0.4,1.1,0.5l1.3,0.3c0.9,0.2,1.5,0.5,1.9,0.9c0.4,0.4,0.6,1,0.6,1.7c0,0.9-0.3,1.6-1,2.1
				c-0.6,0.5-1.6,0.8-2.8,0.8C18.2-94,17.3-94.1,16.5-94.4z"/>
		</g>
	</g>
	<g transform="translate(272,212) rotate(0,0,0)">
		<g class="st0">
			<path class="st1" d="M-21.3-95.4h6.8v1.2h-8.3v-13.2h8.2v1.2h-6.7v4.6h5.9v1.2h-5.9V-95.4z"/>
			<path class="st1" d="M-11.4-94.1c-0.6-0.1-1.1-0.2-1.6-0.4v-1.3c0.5,0.2,1.1,0.3,1.6,0.4c0.6,0.1,1.1,0.1,1.6,0.1
				c2.1,0,3.2-0.8,3.2-2.4c0-0.4-0.1-0.8-0.3-1.1s-0.5-0.6-0.8-0.8c-0.4-0.2-0.9-0.4-1.5-0.6l-0.7-0.2c-1.1-0.3-2-0.7-2.5-1.3
				c-0.6-0.6-0.8-1.3-0.8-2.3c0-0.8,0.2-1.4,0.5-2c0.4-0.6,0.9-1,1.6-1.3s1.6-0.4,2.6-0.4c0.5,0,1,0,1.5,0.1c0.5,0.1,1,0.2,1.4,0.3
				v1.3c-0.9-0.3-1.8-0.4-2.8-0.4c-1.1,0-1.9,0.2-2.5,0.6c-0.5,0.4-0.8,1-0.8,1.7c0,0.4,0.1,0.8,0.2,1.1c0.2,0.3,0.4,0.5,0.8,0.8
				c0.4,0.2,0.8,0.4,1.4,0.5l0.7,0.2c1.2,0.3,2.1,0.8,2.7,1.3c0.6,0.6,0.9,1.4,0.9,2.3c0,0.8-0.2,1.5-0.6,2c-0.4,0.6-0.9,1-1.6,1.3
				C-7.9-94.1-8.7-94-9.7-94C-10.3-94-10.8-94-11.4-94.1z"/>
			<path class="st1" d="M-2.9-107.2c1.2-0.2,2.3-0.3,3.4-0.3c1.8,0,3.1,0.4,4,1.1c0.9,0.7,1.3,1.9,1.3,3.4c0,1.5-0.5,2.6-1.4,3.4
				s-2.3,1.1-4.2,1.1c-0.5,0-1.1,0-1.7-0.1v4.4h-1.4V-107.2z M3.4-100.5c0.6-0.5,1-1.4,1-2.5c0-1.2-0.3-2-0.9-2.5
				c-0.6-0.5-1.6-0.8-2.8-0.8c-0.7,0-1.4,0.1-2,0.2v6.4c0.6,0.1,1.2,0.1,1.8,0.1C1.8-99.7,2.8-99.9,3.4-100.5z"/>
			<path class="st1" d="M14.3-99.9c0.5,0.6,0.7,1.3,0.7,2.2c0,1.2-0.4,2.1-1.2,2.8s-2,1-3.5,1c-1.1,0-2.2-0.2-3.2-0.5v-1.2
				c0.5,0.2,1,0.3,1.6,0.4c0.5,0.1,1.1,0.1,1.6,0.1c1.1,0,2-0.2,2.5-0.7c0.6-0.4,0.9-1.1,0.9-2c0-0.8-0.3-1.5-0.8-1.9
				c-0.5-0.4-1.4-0.7-2.5-0.7H8.8v-1.2h0.9c1.2,0,2.1-0.2,2.7-0.7s0.9-1.1,0.9-1.9c0-0.7-0.2-1.3-0.7-1.7c-0.5-0.4-1.2-0.6-2.2-0.6
				c-1,0-2,0.2-2.9,0.5v-1.2c0.4-0.2,0.9-0.3,1.4-0.4c0.5-0.1,1.1-0.1,1.6-0.1c1.4,0,2.4,0.3,3.1,0.9s1.1,1.4,1.1,2.5
				c0,0.8-0.2,1.4-0.6,2s-1,0.9-1.8,1.2C13.1-100.8,13.8-100.5,14.3-99.9z"/>
			<path class="st1" d="M23.7-95.4v1.3H16V-95l3.8-5c0.6-0.8,1.1-1.6,1.4-2.2s0.4-1.2,0.4-1.8c0-0.8-0.2-1.5-0.7-1.8
				c-0.5-0.4-1.2-0.6-2.1-0.6c-1,0-2,0.2-2.9,0.5v-1.3c0.4-0.2,0.8-0.3,1.4-0.4c0.5-0.1,1.1-0.1,1.6-0.1c2.8,0,4.2,1.2,4.2,3.5
				c0,0.5-0.1,1-0.2,1.4c-0.1,0.5-0.3,0.9-0.6,1.4c-0.3,0.5-0.7,1.1-1.2,1.8l-3,4H23.7z"/>
		</g>
	</g>
	<g transform="translate(218,112) rotate(0,0,0)">
		<g class="st0">
			<path class="st5" d="M-16.8-95.4h6.8v1.2h-8.3v-13.2h8.2v1.2h-6.7v4.6h5.9v1.2h-5.9V-95.4z"/>
			<path class="st5" d="M-4.4-99.1l3.5,4.9h-1.6L-5.2-98L-8-94.1h-1.6l3.5-4.9l-3.4-4.8h1.6l2.7,3.7l2.7-3.7h1.6L-4.4-99.1z"/>
			<path class="st5" d="M5.7-95.4v1.2C5.2-94,4.7-94,4.2-94C2.1-94,1-95,1-97.2v-5.5h-1.8v-1.2H1l0.2-3.5h1.2v3.5h3v1.2h-3v5.2
				c0,0.8,0.2,1.4,0.5,1.7c0.3,0.3,0.8,0.5,1.5,0.5C4.8-95.2,5.2-95.3,5.7-95.4z"/>
			<path class="st5" d="M5.7-91.7c0.6-0.8,1-1.5,1.2-2.3s0.4-1.7,0.4-2.7v-10.6h1.4v10.8c0,1.1-0.2,2-0.5,2.9
				c-0.3,0.8-0.8,1.7-1.6,2.6L5.7-91.7z"/>
			<path class="st5" d="M12.7-94.1c-0.6-0.1-1.1-0.2-1.6-0.4v-1.3c0.5,0.2,1.1,0.3,1.6,0.4c0.6,0.1,1.1,0.1,1.6,0.1
				c2.1,0,3.2-0.8,3.2-2.4c0-0.4-0.1-0.8-0.3-1.1s-0.5-0.6-0.8-0.8c-0.4-0.2-0.9-0.4-1.5-0.6l-0.7-0.2c-1.1-0.3-2-0.7-2.5-1.3
				c-0.6-0.6-0.8-1.3-0.8-2.3c0-0.8,0.2-1.4,0.5-2c0.4-0.6,0.9-1,1.6-1.3s1.6-0.4,2.6-0.4c0.5,0,1,0,1.5,0.1c0.5,0.1,1,0.2,1.4,0.3
				v1.3c-0.9-0.3-1.8-0.4-2.8-0.4c-1.1,0-1.9,0.2-2.5,0.6c-0.5,0.4-0.8,1-0.8,1.7c0,0.4,0.1,0.8,0.2,1.1c0.2,0.3,0.4,0.5,0.8,0.8
				c0.4,0.2,0.8,0.4,1.4,0.5l0.7,0.2c1.2,0.3,2.1,0.8,2.7,1.3c0.6,0.6,0.9,1.4,0.9,2.3c0,0.8-0.2,1.5-0.6,2c-0.4,0.6-0.9,1-1.6,1.3
				c-0.7,0.3-1.6,0.4-2.5,0.4C13.9-94,13.3-94,12.7-94.1z"/>
		</g>
	</g>
	<g transform="translate(552,212) rotate(0,0,0)">
		<g class="st0">
			<path class="st3" d="M-12.1-94.1l-4.7-6.1h-2v6.1h-1.4v-13.2h1.4v5.8h2l4.4-5.8h1.6l-4.8,6.4l5.2,6.8H-12.1z"/>
			<path class="st3" d="M-2.3-98.5h-6.2c0,0.8,0.2,1.5,0.4,2c0.2,0.5,0.6,0.9,1.1,1.1s1.1,0.3,1.8,0.3c0.7,0,1.5-0.1,2.4-0.4v1.2
				C-3.7-94.1-4.5-94-5.4-94c-1.5,0-2.7-0.4-3.5-1.2S-10-97.2-10-99c0-1.7,0.3-2.9,1-3.7s1.7-1.3,2.9-1.3c1.2,0,2.1,0.4,2.8,1.2
				c0.6,0.8,1,2.1,1,3.8V-98.5z M-7.9-102.1c-0.4,0.5-0.6,1.4-0.7,2.6h4.8c0-1.2-0.2-2.1-0.6-2.6c-0.4-0.5-1-0.8-1.7-0.8
				C-6.9-102.9-7.4-102.7-7.9-102.1z"/>
			<path class="st3" d="M-0.3-103.8h1.2l0.1,1.3h0.1c0.3-0.4,0.7-0.8,1.2-1c0.5-0.2,1-0.4,1.6-0.4c0.3,0,0.5,0,0.8,0.1v1.3
				c-0.3,0-0.5-0.1-0.8-0.1c-0.5,0-1,0.1-1.5,0.4s-0.9,0.6-1.2,1v7.1h-1.4V-103.8z"/>
			<path class="st3" d="M10.8-103.7c0.5,0.2,0.9,0.6,1.2,1.1c0.3,0.5,0.4,1.2,0.4,2.1v6.4h-1.2l-0.1-1.1h-0.1
				c-0.3,0.4-0.7,0.7-1.2,0.9c-0.5,0.2-1,0.3-1.6,0.3c-0.6,0-1.1-0.1-1.6-0.3c-0.4-0.2-0.8-0.5-1-0.9c-0.2-0.4-0.4-0.9-0.4-1.4
				c0-0.9,0.3-1.5,0.8-2c0.6-0.5,1.4-0.8,2.7-0.9l2.2-0.2v-0.8c0-0.6-0.1-1-0.3-1.4c-0.2-0.3-0.5-0.6-0.8-0.7s-0.8-0.2-1.4-0.2
				c-0.4,0-0.8,0-1.3,0.1c-0.5,0.1-0.9,0.2-1.3,0.3v-1.2c0.4-0.1,0.9-0.2,1.4-0.3s1-0.1,1.4-0.1C9.6-104,10.3-103.9,10.8-103.7z
				 M10-95.4c0.4-0.2,0.8-0.5,1.1-0.9v-2.5L9-98.5c-0.8,0.1-1.3,0.3-1.6,0.6c-0.3,0.3-0.5,0.7-0.5,1.2c0,0.5,0.2,1,0.5,1.2
				c0.3,0.3,0.8,0.4,1.4,0.4C9.1-95.1,9.5-95.2,10-95.4z"/>
			<path class="st3" d="M14.7-94.4v-1.2c0.9,0.3,1.8,0.4,2.7,0.4c1.6,0,2.4-0.5,2.4-1.6c0-0.4-0.1-0.8-0.3-1
				c-0.2-0.2-0.6-0.4-1.1-0.5L17-98.6c-0.9-0.2-1.5-0.5-1.9-0.9c-0.4-0.4-0.6-1-0.6-1.7c0-0.6,0.1-1,0.4-1.5c0.3-0.4,0.7-0.8,1.3-1
				c0.6-0.2,1.3-0.4,2.1-0.4c0.8,0,1.5,0.1,2.3,0.3v1.2c-0.4-0.1-0.8-0.2-1.1-0.2s-0.7-0.1-1.1-0.1c-0.9,0-1.5,0.1-1.9,0.4
				s-0.6,0.7-0.6,1.2c0,0.4,0.1,0.7,0.3,1s0.6,0.4,1.1,0.5l1.3,0.3c0.9,0.2,1.5,0.5,1.9,0.9c0.4,0.4,0.6,1,0.6,1.7
				c0,0.9-0.3,1.6-1,2.1c-0.6,0.5-1.6,0.8-2.8,0.8C16.4-94,15.5-94.1,14.7-94.4z"/>
		</g>
	</g>
	<g transform="translate(-2,172) rotate(90,0,0)">
		<g class="st0">
			<path class="st3" d="M-103.1-20.4h1.7v13.2h-1.4v-11.1l-4.3,9.2h-1.3l-4.3-9.1v11h-1.4v-13.2h1.7l4.6,9.9L-103.1-20.4z"/>
			<path class="st3" d="M-97.4-7.1c-0.6-0.1-1.1-0.2-1.6-0.4v-1.3c0.5,0.2,1.1,0.3,1.6,0.4c0.6,0.1,1.1,0.1,1.6,0.1
				c2.1,0,3.2-0.8,3.2-2.4c0-0.4-0.1-0.8-0.3-1.1s-0.5-0.6-0.8-0.8c-0.4-0.2-0.9-0.4-1.5-0.6l-0.7-0.2c-1.1-0.3-2-0.7-2.5-1.3
				c-0.6-0.6-0.8-1.3-0.8-2.3c0-0.8,0.2-1.4,0.5-2c0.4-0.6,0.9-1,1.6-1.3c0.7-0.3,1.6-0.4,2.6-0.4c0.5,0,1,0,1.5,0.1s1,0.2,1.4,0.3
				v1.3c-0.9-0.3-1.8-0.4-2.8-0.4c-1.1,0-1.9,0.2-2.5,0.6c-0.5,0.4-0.8,1-0.8,1.7c0,0.4,0.1,0.8,0.2,1.1c0.2,0.3,0.4,0.5,0.8,0.8
				c0.4,0.2,0.8,0.4,1.4,0.5l0.7,0.2c1.2,0.3,2.1,0.8,2.7,1.3c0.6,0.6,0.9,1.4,0.9,2.3c0,0.8-0.2,1.5-0.6,2c-0.4,0.6-0.9,1-1.6,1.3
				C-93.9-7.1-94.7-7-95.7-7C-96.3-7-96.8-7-97.4-7.1z"/>
			<path class="st3" d="M-87.9-7.1c-0.6-0.1-1.1-0.2-1.6-0.4v-1.3c0.5,0.2,1.1,0.3,1.6,0.4c0.6,0.1,1.1,0.1,1.6,0.1
				c2.2,0,3.2-0.8,3.2-2.4c0-0.4-0.1-0.8-0.3-1.1s-0.5-0.6-0.8-0.8c-0.4-0.2-0.9-0.4-1.5-0.6l-0.7-0.2c-1.1-0.3-2-0.7-2.5-1.3
				s-0.8-1.3-0.8-2.3c0-0.8,0.2-1.4,0.5-2c0.4-0.6,0.9-1,1.6-1.3c0.7-0.3,1.6-0.4,2.6-0.4c0.5,0,1,0,1.5,0.1c0.5,0.1,1,0.2,1.4,0.3
				v1.3c-0.9-0.3-1.8-0.4-2.8-0.4c-1.1,0-1.9,0.2-2.5,0.6c-0.5,0.4-0.8,1-0.8,1.7c0,0.4,0.1,0.8,0.2,1.1s0.4,0.5,0.8,0.8
				c0.4,0.2,0.8,0.4,1.4,0.5l0.7,0.2c1.2,0.3,2.1,0.8,2.7,1.3c0.6,0.6,0.9,1.4,0.9,2.3c0,0.8-0.2,1.5-0.6,2c-0.4,0.6-0.9,1-1.6,1.3
				S-85.2-7-86.2-7C-86.8-7-87.3-7-87.9-7.1z"/>
			<path class="st3" d="M-70.1-9c-0.8,1.1-2,1.8-3.5,1.9c1.3,0.4,2.8,0.6,4.5,0.8l-0.2,1.2c-2.7-0.3-4.8-0.8-6.3-1.5
				c-1.5-0.7-2.6-1.6-3.2-2.7c-0.6-1.1-1-2.6-1-4.4c0-2.3,0.5-4,1.5-5.1c1-1.1,2.3-1.7,4-1.7c1.7,0,3.1,0.6,4,1.7s1.5,2.8,1.5,5.1
				C-68.9-11.7-69.3-10.1-70.1-9z M-77.4-9.5c0.7,0.9,1.7,1.3,3,1.3c1.3,0,2.3-0.4,2.9-1.3c0.7-0.9,1-2.3,1-4.2c0-2-0.3-3.4-1-4.3
				c-0.7-0.9-1.7-1.3-2.9-1.3c-1.3,0-2.3,0.4-2.9,1.3c-0.7,0.9-1,2.3-1,4.2C-78.4-11.8-78.1-10.4-77.4-9.5z"/>
			<path class="st3" d="M-66.5-7.1v-13.2h1.4v12h6.5v1.3H-66.5z"/>
		</g>
	</g>
	<g transform="translate(616,188) rotate(0,0,0)">
		<g class="st0">
			<path class="st4" d="M-18.2-94.1c-0.6-0.1-1.1-0.2-1.6-0.4v-1.3c0.5,0.2,1.1,0.3,1.6,0.4c0.6,0.1,1.1,0.1,1.6,0.1
				c2.1,0,3.2-0.8,3.2-2.4c0-0.4-0.1-0.8-0.3-1.1s-0.5-0.6-0.8-0.8c-0.4-0.2-0.9-0.4-1.5-0.6l-0.7-0.2c-1.1-0.3-2-0.7-2.5-1.3
				c-0.6-0.6-0.8-1.3-0.8-2.3c0-0.8,0.2-1.4,0.5-2c0.4-0.6,0.9-1,1.6-1.3c0.7-0.3,1.6-0.4,2.6-0.4c0.5,0,1,0,1.5,0.1s1,0.2,1.4,0.3
				v1.3c-0.9-0.3-1.8-0.4-2.8-0.4c-1.1,0-1.9,0.2-2.5,0.6c-0.5,0.4-0.8,1-0.8,1.7c0,0.4,0.1,0.8,0.2,1.1c0.2,0.3,0.4,0.5,0.8,0.8
				c0.4,0.2,0.8,0.4,1.4,0.5l0.7,0.2c1.2,0.3,2.1,0.8,2.7,1.3c0.6,0.6,0.9,1.4,0.9,2.3c0,0.8-0.2,1.5-0.6,2c-0.4,0.6-0.9,1-1.6,1.3
				c-0.7,0.3-1.6,0.4-2.5,0.4C-17.1-94-17.6-94-18.2-94.1z"/>
			<path class="st4" d="M2-103.8h1.3l-2.8,9.7h-1.7l-2.5-8.3l-2.5,8.3h-1.7l-2.8-9.7h1.4l2.3,8.2l2.5-8.2h1.7l2.4,8.2L2-103.8z"/>
			<path class="st4" d="M5.2-106.2c-0.2-0.2-0.3-0.4-0.3-0.7s0.1-0.5,0.3-0.7s0.4-0.2,0.7-0.2s0.6,0.1,0.7,0.2s0.3,0.4,0.3,0.7
				s-0.1,0.5-0.3,0.7c-0.2,0.2-0.4,0.2-0.7,0.2C5.6-105.9,5.4-106,5.2-106.2z M5.3-94.1v-9.7h1.4v9.7H5.3z"/>
			<path class="st4" d="M12-107c-0.4,0.3-0.5,0.9-0.5,1.7v1.5h3v1.2h-3v8.5H10v-8.5H8.2v-1.2H10v-1.4c0-1.1,0.3-2,0.9-2.6
				c0.6-0.6,1.5-0.9,2.6-0.9c0.4,0,0.9,0,1.3,0.1v1.2c-0.4-0.1-0.8-0.1-1.2-0.1C12.9-107.6,12.4-107.4,12-107z"/>
			<path class="st4" d="M20.5-95.4v1.2C20-94,19.5-94,19.1-94c-2.1,0-3.1-1.1-3.1-3.2v-5.5h-1.8v-1.2h1.8l0.2-3.5h1.2v3.5h3v1.2h-3
				v5.2c0,0.8,0.2,1.4,0.5,1.7c0.3,0.3,0.8,0.5,1.5,0.5C19.7-95.2,20.1-95.3,20.5-95.4z"/>
		</g>
	</g>
</g>
</svg>
