<?xml version="1.0" encoding="utf-8"?>
<!-- Generator: Adobe Illustrator 22.0.1, SVG Export Plug-In . SVG Version: 6.00 Build 0)  -->
<svg version="1.1" xmlns="http://www.w3.org/2000/svg" xmlns:xlink="http://www.w3.org/1999/xlink" x="0px" y="0px"
	 viewBox="0 0 500 500" style="enable-background:new 0 0 500 500;" xml:space="preserve">
<style type="text/css">
	.st0{fill:#F5F5F5;}
	.st1{fill:#E0E0E0;}
	.st2{fill:#27DEBF;}
	.st3{opacity:0.3;}
	.st4{fill:#458077;}
	.st5{fill:#FFFFFF;}
	.st6{fill:#73C4BA;}
	.st7{display:none;opacity:0.1;}
	.st8{display:inline;}
	.st9{fill:#22403B;}
	.st10{opacity:0.1;}
	.st11{opacity:0.65;fill:#FFFFFF;}
	.st12{opacity:0.5;fill:#FFFFFF;}
	.st13{fill:#455A64;}
	.st14{fill:#37474F;}
	.st15{opacity:0.15;fill:#FFFFFF;}
	.st16{opacity:0.85;fill:#FFFFFF;}
	.st17{opacity:0.75;}
	.st18{opacity:0.2;}
	.st19{opacity:0.4;}
	.st20{fill:#263238;}
	.st21{opacity:0.35;}
	.st22{display:none;opacity:0.2;}
	.st23{opacity:0.15;}
	.st24{fill:#65BFB2;}
	.st25{fill:#FAFAFA;}
	.st26{opacity:0.3;fill:#FFFFFF;}
</style>
<g id="Floor">
	<ellipse id="Floor_7_" class="st0" cx="250" cy="340.9" rx="239.7" ry="138.4"/>
</g>
<g id="Shadows">
	<path id="Shadow_4_" class="st1" d="M238.4,430.8l-9.8-5.7c-0.7-0.4-0.7-1.1,0-1.5L412,317.8c0.7-0.4,1.9-0.4,2.6,0l9.8,5.7
		c0.7,0.4,0.7,1.1,0,1.5L241,430.8C240.3,431.3,239.1,431.3,238.4,430.8z"/>
	<path id="Shadow_3_" class="st1" d="M212.5,331.1L138.2,374c-1.8,1-4.7,1-6.5,0l-74.2-42.9c-1.8-1-1.8-2.7,0-3.7l74.3-42.9
		c1.8-1,4.7-1,6.5,0l74.2,42.9C214.3,328.4,214.3,330.1,212.5,331.1z"/>
</g>
<g id="Plant">
	<g id="Plants_4_">
		<g id="XMLID_2848_">
			<g id="XMLID_4939_">
				<path id="XMLID_4940_" class="st2" d="M417.9,265.3c0,0-2.1-17,3.1-31.8c5.2-14.8,14.6-25.6,25-28.9
					c10.4-3.4,21.2,4.3,11.5,13.7c-9.7,9.4-28.2,21-31.5,48.1L417.9,265.3z"/>
			</g>
			<g id="XMLID_4937_" class="st3">
				<path id="XMLID_4938_" class="st4" d="M417.9,265.3c0,0-2.1-17,3.1-31.8c5.2-14.8,14.6-25.6,25-28.9
					c10.4-3.4,21.2,4.3,11.5,13.7c-9.7,9.4-28.2,21-31.5,48.1L417.9,265.3z"/>
			</g>
			<g id="XMLID_4915_">
				<path id="XMLID_4936_" class="st5" d="M420,260.3c0,0-0.1,0-0.1,0c-0.3,0-0.5-0.3-0.5-0.7c4.6-30.1,23.1-46.7,32.2-51.2
					c0.3-0.1,0.6,0,0.8,0.3c0.1,0.3,0,0.6-0.3,0.8c-9,4.4-27.1,20.7-31.6,50.3C420.5,260.1,420.3,260.3,420,260.3z"/>
			</g>
		</g>
		<g id="XMLID_863_">
			<g id="XMLID_2839_">
				<g id="XMLID_2840_">
					<path id="XMLID_2847_" class="st6" d="M472,252.8c-1.9,4.6-10,4.1-10.1,9.9c0,1.5,0.7,3,0.8,4.5c0.5,4.7-3.4,7.8-7.6,8.4
						c-4.3,0.7-9.2-1.8-13.2,0.7c-2.9,1.8-3.7,5.6-5.2,8.7c-2.9,6-9.5,10-16.2,9.7c-2-0.1-3.7-0.8-3.4-3c0.2-0.9,0.5-1.3,0.2-2.3
						c-0.2-1.1-0.7-2.2-1.1-3.2c-1.5-4.8-2.8-9.7-5.5-14c-2.7-4.2-0.7-10.6,3-13.6c3.4-2.8,8.4-3.6,11.1-7.1c1.4-1.7,2-3.9,3.2-5.7
						c2.3-3.7,6.8-6,11.1-5.7c3.2,0.2,6.2,1.6,9.2,2.4c2.7,0.7,5.4,0.5,8.2,0.3c4.9-0.3,11-0.3,14.2,4.2
						C472.1,248.6,472.8,250.8,472,252.8z"/>
				</g>
			</g>
			<g id="XMLID_4942_" class="st7">
				<g id="XMLID_4947_" class="st8">
					<path id="XMLID_4970_" class="st9" d="M472,252.8c-1.9,4.6-10,4.1-10.1,9.9c0,1.5,0.7,3,0.8,4.5c0.5,4.7-3.4,7.8-7.6,8.4
						c-4.3,0.7-9.2-1.8-13.2,0.7c-2.9,1.8-3.7,5.6-5.2,8.7c-2.9,6-9.5,10-16.2,9.7c-2-0.1-3.7-0.8-3.4-3c0.2-0.9,0.5-1.3,0.2-2.3
						c-0.2-1.1-0.7-2.2-1.1-3.2c-1.5-4.8-2.8-9.7-5.5-14c-2.7-4.2-0.7-10.6,3-13.6c3.4-2.8,8.4-3.6,11.1-7.1c1.4-1.7,2-3.9,3.2-5.7
						c2.3-3.7,6.8-6,11.1-5.7c3.2,0.2,6.2,1.6,9.2,2.4c2.7,0.7,5.4,0.5,8.2,0.3c4.9-0.3,11-0.3,14.2,4.2
						C472.1,248.6,472.8,250.8,472,252.8z"/>
				</g>
			</g>
			<g id="XMLID_2776_">
				<path id="XMLID_2782_" class="st5" d="M418.9,284.6C418.8,284.6,418.8,284.6,418.9,284.6c-0.3-0.1-0.5-0.3-0.4-0.6
					c7.2-31.6,40-37.3,47.7-37c0.3,0,0.5,0.2,0.5,0.5c0,0.3-0.2,0.5-0.5,0.5c-7.6-0.3-39.6,5.3-46.7,36.2
					C419.4,284.5,419.1,284.6,418.9,284.6z"/>
			</g>
			<g id="XMLID_2107_">
				<path id="XMLID_2130_" class="st5" d="M454.9,267.4c-0.1,0-0.2-0.1-0.3-0.1c-0.1-0.1-8.8-8.1-22.7-5.5c-0.3,0-0.5-0.1-0.6-0.4
					c-0.1-0.3,0.1-0.5,0.4-0.6c14.4-2.7,23.5,5.7,23.6,5.8c0.2,0.2,0.2,0.5,0,0.7C455.2,267.4,455,267.4,454.9,267.4z"/>
			</g>
		</g>
	</g>
</g>
<g id="Server_1_">
	<g id="Server">
		<g>
			<polygon id="XMLID_2783_" class="st6" points="207.2,299.4 135,341 62.9,299.4 135,257.7 			"/>
			<polygon id="XMLID_2779_" class="st10" points="207.2,299.4 135,341 62.9,299.4 135,257.7 			"/>
			<polygon id="XMLID_2775_" class="st10" points="135.1,341 135,335.8 67.4,296.8 62.9,299.4 			"/>
			<path id="XMLID_2743_" class="st6" d="M135.1,341v28.5c1.7,0,3.5-0.4,4.8-1.1l0,0l31.2-18l33.2-19.2c1.6-0.9,2.9-3.2,2.9-5v-26.8
				L135.1,341z"/>
			<path id="XMLID_2650_" class="st11" d="M135.1,341v28.5c1.7,0,3.5-0.4,4.8-1.1l0,0l31.2-18l33.2-19.2c1.6-0.9,2.9-3.2,2.9-5
				v-26.8L135.1,341z"/>
			<path id="XMLID_2140_" class="st6" d="M62.9,299.4v26.8c0,1.8,1.3,4.1,2.9,5l28.7,16.6l35.8,20.7c1.3,0.8,3.1,1.1,4.8,1.1V341
				L62.9,299.4z"/>
			<path id="XMLID_2138_" class="st12" d="M62.9,299.4v26.8c0,1.8,1.3,4.1,2.9,5l28.7,16.6l35.8,20.7c1.3,0.8,3.1,1.1,4.8,1.1V341
				L62.9,299.4z"/>
			<polygon id="XMLID_1309_" class="st6" points="207.2,268.1 135,309.8 62.9,268.1 135,226.5 			"/>
			<polygon id="XMLID_1307_" class="st10" points="207.2,268.1 135,309.8 62.9,268.1 135,226.5 			"/>
			<polygon id="XMLID_1297_" class="st10" points="135,309.8 135,304.6 67.4,265.5 62.9,268.1 			"/>
			<polygon id="XMLID_1296_" class="st6" points="207.2,288.9 135,330.6 135,309.8 207.2,268.1 			"/>
			<polygon id="XMLID_1294_" class="st11" points="207.2,288.9 135,330.6 135,309.8 207.2,268.1 			"/>
			<polygon id="XMLID_1165_" class="st6" points="135,330.6 62.9,288.9 62.9,268.1 135,309.8 			"/>
			<polygon id="XMLID_1163_" class="st12" points="135,330.6 62.9,288.9 62.9,268.1 135,309.8 			"/>
			<polygon id="XMLID_1122_" class="st13" points="198.2,299.4 198.1,294.1 135,330.6 135,335.8 			"/>
			<g id="XMLID_1115_">
				<polygon id="XMLID_1120_" class="st2" points="67.4,291.5 67.4,296.8 135,335.8 135,330.6 				"/>
				<polygon id="XMLID_1116_" class="st14" points="67.4,291.5 67.4,296.8 135,335.8 135,330.6 				"/>
			</g>
			<polygon id="XMLID_1101_" class="st6" points="207.2,236.9 135,278.5 62.9,236.9 135,195.3 			"/>
			<polygon id="XMLID_1099_" class="st10" points="207.2,236.9 135,278.5 62.9,236.9 135,195.3 			"/>
			<polygon id="XMLID_1097_" class="st10" points="135,278.5 135,273.3 67.4,234.3 62.9,236.9 			"/>
			<polygon id="XMLID_1096_" class="st6" points="207.2,257.7 135,299.4 135,278.5 207.2,236.9 			"/>
			<polygon id="XMLID_1094_" class="st11" points="207.2,257.7 135,299.4 135,278.5 207.2,236.9 			"/>
			<polygon id="XMLID_1072_" class="st6" points="135,299.4 62.9,257.7 62.9,236.9 135,278.5 			"/>
			<polygon id="XMLID_1070_" class="st12" points="135,299.4 62.9,257.7 62.9,236.9 135,278.5 			"/>
			<polygon id="XMLID_1058_" class="st13" points="198.2,268.1 198.1,262.9 135,299.4 135,304.6 			"/>
			<g id="XMLID_1055_">
				<polygon id="XMLID_1057_" class="st14" points="67.4,260.3 67.4,265.5 135,304.6 135,299.4 				"/>
			</g>
			<polygon id="XMLID_854_" class="st13" points="198.2,236.9 198.1,231.7 135,268.1 135,273.3 			"/>
			<g id="XMLID_849_">
				<polygon id="XMLID_852_" class="st14" points="67.4,229.1 67.4,234.3 135,273.3 135,268.1 				"/>
			</g>
			<polygon id="XMLID_1043_" class="st6" points="207.2,205.7 135,247.3 62.9,205.7 135,164 			"/>
			<polygon id="XMLID_1041_" class="st15" points="207.2,205.7 135,247.3 62.9,205.7 135,164 			"/>
			<polygon id="XMLID_1039_" class="st10" points="207.2,205.7 135,247.3 62.9,205.7 135,164 			"/>
			<polygon id="XMLID_1035_" class="st10" points="135,242.1 135,247.3 62.9,205.7 67.4,203.1 			"/>
			<polygon id="XMLID_1021_" class="st6" points="207.2,226.5 135,268.1 135,247.3 207.2,205.7 			"/>
			<polygon id="XMLID_986_" class="st11" points="207.2,226.5 135,268.1 135,247.3 207.2,205.7 			"/>
			<polygon id="XMLID_871_" class="st6" points="135,268.1 62.9,226.5 62.9,205.7 135,247.3 			"/>
			<polygon id="XMLID_869_" class="st12" points="135,268.1 62.9,226.5 62.9,205.7 135,247.3 			"/>
			<polygon id="XMLID_702_" class="st13" points="198.2,205.7 198.1,200.5 135,236.9 135,242.1 			"/>
			<g id="XMLID_700_">
				<polygon id="XMLID_701_" class="st14" points="67.4,197.9 67.4,203.1 135,242.1 135,236.9 				"/>
			</g>
			<polygon id="XMLID_5222_" class="st6" points="207.2,174.4 135,216 62.9,174.4 135,132.7 			"/>
			<polygon id="XMLID_5220_" class="st15" points="207.2,174.4 135,216 62.9,174.4 135,132.7 			"/>
			<polygon id="XMLID_5218_" class="st10" points="207.2,174.4 135,216 62.9,174.4 135,132.7 			"/>
			<polygon id="XMLID_5216_" class="st10" points="135,210.8 135,216 62.9,174.4 67.4,171.8 			"/>
			<polygon id="XMLID_5215_" class="st6" points="207.2,195.2 135,236.8 135,216 207.2,174.4 			"/>
			<polygon id="XMLID_5213_" class="st11" points="207.2,195.2 135,236.8 135,216 207.2,174.4 			"/>
			<polygon id="XMLID_5212_" class="st6" points="135,236.8 62.9,195.2 62.9,174.4 135,216 			"/>
			<polygon id="XMLID_5210_" class="st12" points="135,236.8 62.9,195.2 62.9,174.4 135,216 			"/>
			<path id="XMLID_5209_" class="st6" d="M65.8,141.5l66.4-38.3c1.6-0.9,4.2-0.9,5.8,0l66.3,38.3c1.6,0.9,2.9,3.2,2.9,5V164
				L135,205.6l0,0L62.9,164v-17.5C62.9,144.7,64.2,142.4,65.8,141.5z"/>
			<path id="XMLID_5207_" class="st12" d="M65.8,141.5l66.4-38.3c1.6-0.9,4.2-0.9,5.8,0l66.3,38.3c1.6,0.9,2.9,3.2,2.9,5V164
				L135,205.6l0,0L62.9,164v-17.5C62.9,144.7,64.2,142.4,65.8,141.5z"/>
			<path id="XMLID_5189_" class="st6" d="M135,183.8v21.8l72.2-41.6v-17.5c0-1.6-1-3.6-2.4-4.6c1.1,0.9,0.9,2.2-0.5,3l-66.4,38.3
				C137.1,183.6,136.1,183.8,135,183.8z"/>
			<path id="XMLID_5187_" class="st11" d="M135,183.8v21.8l72.2-41.6v-17.5c0-1.6-1-3.6-2.4-4.6c1.1,0.9,0.9,2.2-0.5,3l-66.4,38.3
				C137.1,183.6,136.1,183.8,135,183.8z"/>
			<path id="XMLID_5139_" class="st6" d="M204.3,144.8l-66.4,38.3c-1.6,0.9-4.2,0.9-5.8,0l-66.3-38.3c-1.6-0.9-1.6-2.4,0-3.3
				l66.4-38.3c1.6-0.9,4.2-0.9,5.8,0l66.3,38.3C205.9,142.4,205.9,143.9,204.3,144.8z"/>
			<path id="XMLID_5137_" class="st16" d="M204.3,144.8l-66.4,38.3c-1.6,0.9-4.2,0.9-5.8,0l-66.3-38.3c-1.6-0.9-1.6-2.4,0-3.3
				l66.4-38.3c1.6-0.9,4.2-0.9,5.8,0l66.3,38.3C205.9,142.4,205.9,143.9,204.3,144.8z"/>
			<polygon id="XMLID_5136_" class="st13" points="198.2,174.4 198.1,169.2 135,205.6 135,210.8 			"/>
			<g id="XMLID_5113_">
				<polygon id="XMLID_5114_" class="st14" points="67.4,166.6 67.4,171.8 135,210.8 135,205.6 				"/>
			</g>
		</g>
		<g>
			<path id="XMLID_2040_" class="st13" d="M78.6,332.5c0.6,0.3,1,1.1,1,1.7c0,0.6-0.4,0.9-1,0.6c-0.6-0.3-1-1.1-1-1.7
				C77.6,332.5,78.1,332.2,78.6,332.5z"/>
			<path class="st13" d="M87,337.4c0.6,0.3,1,1.1,1,1.7c0,0.6-0.4,0.9-1,0.6c-0.6-0.3-1-1.1-1-1.7C86,337.3,86.4,337,87,337.4z"/>
			<path class="st13" d="M95.1,342.1c0.5,0.3,1,1.1,1,1.7s-0.4,0.9-1,0.6c-0.5-0.3-1-1.1-1-1.7C94.2,342,94.6,341.8,95.1,342.1z"/>
			<path id="XMLID_2039_" class="st13" d="M103.4,346.9c0.5,0.3,1,1.1,1,1.7s-0.4,0.9-1,0.6c-0.5-0.3-1-1.1-1-1.7
				S102.9,346.6,103.4,346.9z"/>
		</g>
		<g>
			<g id="XMLID_2030_">
				<g id="XMLID_2077_" class="st17">
					<path class="st5" d="M68.9,308l8.5,4.9c1.3,0.8,2.4,2.6,2.4,4.2v4.9c0,1.5-1.1,2.2-2.4,1.4l-8.5-4.9c-1.3-0.8-2.4-2.6-2.4-4.2
						v-4.9C66.5,307.8,67.6,307.2,68.9,308z"/>
				</g>
				<g id="XMLID_2031_">
					<g id="XMLID_2043_">
						<path id="XMLID_2046_" class="st2" d="M71.2,313.4l1.1-0.6l0,0l0,0l0,0c0.4-0.2,0.9-0.2,1.5,0.1c1.2,0.7,2.1,2.3,2.1,3.6
							c0,0.7-0.2,1.1-0.6,1.4v0l0,0l0,0l-1,0.6l-0.2-0.3c-0.2,0-0.4-0.1-0.6-0.2c-1.2-0.7-2.1-2.3-2.1-3.6c0-0.2,0-0.4,0.1-0.5
							L71.2,313.4z"/>
						<path id="XMLID_2045_" class="st18" d="M71.2,313.4l1.1-0.6l0,0l0,0l0,0c0.4-0.2,0.9-0.2,1.5,0.1c1.2,0.7,2.1,2.3,2.1,3.6
							c0,0.7-0.2,1.1-0.6,1.4v0l0,0l0,0l-1,0.6l-0.2-0.3c-0.2,0-0.4-0.1-0.6-0.2c-1.2-0.7-2.1-2.3-2.1-3.6c0-0.2,0-0.4,0.1-0.5
							L71.2,313.4z"/>
						<path id="XMLID_2044_" class="st2" d="M72.7,313.6c1.2,0.7,2.1,2.3,2.1,3.6c0,1.3-0.9,1.9-2.1,1.2c-1.2-0.7-2.1-2.3-2.1-3.6
							C70.6,313.4,71.5,312.9,72.7,313.6z"/>
					</g>
				</g>
			</g>
			<g id="XMLID_1123_">
				<g id="XMLID_1161_" class="st17">
					<path class="st5" d="M68.9,276.7l8.5,4.9c1.3,0.8,2.4,2.6,2.4,4.2v4.9c0,1.5-1.1,2.2-2.4,1.4l-8.5-4.9
						c-1.3-0.8-2.4-2.6-2.4-4.2v-4.9C66.5,276.6,67.6,275.9,68.9,276.7z"/>
				</g>
				<g id="XMLID_1130_">
					<g id="XMLID_1151_">
						<path id="XMLID_1160_" class="st2" d="M71.2,282.2l1.1-0.6l0,0l0,0l0,0c0.4-0.2,0.9-0.2,1.5,0.1c1.2,0.7,2.1,2.3,2.1,3.6
							c0,0.7-0.2,1.1-0.6,1.4v0l0,0l0,0l-1,0.6L74,287c-0.2,0-0.4-0.1-0.6-0.2c-1.2-0.7-2.1-2.3-2.1-3.6c0-0.2,0-0.4,0.1-0.5
							L71.2,282.2z"/>
						<path id="XMLID_1159_" class="st18" d="M71.2,282.2l1.1-0.6l0,0l0,0l0,0c0.4-0.2,0.9-0.2,1.5,0.1c1.2,0.7,2.1,2.3,2.1,3.6
							c0,0.7-0.2,1.1-0.6,1.4v0l0,0l0,0l-1,0.6L74,287c-0.2,0-0.4-0.1-0.6-0.2c-1.2-0.7-2.1-2.3-2.1-3.6c0-0.2,0-0.4,0.1-0.5
							L71.2,282.2z"/>
						<path id="XMLID_1154_" class="st2" d="M72.7,282.3c1.2,0.7,2.1,2.3,2.1,3.6s-0.9,1.9-2.1,1.2c-1.2-0.7-2.1-2.3-2.1-3.6
							C70.6,282.2,71.5,281.6,72.7,282.3z"/>
					</g>
				</g>
			</g>
			<g id="XMLID_1059_">
				<g id="XMLID_1069_" class="st17">
					<path class="st5" d="M68.9,245.5l8.5,4.9c1.3,0.8,2.4,2.6,2.4,4.2v4.9c0,1.5-1.1,2.2-2.4,1.4l-8.5-4.9
						c-1.3-0.8-2.4-2.6-2.4-4.2v-4.9C66.5,245.3,67.6,244.7,68.9,245.5z"/>
				</g>
				<g id="XMLID_1060_">
					<g id="XMLID_1065_">
						<path id="XMLID_1068_" class="st2" d="M71.2,251l1.1-0.6l0,0l0,0l0,0c0.4-0.2,0.9-0.2,1.5,0.1c1.2,0.7,2.1,2.3,2.1,3.6
							c0,0.7-0.2,1.1-0.6,1.4v0l0,0l0,0l-1,0.6l-0.2-0.3c-0.2,0-0.4-0.1-0.6-0.2c-1.2-0.7-2.1-2.3-2.1-3.6c0-0.2,0-0.4,0.1-0.5
							L71.2,251z"/>
						<path id="XMLID_1067_" class="st18" d="M71.2,251l1.1-0.6l0,0l0,0l0,0c0.4-0.2,0.9-0.2,1.5,0.1c1.2,0.7,2.1,2.3,2.1,3.6
							c0,0.7-0.2,1.1-0.6,1.4v0l0,0l0,0l-1,0.6l-0.2-0.3c-0.2,0-0.4-0.1-0.6-0.2c-1.2-0.7-2.1-2.3-2.1-3.6c0-0.2,0-0.4,0.1-0.5
							L71.2,251z"/>
						<path id="XMLID_1066_" class="st2" d="M72.7,251.1c1.2,0.7,2.1,2.3,2.1,3.6s-0.9,1.9-2.1,1.2c-1.2-0.7-2.1-2.3-2.1-3.6
							C70.6,251,71.5,250.4,72.7,251.1z"/>
					</g>
				</g>
			</g>
			<g id="XMLID_856_">
				<g id="XMLID_868_" class="st17">
					<path class="st5" d="M68.9,214.3l8.5,4.9c1.3,0.8,2.4,2.6,2.4,4.2v4.9c0,1.5-1.1,2.2-2.4,1.4l-8.5-4.9
						c-1.3-0.8-2.4-2.6-2.4-4.2v-4.9C66.5,214.1,67.6,213.5,68.9,214.3z"/>
				</g>
				<g id="XMLID_857_">
					<g id="XMLID_864_">
						<path id="XMLID_867_" class="st2" d="M71.2,219.8l1.1-0.6l0,0l0,0l0,0c0.4-0.2,0.9-0.2,1.5,0.1c1.2,0.7,2.1,2.3,2.1,3.6
							c0,0.7-0.2,1.1-0.6,1.4v0l0,0l0,0l-1,0.6l-0.2-0.3c-0.2,0-0.4-0.1-0.6-0.2c-1.2-0.7-2.1-2.3-2.1-3.6c0-0.2,0-0.4,0.1-0.5
							L71.2,219.8z"/>
						<path id="XMLID_866_" class="st18" d="M71.2,219.8l1.1-0.6l0,0l0,0l0,0c0.4-0.2,0.9-0.2,1.5,0.1c1.2,0.7,2.1,2.3,2.1,3.6
							c0,0.7-0.2,1.1-0.6,1.4v0l0,0l0,0l-1,0.6l-0.2-0.3c-0.2,0-0.4-0.1-0.6-0.2c-1.2-0.7-2.1-2.3-2.1-3.6c0-0.2,0-0.4,0.1-0.5
							L71.2,219.8z"/>
						<path id="XMLID_865_" class="st2" d="M72.7,219.9c1.2,0.7,2.1,2.3,2.1,3.6c0,1.3-0.9,1.9-2.1,1.2c-1.2-0.7-2.1-2.3-2.1-3.6
							C70.6,219.8,71.5,219.2,72.7,219.9z"/>
					</g>
				</g>
			</g>
			<g id="XMLID_5198_">
				<g id="XMLID_5205_" class="st17">
					<path class="st5" d="M68.9,183l8.5,4.9c1.3,0.8,2.4,2.6,2.4,4.2v4.9c0,1.5-1.1,2.2-2.4,1.4l-8.5-4.9c-1.3-0.8-2.4-2.6-2.4-4.2
						v-4.9C66.5,182.9,67.6,182.2,68.9,183z"/>
				</g>
				<g id="XMLID_5199_">
					<g id="XMLID_5200_">
						<path id="XMLID_5204_" class="st2" d="M71.2,188.5l1.1-0.6l0,0l0,0l0,0c0.4-0.2,0.9-0.2,1.5,0.1c1.2,0.7,2.1,2.3,2.1,3.6
							c0,0.7-0.2,1.1-0.6,1.4v0l0,0l0,0l-1,0.6l-0.2-0.3c-0.2,0-0.4-0.1-0.6-0.2c-1.2-0.7-2.1-2.3-2.1-3.6c0-0.2,0-0.4,0.1-0.5
							L71.2,188.5z"/>
						<path id="XMLID_5203_" class="st18" d="M71.2,188.5l1.1-0.6l0,0l0,0l0,0c0.4-0.2,0.9-0.2,1.5,0.1c1.2,0.7,2.1,2.3,2.1,3.6
							c0,0.7-0.2,1.1-0.6,1.4v0l0,0l0,0l-1,0.6l-0.2-0.3c-0.2,0-0.4-0.1-0.6-0.2c-1.2-0.7-2.1-2.3-2.1-3.6c0-0.2,0-0.4,0.1-0.5
							L71.2,188.5z"/>
						<path id="XMLID_5202_" class="st2" d="M72.7,188.6c1.2,0.7,2.1,2.3,2.1,3.6s-0.9,1.9-2.1,1.2c-1.2-0.7-2.1-2.3-2.1-3.6
							C70.6,188.5,71.5,187.9,72.7,188.6z"/>
					</g>
				</g>
			</g>
			<g id="XMLID_5190_">
				<g id="XMLID_5196_" class="st17">
					<path class="st5" d="M68.9,151.7l8.5,4.9c1.3,0.8,2.4,2.6,2.4,4.2v4.9c0,1.5-1.1,2.2-2.4,1.4l-8.5-4.9
						c-1.3-0.8-2.4-2.6-2.4-4.2v-4.9C66.5,151.6,67.6,151,68.9,151.7z"/>
				</g>
				<g id="XMLID_5191_">
					<g id="XMLID_5192_">
						<path id="XMLID_5195_" class="st2" d="M71.2,157.2l1.1-0.6l0,0l0,0l0,0c0.4-0.2,0.9-0.2,1.5,0.1c1.2,0.7,2.1,2.3,2.1,3.6
							c0,0.7-0.2,1.1-0.6,1.4v0l0,0l0,0l-1,0.6L74,162c-0.2,0-0.4-0.1-0.6-0.2c-1.2-0.7-2.1-2.3-2.1-3.6c0-0.2,0-0.4,0.1-0.5
							L71.2,157.2z"/>
						<path id="XMLID_5194_" class="st18" d="M71.2,157.2l1.1-0.6l0,0l0,0l0,0c0.4-0.2,0.9-0.2,1.5,0.1c1.2,0.7,2.1,2.3,2.1,3.6
							c0,0.7-0.2,1.1-0.6,1.4v0l0,0l0,0l-1,0.6L74,162c-0.2,0-0.4-0.1-0.6-0.2c-1.2-0.7-2.1-2.3-2.1-3.6c0-0.2,0-0.4,0.1-0.5
							L71.2,157.2z"/>
						<path id="XMLID_5193_" class="st2" d="M72.7,157.3c1.2,0.7,2.1,2.3,2.1,3.6s-0.9,1.9-2.1,1.2c-1.2-0.7-2.1-2.3-2.1-3.6
							C70.6,157.2,71.5,156.7,72.7,157.3z"/>
					</g>
				</g>
			</g>
		</g>
		<g>
			<g id="XMLID_2142_">
				<path id="XMLID_2648_" class="st13" d="M200.3,308.6l-35.8,20.6c-1.3,0.8-2.4,2.6-2.4,4.2l0,4.9c0,1.5,1.1,2.2,2.4,1.4
					l35.8-20.6c1.3-0.8,2.4-2.6,2.4-4.2l0-4.9C202.7,308.4,201.6,307.8,200.3,308.6z"/>
				<g id="XMLID_2145_">
					<path id="XMLID_2647_" class="st2" d="M200.1,312.7v2.4c0,0.3-0.2,0.7-0.5,0.8l-0.5,0.3c-0.3,0.2-0.5,0-0.5-0.3v-2.4
						c0-0.3,0.2-0.7,0.5-0.8l0.5-0.3C199.9,312.2,200.1,312.4,200.1,312.7z"/>
					<path id="XMLID_2639_" class="st2" d="M197.7,314.1v2.4c0,0.3-0.2,0.7-0.5,0.8l-0.5,0.3c-0.3,0.2-0.5,0-0.5-0.3v-2.4
						c0-0.3,0.2-0.7,0.5-0.8l0.5-0.3C197.5,313.6,197.7,313.8,197.7,314.1z"/>
					<path id="XMLID_2638_" class="st2" d="M195.3,315.5l0,2.4c0,0.3-0.2,0.7-0.5,0.8l-0.5,0.3c-0.3,0.2-0.5,0-0.5-0.3v-2.4
						c0-0.3,0.2-0.7,0.5-0.8l0.5-0.3C195.1,315,195.3,315.2,195.3,315.5z"/>
					<path id="XMLID_2637_" class="st14" d="M192.8,316.9v2.4c0,0.3-0.2,0.7-0.5,0.8l-0.5,0.3c-0.3,0.2-0.5,0-0.5-0.3v-2.4
						c0-0.3,0.2-0.7,0.5-0.8l0.5-0.3C192.6,316.4,192.8,316.6,192.8,316.9z"/>
					<path id="XMLID_2636_" class="st14" d="M190.4,318.3l0,2.4c0,0.3-0.2,0.7-0.5,0.8l-0.5,0.3c-0.3,0.2-0.5,0-0.5-0.3v-2.4
						c0-0.3,0.2-0.7,0.5-0.8l0.5-0.3C190.2,317.8,190.4,318,190.4,318.3z"/>
					<path id="XMLID_2635_" class="st2" d="M188,319.7l0,2.4c0,0.3-0.2,0.7-0.5,0.8l-0.5,0.3c-0.3,0.2-0.5,0-0.5-0.3v-2.4
						c0-0.3,0.2-0.7,0.5-0.8l0.5-0.3C187.8,319.2,188,319.4,188,319.7z"/>
					<path id="XMLID_2634_" class="st2" d="M185.6,321.1v2.4c0,0.3-0.2,0.7-0.5,0.8l-0.5,0.3c-0.3,0.2-0.5,0-0.5-0.3v-2.4
						c0-0.3,0.2-0.7,0.5-0.8l0.5-0.3C185.3,320.6,185.6,320.8,185.6,321.1z"/>
					<path id="XMLID_2633_" class="st2" d="M183.1,322.5l0,2.4c0,0.3-0.2,0.7-0.5,0.8l-0.5,0.3c-0.3,0.2-0.5,0-0.5-0.3v-2.4
						c0-0.3,0.2-0.7,0.5-0.8l0.5-0.3C182.9,322,183.1,322.2,183.1,322.5z"/>
					<path id="XMLID_2563_" class="st2" d="M180.7,323.9v2.4c0,0.3-0.2,0.7-0.5,0.8l-0.5,0.3c-0.3,0.2-0.5,0-0.5-0.3v-2.4
						c0-0.3,0.2-0.7,0.5-0.8l0.5-0.3C180.5,323.4,180.7,323.6,180.7,323.9z"/>
					<path id="XMLID_2562_" class="st2" d="M178.3,325.3v2.4c0,0.3-0.2,0.7-0.5,0.8l-0.5,0.3c-0.3,0.2-0.5,0-0.5-0.3v-2.4
						c0-0.3,0.2-0.7,0.5-0.8l0.5-0.3C178.1,324.8,178.3,325,178.3,325.3z"/>
					<path id="XMLID_2521_" class="st2" d="M175.8,326.7l0,2.4c0,0.3-0.2,0.7-0.5,0.8l-0.5,0.3c-0.3,0.2-0.5,0-0.5-0.3v-2.4
						c0-0.3,0.2-0.7,0.5-0.8l0.5-0.3C175.6,326.2,175.8,326.4,175.8,326.7z"/>
					<path id="XMLID_2401_" class="st2" d="M173.4,328.1v2.4c0,0.3-0.2,0.7-0.5,0.8l-0.5,0.3c-0.3,0.2-0.5,0-0.5-0.3v-2.4
						c0-0.3,0.2-0.7,0.5-0.8l0.5-0.3C173.2,327.6,173.4,327.8,173.4,328.1z"/>
					<path id="XMLID_2342_" class="st14" d="M171,329.5v2.4c0,0.3-0.2,0.7-0.5,0.8L170,333c-0.3,0.2-0.5,0-0.5-0.3v-2.4
						c0-0.3,0.2-0.7,0.5-0.8l0.5-0.3C170.8,329,171,329.2,171,329.5z"/>
					<path id="XMLID_2174_" class="st2" d="M168.6,330.9l0,2.4c0,0.3-0.2,0.7-0.5,0.8l-0.5,0.3c-0.3,0.2-0.5,0-0.5-0.3v-2.4
						c0-0.3,0.2-0.7,0.5-0.8l0.5-0.3C168.3,330.4,168.6,330.6,168.6,330.9z"/>
					<path id="XMLID_2149_" class="st2" d="M166.1,332.3v2.4c0,0.3-0.2,0.7-0.5,0.8l-0.5,0.3c-0.3,0.2-0.5,0-0.5-0.3v-2.4
						c0-0.3,0.2-0.7,0.5-0.8l0.5-0.3C165.9,331.8,166.1,332,166.1,332.3z"/>
				</g>
			</g>
			<g id="XMLID_1166_">
				<path id="XMLID_1292_" class="st13" d="M200.3,277.3L164.5,298c-1.3,0.8-2.4,2.6-2.4,4.2l0,4.9c0,1.5,1.1,2.2,2.4,1.4l35.8-20.6
					c1.3-0.8,2.4-2.6,2.4-4.2l0-4.9C202.7,277.2,201.6,276.6,200.3,277.3z"/>
				<g id="XMLID_1185_">
					<path id="XMLID_1291_" class="st2" d="M200.1,281.5v2.4c0,0.3-0.2,0.7-0.5,0.8l-0.5,0.3c-0.3,0.2-0.5,0-0.5-0.3v-2.4
						c0-0.3,0.2-0.7,0.5-0.8l0.5-0.3C199.9,281,200.1,281.1,200.1,281.5z"/>
					<path id="XMLID_1290_" class="st14" d="M197.7,282.9v2.4c0,0.3-0.2,0.7-0.5,0.8l-0.5,0.3c-0.3,0.2-0.5,0-0.5-0.3v-2.4
						c0-0.3,0.2-0.7,0.5-0.8l0.5-0.3C197.5,282.4,197.7,282.5,197.7,282.9z"/>
					<path id="XMLID_1289_" class="st2" d="M195.3,284.3l0,2.4c0,0.3-0.2,0.7-0.5,0.8l-0.5,0.3c-0.3,0.2-0.5,0-0.5-0.3v-2.4
						c0-0.3,0.2-0.7,0.5-0.8l0.5-0.3C195.1,283.8,195.3,283.9,195.3,284.3z"/>
					<path id="XMLID_1288_" class="st14" d="M192.8,285.7v2.4c0,0.3-0.2,0.7-0.5,0.8l-0.5,0.3c-0.3,0.2-0.5,0-0.5-0.3v-2.4
						c0-0.3,0.2-0.7,0.5-0.8l0.5-0.3C192.6,285.2,192.8,285.3,192.8,285.7z"/>
					<path id="XMLID_1287_" class="st14" d="M190.4,287.1l0,2.4c0,0.3-0.2,0.7-0.5,0.8l-0.5,0.3c-0.3,0.2-0.5,0-0.5-0.3v-2.4
						c0-0.3,0.2-0.7,0.5-0.8l0.5-0.3C190.2,286.6,190.4,286.7,190.4,287.1z"/>
					<path id="XMLID_1286_" class="st2" d="M188,288.5l0,2.4c0,0.3-0.2,0.7-0.5,0.8L187,292c-0.3,0.2-0.5,0-0.5-0.3v-2.4
						c0-0.3,0.2-0.7,0.5-0.8l0.5-0.3C187.8,288,188,288.1,188,288.5z"/>
					<path id="XMLID_1283_" class="st2" d="M185.6,289.9v2.4c0,0.3-0.2,0.7-0.5,0.8l-0.5,0.3c-0.3,0.2-0.5,0-0.5-0.3v-2.4
						c0-0.3,0.2-0.7,0.5-0.8l0.5-0.3C185.3,289.4,185.6,289.5,185.6,289.9z"/>
					<path id="XMLID_1279_" class="st2" d="M183.1,291.3l0,2.4c0,0.3-0.2,0.7-0.5,0.8l-0.5,0.3c-0.3,0.2-0.5,0-0.5-0.3v-2.4
						c0-0.3,0.2-0.7,0.5-0.8l0.5-0.3C182.9,290.8,183.1,290.9,183.1,291.3z"/>
					<path id="XMLID_1246_" class="st14" d="M180.7,292.7v2.4c0,0.3-0.2,0.7-0.5,0.8l-0.5,0.3c-0.3,0.2-0.5,0-0.5-0.3v-2.4
						c0-0.3,0.2-0.7,0.5-0.8l0.5-0.3C180.5,292.2,180.7,292.3,180.7,292.7z"/>
					<path id="XMLID_1245_" class="st2" d="M178.3,294.1v2.4c0,0.3-0.2,0.7-0.5,0.8l-0.5,0.3c-0.3,0.2-0.5,0-0.5-0.3v-2.4
						c0-0.3,0.2-0.7,0.5-0.8l0.5-0.3C178.1,293.6,178.3,293.7,178.3,294.1z"/>
					<path id="XMLID_1242_" class="st14" d="M175.8,295.5l0,2.4c0,0.3-0.2,0.7-0.5,0.8l-0.5,0.3c-0.3,0.2-0.5,0-0.5-0.3v-2.4
						c0-0.3,0.2-0.7,0.5-0.8l0.5-0.3C175.6,295,175.8,295.1,175.8,295.5z"/>
					<path id="XMLID_1239_" class="st2" d="M173.4,296.9v2.4c0,0.3-0.2,0.7-0.5,0.8l-0.5,0.3c-0.3,0.2-0.5,0-0.5-0.3v-2.4
						c0-0.3,0.2-0.7,0.5-0.8l0.5-0.3C173.2,296.4,173.4,296.5,173.4,296.9z"/>
					<path id="XMLID_1225_" class="st14" d="M171,298.3v2.4c0,0.3-0.2,0.7-0.5,0.8l-0.5,0.3c-0.3,0.2-0.5,0-0.5-0.3v-2.4
						c0-0.3,0.2-0.7,0.5-0.8l0.5-0.3C170.8,297.8,171,297.9,171,298.3z"/>
					<path id="XMLID_1224_" class="st2" d="M168.6,299.7l0,2.4c0,0.3-0.2,0.7-0.5,0.8l-0.5,0.3c-0.3,0.2-0.5,0-0.5-0.3v-2.4
						c0-0.3,0.2-0.7,0.5-0.8l0.5-0.3C168.3,299.2,168.6,299.3,168.6,299.7z"/>
					<path id="XMLID_1202_" class="st2" d="M166.1,301v2.4c0,0.3-0.2,0.7-0.5,0.8l-0.5,0.3c-0.3,0.2-0.5,0-0.5-0.3v-2.4
						c0-0.3,0.2-0.7,0.5-0.8l0.5-0.3C165.9,300.6,166.1,300.7,166.1,301z"/>
				</g>
			</g>
			<g id="XMLID_1073_">
				<path id="XMLID_1090_" class="st13" d="M200.3,246.1l-35.8,20.6c-1.3,0.8-2.4,2.6-2.4,4.2l0,4.9c0,1.5,1.1,2.2,2.4,1.4
					l35.8-20.6c1.3-0.8,2.4-2.6,2.4-4.2l0-4.9C202.7,245.9,201.6,245.3,200.3,246.1z"/>
				<g id="XMLID_1074_">
					<path id="XMLID_1089_" class="st2" d="M200.1,250.2v2.4c0,0.3-0.2,0.7-0.5,0.8l-0.5,0.3c-0.3,0.2-0.5,0-0.5-0.3v-2.4
						c0-0.3,0.2-0.7,0.5-0.8l0.5-0.3C199.9,249.8,200.1,249.9,200.1,250.2z"/>
					<path id="XMLID_1088_" class="st2" d="M197.7,251.6v2.4c0,0.3-0.2,0.7-0.5,0.8l-0.5,0.3c-0.3,0.2-0.5,0-0.5-0.3v-2.4
						c0-0.3,0.2-0.7,0.5-0.8l0.5-0.3C197.5,251.2,197.7,251.3,197.7,251.6z"/>
					<path id="XMLID_1087_" class="st2" d="M195.3,253l0,2.4c0,0.3-0.2,0.7-0.5,0.8l-0.5,0.3c-0.3,0.2-0.5,0-0.5-0.3v-2.4
						c0-0.3,0.2-0.7,0.5-0.8l0.5-0.3C195.1,252.6,195.3,252.7,195.3,253z"/>
					<path id="XMLID_1086_" class="st2" d="M192.8,254.4v2.4c0,0.3-0.2,0.7-0.5,0.8l-0.5,0.3c-0.3,0.2-0.5,0-0.5-0.3v-2.4
						c0-0.3,0.2-0.7,0.5-0.8l0.5-0.3C192.6,254,192.8,254.1,192.8,254.4z"/>
					<path id="XMLID_1085_" class="st14" d="M190.4,255.8l0,2.4c0,0.3-0.2,0.7-0.5,0.8l-0.5,0.3c-0.3,0.2-0.5,0-0.5-0.3v-2.4
						c0-0.3,0.2-0.7,0.5-0.8l0.5-0.3C190.2,255.4,190.4,255.5,190.4,255.8z"/>
					<path id="XMLID_1084_" class="st14" d="M188,257.2l0,2.4c0,0.3-0.2,0.7-0.5,0.8l-0.5,0.3c-0.3,0.2-0.5,0-0.5-0.3v-2.4
						c0-0.3,0.2-0.7,0.5-0.8l0.5-0.3C187.8,256.8,188,256.9,188,257.2z"/>
					<path id="XMLID_1083_" class="st2" d="M185.6,258.6v2.4c0,0.3-0.2,0.7-0.5,0.8l-0.5,0.3c-0.3,0.2-0.5,0-0.5-0.3v-2.4
						c0-0.3,0.2-0.7,0.5-0.8l0.5-0.3C185.3,258.2,185.6,258.3,185.6,258.6z"/>
					<path id="XMLID_1082_" class="st2" d="M183.1,260l0,2.4c0,0.3-0.2,0.7-0.5,0.8l-0.5,0.3c-0.3,0.2-0.5,0-0.5-0.3v-2.4
						c0-0.3,0.2-0.7,0.5-0.8l0.5-0.3C182.9,259.6,183.1,259.7,183.1,260z"/>
					<path id="XMLID_1081_" class="st2" d="M180.7,261.4v2.4c0,0.3-0.2,0.7-0.5,0.8l-0.5,0.3c-0.3,0.2-0.5,0-0.5-0.3v-2.4
						c0-0.3,0.2-0.7,0.5-0.8l0.5-0.3C180.5,261,180.7,261.1,180.7,261.4z"/>
					<path id="XMLID_1080_" class="st14" d="M178.3,262.8v2.4c0,0.3-0.2,0.7-0.5,0.8l-0.5,0.3c-0.3,0.2-0.5,0-0.5-0.3v-2.4
						c0-0.3,0.2-0.7,0.5-0.8l0.5-0.3C178.1,262.4,178.3,262.5,178.3,262.8z"/>
					<path id="XMLID_1079_" class="st2" d="M175.8,264.2l0,2.4c0,0.3-0.2,0.7-0.5,0.8l-0.5,0.3c-0.3,0.2-0.5,0-0.5-0.3v-2.4
						c0-0.3,0.2-0.7,0.5-0.8l0.5-0.3C175.6,263.8,175.8,263.9,175.8,264.2z"/>
					<path id="XMLID_1078_" class="st2" d="M173.4,265.6v2.4c0,0.3-0.2,0.7-0.5,0.8l-0.5,0.3c-0.3,0.2-0.5,0-0.5-0.3v-2.4
						c0-0.3,0.2-0.7,0.5-0.8l0.5-0.3C173.2,265.2,173.4,265.3,173.4,265.6z"/>
					<path id="XMLID_1077_" class="st14" d="M171,267v2.4c0,0.3-0.2,0.7-0.5,0.8l-0.5,0.3c-0.3,0.2-0.5,0-0.5-0.3v-2.4
						c0-0.3,0.2-0.7,0.5-0.8l0.5-0.3C170.8,266.6,171,266.7,171,267z"/>
					<path id="XMLID_1076_" class="st2" d="M168.6,268.4l0,2.4c0,0.3-0.2,0.7-0.5,0.8l-0.5,0.3c-0.3,0.2-0.5,0-0.5-0.3v-2.4
						c0-0.3,0.2-0.7,0.5-0.8l0.5-0.3C168.3,268,168.6,268.1,168.6,268.4z"/>
					<path id="XMLID_1075_" class="st14" d="M166.1,269.8v2.4c0,0.3-0.2,0.7-0.5,0.8l-0.5,0.3c-0.3,0.2-0.5,0-0.5-0.3v-2.4
						c0-0.3,0.2-0.7,0.5-0.8l0.5-0.3C165.9,269.4,166.1,269.5,166.1,269.8z"/>
				</g>
			</g>
			<g id="XMLID_873_">
				<path id="XMLID_984_" class="st13" d="M200.3,214.9l-35.8,20.6c-1.3,0.8-2.4,2.6-2.4,4.2l0,4.9c0,1.5,1.1,2.2,2.4,1.4l35.8-20.6
					c1.3-0.8,2.4-2.6,2.4-4.2l0-4.9C202.7,214.7,201.6,214.1,200.3,214.9z"/>
				<g id="XMLID_874_">
					<path id="XMLID_983_" class="st2" d="M200.1,219v2.4c0,0.3-0.2,0.7-0.5,0.8l-0.5,0.3c-0.3,0.2-0.5,0-0.5-0.3v-2.4
						c0-0.3,0.2-0.7,0.5-0.8l0.5-0.3C199.9,218.6,200.1,218.7,200.1,219z"/>
					<path id="XMLID_982_" class="st14" d="M197.7,220.4v2.4c0,0.3-0.2,0.7-0.5,0.8l-0.5,0.3c-0.3,0.2-0.5,0-0.5-0.3v-2.4
						c0-0.3,0.2-0.7,0.5-0.8l0.5-0.3C197.5,220,197.7,220.1,197.7,220.4z"/>
					<path id="XMLID_981_" class="st2" d="M195.3,221.8l0,2.4c0,0.3-0.2,0.7-0.5,0.8l-0.5,0.3c-0.3,0.2-0.5,0-0.5-0.3v-2.4
						c0-0.3,0.2-0.7,0.5-0.8l0.5-0.3C195.1,221.4,195.3,221.5,195.3,221.8z"/>
					<path id="XMLID_980_" class="st2" d="M192.8,223.2v2.4c0,0.3-0.2,0.7-0.5,0.8l-0.5,0.3c-0.3,0.2-0.5,0-0.5-0.3v-2.4
						c0-0.3,0.2-0.7,0.5-0.8l0.5-0.3C192.6,222.8,192.8,222.9,192.8,223.2z"/>
					<path id="XMLID_979_" class="st2" d="M190.4,224.6l0,2.4c0,0.3-0.2,0.7-0.5,0.8l-0.5,0.3c-0.3,0.2-0.5,0-0.5-0.3v-2.4
						c0-0.3,0.2-0.7,0.5-0.8l0.5-0.3C190.2,224.2,190.4,224.3,190.4,224.6z"/>
					<path id="XMLID_978_" class="st14" d="M188,226l0,2.4c0,0.3-0.2,0.7-0.5,0.8l-0.5,0.3c-0.3,0.2-0.5,0-0.5-0.3v-2.4
						c0-0.3,0.2-0.7,0.5-0.8l0.5-0.3C187.8,225.6,188,225.7,188,226z"/>
					<path id="XMLID_972_" class="st14" d="M185.6,227.4v2.4c0,0.3-0.2,0.7-0.5,0.8l-0.5,0.3c-0.3,0.2-0.5,0-0.5-0.3v-2.4
						c0-0.3,0.2-0.7,0.5-0.8l0.5-0.3C185.3,227,185.6,227.1,185.6,227.4z"/>
					<path id="XMLID_898_" class="st2" d="M183.1,228.8l0,2.4c0,0.3-0.2,0.7-0.5,0.8l-0.5,0.3c-0.3,0.2-0.5,0-0.5-0.3v-2.4
						c0-0.3,0.2-0.7,0.5-0.8l0.5-0.3C182.9,228.4,183.1,228.5,183.1,228.8z"/>
					<path id="XMLID_889_" class="st14" d="M180.7,230.2v2.4c0,0.3-0.2,0.7-0.5,0.8l-0.5,0.3c-0.3,0.2-0.5,0-0.5-0.3v-2.4
						c0-0.3,0.2-0.7,0.5-0.8l0.5-0.3C180.5,229.8,180.7,229.9,180.7,230.2z"/>
					<path id="XMLID_888_" class="st2" d="M178.3,231.6v2.4c0,0.3-0.2,0.7-0.5,0.8l-0.5,0.3c-0.3,0.2-0.5,0-0.5-0.3v-2.4
						c0-0.3,0.2-0.7,0.5-0.8l0.5-0.3C178.1,231.2,178.3,231.3,178.3,231.6z"/>
					<path id="XMLID_887_" class="st2" d="M175.8,233l0,2.4c0,0.3-0.2,0.7-0.5,0.8l-0.5,0.3c-0.3,0.2-0.5,0-0.5-0.3v-2.4
						c0-0.3,0.2-0.7,0.5-0.8l0.5-0.3C175.6,232.6,175.8,232.7,175.8,233z"/>
					<path id="XMLID_885_" class="st2" d="M173.4,234.4v2.4c0,0.3-0.2,0.7-0.5,0.8l-0.5,0.3c-0.3,0.2-0.5,0-0.5-0.3v-2.4
						c0-0.3,0.2-0.7,0.5-0.8l0.5-0.3C173.2,234,173.4,234.1,173.4,234.4z"/>
					<path id="XMLID_882_" class="st14" d="M171,235.8v2.4c0,0.3-0.2,0.7-0.5,0.8l-0.5,0.3c-0.3,0.2-0.5,0-0.5-0.3v-2.4
						c0-0.3,0.2-0.7,0.5-0.8l0.5-0.3C170.8,235.4,171,235.5,171,235.8z"/>
					<path id="XMLID_881_" class="st2" d="M168.6,237.2l0,2.4c0,0.3-0.2,0.7-0.5,0.8l-0.5,0.3c-0.3,0.2-0.5,0-0.5-0.3v-2.4
						c0-0.3,0.2-0.7,0.5-0.8l0.5-0.3C168.3,236.8,168.6,236.9,168.6,237.2z"/>
					<path id="XMLID_880_" class="st2" d="M166.1,238.6v2.4c0,0.3-0.2,0.7-0.5,0.8l-0.5,0.3c-0.3,0.2-0.5,0-0.5-0.3v-2.4
						c0-0.3,0.2-0.7,0.5-0.8l0.5-0.3C165.9,238.2,166.1,238.3,166.1,238.6z"/>
				</g>
			</g>
			<g id="XMLID_5169_">
				<path id="XMLID_5186_" class="st13" d="M200.3,183.6l-35.8,20.6c-1.3,0.8-2.4,2.6-2.4,4.2l0,4.9c0,1.5,1.1,2.2,2.4,1.4
					l35.8-20.6c1.3-0.8,2.4-2.6,2.4-4.2l0-4.9C202.7,183.4,201.6,182.8,200.3,183.6z"/>
				<g id="XMLID_5170_">
					<path id="XMLID_5185_" class="st2" d="M200.1,187.7v2.4c0,0.3-0.2,0.7-0.5,0.8l-0.5,0.3c-0.3,0.2-0.5,0-0.5-0.3v-2.4
						c0-0.3,0.2-0.7,0.5-0.8l0.5-0.3C199.9,187.3,200.1,187.4,200.1,187.7z"/>
					<path id="XMLID_5184_" class="st14" d="M197.7,189.1v2.4c0,0.3-0.2,0.7-0.5,0.8l-0.5,0.3c-0.3,0.2-0.5,0-0.5-0.3V190
						c0-0.3,0.2-0.7,0.5-0.8l0.5-0.3C197.5,188.7,197.7,188.8,197.7,189.1z"/>
					<path id="XMLID_5183_" class="st2" d="M195.3,190.5l0,2.4c0,0.3-0.2,0.7-0.5,0.8l-0.5,0.3c-0.3,0.2-0.5,0-0.5-0.3v-2.4
						c0-0.3,0.2-0.7,0.5-0.8l0.5-0.3C195.1,190.1,195.3,190.2,195.3,190.5z"/>
					<path id="XMLID_5182_" class="st2" d="M192.8,191.9v2.4c0,0.3-0.2,0.7-0.5,0.8l-0.5,0.3c-0.3,0.2-0.5,0-0.5-0.3v-2.4
						c0-0.3,0.2-0.7,0.5-0.8l0.5-0.3C192.6,191.5,192.8,191.6,192.8,191.9z"/>
					<path id="XMLID_5181_" class="st2" d="M190.4,193.3l0,2.4c0,0.3-0.2,0.7-0.5,0.8l-0.5,0.3c-0.3,0.2-0.5,0-0.5-0.3v-2.4
						c0-0.3,0.2-0.7,0.5-0.8l0.5-0.3C190.2,192.9,190.4,193,190.4,193.3z"/>
					<path id="XMLID_5180_" class="st14" d="M188,194.7l0,2.4c0,0.3-0.2,0.7-0.5,0.8l-0.5,0.3c-0.3,0.2-0.5,0-0.5-0.3v-2.4
						c0-0.3,0.2-0.7,0.5-0.8l0.5-0.3C187.8,194.3,188,194.4,188,194.7z"/>
					<path id="XMLID_5179_" class="st14" d="M185.6,196.1v2.4c0,0.3-0.2,0.7-0.5,0.8l-0.5,0.3c-0.3,0.2-0.5,0-0.5-0.3V197
						c0-0.3,0.2-0.7,0.5-0.8l0.5-0.3C185.3,195.7,185.6,195.8,185.6,196.1z"/>
					<path id="XMLID_5178_" class="st2" d="M183.1,197.5l0,2.4c0,0.3-0.2,0.7-0.5,0.8l-0.5,0.3c-0.3,0.2-0.5,0-0.5-0.3v-2.4
						c0-0.3,0.2-0.7,0.5-0.8l0.5-0.3C182.9,197.1,183.1,197.2,183.1,197.5z"/>
					<path id="XMLID_5177_" class="st14" d="M180.7,198.9v2.4c0,0.3-0.2,0.7-0.5,0.8l-0.5,0.3c-0.3,0.2-0.5,0-0.5-0.3v-2.4
						c0-0.3,0.2-0.7,0.5-0.8l0.5-0.3C180.5,198.5,180.7,198.6,180.7,198.9z"/>
					<path id="XMLID_5176_" class="st2" d="M178.3,200.3v2.4c0,0.3-0.2,0.7-0.5,0.8l-0.5,0.3c-0.3,0.2-0.5,0-0.5-0.3v-2.4
						c0-0.3,0.2-0.7,0.5-0.8l0.5-0.3C178.1,199.9,178.3,200,178.3,200.3z"/>
					<path id="XMLID_5175_" class="st2" d="M175.8,201.7l0,2.4c0,0.3-0.2,0.7-0.5,0.8l-0.5,0.3c-0.3,0.2-0.5,0-0.5-0.3v-2.4
						c0-0.3,0.2-0.7,0.5-0.8l0.5-0.3C175.6,201.3,175.8,201.4,175.8,201.7z"/>
					<path id="XMLID_5174_" class="st2" d="M173.4,203.1v2.4c0,0.3-0.2,0.7-0.5,0.8l-0.5,0.3c-0.3,0.2-0.5,0-0.5-0.3V204
						c0-0.3,0.2-0.7,0.5-0.8l0.5-0.3C173.2,202.7,173.4,202.8,173.4,203.1z"/>
					<path id="XMLID_5173_" class="st14" d="M171,204.5v2.4c0,0.3-0.2,0.7-0.5,0.8L170,208c-0.3,0.2-0.5,0-0.5-0.3v-2.4
						c0-0.3,0.2-0.7,0.5-0.8l0.5-0.3C170.8,204.1,171,204.2,171,204.5z"/>
					<path id="XMLID_5172_" class="st2" d="M168.6,205.9l0,2.4c0,0.3-0.2,0.7-0.5,0.8l-0.5,0.3c-0.3,0.2-0.5,0-0.5-0.3v-2.4
						c0-0.3,0.2-0.7,0.5-0.8l0.5-0.3C168.3,205.5,168.6,205.6,168.6,205.9z"/>
					<path id="XMLID_5171_" class="st2" d="M166.1,207.3v2.4c0,0.3-0.2,0.7-0.5,0.8l-0.5,0.3c-0.3,0.2-0.5,0-0.5-0.3v-2.4
						c0-0.3,0.2-0.7,0.5-0.8l0.5-0.3C165.9,206.9,166.1,207,166.1,207.3z"/>
				</g>
			</g>
			<g id="XMLID_5141_">
				<path id="XMLID_5168_" class="st13" d="M200.3,152.4L164.5,173c-1.3,0.8-2.4,2.6-2.4,4.2l0,4.9c0,1.5,1.1,2.2,2.4,1.4l35.8-20.6
					c1.3-0.8,2.4-2.6,2.4-4.2l0-4.9C202.7,152.2,201.6,151.6,200.3,152.4z"/>
				<g id="XMLID_5143_">
					<path id="XMLID_5167_" class="st14" d="M200.1,156.5v2.4c0,0.3-0.2,0.7-0.5,0.8l-0.5,0.3c-0.3,0.2-0.5,0-0.5-0.3v-2.4
						c0-0.3,0.2-0.7,0.5-0.8l0.5-0.3C199.9,156,200.1,156.2,200.1,156.5z"/>
					<path id="XMLID_5166_" class="st2" d="M197.7,157.9v2.4c0,0.3-0.2,0.7-0.5,0.8l-0.5,0.3c-0.3,0.2-0.5,0-0.5-0.3v-2.4
						c0-0.3,0.2-0.7,0.5-0.8l0.5-0.3C197.5,157.4,197.7,157.6,197.7,157.9z"/>
					<path id="XMLID_5164_" class="st14" d="M195.3,159.3l0,2.4c0,0.3-0.2,0.7-0.5,0.8l-0.5,0.3c-0.3,0.2-0.5,0-0.5-0.3v-2.4
						c0-0.3,0.2-0.7,0.5-0.8l0.5-0.3C195.1,158.8,195.3,159,195.3,159.3z"/>
					<path id="XMLID_5163_" class="st14" d="M192.8,160.7v2.4c0,0.3-0.2,0.7-0.5,0.8l-0.5,0.3c-0.3,0.2-0.5,0-0.5-0.3v-2.4
						c0-0.3,0.2-0.7,0.5-0.8l0.5-0.3C192.6,160.2,192.8,160.4,192.8,160.7z"/>
					<path id="XMLID_5161_" class="st14" d="M190.4,162.1l0,2.4c0,0.3-0.2,0.7-0.5,0.8l-0.5,0.3c-0.3,0.2-0.5,0-0.5-0.3v-2.4
						c0-0.3,0.2-0.7,0.5-0.8l0.5-0.3C190.2,161.6,190.4,161.8,190.4,162.1z"/>
					<path id="XMLID_5160_" class="st2" d="M188,163.5l0,2.4c0,0.3-0.2,0.7-0.5,0.8L187,167c-0.3,0.2-0.5,0-0.5-0.3v-2.4
						c0-0.3,0.2-0.7,0.5-0.8l0.5-0.3C187.8,163,188,163.2,188,163.5z"/>
					<path id="XMLID_5158_" class="st2" d="M185.6,164.9v2.4c0,0.3-0.2,0.7-0.5,0.8l-0.5,0.3c-0.3,0.2-0.5,0-0.5-0.3v-2.4
						c0-0.3,0.2-0.7,0.5-0.8l0.5-0.3C185.3,164.4,185.6,164.6,185.6,164.9z"/>
					<path id="XMLID_5157_" class="st14" d="M183.1,166.3l0,2.4c0,0.3-0.2,0.7-0.5,0.8l-0.5,0.3c-0.3,0.2-0.5,0-0.5-0.3v-2.4
						c0-0.3,0.2-0.7,0.5-0.8l0.5-0.3C182.9,165.8,183.1,166,183.1,166.3z"/>
					<path id="XMLID_5156_" class="st2" d="M180.7,167.7v2.4c0,0.3-0.2,0.7-0.5,0.8l-0.5,0.3c-0.3,0.2-0.5,0-0.5-0.3v-2.4
						c0-0.3,0.2-0.7,0.5-0.8l0.5-0.3C180.5,167.2,180.7,167.4,180.7,167.7z"/>
					<path id="XMLID_5154_" class="st14" d="M178.3,169.1v2.4c0,0.3-0.2,0.7-0.5,0.8l-0.5,0.3c-0.3,0.2-0.5,0-0.5-0.3v-2.4
						c0-0.3,0.2-0.7,0.5-0.8l0.5-0.3C178.1,168.6,178.3,168.8,178.3,169.1z"/>
					<path id="XMLID_5153_" class="st14" d="M175.8,170.5l0,2.4c0,0.3-0.2,0.7-0.5,0.8l-0.5,0.3c-0.3,0.2-0.5,0-0.5-0.3v-2.4
						c0-0.3,0.2-0.7,0.5-0.8l0.5-0.3C175.6,170,175.8,170.2,175.8,170.5z"/>
					<path id="XMLID_5151_" class="st14" d="M173.4,171.9v2.4c0,0.3-0.2,0.7-0.5,0.8l-0.5,0.3c-0.3,0.2-0.5,0-0.5-0.3v-2.4
						c0-0.3,0.2-0.7,0.5-0.8l0.5-0.3C173.2,171.4,173.4,171.6,173.4,171.9z"/>
					<path id="XMLID_5149_" class="st2" d="M171,173.3v2.4c0,0.3-0.2,0.7-0.5,0.8l-0.5,0.3c-0.3,0.2-0.5,0-0.5-0.3v-2.4
						c0-0.3,0.2-0.7,0.5-0.8l0.5-0.3C170.8,172.8,171,173,171,173.3z"/>
					<path id="XMLID_5147_" class="st14" d="M168.6,174.7l0,2.4c0,0.3-0.2,0.7-0.5,0.8l-0.5,0.3c-0.3,0.2-0.5,0-0.5-0.3v-2.4
						c0-0.3,0.2-0.7,0.5-0.8l0.5-0.3C168.3,174.2,168.6,174.4,168.6,174.7z"/>
					<path id="XMLID_5145_" class="st14" d="M166.1,176.1v2.4c0,0.3-0.2,0.7-0.5,0.8l-0.5,0.3c-0.3,0.2-0.5,0-0.5-0.3v-2.4
						c0-0.3,0.2-0.7,0.5-0.8l0.5-0.3C165.9,175.6,166.1,175.8,166.1,176.1z"/>
				</g>
			</g>
		</g>
		<g>
			<g>
				<g id="XMLID_1326_">
					<path id="XMLID_1990_" class="st2" d="M155.7,338.1l-1.1-0.6l0,0l0,0l0,0c-0.4-0.2-0.9-0.2-1.5,0.1c-1.2,0.7-2.1,2.3-2.1,3.6
						c0,0.7,0.2,1.1,0.6,1.4v0l0,0l0,0l1,0.6l0.2-0.3c0.2,0,0.4-0.1,0.6-0.2c1.2-0.7,2.1-2.3,2.1-3.6c0-0.2,0-0.4-0.1-0.5
						L155.7,338.1z"/>
					<path id="XMLID_1874_" class="st19" d="M155.7,338.1l-1.1-0.6l0,0l0,0l0,0c-0.4-0.2-0.9-0.2-1.5,0.1c-1.2,0.7-2.1,2.3-2.1,3.6
						c0,0.7,0.2,1.1,0.6,1.4v0l0,0l0,0l1,0.6l0.2-0.3c0.2,0,0.4-0.1,0.6-0.2c1.2-0.7,2.1-2.3,2.1-3.6c0-0.2,0-0.4-0.1-0.5
						L155.7,338.1z"/>
					<path id="XMLID_1463_" class="st2" d="M154.2,338.2c-1.2,0.7-2.1,2.3-2.1,3.6s0.9,1.9,2.1,1.2c1.2-0.7,2.1-2.3,2.1-3.6
						C156.3,338.1,155.3,337.6,154.2,338.2z"/>
					<path id="XMLID_1354_" class="st18" d="M154.2,338.2c-1.2,0.7-2.1,2.3-2.1,3.6s0.9,1.9,2.1,1.2c1.2-0.7,2.1-2.3,2.1-3.6
						C156.3,338.1,155.3,337.6,154.2,338.2z"/>
				</g>
				<g id="XMLID_1311_">
					<path id="XMLID_1319_" class="st2" d="M146.6,343.3l-1.1-0.6l0,0l0,0l0,0c-0.4-0.2-0.9-0.2-1.5,0.1c-1.2,0.7-2.1,2.3-2.1,3.6
						c0,0.7,0.2,1.1,0.6,1.4v0l0,0l0,0l1,0.6l0.2-0.3c0.2,0,0.4-0.1,0.6-0.2c1.2-0.7,2.1-2.3,2.1-3.6c0-0.2,0-0.4-0.1-0.5
						L146.6,343.3z"/>
					<path id="XMLID_1318_" class="st19" d="M146.6,343.3l-1.1-0.6l0,0l0,0l0,0c-0.4-0.2-0.9-0.2-1.5,0.1c-1.2,0.7-2.1,2.3-2.1,3.6
						c0,0.7,0.2,1.1,0.6,1.4v0l0,0l0,0l1,0.6l0.2-0.3c0.2,0,0.4-0.1,0.6-0.2c1.2-0.7,2.1-2.3,2.1-3.6c0-0.2,0-0.4-0.1-0.5
						L146.6,343.3z"/>
					<path id="XMLID_1317_" class="st2" d="M145.1,343.5c-1.2,0.7-2.1,2.3-2.1,3.6s0.9,1.9,2.1,1.2c1.2-0.7,2.1-2.3,2.1-3.6
						C147.2,343.3,146.3,342.8,145.1,343.5z"/>
					<path id="XMLID_1315_" class="st18" d="M145.1,343.5c-1.2,0.7-2.1,2.3-2.1,3.6s0.9,1.9,2.1,1.2c1.2-0.7,2.1-2.3,2.1-3.6
						C147.2,343.3,146.3,342.8,145.1,343.5z"/>
				</g>
			</g>
			<g>
				<g id="XMLID_1110_">
					<path id="XMLID_1114_" class="st2" d="M155.7,306.9l-1.1-0.6l0,0l0,0l0,0c-0.4-0.2-0.9-0.2-1.5,0.1c-1.2,0.7-2.1,2.3-2.1,3.6
						c0,0.7,0.2,1.1,0.6,1.4v0l0,0l0,0l1,0.6l0.2-0.3c0.2,0,0.4-0.1,0.6-0.2c1.2-0.7,2.1-2.3,2.1-3.6c0-0.2,0-0.4-0.1-0.5
						L155.7,306.9z"/>
					<path id="XMLID_1113_" class="st19" d="M155.7,306.9l-1.1-0.6l0,0l0,0l0,0c-0.4-0.2-0.9-0.2-1.5,0.1c-1.2,0.7-2.1,2.3-2.1,3.6
						c0,0.7,0.2,1.1,0.6,1.4v0l0,0l0,0l1,0.6l0.2-0.3c0.2,0,0.4-0.1,0.6-0.2c1.2-0.7,2.1-2.3,2.1-3.6c0-0.2,0-0.4-0.1-0.5
						L155.7,306.9z"/>
					<path id="XMLID_1112_" class="st2" d="M154.2,307c-1.2,0.7-2.1,2.3-2.1,3.6s0.9,1.9,2.1,1.2c1.2-0.7,2.1-2.3,2.1-3.6
						C156.3,306.9,155.3,306.3,154.2,307z"/>
					<path id="XMLID_1111_" class="st18" d="M154.2,307c-1.2,0.7-2.1,2.3-2.1,3.6s0.9,1.9,2.1,1.2c1.2-0.7,2.1-2.3,2.1-3.6
						C156.3,306.9,155.3,306.3,154.2,307z"/>
				</g>
				<g id="XMLID_1103_">
					<path id="XMLID_1109_" class="st2" d="M146.6,312.1l-1.1-0.6l0,0l0,0l0,0c-0.4-0.2-0.9-0.2-1.5,0.1c-1.2,0.7-2.1,2.3-2.1,3.6
						c0,0.7,0.2,1.1,0.6,1.4v0l0,0l0,0l1,0.6l0.2-0.3c0.2,0,0.4-0.1,0.6-0.2c1.2-0.7,2.1-2.3,2.1-3.6c0-0.2,0-0.4-0.1-0.5
						L146.6,312.1z"/>
					<path id="XMLID_1108_" class="st19" d="M146.6,312.1l-1.1-0.6l0,0l0,0l0,0c-0.4-0.2-0.9-0.2-1.5,0.1c-1.2,0.7-2.1,2.3-2.1,3.6
						c0,0.7,0.2,1.1,0.6,1.4v0l0,0l0,0l1,0.6l0.2-0.3c0.2,0,0.4-0.1,0.6-0.2c1.2-0.7,2.1-2.3,2.1-3.6c0-0.2,0-0.4-0.1-0.5
						L146.6,312.1z"/>
					<path id="XMLID_1107_" class="st2" d="M145.1,312.2c-1.2,0.7-2.1,2.3-2.1,3.6s0.9,1.9,2.1,1.2c1.2-0.7,2.1-2.3,2.1-3.6
						C147.2,312.1,146.3,311.6,145.1,312.2z"/>
					<path id="XMLID_1106_" class="st18" d="M145.1,312.2c-1.2,0.7-2.1,2.3-2.1,3.6s0.9,1.9,2.1,1.2c1.2-0.7,2.1-2.3,2.1-3.6
						C147.2,312.1,146.3,311.6,145.1,312.2z"/>
				</g>
			</g>
			<g>
				<g id="XMLID_1050_">
					<path id="XMLID_1054_" class="st2" d="M155.7,275.6l-1.1-0.6l0,0l0,0l0,0c-0.4-0.2-0.9-0.2-1.5,0.1c-1.2,0.7-2.1,2.3-2.1,3.6
						c0,0.7,0.2,1.1,0.6,1.4v0l0,0l0,0l1,0.6l0.2-0.3c0.2,0,0.4-0.1,0.6-0.2c1.2-0.7,2.1-2.3,2.1-3.6c0-0.2,0-0.4-0.1-0.5
						L155.7,275.6z"/>
					<path id="XMLID_1053_" class="st19" d="M155.7,275.6l-1.1-0.6l0,0l0,0l0,0c-0.4-0.2-0.9-0.2-1.5,0.1c-1.2,0.7-2.1,2.3-2.1,3.6
						c0,0.7,0.2,1.1,0.6,1.4v0l0,0l0,0l1,0.6l0.2-0.3c0.2,0,0.4-0.1,0.6-0.2c1.2-0.7,2.1-2.3,2.1-3.6c0-0.2,0-0.4-0.1-0.5
						L155.7,275.6z"/>
					<path id="XMLID_1052_" class="st2" d="M154.2,275.8c-1.2,0.7-2.1,2.3-2.1,3.6s0.9,1.9,2.1,1.2c1.2-0.7,2.1-2.3,2.1-3.6
						C156.3,275.6,155.3,275.1,154.2,275.8z"/>
					<path id="XMLID_1051_" class="st18" d="M154.2,275.8c-1.2,0.7-2.1,2.3-2.1,3.6s0.9,1.9,2.1,1.2c1.2-0.7,2.1-2.3,2.1-3.6
						C156.3,275.6,155.3,275.1,154.2,275.8z"/>
				</g>
				<g id="XMLID_1045_">
					<path id="XMLID_1049_" class="st2" d="M146.6,280.9l-1.1-0.6l0,0l0,0l0,0c-0.4-0.2-0.9-0.2-1.5,0.1c-1.2,0.7-2.1,2.3-2.1,3.6
						c0,0.7,0.2,1.1,0.6,1.4v0l0,0l0,0l1,0.6l0.2-0.3c0.2,0,0.4-0.1,0.6-0.2c1.2-0.7,2.1-2.3,2.1-3.6c0-0.2,0-0.4-0.1-0.5
						L146.6,280.9z"/>
					<path id="XMLID_1048_" class="st19" d="M146.6,280.9l-1.1-0.6l0,0l0,0l0,0c-0.4-0.2-0.9-0.2-1.5,0.1c-1.2,0.7-2.1,2.3-2.1,3.6
						c0,0.7,0.2,1.1,0.6,1.4v0l0,0l0,0l1,0.6l0.2-0.3c0.2,0,0.4-0.1,0.6-0.2c1.2-0.7,2.1-2.3,2.1-3.6c0-0.2,0-0.4-0.1-0.5
						L146.6,280.9z"/>
					<path id="XMLID_1047_" class="st2" d="M145.1,281c-1.2,0.7-2.1,2.3-2.1,3.6s0.9,1.9,2.1,1.2c1.2-0.7,2.1-2.3,2.1-3.6
						C147.2,280.9,146.3,280.3,145.1,281z"/>
					<path id="XMLID_1046_" class="st18" d="M145.1,281c-1.2,0.7-2.1,2.3-2.1,3.6s0.9,1.9,2.1,1.2c1.2-0.7,2.1-2.3,2.1-3.6
						C147.2,280.9,146.3,280.3,145.1,281z"/>
				</g>
			</g>
			<g>
				<g id="XMLID_843_">
					<path id="XMLID_848_" class="st2" d="M155.7,244.4l-1.1-0.6l0,0l0,0l0,0c-0.4-0.2-0.9-0.2-1.5,0.1c-1.2,0.7-2.1,2.3-2.1,3.6
						c0,0.7,0.2,1.1,0.6,1.4v0l0,0l0,0l1,0.6l0.2-0.3c0.2,0,0.4-0.1,0.6-0.2c1.2-0.7,2.1-2.3,2.1-3.6c0-0.2,0-0.4-0.1-0.5
						L155.7,244.4z"/>
					<path id="XMLID_846_" class="st19" d="M155.7,244.4l-1.1-0.6l0,0l0,0l0,0c-0.4-0.2-0.9-0.2-1.5,0.1c-1.2,0.7-2.1,2.3-2.1,3.6
						c0,0.7,0.2,1.1,0.6,1.4v0l0,0l0,0l1,0.6l0.2-0.3c0.2,0,0.4-0.1,0.6-0.2c1.2-0.7,2.1-2.3,2.1-3.6c0-0.2,0-0.4-0.1-0.5
						L155.7,244.4z"/>
					<path id="XMLID_845_" class="st2" d="M154.2,244.5c-1.2,0.7-2.1,2.3-2.1,3.6s0.9,1.9,2.1,1.2c1.2-0.7,2.1-2.3,2.1-3.6
						C156.3,244.4,155.3,243.9,154.2,244.5z"/>
					<path id="XMLID_844_" class="st18" d="M154.2,244.5c-1.2,0.7-2.1,2.3-2.1,3.6s0.9,1.9,2.1,1.2c1.2-0.7,2.1-2.3,2.1-3.6
						C156.3,244.4,155.3,243.9,154.2,244.5z"/>
				</g>
				<g id="XMLID_836_">
					<path id="XMLID_842_" class="st2" d="M146.6,249.6l-1.1-0.6l0,0l0,0l0,0c-0.4-0.2-0.9-0.2-1.5,0.1c-1.2,0.7-2.1,2.3-2.1,3.6
						c0,0.7,0.2,1.1,0.6,1.4v0l0,0l0,0l1,0.6l0.2-0.3c0.2,0,0.4-0.1,0.6-0.2c1.2-0.7,2.1-2.3,2.1-3.6c0-0.2,0-0.4-0.1-0.5
						L146.6,249.6z"/>
					<path id="XMLID_841_" class="st19" d="M146.6,249.6l-1.1-0.6l0,0l0,0l0,0c-0.4-0.2-0.9-0.2-1.5,0.1c-1.2,0.7-2.1,2.3-2.1,3.6
						c0,0.7,0.2,1.1,0.6,1.4v0l0,0l0,0l1,0.6l0.2-0.3c0.2,0,0.4-0.1,0.6-0.2c1.2-0.7,2.1-2.3,2.1-3.6c0-0.2,0-0.4-0.1-0.5
						L146.6,249.6z"/>
					<path id="XMLID_840_" class="st2" d="M145.1,249.8c-1.2,0.7-2.1,2.3-2.1,3.6c0,1.3,0.9,1.9,2.1,1.2c1.2-0.7,2.1-2.3,2.1-3.6
						C147.2,249.6,146.3,249.1,145.1,249.8z"/>
					<path id="XMLID_837_" class="st18" d="M145.1,249.8c-1.2,0.7-2.1,2.3-2.1,3.6c0,1.3,0.9,1.9,2.1,1.2c1.2-0.7,2.1-2.3,2.1-3.6
						C147.2,249.6,146.3,249.1,145.1,249.8z"/>
				</g>
			</g>
			<g>
				<g id="XMLID_5104_">
					<path id="XMLID_5111_" class="st2" d="M155.7,213.1l-1.1-0.6l0,0l0,0l0,0c-0.4-0.2-0.9-0.2-1.5,0.1c-1.2,0.7-2.1,2.3-2.1,3.6
						c0,0.7,0.2,1.1,0.6,1.4v0l0,0l0,0l1,0.6l0.2-0.3c0.2,0,0.4-0.1,0.6-0.2c1.2-0.7,2.1-2.3,2.1-3.6c0-0.2,0-0.4-0.1-0.5
						L155.7,213.1z"/>
					<path id="XMLID_5109_" class="st19" d="M155.7,213.1l-1.1-0.6l0,0l0,0l0,0c-0.4-0.2-0.9-0.2-1.5,0.1c-1.2,0.7-2.1,2.3-2.1,3.6
						c0,0.7,0.2,1.1,0.6,1.4v0l0,0l0,0l1,0.6l0.2-0.3c0.2,0,0.4-0.1,0.6-0.2c1.2-0.7,2.1-2.3,2.1-3.6c0-0.2,0-0.4-0.1-0.5
						L155.7,213.1z"/>
					<path id="XMLID_5107_" class="st2" d="M154.2,213.2c-1.2,0.7-2.1,2.3-2.1,3.6c0,1.3,0.9,1.9,2.1,1.2c1.2-0.7,2.1-2.3,2.1-3.6
						C156.3,213.1,155.3,212.6,154.2,213.2z"/>
					<path id="XMLID_5105_" class="st18" d="M154.2,213.2c-1.2,0.7-2.1,2.3-2.1,3.6c0,1.3,0.9,1.9,2.1,1.2c1.2-0.7,2.1-2.3,2.1-3.6
						C156.3,213.1,155.3,212.6,154.2,213.2z"/>
				</g>
				<g id="XMLID_5092_">
					<path id="XMLID_5103_" class="st2" d="M146.6,218.4l-1.1-0.6l0,0l0,0l0,0c-0.4-0.2-0.9-0.2-1.5,0.1c-1.2,0.7-2.1,2.3-2.1,3.6
						c0,0.7,0.2,1.1,0.6,1.4v0l0,0l0,0l1,0.6l0.2-0.3c0.2,0,0.4-0.1,0.6-0.2c1.2-0.7,2.1-2.3,2.1-3.6c0-0.2,0-0.4-0.1-0.5
						L146.6,218.4z"/>
					<path id="XMLID_5100_" class="st19" d="M146.6,218.4l-1.1-0.6l0,0l0,0l0,0c-0.4-0.2-0.9-0.2-1.5,0.1c-1.2,0.7-2.1,2.3-2.1,3.6
						c0,0.7,0.2,1.1,0.6,1.4v0l0,0l0,0l1,0.6l0.2-0.3c0.2,0,0.4-0.1,0.6-0.2c1.2-0.7,2.1-2.3,2.1-3.6c0-0.2,0-0.4-0.1-0.5
						L146.6,218.4z"/>
					<path id="XMLID_5098_" class="st2" d="M145.1,218.5c-1.2,0.7-2.1,2.3-2.1,3.6s0.9,1.9,2.1,1.2c1.2-0.7,2.1-2.3,2.1-3.6
						C147.2,218.4,146.3,217.8,145.1,218.5z"/>
					<path id="XMLID_5093_" class="st18" d="M145.1,218.5c-1.2,0.7-2.1,2.3-2.1,3.6s0.9,1.9,2.1,1.2c1.2-0.7,2.1-2.3,2.1-3.6
						C147.2,218.4,146.3,217.8,145.1,218.5z"/>
				</g>
			</g>
			<g>
				<g id="XMLID_5062_">
					<path id="XMLID_5090_" class="st2" d="M155.7,181.9l-1.1-0.6l0,0l0,0l0,0c-0.4-0.2-0.9-0.2-1.5,0.1c-1.2,0.7-2.1,2.3-2.1,3.6
						c0,0.7,0.2,1.1,0.6,1.4v0l0,0l0,0l1,0.6l0.2-0.3c0.2,0,0.4-0.1,0.6-0.2c1.2-0.7,2.1-2.3,2.1-3.6c0-0.2,0-0.4-0.1-0.5
						L155.7,181.9z"/>
					<path id="XMLID_5089_" class="st19" d="M155.7,181.9l-1.1-0.6l0,0l0,0l0,0c-0.4-0.2-0.9-0.2-1.5,0.1c-1.2,0.7-2.1,2.3-2.1,3.6
						c0,0.7,0.2,1.1,0.6,1.4v0l0,0l0,0l1,0.6l0.2-0.3c0.2,0,0.4-0.1,0.6-0.2c1.2-0.7,2.1-2.3,2.1-3.6c0-0.2,0-0.4-0.1-0.5
						L155.7,181.9z"/>
					<path id="XMLID_5072_" class="st2" d="M154.2,182c-1.2,0.7-2.1,2.3-2.1,3.6c0,1.3,0.9,1.9,2.1,1.2c1.2-0.7,2.1-2.3,2.1-3.6
						C156.3,181.9,155.3,181.4,154.2,182z"/>
					<path id="XMLID_5071_" class="st18" d="M154.2,182c-1.2,0.7-2.1,2.3-2.1,3.6c0,1.3,0.9,1.9,2.1,1.2c1.2-0.7,2.1-2.3,2.1-3.6
						C156.3,181.9,155.3,181.4,154.2,182z"/>
				</g>
				<g id="XMLID_5042_">
					<path id="XMLID_5060_" class="st2" d="M146.6,187.1l-1.1-0.6l0,0l0,0l0,0c-0.4-0.2-0.9-0.2-1.5,0.1c-1.2,0.7-2.1,2.3-2.1,3.6
						c0,0.7,0.2,1.1,0.6,1.4v0l0,0l0,0l1,0.6l0.2-0.3c0.2,0,0.4-0.1,0.6-0.2c1.2-0.7,2.1-2.3,2.1-3.6c0-0.2,0-0.4-0.1-0.5
						L146.6,187.1z"/>
					<path id="XMLID_5056_" class="st19" d="M146.6,187.1l-1.1-0.6l0,0l0,0l0,0c-0.4-0.2-0.9-0.2-1.5,0.1c-1.2,0.7-2.1,2.3-2.1,3.6
						c0,0.7,0.2,1.1,0.6,1.4v0l0,0l0,0l1,0.6l0.2-0.3c0.2,0,0.4-0.1,0.6-0.2c1.2-0.7,2.1-2.3,2.1-3.6c0-0.2,0-0.4-0.1-0.5
						L146.6,187.1z"/>
					<path id="XMLID_5046_" class="st2" d="M145.1,187.3c-1.2,0.7-2.1,2.3-2.1,3.6c0,1.3,0.9,1.9,2.1,1.2c1.2-0.7,2.1-2.3,2.1-3.6
						C147.2,187.1,146.3,186.6,145.1,187.3z"/>
					<path id="XMLID_5045_" class="st18" d="M145.1,187.3c-1.2,0.7-2.1,2.3-2.1,3.6c0,1.3,0.9,1.9,2.1,1.2c1.2-0.7,2.1-2.3,2.1-3.6
						C147.2,187.1,146.3,186.6,145.1,187.3z"/>
				</g>
			</g>
		</g>
		<g>
			<g id="XMLID_5121_">
				<path id="XMLID_5125_" class="st13" d="M86.6,253.8l41.1,23.7c0.7,0.4,1.3,1.5,1.3,2.3l0,11.3c0,0.8-0.6,1.2-1.3,0.8l-41.1-23.7
					c-0.7-0.4-1.3-1.5-1.3-2.3l0-11.3C85.2,253.7,85.8,253.4,86.6,253.8z"/>
				<path id="XMLID_5124_" class="st2" d="M87.7,258.8c0,0.8,0.6,1.8,1.3,2.2l36.1,20.8c0.7,0.4,1.3,0.1,1.3-0.7
					c0-0.8-0.6-1.8-1.3-2.2l-36.1-20.8C88.3,257.7,87.7,258,87.7,258.8z"/>
				<path id="XMLID_5123_" class="st20" d="M87.7,264.6c0,0.8,0.6,1.8,1.3,2.2l36.1,20.8c0.7,0.4,1.3,0.1,1.3-0.7
					c0-0.8-0.6-1.8-1.3-2.2l-36.1-20.8C88.3,263.5,87.7,263.8,87.7,264.6z"/>
				<path id="XMLID_5122_" class="st2" d="M89.1,263.9l19.9,11.5l0,2.9l-19.9-11.5c-0.7-0.4-1.3-1.4-1.3-2.2
					C87.7,263.8,88.3,263.5,89.1,263.9z"/>
			</g>
			<g id="XMLID_4901_">
				<path id="XMLID_5120_" class="st13" d="M86.6,285.1l41.1,23.7c0.7,0.4,1.3,1.5,1.3,2.3l0,11.3c0,0.8-0.6,1.2-1.3,0.8l-41.1-23.7
					c-0.7-0.4-1.3-1.5-1.3-2.3l0-11.3C85.2,285,85.8,284.7,86.6,285.1z"/>
				<path id="XMLID_5119_" class="st2" d="M87.7,290.1c0,0.8,0.6,1.8,1.3,2.2l36.1,20.8c0.7,0.4,1.3,0.1,1.3-0.7
					c0-0.8-0.6-1.8-1.3-2.2l-36.1-20.8C88.3,289,87.7,289.3,87.7,290.1z"/>
				<path id="XMLID_5118_" class="st20" d="M87.7,295.9c0,0.8,0.6,1.8,1.3,2.2l36.1,20.8c0.7,0.4,1.3,0.1,1.3-0.7
					c0-0.8-0.6-1.8-1.3-2.2l-36.1-20.8C88.3,294.8,87.7,295.1,87.7,295.9z"/>
				<path id="XMLID_5117_" class="st2" d="M89.1,295.2l24.9,14.4l0,2.9l-24.9-14.4c-0.7-0.4-1.3-1.4-1.3-2.2
					C87.7,295.1,88.3,294.8,89.1,295.2z"/>
			</g>
			<g id="XMLID_703_">
				<path id="XMLID_2890_" class="st13" d="M86.6,316.2l41.1,23.7c0.7,0.4,1.3,1.5,1.3,2.3l0,11.3c0,0.8-0.6,1.2-1.3,0.8l-41.1-23.7
					c-0.7-0.4-1.3-1.5-1.3-2.3l0-11.3C85.2,316.1,85.8,315.7,86.6,316.2z"/>
				<path id="XMLID_2855_" class="st2" d="M87.7,321.2c0,0.8,0.6,1.8,1.3,2.2l36.1,20.8c0.7,0.4,1.3,0.1,1.3-0.7
					c0-0.8-0.6-1.8-1.3-2.2l-36.1-20.8C88.3,320.1,87.7,320.4,87.7,321.2z"/>
				<path id="XMLID_2852_" class="st20" d="M87.7,326.9c0,0.8,0.6,1.8,1.3,2.2l36.1,20.8c0.7,0.4,1.3,0.1,1.3-0.7
					c0-0.8-0.6-1.8-1.3-2.2l-36.1-20.8C88.3,325.8,87.7,326.1,87.7,326.9z"/>
				<path id="XMLID_2851_" class="st2" d="M89.1,326.3l29.9,17.3l0,2.9l-29.9-17.3c-0.7-0.4-1.3-1.4-1.3-2.2S88.3,325.8,89.1,326.3z
					"/>
			</g>
			<g id="XMLID_5126_">
				<path id="XMLID_5130_" class="st13" d="M86.6,222.8l41.1,23.7c0.7,0.4,1.3,1.5,1.3,2.3l0,11.3c0,0.8-0.6,1.2-1.3,0.8l-41.1-23.7
					c-0.7-0.4-1.3-1.5-1.3-2.3l0-11.3C85.2,222.7,85.8,222.4,86.6,222.8z"/>
				<path id="XMLID_5129_" class="st2" d="M87.7,227.8c0,0.8,0.6,1.8,1.3,2.2l36.1,20.8c0.7,0.4,1.3,0.1,1.3-0.7
					c0-0.8-0.6-1.8-1.3-2.2l-36.1-20.8C88.3,226.7,87.7,227,87.7,227.8z"/>
				<path id="XMLID_5128_" class="st20" d="M87.7,233.6c0,0.8,0.6,1.8,1.3,2.2l36.1,20.8c0.7,0.4,1.3,0.1,1.3-0.7
					c0-0.8-0.6-1.8-1.3-2.2l-36.1-20.8C88.3,232.5,87.7,232.8,87.7,233.6z"/>
				<path id="XMLID_5127_" class="st2" d="M89.1,232.9l32.4,18.7l0,2.9l-32.4-18.7c-0.7-0.4-1.3-1.4-1.3-2.2
					C87.7,232.8,88.3,232.5,89.1,232.9z"/>
			</g>
			<g id="XMLID_4988_">
				<path id="XMLID_5025_" class="st13" d="M86.6,160.3l41.1,23.7c0.7,0.4,1.3,1.5,1.3,2.3l0,11.3c0,0.8-0.6,1.2-1.3,0.8l-41.1-23.7
					c-0.7-0.4-1.3-1.5-1.3-2.3l0-11.3C85.2,160.2,85.8,159.8,86.6,160.3z"/>
				<path id="XMLID_5024_" class="st2" d="M87.7,165.3c0,0.8,0.6,1.8,1.3,2.2l36.1,20.8c0.7,0.4,1.3,0.1,1.3-0.7
					c0-0.8-0.6-1.8-1.3-2.2l-36.1-20.8C88.3,164.2,87.7,164.5,87.7,165.3z"/>
				<path id="XMLID_4994_" class="st20" d="M87.7,171c0,0.8,0.6,1.8,1.3,2.2l36.1,20.8c0.7,0.4,1.3,0.1,1.3-0.7
					c0-0.8-0.6-1.8-1.3-2.2l-36.1-20.8C88.3,169.9,87.7,170.2,87.7,171z"/>
				<path id="XMLID_4991_" class="st2" d="M89.1,170.4l24.9,14.4l0,2.9l-24.9-14.4c-0.7-0.4-1.3-1.4-1.3-2.2
					C87.7,170.2,88.3,169.9,89.1,170.4z"/>
			</g>
			<g id="XMLID_298_">
				<path id="XMLID_4979_" class="st13" d="M86.6,191.5l41.1,23.7c0.7,0.4,1.3,1.5,1.3,2.3l0,11.3c0,0.8-0.6,1.2-1.3,0.8l-41.1-23.7
					c-0.7-0.4-1.3-1.5-1.3-2.3l0-11.3C85.2,191.4,85.8,191.1,86.6,191.5z"/>
				<path id="XMLID_4978_" class="st2" d="M87.7,196.5c0,0.8,0.6,1.8,1.3,2.2l36.1,20.8c0.7,0.4,1.3,0.1,1.3-0.7
					c0-0.8-0.6-1.8-1.3-2.2l-36.1-20.8C88.3,195.4,87.7,195.7,87.7,196.5z"/>
				<path id="XMLID_2786_" class="st20" d="M87.7,202.3c0,0.8,0.6,1.8,1.3,2.2l36.1,20.8c0.7,0.4,1.3,0.1,1.3-0.7
					c0-0.8-0.6-1.8-1.3-2.2l-36.1-20.8C88.3,201.2,87.7,201.5,87.7,202.3z"/>
				<path id="XMLID_2785_" class="st2" d="M89.1,201.6l32.4,18.7l0,2.9l-32.4-18.7c-0.7-0.4-1.3-1.4-1.3-2.2
					C87.7,201.5,88.3,201.2,89.1,201.6z"/>
			</g>
		</g>
		<g>
			<g id="XMLID_4865_">
				<path id="XMLID_4900_" class="st2" d="M136.7,171.3l48.3-27.9c0.7-0.4,1.2-1.4,1.2-2.2v-1.6c0-0.8-0.6-1.8-1.2-2.2l-48.3-27.9
					c-0.7-0.4-1.8-0.4-2.5,0L86,137.4c-0.7,0.4-1.2,1.4-1.2,2.2v1.6c0,0.8,0.6,1.8,1.2,2.2l48.3,27.9
					C134.9,171.7,136,171.7,136.7,171.3z"/>
				<path id="XMLID_742_" class="st21" d="M136.7,171.3l48.3-27.9c0.7-0.4,1.2-1.4,1.2-2.2v-1.6c0-0.8-0.6-1.8-1.2-2.2l-48.3-27.9
					c-0.7-0.4-1.8-0.4-2.5,0L86,137.4c-0.7,0.4-1.2,1.4-1.2,2.2v1.6c0,0.8,0.6,1.8,1.2,2.2l48.3,27.9
					C134.9,171.7,136,171.7,136.7,171.3z"/>
				<path id="XMLID_4899_" class="st6" d="M185,138.9l-48.3,27.9c-0.7,0.4-1.8,0.4-2.5,0L86,138.9c-0.7-0.4-0.7-1,0-1.4l48.3-27.9
					c0.7-0.4,1.8-0.4,2.5,0l48.3,27.9C185.7,137.8,185.7,138.5,185,138.9z"/>
				<path id="XMLID_4882_" class="st2" d="M135.5,167.1v4.5c0.5,0,0.9-0.1,1.3-0.3l48.3-27.9c0.7-0.4,1.3-1.4,1.3-2.2v-1.6
					c0-0.7-0.4-1.5-1-2c0.5,0.4,0.4,0.9-0.2,1.3l-48.3,27.9C136.4,167,135.9,167.1,135.5,167.1z"/>
				<path id="XMLID_273_" class="st18" d="M135.5,167.1v4.5c0.5,0,0.9-0.1,1.3-0.3l48.3-27.9c0.7-0.4,1.3-1.4,1.3-2.2v-1.6
					c0-0.7-0.4-1.5-1-2c0.5,0.4,0.4,0.9-0.2,1.3l-48.3,27.9C136.4,167,135.9,167.1,135.5,167.1z"/>
			</g>
			<g id="XMLID_2905_">
				<path id="XMLID_4535_" class="st20" d="M136.7,160.4l32.7-19.8c0.7-0.4,1.2-1.4,1.2-2.3v-1.7c0-0.8-0.6-1.9-1.2-2.3l-20.9-12.7
					c-0.7-0.4-1.6-1.3-2.1-2l-10-14.1c-0.5-0.7-1.4-0.9-2.1-0.5l-32.7,19.8c-0.7,0.4-1.2,1.4-1.2,2.3l0,11.2c0,0.8,0.6,1.9,1.2,2.3
					l32.7,19.8C134.9,160.8,136,160.8,136.7,160.4z"/>
				<path id="XMLID_4532_" class="st13" d="M134.2,155.6l-20.9-12.7c-0.3-0.2-0.7-0.5-1.1-0.9c-0.4-0.4-0.8-0.8-1-1.1l-10-14.1
					c-0.5-0.7-0.3-1.6,0.4-2l32.7-19.8c0.7-0.4,1.6-0.2,2.1,0.5l10,14.1c0.5,0.7,1.2,1.6,1.9,2.1l21.1,12.6c0.7,0.4,0.7,1.1,0,1.5
					l-32.7,19.8C136,156,134.9,156,134.2,155.6z"/>
				<path id="XMLID_4531_" class="st14" d="M101.6,124.9l32.7-19.8c0.7-0.4,1.6-0.2,2.1,0.5l10,14.1c0.2,0.3,0.6,0.7,1,1.1
					c0,0-35.2,21.3-35.2,21.3c-0.4-0.4-0.8-0.8-1-1.1l-10-14.1C100.7,126.2,100.9,125.3,101.6,124.9z"/>
				<g id="XMLID_3665_">
					<path id="XMLID_4168_" class="st2" d="M161.5,134.7c-0.8-0.5-2.1-0.5-2.9,0c-0.8,0.5-0.8,1.3,0,1.8c0.8,0.5,2.1,0.5,2.9,0
						C162.3,136,162.3,135.2,161.5,134.7z"/>
					<path id="XMLID_3926_" class="st2" d="M155.6,138.2c-0.8-0.5-2.1-0.5-2.9,0c-0.8,0.5-0.8,1.3,0,1.8c0.8,0.5,2.1,0.5,2.9,0
						C156.4,139.5,156.4,138.7,155.6,138.2z"/>
					<path id="XMLID_3925_" class="st20" d="M149.8,141.8c-0.8-0.5-2.1-0.5-2.9,0c-0.8,0.5-0.8,1.3,0,1.8c0.8,0.5,2.1,0.5,2.9,0
						C150.6,143.1,150.6,142.3,149.8,141.8z"/>
					<path id="XMLID_3924_" class="st20" d="M143.9,145.3c-0.8-0.5-2.1-0.5-2.9,0c-0.8,0.5-0.8,1.3,0,1.8c0.8,0.5,2.1,0.5,2.9,0
						C144.7,146.6,144.7,145.8,143.9,145.3z"/>
					<path id="XMLID_3921_" class="st2" d="M157.1,132c-0.8-0.5-2.1-0.5-2.9,0c-0.8,0.5-0.8,1.3,0,1.8c0.8,0.5,2.1,0.5,2.9,0
						C157.9,133.3,157.9,132.5,157.1,132z"/>
					<path id="XMLID_3920_" class="st20" d="M151.2,135.6c-0.8-0.5-2.1-0.5-2.9,0c-0.8,0.5-0.8,1.3,0,1.8c0.8,0.5,2.1,0.5,2.9,0
						C152,136.8,152,136,151.2,135.6z"/>
					<ellipse id="XMLID_3919_" class="st2" cx="143.9" cy="140" rx="2.1" ry="1.3"/>
					<path id="XMLID_3726_" class="st20" d="M139.5,142.7c-0.8-0.5-2.1-0.5-2.9,0c-0.8,0.5-0.8,1.3,0,1.8c0.8,0.5,2.1,0.5,2.9,0
						C140.3,143.9,140.3,143.1,139.5,142.7z"/>
					<path id="XMLID_3725_" class="st20" d="M152.7,129.3c-0.8-0.5-2.1-0.5-2.9,0c-0.8,0.5-0.8,1.3,0,1.8c0.8,0.5,2.1,0.5,2.9,0
						C153.5,130.6,153.5,129.8,152.7,129.3z"/>
					<path id="XMLID_3724_" class="st2" d="M146.8,132.9c-0.8-0.5-2.1-0.5-2.9,0c-0.8,0.5-0.8,1.3,0,1.8c0.8,0.5,2.1,0.5,2.9,0
						C147.6,134.2,147.6,133.4,146.8,132.9z"/>
					<path id="XMLID_3723_" class="st20" d="M141,136.4c-0.8-0.5-2.1-0.5-2.9,0c-0.8,0.5-0.8,1.3,0,1.8c0.8,0.5,2.1,0.5,2.9,0
						C141.8,137.7,141.8,136.9,141,136.4z"/>
					<path id="XMLID_3721_" class="st2" d="M138,148.8c-0.8-0.5-2.1-0.5-2.9,0c-0.8,0.5-0.8,1.3,0,1.8c0.8,0.5,2.1,0.5,2.9,0
						C138.8,150.1,138.8,149.3,138,148.8z"/>
					<path id="XMLID_3720_" class="st20" d="M133.6,146.1c-0.8-0.5-2.1-0.5-2.9,0c-0.8,0.5-0.8,1.3,0,1.8c0.8,0.5,2.1,0.5,2.9,0
						C134.4,147.4,134.4,146.6,133.6,146.1z"/>
					<path id="XMLID_3719_" class="st20" d="M135.1,140c-0.8-0.5-2.1-0.5-2.9,0c-0.8,0.5-0.8,1.3,0,1.8c0.8,0.5,2.1,0.5,2.9,0
						C135.9,141.3,135.9,140.5,135.1,140z"/>
					<path id="XMLID_3718_" class="st2" d="M148.3,126.7c-0.8-0.5-2.1-0.5-2.9,0c-0.8,0.5-0.8,1.3,0,1.8c0.8,0.5,2.1,0.5,2.9,0
						C149.1,128,149.1,127.2,148.3,126.7z"/>
					<path id="XMLID_3717_" class="st20" d="M142.4,130.2c-0.8-0.5-2.1-0.5-2.9,0c-0.8,0.5-0.8,1.3,0,1.8c0.8,0.5,2.1,0.5,2.9,0
						C143.2,131.5,143.2,130.7,142.4,130.2z"/>
					<path id="XMLID_3669_" class="st2" d="M136.6,133.8c-0.8-0.5-2.1-0.5-2.9,0c-0.8,0.5-0.8,1.3,0,1.8c0.8,0.5,2.1,0.5,2.9,0
						C137.4,135.1,137.4,134.3,136.6,133.8z"/>
					<ellipse id="XMLID_3668_" class="st20" cx="129.2" cy="138.2" rx="2.1" ry="1.3"/>
					<path id="XMLID_3667_" class="st2" d="M129.2,143.5c-0.8-0.5-2.1-0.5-2.9,0c-0.8,0.5-0.8,1.3,0,1.8s2.1,0.5,2.9,0
						C130,144.8,130,144,129.2,143.5z"/>
					<path id="XMLID_3666_" class="st20" d="M124.8,140.8c-0.8-0.5-2.1-0.5-2.9,0c-0.8,0.5-0.8,1.3,0,1.8c0.8,0.5,2.1,0.5,2.9,0
						C125.6,142.1,125.6,141.3,124.8,140.8z"/>
				</g>
				<path id="XMLID_3498_" class="st14" d="M135.4,155.9v4.7c0.5,0,1-0.1,1.3-0.3l32.7-19.8c0.7-0.4,1.3-1.4,1.3-2.3v-1.7
					c0-0.7-0.4-1.6-1-2.1c0.5,0.4,0.4,1-0.2,1.3l-32.7,19.8C136.4,155.8,135.9,155.9,135.4,155.9z"/>
				<g id="XMLID_2916_">
					<path id="XMLID_3480_" class="st20" d="M142,119.1L142,119.1c-0.3-0.5-1-0.6-1.4-0.3l-28.4,17.2c-0.5,0.3-0.6,0.9-0.3,1.3l0,0
						c0.3,0.4,0.9,0.6,1.4,0.3l28.4-17.2C142.2,120.1,142.3,119.5,142,119.1z"/>
					<path id="XMLID_3044_" class="st2" d="M142,119.1L142,119.1c-0.3-0.5-1-0.6-1.4-0.3l-21.1,12.8l1.2,1.7l21.1-12.8
						C142.2,120.1,142.3,119.5,142,119.1z"/>
					<path id="XMLID_3036_" class="st20" d="M139.7,115.8L139.7,115.8c-0.3-0.5-1-0.6-1.4-0.3l-28.4,17.2c-0.5,0.3-0.6,0.9-0.3,1.3
						l0,0c0.3,0.4,0.9,0.6,1.4,0.3l28.4-17.2C139.9,116.8,140,116.2,139.7,115.8z"/>
					<path id="XMLID_3027_" class="st2" d="M139.7,115.8L139.7,115.8c-0.3-0.5-1-0.6-1.4-0.3l-7.1,4.3l1.2,1.7l7.1-4.3
						C139.9,116.8,140,116.2,139.7,115.8z"/>
					<path id="XMLID_3011_" class="st20" d="M137.3,112.5L137.3,112.5c-0.3-0.5-1-0.6-1.4-0.3l-28.4,17.2c-0.5,0.3-0.6,0.9-0.3,1.3
						l0,0c0.3,0.4,0.9,0.6,1.4,0.3l28.4-17.2C137.5,113.5,137.6,112.9,137.3,112.5z"/>
					<path id="XMLID_3010_" class="st2" d="M137.3,112.5L137.3,112.5c-0.3-0.5-1-0.6-1.4-0.3l-14.8,8.9l1.2,1.7l14.8-8.9
						C137.5,113.5,137.6,112.9,137.3,112.5z"/>
					<path id="XMLID_3009_" class="st20" d="M135,109.1L135,109.1c-0.3-0.5-1-0.6-1.4-0.3L105.1,126c-0.5,0.3-0.6,0.9-0.3,1.3l0,0
						c0.3,0.4,0.9,0.6,1.4,0.3l28.4-17.2C135.2,110.2,135.3,109.6,135,109.1z"/>
					<path id="XMLID_2971_" class="st2" d="M135,109.1L135,109.1c-0.3-0.5-1-0.6-1.4-0.3l-25.8,15.6l1.2,1.7l25.8-15.6
						C135.2,110.2,135.3,109.6,135,109.1z"/>
				</g>
			</g>
		</g>
	</g>
</g>
<g id="Cables">
	<g id="Cable">
		<g>
			<g>
				<path class="st9" d="M256.7,365c-0.1,0.2-0.4,0.3-0.7,0.2l-39.1-22.6c-1.1-0.6-2.8-0.6-3.9,0l-78.3,45.2
					c-0.7,0.4-1.6,0.6-2.5,0.6c-0.9,0-1.8-0.2-2.5-0.6l-45.2-26.1c-0.8-0.4-1.2-1-1.2-1.7c0-0.7,0.4-1.3,1.2-1.7l18.6-10.7
					c0.1,0,0.1,0,0.2,0c0.2,0.1,0.4,0.4,0.4,0.6c0,0.1,0,0.2-0.1,0.2c0,0,0,0-0.1,0.1c0,0,0,0-0.1,0l-18.5,10.7
					c-0.4,0.2-0.7,0.5-0.7,0.8c0,0.3,0.2,0.6,0.7,0.8l45.2,26.1c1.1,0.6,2.8,0.6,3.9,0l78.3-45.2c1.4-0.8,3.5-0.8,4.9,0l39.1,22.6
					C256.8,364.5,256.8,364.8,256.7,365z"/>
			</g>
			<g>
				<path class="st9" d="M248.4,369.8c-0.1,0.2-0.4,0.3-0.7,0.2l-30.9-17.8c-1-0.6-2.8-0.6-3.9,0l-78.3,45.2
					c-0.7,0.4-1.6,0.6-2.5,0.6c-0.9,0-1.8-0.2-2.5-0.6l-61.7-35.6c-0.8-0.4-1.2-1-1.2-1.7c0-0.7,0.4-1.3,1.2-1.7l26.8-15.5
					c0,0,0,0,0,0c0.1,0,0.2,0,0.2,0c0.2,0.1,0.4,0.4,0.4,0.6c0,0.1,0,0.2-0.1,0.2c0,0,0,0,0,0l-26.8,15.5c-0.4,0.2-0.7,0.5-0.7,0.8
					c0,0.3,0.2,0.6,0.7,0.8l61.7,35.6c1.1,0.6,2.8,0.6,3.9,0l78.3-45.2c1.4-0.8,3.5-0.8,4.9,0l30.9,17.8
					C248.5,369.2,248.6,369.5,248.4,369.8z"/>
			</g>
			<g>
				<path class="st9" d="M240.2,374.6c-0.1,0.2-0.4,0.3-0.7,0.2l-22.6-13c-1-0.6-2.8-0.6-3.9,0l-78.3,45.2c-0.7,0.4-1.6,0.6-2.5,0.6
					c-0.9,0-1.8-0.2-2.5-0.6l-78.3-45.2c-0.8-0.4-1.2-1-1.2-1.7c0-0.7,0.4-1.3,1.2-1.7l35.1-20.2c0,0,0.1-0.1,0.1-0.1
					c0.1,0,0.1,0,0.2,0c0.2,0.1,0.4,0.4,0.4,0.6c0,0.1,0,0.2-0.1,0.2c0,0,0,0,0,0L52,359.2c-0.4,0.2-0.7,0.5-0.7,0.8
					c0,0.3,0.2,0.6,0.7,0.8l78.3,45.2c1.1,0.6,2.8,0.6,3.9,0l78.3-45.2c1.4-0.8,3.5-0.8,4.9,0l22.6,13
					C240.2,374,240.3,374.3,240.2,374.6z"/>
			</g>
			<g>
				<path class="st9" d="M231.9,379.3c-0.1,0.2-0.4,0.3-0.7,0.2l-14.3-8.3c-1-0.6-2.8-0.6-3.9,0l-78.3,45.2
					c-0.7,0.4-1.6,0.6-2.5,0.6c-0.9,0-1.8-0.2-2.5-0.6L35,361.7c-0.7-0.4-1.2-1-1.2-1.7c0-0.7,0.4-1.3,1.2-1.7l43.3-25
					c0,0,0.1,0,0.1,0c0.1,0,0.1,0,0.2,0c0.2,0.1,0.4,0.4,0.4,0.6c0,0.1,0,0.1-0.1,0.2c0,0-0.1,0-0.1,0.1c0,0,0,0-0.1,0l-43.3,25
					c-0.4,0.2-0.7,0.5-0.7,0.8c0,0.3,0.2,0.6,0.7,0.8l94.8,54.7c1.1,0.6,2.8,0.6,3.9,0l78.3-45.2c1.4-0.8,3.5-0.8,4.9,0l14.3,8.3
					C232,378.8,232,379.1,231.9,379.3z"/>
			</g>
		</g>
		<g class="st22">
			<g class="st8">
				<path d="M256.7,365c-0.1,0.2-0.4,0.3-0.7,0.2l-39.1-22.6c-1.1-0.6-2.8-0.6-3.9,0l-78.3,45.2c-0.7,0.4-1.6,0.6-2.5,0.6
					c-0.9,0-1.8-0.2-2.5-0.6l-45.2-26.1c-0.8-0.4-1.2-1-1.2-1.7c0-0.7,0.4-1.3,1.2-1.7l18.6-10.7c0.1,0,0.1,0,0.2,0
					c0.2,0.1,0.4,0.4,0.4,0.6c0,0.1,0,0.2-0.1,0.2c0,0,0,0-0.1,0.1c0,0,0,0-0.1,0l-18.5,10.7c-0.4,0.2-0.7,0.5-0.7,0.8
					c0,0.3,0.2,0.6,0.7,0.8l45.2,26.1c1.1,0.6,2.8,0.6,3.9,0l78.3-45.2c1.4-0.8,3.5-0.8,4.9,0l39.1,22.6
					C256.8,364.5,256.8,364.8,256.7,365z"/>
			</g>
			<g class="st8">
				<path d="M248.4,369.8c-0.1,0.2-0.4,0.3-0.7,0.2l-30.9-17.8c-1-0.6-2.8-0.6-3.9,0l-78.3,45.2c-0.7,0.4-1.6,0.6-2.5,0.6
					c-0.9,0-1.8-0.2-2.5-0.6l-61.7-35.6c-0.8-0.4-1.2-1-1.2-1.7c0-0.7,0.4-1.3,1.2-1.7l26.8-15.5c0,0,0,0,0,0c0.1,0,0.2,0,0.2,0
					c0.2,0.1,0.4,0.4,0.4,0.6c0,0.1,0,0.2-0.1,0.2c0,0,0,0,0,0l-26.8,15.5c-0.4,0.2-0.7,0.5-0.7,0.8c0,0.3,0.2,0.6,0.7,0.8
					l61.7,35.6c1.1,0.6,2.8,0.6,3.9,0l78.3-45.2c1.4-0.8,3.5-0.8,4.9,0l30.9,17.8C248.5,369.2,248.6,369.5,248.4,369.8z"/>
			</g>
			<g class="st8">
				<path d="M240.2,374.6c-0.1,0.2-0.4,0.3-0.7,0.2l-22.6-13c-1-0.6-2.8-0.6-3.9,0l-78.3,45.2c-0.7,0.4-1.6,0.6-2.5,0.6
					c-0.9,0-1.8-0.2-2.5-0.6l-78.3-45.2c-0.8-0.4-1.2-1-1.2-1.7c0-0.7,0.4-1.3,1.2-1.7l35.1-20.2c0,0,0.1-0.1,0.1-0.1
					c0.1,0,0.1,0,0.2,0c0.2,0.1,0.4,0.4,0.4,0.6c0,0.1,0,0.2-0.1,0.2c0,0,0,0,0,0L52,359.2c-0.4,0.2-0.7,0.5-0.7,0.8
					c0,0.3,0.2,0.6,0.7,0.8l78.3,45.2c1.1,0.6,2.8,0.6,3.9,0l78.3-45.2c1.4-0.8,3.5-0.8,4.9,0l22.6,13
					C240.2,374,240.3,374.3,240.2,374.6z"/>
			</g>
			<g class="st8">
				<path d="M231.9,379.3c-0.1,0.2-0.4,0.3-0.7,0.2l-14.3-8.3c-1-0.6-2.8-0.6-3.9,0l-78.3,45.2c-0.7,0.4-1.6,0.6-2.5,0.6
					c-0.9,0-1.8-0.2-2.5-0.6L35,361.7c-0.7-0.4-1.2-1-1.2-1.7c0-0.7,0.4-1.3,1.2-1.7l43.3-25c0,0,0.1,0,0.1,0c0.1,0,0.1,0,0.2,0
					c0.2,0.1,0.4,0.4,0.4,0.6c0,0.1,0,0.1-0.1,0.2c0,0-0.1,0-0.1,0.1c0,0,0,0-0.1,0l-43.3,25c-0.4,0.2-0.7,0.5-0.7,0.8
					c0,0.3,0.2,0.6,0.7,0.8l94.8,54.7c1.1,0.6,2.8,0.6,3.9,0l78.3-45.2c1.4-0.8,3.5-0.8,4.9,0l14.3,8.3
					C232,378.8,232,379.1,231.9,379.3z"/>
			</g>
		</g>
	</g>
</g>
<g id="Device">
	<g id="Device_1_">
		<g id="Monitor_2_">
			<g id="XMLID_5032_">
				<g id="XMLID_5040_">
					<path id="XMLID_5041_" class="st20" d="M347.7,390.4l26.3-15.2c2.7-1.6,4.1-3.6,4.1-5.7c0-2.1,0-3.7,0-3.7l-24.7-14
						c-1.4-0.8-2.6-2.9-2.6-4.5v-32.4l-45.9,26.5l0,32.4c0,1.7,1.2,3.7,2.6,4.5l20.7,12C333.5,393.5,342.3,393.5,347.7,390.4z"/>
				</g>
				<path id="XMLID_5039_" class="st23" d="M315.8,379.5v3.6l-8.4-4.8c-1.4-0.8-2.6-2.9-2.6-4.5v-32.4l8.7-5
					c0.2,2.2,0.4,4.5,0.6,6.8l-6.1,3.5V372c0,1.7,1.2,3.7,2.6,4.5L315.8,379.5z"/>
				<path id="XMLID_5038_" class="st14" d="M308,372c0,1.7,1.2,3.7,2.6,4.5l17.5,10.2c5.4,3.1,14.2,3.1,19.6,0l26.3-15.2
					c5.4-3.1,5.4-8.2,0-11.3L356.5,350c-1.4-0.8-2.6-2.9-2.6-4.5l0-25.3L308,346.7V372z"/>
				<path id="XMLID_5034_" class="st23" d="M361.8,353.1L361.8,353.1l-5.3-3.1c-1.4-0.8-2.6-2.9-2.6-4.5v-25.3L308,346.7V372
					c0,1.7,1.2,3.7,2.6,4.5l5.2,3L361.8,353.1z"/>
				<path id="XMLID_5033_" class="st23" d="M378.1,365.8c0,0,0,1.6,0,3.7c0,2.1-1.4,4.1-4.1,5.7l-26.3,15.2c-2.6,1.5-6,2.3-9.4,2.3
					V389c3.4,0,6.8-0.8,9.4-2.3l26.3-15.2C376.7,370,378.1,367.9,378.1,365.8z"/>
			</g>
			<path id="XMLID_5031_" class="st13" d="M234.3,406.9c1.7,1,4.5,0.9,6.3-0.1c22.6-13,155-89.5,177.5-102.5c1.8-1,3.3-3.6,3.3-5.7
				V143.3c0-2.1-1.4-4.6-3.1-5.5c-1.7-1-4.5-0.9-6.3,0.1L234.5,240.3c-1.8,1-3.3,3.6-3.3,5.7l0,155.4
				C231.2,403.5,232.6,406,234.3,406.9z"/>
			<path id="XMLID_5030_" class="st2" d="M240.6,406.8l177.5-102.5c1.8-1,3.3-3.6,3.3-5.7V143.2c0-2.1-1.5-2.9-3.3-1.9L240.6,243.9
				c-1.8,1-3.3,3.6-3.3,5.7l0,155.4C237.3,407,238.8,407.9,240.6,406.8z"/>
			<path id="XMLID_5029_" class="st14" d="M240.6,406.8l177.5-102.5c1.8-1,3.3-3.6,3.3-5.7V143.2c0-2.1-1.5-2.9-3.3-1.9L240.6,243.9
				c-1.8,1-3.3,3.6-3.3,5.7l0,155.4C237.3,407,238.8,407.9,240.6,406.8z"/>
			<path id="XMLID_5028_" d="M240.1,407.5c-1.8,0.8-4.3,0.8-5.9-0.1c-1.7-1-3.1-3.5-3.1-5.6v-17.5l6.1,3.5v17.5
				C237.3,407.2,238.5,408.1,240.1,407.5z"/>
			<path id="XMLID_5027_" class="st20" d="M237.3,399.5l0,5.9c0,2.1,1.5,2.9,3.3,1.9l177.5-102.5c1.8-1,3.3-3.6,3.3-5.7v-5.9
				L237.3,399.5z"/>
			<path id="XMLID_5026_" class="st24" d="M243.5,386.3l0-134.8c0-1.3,0.9-2.8,2-3.4l167.9-96.9c1.1-0.6,2-0.1,2,1.1l0,134.8
				c0,1.3-0.9,2.8-2,3.4l-167.9,96.9C244.4,388.1,243.5,387.6,243.5,386.3z"/>
			<path id="XMLID_2041_" class="st2" d="M329.4,349.3c-0.9,0.5-1.7,1.8-1.7,2.9c0,1.1,0.7,1.5,1.7,1c0.9-0.5,1.7-1.8,1.7-2.9
				C331,349.2,330.3,348.8,329.4,349.3z"/>
			<path id="XMLID_2038_" class="st20" d="M238.3,246.3c-0.6,1-1,2.2-1,3.2v149.9l-6.1-3.5V246c0-1,0.4-2.2,1-3.2L238.3,246.3z"/>
		</g>
		<g id="XMLID_765_">
			<g id="XMLID_1164_">
				<path id="XMLID_1293_" class="st25" d="M315.9,313.5c-3,0-5.8-0.6-8.6-1.7c-8.1-3.3-14.3-11.4-17.5-22.8c-0.6-2,0.6-4,2.6-4.5
					c2-0.6,4,0.6,4.5,2.6c2.6,9.2,7.2,15.6,13.2,18c5.1,2.1,11.1,1.2,17.4-2.4c15.1-8.7,28.9-31.6,34.2-56.9c0.4-2,2.4-3.3,4.4-2.8
					c2,0.4,3.3,2.4,2.8,4.4c-5.8,27.7-20.7,51.9-37.8,61.8C326,312,320.8,313.5,315.9,313.5z"/>
			</g>
			<g id="XMLID_1142_">
				<path id="XMLID_1148_" class="st25" d="M314.6,252.5c0,4.9-2.6,10.4-5.8,12.2c-3.2,1.8-5.8-0.6-5.8-5.6c0-4.9,2.6-10.4,5.8-12.2
					C312,245.1,314.6,247.6,314.6,252.5z"/>
				<path id="XMLID_1145_" class="st25" d="M351.2,231.4c0,4.9-2.6,10.4-5.8,12.2c-3.2,1.8-5.8-0.6-5.8-5.6s2.6-10.4,5.8-12.2
					C348.6,224,351.2,226.4,351.2,231.4z"/>
			</g>
		</g>
	</g>
</g>
<g id="Speech_Bubbles">
	<g id="Speech_Bubble_5_">
		<g id="Speach_Bubble_2_">
			<g id="XMLID_2081_">
				<path id="XMLID_2104_" class="st2" d="M258,203.9l-3.9-11l3.1-9v-5.5l-9.5,5.5v5.5l4.1,10.8c0.1,0.1,0.2,0.2,0.3,0.2l0,0
					L258,203.9z"/>
				<path id="XMLID_2103_" class="st3" d="M258,203.9l-3.9-11l3.1-9v-5.5l-9.5,5.5v5.5l4.1,10.8c0.1,0.1,0.2,0.2,0.3,0.2l0,0
					L258,203.9z"/>
				<path id="XMLID_2097_" class="st24" d="M280.7,119.8c0-1.8-1.3-4-2.8-4.9l-2.3-1.3c-1.6-0.9-4.1-0.9-5.7,0l-35.5,20.6
					c-1.6,0.9-2.8,3.1-2.8,4.9v54.2c0,1.8,1.3,4,2.8,4.9l2.3,1.3c1.6,0.9,4.1,0.9,5.7,0l11.4-6.6l4.1,10.8c0.3,0.5,0.9,0.4,1.1-0.1
					l4.3-16.1l14.6-8.5c1.6-0.9,2.8-3.1,2.8-4.9L280.7,119.8z"/>
				<path id="XMLID_2094_" class="st18" d="M231.5,193.2c0,1.8,1.3,4,2.8,4.9l2.3,1.3c1.4,0.8,3.6,0.9,5.2,0.2
					c-1.3,0.5-2.4-0.2-2.4-1.9l0-54.2c0-0.9,0.3-1.9,0.8-2.8l-8-4.6c-0.5,0.9-0.8,1.9-0.8,2.8V193.2z"/>
				<path id="XMLID_2092_" class="st26" d="M280.6,119c-0.3-1.2-1.4-1.6-2.7-0.8l-35.6,20.6c-0.8,0.5-1.5,1.2-2,2.1l-8-4.6
					c0.5-0.9,1.2-1.7,2-2.1l35.5-20.6c1.6-0.9,4.1-0.9,5.7,0l2.3,1.3C279.2,115.6,280.3,117.3,280.6,119z"/>
			</g>
		</g>
		<g>
			<path class="st25" d="M245,178l30.9-17.8c0.6-0.4,1.1-0.1,1.1,0.6s-0.5,1.5-1.1,1.8L245,180.4c-0.6,0.4-1.1,0.1-1.1-0.6
				C243.9,179.2,244.4,178.3,245,178z"/>
			<path class="st25" d="M245,182.8l30.9-17.8c0.6-0.4,1.1-0.1,1.1,0.6s-0.5,1.5-1.1,1.8L245,185.2c-0.6,0.4-1.1,0.1-1.1-0.6
				C243.9,184,244.4,183.2,245,182.8z"/>
			<path class="st25" d="M245,187.6l30.9-17.8c0.6-0.4,1.1-0.1,1.1,0.6c0,0.7-0.5,1.5-1.1,1.8L245,190c-0.6,0.4-1.1,0.1-1.1-0.6
				C243.9,188.8,244.4,188,245,187.6z"/>
			<path id="Check_5_" class="st25" d="M269,133c-1.3-0.5-2.7,0.1-3.3,1.3l-9.4,22.4l-2.2-2.2c-1-1-2.6-0.9-3.5,0.1
				c-1,1-0.9,2.6,0.1,3.5l4.9,4.7c0.5,0.5,1.1,0.7,1.7,0.7c0.2,0,0.3,0,0.5,0c0.8-0.2,1.5-0.7,1.8-1.5l10.8-25.8
				C270.9,135,270.3,133.6,269,133z"/>
		</g>
	</g>
	<g id="Speech_Bubble_4_">
		<g id="Speach_Bubble_4_">
			<g id="XMLID_2131_">
				<path id="XMLID_2742_" class="st2" d="M324.4,165.5l-3.9-11l3.1-9v-5.5l-9.5,5.5v5.5l4.1,10.8c0.1,0.1,0.2,0.2,0.3,0.2l0,0
					L324.4,165.5z"/>
				<path id="XMLID_2649_" class="st3" d="M324.4,165.5l-3.9-11l3.1-9v-5.5l-9.5,5.5v5.5l4.1,10.8c0.1,0.1,0.2,0.2,0.3,0.2l0,0
					L324.4,165.5z"/>
				<path id="XMLID_2139_" class="st24" d="M347,81.5c0-1.8-1.3-4-2.8-4.9l-2.3-1.3c-1.6-0.9-4.1-0.9-5.7,0l-35.5,20.6
					c-1.6,0.9-2.8,3.1-2.8,4.9v54.2c0,1.8,1.3,4,2.8,4.9l2.3,1.3c1.6,0.9,4.1,0.9,5.7,0l11.4-6.6l4.1,10.8c0.3,0.5,0.9,0.4,1.1-0.1
					l4.3-16.1l14.6-8.5c1.6-0.9,2.8-3.1,2.8-4.9L347,81.5z"/>
				<path id="XMLID_2136_" class="st18" d="M297.8,154.9c0,1.8,1.3,4,2.8,4.9l2.3,1.3c1.4,0.8,3.6,0.9,5.2,0.2
					c-1.3,0.5-2.4-0.2-2.4-1.9l0-54.2c0-0.9,0.3-1.9,0.8-2.8l-8-4.6c-0.5,0.9-0.8,1.9-0.8,2.8V154.9z"/>
				<path id="XMLID_2133_" class="st26" d="M346.9,80.6c-0.3-1.2-1.4-1.6-2.7-0.8l-35.6,20.6c-0.8,0.5-1.5,1.2-2,2.1l-8-4.6
					c0.5-0.9,1.2-1.7,2-2.1l35.5-20.6c1.6-0.9,4.1-0.9,5.7,0l2.3,1.3C345.5,77.3,346.7,79,346.9,80.6z"/>
			</g>
		</g>
		<g>
			<path class="st25" d="M311.1,139.8L342,122c0.6-0.4,1.1-0.1,1.1,0.6c0,0.7-0.5,1.5-1.1,1.8l-30.9,17.8c-0.6,0.4-1.1,0.1-1.1-0.6
				C310,141,310.5,140.1,311.1,139.8z"/>
			<path class="st25" d="M311.1,144.6l30.9-17.8c0.6-0.4,1.1-0.1,1.1,0.6c0,0.7-0.5,1.5-1.1,1.8L311.1,147c-0.6,0.4-1.1,0.1-1.1-0.6
				C310,145.8,310.5,144.9,311.1,144.6z"/>
			<path class="st25" d="M311.1,149.4l30.9-17.8c0.6-0.4,1.1-0.1,1.1,0.6c0,0.7-0.5,1.5-1.1,1.8l-30.9,17.8
				c-0.6,0.4-1.1,0.1-1.1-0.6C310,150.6,310.5,149.7,311.1,149.4z"/>
			<path class="st25" d="M335.1,94.8c-1.3-0.5-2.7,0.1-3.3,1.3l-9.4,22.4l-2.2-2.2c-1-1-2.6-0.9-3.5,0.1c-1,1-0.9,2.6,0.1,3.5
				l4.9,4.7c0.5,0.5,1.1,0.7,1.7,0.7c0.2,0,0.3,0,0.5,0c0.8-0.2,1.5-0.7,1.8-1.5l10.8-25.8C337,96.8,336.4,95.3,335.1,94.8z"/>
		</g>
	</g>
	<g id="Speech_Bubble_3_">
		<g id="Speach_Bubble_3_">
			<g id="XMLID_835_">
				<path id="XMLID_1310_" class="st2" d="M390.6,127.3l-3.9-11l3.1-9v-5.5l-9.5,5.5v5.5l4.1,10.8c0.1,0.1,0.2,0.2,0.3,0.2l0,0
					L390.6,127.3z"/>
				<path id="XMLID_1308_" class="st3" d="M390.6,127.3l-3.9-11l3.1-9v-5.5l-9.5,5.5v5.5l4.1,10.8c0.1,0.1,0.2,0.2,0.3,0.2l0,0
					L390.6,127.3z"/>
				<path id="XMLID_1298_" class="st24" d="M413.3,43.2c0-1.8-1.3-4-2.8-4.9l-2.3-1.3c-1.6-0.9-4.1-0.9-5.7,0l-35.5,20.6
					c-1.6,0.9-2.8,3.1-2.8,4.9v54.2c0,1.8,1.3,4,2.8,4.9l2.3,1.3c1.6,0.9,4.1,0.9,5.7,0l11.4-6.6l4.1,10.8c0.3,0.5,0.9,0.4,1.1-0.1
					l4.3-16.1l14.6-8.5c1.6-0.9,2.8-3.1,2.8-4.9L413.3,43.2z"/>
				<path id="XMLID_1098_" class="st18" d="M364.1,116.6c0,1.8,1.3,4,2.8,4.9l2.3,1.3c1.4,0.8,3.6,0.9,5.2,0.2
					c-1.3,0.5-2.4-0.2-2.4-1.9l0-54.2c0-0.9,0.3-1.9,0.8-2.8l-8-4.6c-0.5,0.9-0.8,1.9-0.8,2.8V116.6z"/>
				<path id="XMLID_862_" class="st26" d="M413.2,42.4c-0.3-1.2-1.4-1.6-2.7-0.8l-35.6,20.6c-0.8,0.5-1.5,1.2-2,2.1l-8-4.6
					c0.5-0.9,1.2-1.7,2-2.1L402.5,37c1.6-0.9,4.1-0.9,5.7,0l2.3,1.3C411.8,39.1,412.9,40.8,413.2,42.4z"/>
			</g>
		</g>
		<g>
			<path class="st25" d="M377.2,101.6l30.9-17.8c0.6-0.4,1.1-0.1,1.1,0.6c0,0.7-0.5,1.5-1.1,1.8L377.2,104c-0.6,0.4-1.1,0.1-1.1-0.6
				C376.1,102.7,376.6,101.9,377.2,101.6z"/>
			<path class="st25" d="M377.2,106.4l30.9-17.8c0.6-0.4,1.1-0.1,1.1,0.6c0,0.7-0.5,1.5-1.1,1.8l-30.9,17.8
				c-0.6,0.4-1.1,0.1-1.1-0.6C376.1,107.5,376.6,106.7,377.2,106.4z"/>
			<path class="st25" d="M377.2,111.2l30.9-17.8c0.6-0.4,1.1-0.1,1.1,0.6c0,0.7-0.5,1.5-1.1,1.8l-30.9,17.8
				c-0.6,0.4-1.1,0.1-1.1-0.6C376.1,112.3,376.6,111.5,377.2,111.2z"/>
			<path id="Check_4_" class="st25" d="M401.3,56.6c-1.3-0.5-2.7,0.1-3.3,1.3l-9.4,22.4l-2.2-2.2c-1-1-2.6-0.9-3.5,0.1
				c-1,1-0.9,2.6,0.1,3.5l4.9,4.7c0.5,0.5,1.1,0.7,1.7,0.7c0.2,0,0.3,0,0.5,0c0.8-0.2,1.5-0.7,1.8-1.5l10.8-25.8
				C403.1,58.6,402.5,57.1,401.3,56.6z"/>
		</g>
	</g>
</g>
</svg>
