<?xml version="1.0" encoding="utf-8"?>
<!-- Generator: Adobe Illustrator 22.0.1, SVG Export Plug-In . SVG Version: 6.00 Build 0)  -->
<svg version="1.1" id="Capa_1" xmlns="http://www.w3.org/2000/svg" xmlns:xlink="http://www.w3.org/1999/xlink" x="0px" y="0px"
	 viewBox="0 0 376.4 285.2" style="enable-background:new 0 0 376.4 285.2;" xml:space="preserve">
<style type="text/css">
	
		.st0{fill:none;stroke:#373739;stroke-width:2;stroke-linecap:round;stroke-linejoin:round;stroke-miterlimit:10;stroke-dasharray:0,4;}
	.st1{fill:#DEBD8B;}
	.st2{fill:#282828;}
	.st3{fill:#373739;}
	.st4{fill:#BDBCBC;}
	.st5{fill:#DADADA;}
	.st6{fill:#F7DAA2;}
	.st7{fill:#3D2216;}
	.st8{fill:#543522;}
	.st9{fill:#301C0B;}
	.st10{fill:#57A89A;}
	.st11{fill:#7DC7C0;}
	.st12{fill:#FFCB00;}
	.st13{fill:#B2B2B2;}
	.st14{fill:#AEAEAE;}
	.st15{fill:#FFDE00;}
	.st16{fill:#BDA278;}
	.st17{fill:#65BFB2;}
	.st18{fill:#FFFFFF;}
</style>
<g>
	<line class="st0" x1="103.8" y1="150.6" x2="103.8" y2="105.2"/>
	<line class="st0" x1="192.2" y1="135.9" x2="192.2" y2="66.5"/>
	<line class="st0" x1="263.4" y1="188.6" x2="263.4" y2="110.1"/>
	<polyline class="st0" points="95.8,235.4 35.2,235.4 35.2,153.8 	"/>
	<polyline class="st0" points="272,252 339.7,252 339.7,170.5 	"/>
	<g>
		<rect x="233.7" y="202.9" class="st1" width="76.7" height="61.3"/>
		<rect x="233.7" y="200" class="st2" width="82.5" height="4.3"/>
		<polygon class="st3" points="214.2,182.3 299.1,182.3 316.2,200 233.7,200 		"/>
		<rect x="72.8" y="264.2" class="st4" width="240.1" height="8.1"/>
		<rect x="143.5" y="272" class="st5" width="98.6" height="8.1"/>
		<polygon class="st6" points="234.5,162 193.3,129.4 152,164.5 152,272.1 234.5,272.1 		"/>
		<rect x="76.7" y="166.9" class="st1" width="76.7" height="97.3"/>
		<rect x="70.9" y="165.3" class="st2" width="82.5" height="4.3"/>
		<polygon class="st3" points="172.8,147.6 87.9,147.6 70.9,165.3 153.4,165.3 		"/>
		<g>
			<rect x="177.8" y="219.4" class="st7" width="30.9" height="52.7"/>
			<rect x="179.4" y="221.4" class="st8" width="27.7" height="50.7"/>
			<rect x="183.1" y="224.2" class="st9" width="20.4" height="13.5"/>
			<rect x="184" y="224.5" class="st10" width="18.5" height="12.9"/>
			<rect x="185.3" y="224.8" class="st11" width="7.8" height="12.4"/>
			<path class="st12" d="M206.2,251c0,0.4-0.4,0.8-0.9,0.8l0,0c-0.5,0-0.9-0.4-0.9-0.8v-8.6c0-0.4,0.4-0.8,0.9-0.8l0,0
				c0.5,0,0.9,0.4,0.9,0.8V251z"/>
		</g>
		<g>
			<g>
				<rect x="249.7" y="219.2" class="st13" width="50.3" height="44.7"/>
			</g>
			<g>
				<rect x="251.3" y="220.8" class="st5" width="47" height="43.1"/>
			</g>
			<path class="st14" d="M296,230.5c0,0.5-0.4,0.9-1,0.9h-40.1c-0.5,0-1-0.4-1-0.9l0,0c0-0.5,0.4-0.9,1-0.9H295
				C295.6,229.6,296,230,296,230.5L296,230.5z"/>
			<path class="st14" d="M296,224.7c0,0.5-0.4,0.9-1,0.9h-40.1c-0.5,0-1-0.4-1-0.9l0,0c0-0.5,0.4-0.9,1-0.9H295
				C295.6,223.8,296,224.2,296,224.7L296,224.7z"/>
			<path class="st14" d="M296,236.3c0,0.5-0.4,0.9-1,0.9h-40.1c-0.5,0-1-0.4-1-0.9l0,0c0-0.5,0.4-0.9,1-0.9H295
				C295.6,235.4,296,235.8,296,236.3L296,236.3z"/>
			<path class="st14" d="M296,242.1c0,0.5-0.4,0.9-1,0.9h-40.1c-0.5,0-1-0.4-1-0.9l0,0c0-0.5,0.4-0.9,1-0.9H295
				C295.6,241.2,296,241.6,296,242.1L296,242.1z"/>
			<path class="st14" d="M296,247.9c0,0.5-0.4,0.9-1,0.9h-40.1c-0.5,0-1-0.4-1-0.9l0,0c0-0.5,0.4-0.9,1-0.9H295
				C295.6,246.9,296,247.4,296,247.9L296,247.9z"/>
			<path class="st14" d="M296,253.7c0,0.5-0.4,0.9-1,0.9h-40.1c-0.5,0-1-0.4-1-0.9l0,0c0-0.5,0.4-0.9,1-0.9H295
				C295.6,252.7,296,253.1,296,253.7L296,253.7z"/>
			<path class="st14" d="M296,259.5c0,0.5-0.4,0.9-1,0.9h-40.1c-0.5,0-1-0.4-1-0.9l0,0c0-0.5,0.4-0.9,1-0.9H295
				C295.6,258.5,296,258.9,296,259.5L296,259.5z"/>
		</g>
		<g>
			<rect x="174.9" y="164.6" class="st1" width="36.7" height="38.3"/>
			<rect x="176.5" y="166.2" class="st7" width="33.6" height="35.1"/>
			<rect x="179.5" y="169.4" class="st10" width="27.5" height="28.7"/>
			<rect x="180.8" y="170.5" class="st11" width="8.1" height="23.6"/>
			<rect x="197.8" y="170.5" class="st11" width="8.1" height="23.6"/>
			<rect x="192" y="167.9" class="st7" width="2.6" height="31.7"/>
			<rect x="178.7" y="177.2" class="st7" width="14.6" height="1.2"/>
			<rect x="194" y="177.2" class="st7" width="14.6" height="1.2"/>
			<path class="st15" d="M188.9,178.5c0,0.4-0.3,0.6-0.6,0.6h-4.8c-0.3,0-0.6-0.3-0.6-0.6l0,0c0-0.4,0.3-0.6,0.6-0.6h4.8
				C188.6,177.8,188.9,178.1,188.9,178.5L188.9,178.5z"/>
			<path class="st15" d="M203.9,178.5c0,0.4-0.3,0.6-0.6,0.6h-4.8c-0.3,0-0.6-0.3-0.6-0.6l0,0c0-0.4,0.3-0.6,0.6-0.6h4.8
				C203.6,177.8,203.9,178.1,203.9,178.5L203.9,178.5z"/>
		</g>
		<g>
			<rect x="99" y="215.4" class="st16" width="34.9" height="36.4"/>
			<rect x="100.5" y="217" class="st7" width="31.9" height="33.3"/>
			<rect x="103.4" y="220" class="st10" width="26.1" height="27.2"/>
			<rect x="104.6" y="221" class="st11" width="7.6" height="22.4"/>
			<rect x="120.7" y="221" class="st11" width="7.6" height="22.4"/>
			<rect x="115.2" y="218.6" class="st7" width="2.4" height="30.1"/>
			<rect x="102.6" y="227.4" class="st7" width="13.8" height="1.2"/>
			<rect x="117.1" y="227.4" class="st7" width="13.8" height="1.2"/>
			<path class="st15" d="M112.3,228.6c0,0.3-0.3,0.6-0.6,0.6h-4.6c-0.3,0-0.6-0.3-0.6-0.6l0,0c0-0.3,0.3-0.6,0.6-0.6h4.6
				C112,228,112.3,228.2,112.3,228.6L112.3,228.6z"/>
			<path class="st15" d="M126.5,228.6c0,0.3-0.3,0.6-0.6,0.6h-4.6c-0.3,0-0.6-0.3-0.6-0.6l0,0c0-0.3,0.3-0.6,0.6-0.6h4.6
				C126.2,228,126.5,228.2,126.5,228.6L126.5,228.6z"/>
		</g>
		<g>
			<rect x="99" y="174.9" class="st16" width="34.9" height="36.4"/>
			<rect x="100.5" y="176.5" class="st7" width="31.9" height="33.3"/>
			<rect x="103.4" y="179.5" class="st10" width="26.1" height="27.2"/>
			<rect x="104.6" y="180.5" class="st11" width="7.6" height="22.4"/>
			<rect x="120.7" y="180.5" class="st11" width="7.6" height="22.4"/>
			<rect x="115.2" y="178" class="st7" width="2.4" height="30.1"/>
			<rect x="102.6" y="186.9" class="st7" width="13.8" height="1.2"/>
			<rect x="117.1" y="186.9" class="st7" width="13.8" height="1.2"/>
			<path class="st15" d="M112.3,188c0,0.3-0.3,0.6-0.6,0.6h-4.6c-0.3,0-0.6-0.3-0.6-0.6l0,0c0-0.3,0.3-0.6,0.6-0.6h4.6
				C112,187.4,112.3,187.7,112.3,188L112.3,188z"/>
			<path class="st15" d="M126.5,188c0,0.3-0.3,0.6-0.6,0.6h-4.6c-0.3,0-0.6-0.3-0.6-0.6l0,0c0-0.3,0.3-0.6,0.6-0.6h4.6
				C126.2,187.4,126.5,187.7,126.5,188L126.5,188z"/>
		</g>
		<polygon class="st2" points="192.2,126.9 148.2,160.6 148.2,169.6 192.2,135.9 237.4,169.6 237.4,160.6 		"/>
	</g>
	<circle class="st17" cx="36.7" cy="148.2" r="32.9"/>
	<path class="st17" d="M135.5,77.2c0,18.2-14.7,32.9-32.9,32.9S69.7,95.4,69.7,77.2s14.7-32.9,32.9-32.9S135.5,59,135.5,77.2z"/>
	<circle class="st17" cx="275" cy="83.6" r="32.9"/>
	<path class="st17" d="M372.6,147.6c0,18.2-14.7,32.9-32.9,32.9c-18.2,0-32.9-14.7-32.9-32.9c0-18.2,14.7-32.9,32.9-32.9
		C357.9,114.6,372.6,129.4,372.6,147.6z"/>
	<path class="st17" d="M230.7,40c0,18.2-14.7,32.9-32.9,32.9S164.9,58.2,164.9,40s14.7-32.9,32.9-32.9S230.7,21.8,230.7,40z"/>
	<g>
		<path class="st18" d="M216.4,34.9c-1.1,0-2.2,0.2-3.1,0.6c-0.3-3.7-3.4-6.6-7.2-6.6c-1,0-1.9,0.2-2.7,0.5c-0.6-5.2-5-9.2-10.3-9.2
			c-5.7,0-10.3,4.6-10.3,10.3c0,1,0.2,2,0.4,2.9c-0.5-0.1-1-0.1-1.6-0.1c-4.8,0-8.7,3.9-8.7,8.7s3.9,8.7,8.7,8.7h34.9
			c4.4,0,8-3.6,8-8C224.3,38.5,220.8,34.9,216.4,34.9z"/>
		<path class="st18" d="M206.5,57.6c0,1.2-1,2.2-2.2,2.2h-13.6c-1.2,0-2.2-1-2.2-2.2l0,0c0-1.2,1-2.2,2.2-2.2h13.6
			C205.5,55.4,206.5,56.4,206.5,57.6L206.5,57.6z"/>
		<rect x="195.4" y="48.3" class="st18" width="4.3" height="9.3"/>
	</g>
	<g>
		<path class="st18" d="M280.5,95.6c0,2.8-2.3,5.1-5.1,5.1c-2.8,0-5.1-2.3-5.1-5.1c0-2.8,2.3-5.1,5.1-5.1
			C278.2,90.4,280.5,92.7,280.5,95.6z"/>
		<g>
			<path class="st18" d="M283.3,91.6c-1.5-3.1-4.6-5-8-5c-3.3,0-6.3,1.8-7.9,4.6l-4-2.2c2.4-4.3,6.9-7,11.9-7
				c5.2,0,9.8,2.9,12.1,7.5L283.3,91.6z"/>
		</g>
		<g>
			<path class="st18" d="M260.8,86.7l-3.9-2.4c4-6.5,10.9-10.4,18.5-10.4c7.2,0,13.9,3.6,17.9,9.5l-3.8,2.6
				c-3.2-4.7-8.5-7.5-14.1-7.5C269.3,78.5,263.9,81.6,260.8,86.7z"/>
		</g>
		<g>
			<path class="st18" d="M255,81.9l-3.8-2.6c5.4-8,14.4-12.8,24.1-12.8c9.3,0,17.7,4.3,23.3,11.7l-3.7,2.7
				c-4.7-6.3-11.8-9.8-19.6-9.8C267.2,71.1,259.6,75.1,255,81.9z"/>
		</g>
	</g>
	<g>
		<g>
			<path class="st18" d="M103.8,100c-11.8,0-21.4-9.6-21.4-21.4c0-7.1,3.5-13.7,9.3-17.7c1.8-1.3,4.3-0.8,5.6,1
				c1.3,1.8,0.8,4.3-1,5.6c-3.6,2.5-5.8,6.6-5.8,11c0,7.4,6,13.4,13.4,13.4c7.4,0,13.4-6,13.4-13.4c0-4.7-2.5-9.1-6.6-11.5
				c-1.9-1.1-2.5-3.6-1.4-5.5c1.1-1.9,3.6-2.5,5.5-1.4c6.5,3.8,10.5,10.9,10.5,18.4C125.2,90.4,115.6,100,103.8,100z"/>
		</g>
		<g>
			<path class="st18" d="M103.3,84.3c-2.2,0-4-1.8-4-4V58.4c0-2.2,1.8-4,4-4c2.2,0,4,1.8,4,4v21.9C107.4,82.5,105.6,84.3,103.3,84.3
				z"/>
		</g>
	</g>
	<g>
		<g>
			<path class="st18" d="M341.1,141.4c-4.3,0-7.8,3.2-7.8,7.1v10.3h15.7v-10.3C348.9,144.6,345.4,141.4,341.1,141.4z"/>
			<path class="st18" d="M352.5,164.2c0-2.1-1-3.7-2.3-3.7h-18.3c-1.2,0-2.2,1.6-2.3,3.7H352.5z"/>
			<rect x="328.6" y="164.2" class="st18" width="24.9" height="3.1"/>
		</g>
		<polygon class="st18" points="350.7,143.4 357.8,135.5 360.2,139.4 		"/>
		<polygon class="st18" points="345.5,138.8 344.4,128.3 348.9,129.2 		"/>
		<polygon class="st18" points="335.3,139.4 328.6,131.2 332.9,129.5 		"/>
		<polygon class="st18" points="329.6,145.6 319.3,143.4 321.5,139.4 		"/>
	</g>
	<g>
		<path class="st18" d="M29.9,142.9v-6.7c0-5.2,3.1-8.2,6.8-8.2c3.8,0,6.8,3,6.8,8.2v6.7h4.8v-9.4c0-6.4-5.2-11.6-11.6-11.6
			c-6.4,0-11.6,5.2-11.6,11.6v9.4H29.9z"/>
		<path class="st18" d="M49.2,140.1H24.3c-1.6,0-2.8,1.3-2.8,2.8v23.6c0,1.6,1.3,2.8,2.8,2.8h24.9c1.6,0,2.8-1.3,2.8-2.8v-23.6
			C52,141.3,50.8,140.1,49.2,140.1z M39.4,160.5h-5.3l1.2-6.7c-1-0.5-1.7-1.6-1.7-2.8c0-1.8,1.4-3.2,3.2-3.2c1.8,0,3.2,1.4,3.2,3.2
			c0,1.2-0.6,2.2-1.6,2.8L39.4,160.5z"/>
	</g>
</g>
</svg>
