<?xml version="1.0" encoding="utf-8"?>
<!-- Generator: Adobe Illustrator 22.0.1, SVG Export Plug-In . SVG Version: 6.00 Build 0)  -->
<svg version="1.1" xmlns="http://www.w3.org/2000/svg" xmlns:xlink="http://www.w3.org/1999/xlink" x="0px" y="0px"
	 viewBox="0 0 1810.7273 281.2039" enable-background="new 0 0 1810.7273 281.2039" xml:space="preserve">
<g id="Ebene_2">
</g>
<g id="Ebene_1">
	<g>
		<path fill="#FFFFFF" d="M87.5668,190.4175v23.0508c-6.9526,1.6094-13.8681,2.415-20.7456,2.415
			c-28.393,0-42.5888-14.3056-42.5888-42.918v-56.0898H3.5966V93.9341h20.6358l5.0493-42.6982h23.7095v42.6982h33.478v22.9414
			h-33.478v51.4795c0,5.8555,0.749,10.501,2.25,13.9404c1.499,3.4405,3.7866,5.9102,6.8603,7.4092
			c3.0732,1.5,7.1348,2.25,12.1836,2.25C77.7978,191.9546,82.2246,191.4439,87.5668,190.4175z"/>
		<path fill="#FFFFFF" d="M98.6528,210.8345v-21.5147c11.6352,3.5127,23.7094,5.2686,36.2226,5.2686
			c8.4878,0,14.69-1.2617,18.6055-3.7861c3.9136-2.5245,5.8721-6.2022,5.8721-11.0313c0-3.8779-1.0254-6.8418-3.0733-8.8916
			c-2.0493-2.0478-5.562-3.584-10.5376-4.6103l-18.2207-3.4024c-11.0503-2.1953-19.0991-6.0537-24.1484-11.5801
			c-5.0493-5.5244-7.5737-12.9336-7.5737-22.2275c0-7.4639,1.9565-13.957,5.872-19.4834
			c3.9141-5.5244,9.8604-9.8242,17.8369-12.8975c7.9751-3.0732,17.854-4.6103,29.6368-4.6103
			c11.0483,0,21.2568,1.2451,30.6245,3.7324v21.4043c-9.44-2.5605-19.3926-3.8418-29.856-3.8418
			c-18.0752,0-27.1123,4.9775-27.1123,14.9277c0,3.5127,1.0054,6.3116,3.0186,8.3975c2.0117,2.085,5.4336,3.6406,10.2631,4.665
			l18.2212,3.4024c10.9761,2.1953,19.044,5.9463,24.2032,11.251c5.1587,5.3066,7.7382,12.8613,7.7382,22.667
			c0,7.6836-1.9755,14.3066-5.9272,19.8671c-3.9517,5.5616-9.752,9.8428-17.3979,12.8428c-7.6475,2.999-16.8868,4.5-27.7154,4.5
			C121.5937,215.8833,109.4101,214.1987,98.6528,210.8345z"/>
		<path fill="#FFFFFF" d="M215.8266,200.4068c-9.8428-10.3184-14.7637-25.7579-14.7637-46.3213
			c0-20.708,4.8472-36.2227,14.544-46.5401c9.6953-10.3183,23.435-15.4775,41.2168-15.4775c17.7822,0,31.52,5.1592,41.2168,15.4775
			c9.6953,10.3174,14.5439,25.7949,14.5439,46.4307c0,13.7578-2.25,25.2461-6.7505,34.4658
			c-4.5005,9.2207-10.9218,16.0996-19.2636,20.6358c-8.3423,4.538-18.2588,6.8056-29.7466,6.8056
			C239.3334,215.8833,225.6674,210.7241,215.8266,200.4068z M276.8559,184.7105c4.5005-6,6.7505-16.1719,6.7505-30.5157
			c0-14.5605-2.25-24.8613-6.7505-30.8984c-4.5005-6.0371-11.1787-9.0557-20.0322-9.0557c-8.855,0-15.5318,3.002-20.0323,9.001
			c-4.5,6.001-6.7504,16.1729-6.7504,30.5147c0,9.8789,1.0429,17.7461,3.1284,23.5996c2.0854,5.8554,5.0854,10.0429,9.001,12.5683
			c3.9135,2.5244,8.7983,3.7862,14.6533,3.7862C265.6772,193.7105,272.3553,190.7114,276.8559,184.7105z"/>
		<path fill="#FFFFFF" d="M317.414,252.6548c6.5859-8.8555,11.2319-17.6728,13.9399-26.4531
			c2.7066-8.7813,4.0616-19.3194,4.0616-31.6133V93.9341h28.8681v99.3379c0,14.1973-2.1782,26.8926-6.5312,38.0879
			c-4.3545,11.1963-11.5801,22.4648-21.6782,33.8076L317.414,252.6548z M335.9091,69.0728
			c-3.0371-2.6709-4.5552-6.5313-4.5552-11.5801c0-5.0498,1.5181-8.9277,4.5552-11.6357c3.0362-2.7061,7.5913-4.0616,13.666-4.0616
			c6.0733,0,10.6285,1.3555,13.6656,4.0616c3.0356,2.708,4.5556,6.5859,4.5556,11.6357c0,5.0488-1.52,8.9092-4.5556,11.5801
			c-3.0371,2.6718-7.5923,4.0058-13.6656,4.0058C343.5004,73.0786,338.9453,71.7446,335.9091,69.0728z"/>
		<path fill="#FFFFFF" d="M474.1562,213.688l-36.0029-49.833h-16.5747v49.833h-28.7583V36.3071h28.7583v104.2774h16.3549
			l33.0396-46.6504h30.9536l-40.1738,57.7363l44.0156,62.0176H474.1562z"/>
		<path fill="#FFFFFF" d="M584.9072,96.6236c7.5361,3.0371,13.1528,8.0312,16.8486,14.9824
			c3.6943,6.9531,5.5435,16.3935,5.5435,28.3203v73.7617h-23.8194l-1.9756-12.4033h-1.5366
			c-3.5864,4.7578-8.2153,8.3613-13.8852,10.8115c-5.6719,2.4512-11.9473,3.6777-18.8247,3.6777
			c-7.8311,0-14.5992-1.3916-20.3067-4.1718c-5.708-2.7793-10.081-6.7129-13.1172-11.7998
			c-3.0371-5.085-4.5552-11.0674-4.5552-17.9463c0-11.1221,3.8042-19.7198,11.4156-25.7949
			c7.6098-6.0733,19.6479-9.7686,36.1128-11.086l22.3921-2.0859v-4.7197c0-6.0733-0.9707-10.8477-2.9087-14.3243
			c-1.94-3.4746-4.9771-5.9443-9.1104-7.4091c-4.1352-1.4629-9.6782-2.1954-16.6294-2.1954c-4.9033,0-10.2085,0.4219-15.916,1.2627
			c-5.708,0.8418-11.1963,2.1045-16.4648,3.7862V97.2271c5.4145-1.6826,11.4707-2.9639,18.166-3.8418
			c6.6958-0.878,13.0434-1.3174,19.0444-1.3174C567.5262,92.0679,577.3691,93.5874,584.9072,96.6236z M568.4969,192.9429
			c3.9878-1.6094,7.5552-4.1719,10.7022-7.6836v-25.4658l-19.648,1.7558c-7.5376,0.7325-13.0449,2.544-16.5195,5.4336
			c-3.4766,2.8916-5.2139,6.9346-5.2139,12.1289c0,5.2686,1.5537,9.294,4.6651,12.0743c3.1093,2.7822,7.6645,4.1709,13.6655,4.1709
			C560.3915,195.357,564.5078,194.5532,568.4969,192.9429z"/>
		<path fill="#FFFFFF" d="M886.2499,200.5708c-10.0263-10.208-15.038-25.7392-15.038-46.5947
			c0-21.001,5.3408-36.5693,16.0258-46.7051c10.6831-10.1348,26.3057-15.2031,46.8697-15.2031
			c9.2924,0,17.9638,0.9521,26.0146,2.8545v23.0508c-7.9766-1.6827-15.4053-2.5254-22.2827-2.5254
			c-8.5615,0-15.5503,1.2812-20.9648,3.8418c-5.4166,2.5625-9.44,6.6416-12.0743,12.2392
			c-2.6342,5.5977-3.9516,12.9707-3.9516,22.1172c0,13.8311,2.7612,23.7647,8.2871,29.8018
			c5.5244,6.0371,13.9951,9.0556,25.4106,9.0556c3.732,0,7.6289-0.3466,11.69-1.0429c4.0615-0.6944,8.6884-1.7735,13.8857-3.2383
			v23.0508c-9.3682,3.0732-19.3188,4.6103-29.8564,4.6103C910.9471,215.8833,896.2744,210.7788,886.2499,200.5708z"/>
		<path fill="#FFFFFF" d="M986.9579,200.4068c-9.8437-10.3184-14.7636-25.7579-14.7636-46.3213
			c0-20.708,4.8467-36.2227,14.5429-46.5401c9.6954-10.3183,23.4356-15.4775,41.2168-15.4775
			c17.7832,0,31.5197,5.1592,41.2168,15.4775c9.6954,10.3174,14.545,25.7949,14.545,46.4307c0,13.7578-2.25,25.2461-6.7521,34.4658
			c-4.5,9.2207-10.9199,16.0996-19.2637,20.6358c-8.3418,4.538-18.2578,6.8056-29.7461,6.8056
			C1010.4637,215.8833,996.7978,210.7241,986.9579,200.4068z M1047.9872,184.7105c4.5-6,6.75-16.1719,6.75-30.5157
			c0-14.5605-2.25-24.8613-6.75-30.8984c-4.5-6.0371-11.1796-9.0557-20.0332-9.0557c-8.8535,0-15.5312,3.002-20.0312,9.001
			c-4.5,6.001-6.75,16.1729-6.75,30.5147c0,9.8789,1.041,17.7461,3.1269,23.5996c2.086,5.8554,5.086,10.0429,9.002,12.5683
			c3.912,2.5244,8.7969,3.7862,14.6523,3.7862C1036.8076,193.7105,1043.4872,190.7114,1047.9872,184.7105z"/>
		<path fill="#FFFFFF" d="M1262.6317,102.9898c6.877,7.2822,10.3184,18.789,10.3184,34.5214v76.1768h-28.6494v-74.6406
			c0-7.9024-1.5918-13.5557-4.7744-16.958c-3.1836-3.4033-7.6289-5.1045-13.3369-5.1045c-4.0985,0-8.1221,0.8779-12.0742,2.6347
			c-3.9512,1.7559-7.3534,4.4639-10.2079,8.1221c0.292,2.4151,0.4393,5.416,0.4393,9.001v76.9453h-28.2098v-74.6406
			c0-7.9746-1.5011-13.6465-4.5-17.0137c-3.0021-3.3642-7.3545-5.0488-13.0625-5.0488c-4.3907,0-8.6709,1.0429-12.8418,3.1279
			c-4.172,2.0859-7.6486,5.1787-10.4279,9.2754v84.2998h-28.7588V93.9341h23.8193l1.9757,12.7334h1.536
			c4.3174-4.8301,9.3478-8.4697,15.0929-10.9219c5.744-2.4511,12.0194-3.6777,18.8252-3.6777
			c6.7313,0,12.6952,1.3008,17.8916,3.8974c5.1952,2.5977,9.3661,6.6407,12.5127,12.129c5.0498-5.4883,10.702-9.5313,16.9589-12.129
			c6.2568-2.5966,12.6777-3.8974,19.2637-3.8974C1246.3486,92.0679,1255.7529,95.7095,1262.6317,102.9898z"/>
		<path fill="#FFFFFF" d="M1302.8055,94.5933h15.0381l1.207,13.1719h1.0977c3.7324-4.6104,8.415-8.2686,14.0509-10.9766
			c5.6337-2.707,11.8905-4.0615,18.7694-4.0615c9.0011,0,17.0138,1.9756,24.0381,5.9267
			c7.0255,3.9522,12.5859,10.3369,16.6846,19.1543c4.0977,8.8194,6.1465,20.1797,6.1465,34.0821
			c0,21.3681-5.0488,37.3584-15.1473,47.9677c-10.0978,10.6114-25.0996,15.916-45.0031,15.916
			c-5.2695,0-11.7089-0.5136-19.3193-1.5371v47.7481h-17.5625V94.5933z M1371.5742,190.0337
			c6.9149-7.5742,10.3719-19.7392,10.3719-36.4971c0-16.7558-2.8916-28.5556-8.6709-35.3994
			c-5.7822-6.8408-13.9043-10.2627-24.368-10.2627c-5.5616,0-10.8662,1.2266-15.916,3.6768
			c-5.049,2.4531-9.2579,6.1299-12.6232,11.0312v76.7266c2.7803,0.5859,5.9277,1.0801,9.4404,1.4814
			c3.5118,0.4034,6.9152,0.6036,10.208,0.6036C1354.1385,201.3941,1364.6581,197.607,1371.5742,190.0337z"/>
		<path fill="#FFFFFF" d="M1435.5663,205.6753c-6.7686-6.6582-10.1523-17.3057-10.1523-31.9414V94.5933h17.5615v78.2617
			c0,9.6602,2.1407,16.5937,6.4219,20.8008c4.2803,4.209,10.2627,6.3115,17.9463,6.3115c5.8535,0,11.7267-1.3174,17.6172-3.9512
			c5.8896-2.6347,10.8125-6.5859,14.7638-11.8545V94.5933h17.5625V213.688h-14.8185l-1.3174-13.0625h-1.0975
			c-4.9034,4.9775-10.4825,8.7266-16.7394,11.251c-6.2567,2.5254-12.8975,3.7871-19.9219,3.7871
			C1451.6093,215.6636,1442.3348,212.3345,1435.5663,205.6753z"/>
		<path fill="#FFFFFF" d="M1614.9736,198.7603v14.8183c-6.2207,1.4629-12.3322,2.1953-18.3312,2.1953
			c-25.6846,0-38.5273-13.1718-38.5273-39.5156v-67.1767h-22.502V94.5933h22.502l2.8535-43.3574h14.709v43.3574h37.4298v14.4883
			h-37.4298v64.4326c0,9.7324,1.9932,16.667,5.9824,20.7998c3.9873,4.1357,10.2246,6.2021,18.7148,6.2021
			C1604.5458,200.5161,1609.4111,199.9312,1614.9736,198.7603z"/>
		<path fill="#FFFFFF" d="M1719.7997,160.0132h-76.2871c0.292,10.0264,1.9572,18.0752,4.9941,24.1484
			c3.0361,6.0743,7.4814,10.4649,13.3369,13.1709c5.8535,2.709,13.3175,4.0616,22.3916,4.0616
			c8.6338,0,18.5127-1.6084,29.6367-4.8291v14.3789c-10.8301,3.2187-21.4043,4.83-31.7217,4.83
			c-18.9531,0-33.0947-4.9023-42.4248-14.7089c-9.3291-9.8047-13.9941-25.4659-13.9941-46.9795
			c0-20.416,4.2257-35.7452,12.6777-45.9912c8.4512-10.2442,20.2871-15.3672,35.5088-15.3672
			c14.8545,0,26.215,5.1035,34.082,15.3125c7.8652,10.208,11.7998,25.7031,11.7998,46.4853V160.0132z M1651.6356,115.4478
			c-5.123,6.5859-7.8311,17.417-8.123,32.4912h59.3828c-0.293-15.1475-2.8721-25.9961-7.7382-32.5459
			c-4.8673-6.5479-12.0197-9.8233-21.4591-9.8233C1664.1113,105.5698,1656.7567,108.8628,1651.6356,115.4478z"/>
		<path fill="#FFFFFF" d="M1745.0449,94.5933h14.7089l1.4268,15.916h1.0978c3.951-5.4883,9.0175-9.7148,15.202-12.6787
			c6.1836-2.9629,12.7139-4.4453,19.5939-4.4453c3.2186,0,6.4022,0.2939,9.5487,0.8779v16.3555
			c-3.1465-0.5108-6.5858-0.7686-10.3174-0.7686c-6.2207,0-12.458,1.4463-18.7147,4.336
			c-6.257,2.8916-11.2511,7.0439-14.9834,12.458v87.0439h-17.5625V94.5933z"/>
		<g>
			<path fill="#66BFB1" d="M658.4388,278.5881L727.2346,5.756h38.0732L696.512,278.5881H658.4388z"/>
			<path fill="#66BFB1" d="M729.8444,278.5881L798.6404,5.756h38.0733l-68.7959,272.8321H729.8444z"/>
		</g>
	</g>
	<g>
	</g>
	<g>
	</g>
	<g>
	</g>
	<g>
	</g>
	<g>
	</g>
	<g>
	</g>
</g>
</svg>
