<?xml version="1.0" encoding="utf-8"?>
<!-- Generator: Adobe Illustrator 22.0.1, SVG Export Plug-In . SVG Version: 6.00 Build 0)  -->
<svg version="1.1" id="Ebene_1" xmlns="http://www.w3.org/2000/svg" xmlns:xlink="http://www.w3.org/1999/xlink" x="0px" y="0px"
	 viewBox="0 0 1293.5229 281.2039" enable-background="new 0 0 1293.5229 281.2039" xml:space="preserve">
<g>
	<path fill="#FFFFFF" d="M91.8678,189.8001v23.0508c-6.9526,1.6093-13.8681,2.415-20.7456,2.415
		c-28.393,0-42.5888-14.3057-42.5888-42.918v-56.0898H7.8976V93.3167h20.6358l5.0493-42.6983h23.7095v42.6983h33.478v22.9414
		h-33.478v51.4795c0,5.8554,0.749,10.5009,2.25,13.9404c1.499,3.4404,3.7866,5.9102,6.8603,7.4092
		c3.0732,1.5,7.1348,2.25,12.1836,2.25C82.0988,191.3372,86.5256,190.8264,91.8678,189.8001z"/>
	<path fill="#FFFFFF" d="M102.9538,210.2171v-21.5147c11.6352,3.5127,23.7094,5.2686,36.2226,5.2686
		c8.4878,0,14.69-1.2617,18.6055-3.7862c3.9136-2.5244,5.8721-6.2021,5.8721-11.0312c0-3.8779-1.0254-6.8418-3.0733-8.8916
		c-2.0493-2.0479-5.562-3.584-10.5376-4.6104l-18.2207-3.4023c-11.0503-2.1953-19.0991-6.0537-24.1484-11.5801
		c-5.0493-5.5244-7.5737-12.9336-7.5737-22.2275c0-7.4639,1.9565-13.9571,5.872-19.4834
		c3.9141-5.5244,9.8604-9.8242,17.8369-12.8975c7.9751-3.0732,17.854-4.6103,29.6368-4.6103
		c11.0483,0,21.2568,1.2451,30.6245,3.7324v21.4043c-9.44-2.5606-19.3926-3.8418-29.856-3.8418
		c-18.0752,0-27.1123,4.9775-27.1123,14.9277c0,3.5127,1.0054,6.3115,3.0186,8.3975c2.0117,2.0849,5.4336,3.6406,10.2631,4.665
		l18.2212,3.4024c10.9761,2.1953,19.044,5.9463,24.2032,11.2509c5.1587,5.3067,7.7382,12.8614,7.7382,22.667
		c0,7.6836-1.9755,14.3067-5.9272,19.8672c-3.9517,5.5615-9.752,9.8428-17.3979,12.8428c-7.6475,2.999-16.8868,4.5-27.7154,4.5
		C125.8947,215.2659,113.7111,213.5813,102.9538,210.2171z"/>
	<path fill="#FFFFFF" d="M220.1276,199.7893c-9.8428-10.3183-14.7637-25.7578-14.7637-46.3213c0-20.708,4.8472-36.2226,14.544-46.54
		c9.6953-10.3184,23.435-15.4775,41.2168-15.4775c17.7822,0,31.52,5.1591,41.2168,15.4775
		c9.6953,10.3174,14.5439,25.7949,14.5439,46.4307c0,13.7578-2.25,25.2461-6.7505,34.4658
		c-4.5005,9.2207-10.9218,16.0996-19.2636,20.6357c-8.3423,4.5381-18.2588,6.8057-29.7466,6.8057
		C243.6344,215.2659,229.9684,210.1067,220.1276,199.7893z M281.1569,184.093c4.5005-6,6.7505-16.1718,6.7505-30.5156
		c0-14.5605-2.25-24.8613-6.7505-30.8984c-4.5005-6.0371-11.1787-9.0557-20.0322-9.0557c-8.855,0-15.5318,3.002-20.0323,9.001
		c-4.5,6.001-6.7504,16.1728-6.7504,30.5146c0,9.8789,1.0429,17.7461,3.1284,23.5996c2.0854,5.8555,5.0854,10.043,9.001,12.5684
		c3.9135,2.5244,8.7983,3.7861,14.6533,3.7861C269.9782,193.093,276.6564,190.094,281.1569,184.093z"/>
	<path fill="#FFFFFF" d="M321.715,252.0374c6.5859-8.8555,11.2319-17.6729,13.9399-26.4531
		c2.7066-8.7813,4.0616-19.3194,4.0616-31.6133V93.3167h28.8681v99.3379c0,14.1972-2.1782,26.8925-6.5312,38.0879
		c-4.3545,11.1962-11.5801,22.4648-21.6782,33.8076L321.715,252.0374z M340.2101,68.4553c-3.0371-2.6709-4.5552-6.5312-4.5552-11.58
		c0-5.0498,1.5181-8.9278,4.5552-11.6358c3.0362-2.706,7.5913-4.0615,13.666-4.0615c6.0733,0,10.6285,1.3555,13.6656,4.0615
		c3.0356,2.708,4.5556,6.586,4.5556,11.6358c0,5.0488-1.52,8.9091-4.5556,11.58c-3.0371,2.6719-7.5923,4.0059-13.6656,4.0059
		C347.8014,72.4612,343.2463,71.1272,340.2101,68.4553z"/>
	<path fill="#FFFFFF" d="M478.4572,213.0706l-36.0029-49.833h-16.5747v49.833h-28.7583V35.6897h28.7583v104.2774h16.3549
		l33.0396-46.6504h30.9536l-40.1738,57.7363l44.0156,62.0176H478.4572z"/>
	<path fill="#FFFFFF" d="M589.2083,96.0061c7.5361,3.0371,13.1528,8.0313,16.8486,14.9824
		c3.6943,6.9532,5.5435,16.3936,5.5435,28.3204v73.7617h-23.8194l-1.9756-12.4033h-1.5366
		c-3.5864,4.7578-8.2153,8.3613-13.8852,10.8115c-5.6719,2.4512-11.9473,3.6777-18.8247,3.6777
		c-7.8311,0-14.5992-1.3916-20.3067-4.1719c-5.708-2.7793-10.081-6.7128-13.1172-11.7998
		c-3.0371-5.0849-4.5552-11.0673-4.5552-17.9463c0-11.122,3.8042-19.7197,11.4156-25.7949
		c7.6098-6.0732,19.6479-9.7685,36.1129-11.0859l22.3921-2.0859v-4.7198c0-6.0732-0.9707-10.8476-2.9087-14.3242
		c-1.94-3.4746-4.9771-5.9443-9.1104-7.4092c-4.1352-1.4629-9.6782-2.1953-16.6294-2.1953c-4.9033,0-10.2085,0.4219-15.916,1.2627
		c-5.708,0.8418-11.1963,2.1045-16.4648,3.7861V96.6096c5.4145-1.6826,11.4707-2.9638,18.166-3.8418
		c6.6958-0.8779,13.0434-1.3173,19.0444-1.3173C571.8273,91.4505,581.6701,92.97,589.2083,96.0061z M572.798,192.3255
		c3.9878-1.6094,7.5552-4.1719,10.7022-7.6836V159.176l-19.648,1.7559c-7.5376,0.7324-13.0449,2.544-16.5195,5.4336
		c-3.4766,2.8916-5.2139,6.9346-5.2139,12.1289c0,5.2686,1.5537,9.294,4.6651,12.0742c3.1093,2.7823,7.6645,4.1709,13.6655,4.1709
		C564.6926,194.7395,568.8088,193.9358,572.798,192.3255z"/>
	<g>
		<path fill="#FFFFFF" d="M662.7786,278.3509L731.5744,5.5188h38.0732l-68.7959,272.8321H662.7786z"/>
		<path fill="#FFFFFF" d="M734.1842,278.3509l68.796-272.8321h38.0733l-68.7959,272.8321H734.1842z"/>
	</g>
	<path fill="#FFFFFF" d="M890.551,199.9534c-10.0263-10.208-15.038-25.7393-15.038-46.5947c0-21.001,5.3408-36.5694,16.0258-46.7051
		c10.6831-10.1348,26.3057-15.2031,46.8697-15.2031c9.2924,0,17.9638,0.9521,26.0146,2.8545v23.0507
		c-7.9766-1.6826-15.4053-2.5254-22.2827-2.5254c-8.5615,0-15.5503,1.2813-20.9648,3.8418
		c-5.4166,2.5625-9.44,6.6416-12.0743,12.2393c-2.6342,5.5977-3.9516,12.9707-3.9516,22.1172
		c0,13.831,2.7612,23.7646,8.2871,29.8017c5.5244,6.0372,13.9951,9.0557,25.4106,9.0557c3.732,0,7.6289-0.3467,11.69-1.043
		c4.0615-0.6943,8.6884-1.7734,13.8857-3.2382v23.0507c-9.3682,3.0733-19.3188,4.6104-29.8564,4.6104
		C915.2482,215.2659,900.5754,210.1614,890.551,199.9534z"/>
	<path fill="#FFFFFF" d="M991.259,199.7893c-9.8438-10.3183-14.7636-25.7578-14.7636-46.3213c0-20.708,4.8467-36.2226,14.5429-46.54
		c9.6954-10.3184,23.4356-15.4775,41.2167-15.4775c17.7832,0,31.5197,5.1591,41.2168,15.4775
		c9.6954,10.3174,14.545,25.7949,14.545,46.4307c0,13.7578-2.25,25.2461-6.752,34.4658c-4.5,9.2207-10.9199,16.0996-19.2638,20.6357
		c-8.3418,4.5381-18.2577,6.8057-29.7461,6.8057C1014.7648,215.2659,1001.0989,210.1067,991.259,199.7893z M1052.2882,184.093
		c4.5-6,6.75-16.1718,6.75-30.5156c0-14.5605-2.25-24.8613-6.75-30.8984s-11.1796-9.0557-20.0332-9.0557
		c-8.8535,0-15.5311,3.002-20.0311,9.001c-4.5,6.001-6.75,16.1728-6.75,30.5146c0,9.8789,1.041,17.7461,3.1269,23.5996
		c2.086,5.8555,5.086,10.043,9.002,12.5684c3.9121,2.5244,8.7969,3.7861,14.6523,3.7861
		C1041.1086,193.093,1047.7882,190.094,1052.2882,184.093z"/>
	<path fill="#FFFFFF" d="M1266.9329,102.3723c6.8768,7.2823,10.3182,18.7891,10.3182,34.5215v76.1768h-28.6493V138.43
		c0-7.9024-1.5919-13.5557-4.7744-16.9581c-3.1836-3.4033-7.6289-5.1044-13.3369-5.1044c-4.0986,0-8.1221,0.8779-12.0742,2.6347
		c-3.9512,1.7559-7.3535,4.4639-10.208,8.1221c0.292,2.415,0.4395,5.416,0.4395,9.001v76.9453h-28.21V138.43
		c0-7.9747-1.501-13.6465-4.5-17.0137c-3.002-3.3643-7.3545-5.0488-13.0625-5.0488c-4.3907,0-8.6709,1.0429-12.8418,3.1279
		c-4.1719,2.0859-7.6486,5.1787-10.4279,9.2754v84.2998h-28.7588V93.3167h23.8195l1.9756,12.7334h1.5361
		c4.3174-4.8301,9.3477-8.4698,15.0928-10.9219c5.7441-2.4512,12.0195-3.6777,18.8252-3.6777
		c6.7314,0,12.6953,1.3007,17.8916,3.8974c5.1953,2.5977,9.3662,6.6406,12.5127,12.1289
		c5.0498-5.4883,10.7021-9.5312,16.9589-12.1289c6.257-2.5967,12.6779-3.8974,19.2638-3.8974
		C1250.6497,91.4505,1260.054,95.0921,1266.9329,102.3723z"/>
</g>
<g>
</g>
<g>
</g>
<g>
</g>
<g>
</g>
<g>
</g>
<g>
</g>
</svg>
