<?xml version="1.0" encoding="utf-8"?>
<!-- Generator: Adobe Illustrator 22.0.1, SVG Export Plug-In . SVG Version: 6.00 Build 0)  -->
<svg version="1.1" xmlns="http://www.w3.org/2000/svg" xmlns:xlink="http://www.w3.org/1999/xlink" x="0px" y="0px"
	 viewBox="0 0 428.7974 440.6812" enable-background="new 0 0 428.7974 440.6812" xml:space="preserve">
<g id="Ebene_3">
	<path fill="#E1E1E1" d="M402.315,427.3208c0,3.6592-70.4727,6.6221-157.4024,6.6221c-86.9287,0-157.3994-2.9629-157.3994-6.6221
		c0-3.6562,70.4707-6.6221,157.3994-6.6221C331.8423,420.6987,402.315,423.6646,402.315,427.3208z"/>
	<g>
		<path fill="#9E987D" d="M370.6812,408.6226c-1.3272-4.0498-1.1055-8.876-1.8311-13.0996
			c-0.3076-1.7862-0.1347-3.5323-1.3017-5.0586c-0.8779-1.1485-2.5361-2.1748-2.3819-3.8106
			c0.5733,0.7988,2.0635,3.6709,2.795,1.3174c0.6738-2.168-1.4121-3.9287-2.8155-5.1426c-1.9599-1.6943-4.0498-3.1015-6.664-3.4961
			c-1.3028-0.1972-2.6406-0.1142-3.9531-0.2685c-1.1905-0.1397-2.0987-0.541-2.2452-0.6992
			c-0.1464-0.1573-0.873-3.1993,1.6836-7.1895c2.2041-3.4395,6.4746-16.1455,0.2686-16.2422
			c-3.9981-0.0635-7.4326,2.4766-10.4209,4.8428c-1.4414,1.1426-2.8008,2.6631-4.3994,3.581
			c-1.6211,0.9317-3.3682-0.707-4.9004-1.1435c-2.874-0.8193-5.9815-1.2002-8.669-2.6006c-2.0625-1.0742-0.166-7.8271-0.3144-9.873
			c-0.1768-2.4073-1.126-7.9532-4.7022-7.375c-2.5752,0.416-6.541,4.1191-7.5761,6.5205c-2.2149,5.1425-2.4971,5.8681-4.1973,9.7158
			c-0.7773,1.7607-0.4844,4.7461-0.2647,6.5351c0.2745,2.2295-0.0878,3.503-0.3916,5.6905
			c-0.4453,3.1933-1.4433,5.9179-2.0644,8.9873c-0.1729,0.8506,0.4297,8.79,1.0215,8.79c0.4668,2.5029-2.0401,5.0303-0.7608,7.4893
			c1.3203,2.541,1.4405,7.1562,1.3028,9.8847c-0.1328,2.4424-0.3379,5.1582,0.4414,7.5215c1.1728,3.5586,4.0185,4.4336,1.5,8.2471
			c-2.7403,4.1514,6.7402,4.6885,7.8388,0.3281c0.626-2.4883-0.6962-4.9033,0.4786-7.417c0.8916-1.9131,2.165-3.1601,4.6084-3.2685
			c2.4179-0.1084,4.4658-0.626,6.7226,0.6191c0.3584,0.0029,1.0518,0.499,0.3594,3.2647c-0.7139,2.8564-0.2451,5.1679-0.3945,8.0146
			c-0.1026,1.959-0.8956,3.6299,0.5283,5.3682c1.2812,1.5644,4.0722,1.289,5.6728,0.5127c3.044-1.4756,1.2168-3.2725,1.2207-5.8711
			c0.0108-7.2578,1.792-3.3213,4.9698-6.5127c1.1337-1.1387,1.3759-2.8682,1.8339-4.4248c0.4405-0.835,0.9522-1.6514,0.7012-2.7022
			c2.8047-2.2636,5.7266-4.8886,10.2959-1.8906c1.8545,1.2168,2.9453,3.2744,4.7334,4.5137
			c2.2041,1.5283,4.2549,2.0576,4.8613,5.1201c0.3868,1.9541-1.4736,3.5996-1.0459,5.5791
			c0.3096,1.4346,2.9541,1.7969,3.9873,1.3017c2.4707-1.1806,3.0479-3.9384,3.2598-6.3671
			C370.731,414.9497,371.6314,411.52,370.6812,408.6226C370.2261,407.2319,371.0308,409.689,370.6812,408.6226z M357.4214,405.6792
			c-0.0742,0.0117-0.1513,0.0156-0.2285,0.0215C357.3277,405.6509,357.4117,405.6382,357.4214,405.6792z"/>
		<path fill="#C6BE9E" d="M370.6812,408.6226c-1.3272-4.0498-1.1055-8.876-1.8311-13.0996
			c-0.3076-1.7862-0.1347-3.5323-1.3017-5.0586c-0.8779-1.1485-2.5361-2.1748-2.3819-3.8106
			c0.5733,0.7988,2.0635,3.6709,2.795,1.3174c0.6738-2.168-1.4121-3.9287-2.8155-5.1426c-1.9599-1.6943-4.0498-3.1015-6.664-3.4961
			c-1.3028-0.1972-2.6406-0.1142-3.9531-0.2685c-1.1905-0.1397-2.0987-0.541-2.2452-0.6992
			c-0.1464-0.1573-0.873-3.1993,1.6836-7.1895c2.2041-3.4395,6.4746-16.1455,0.2686-16.2422
			c-3.9981-0.0635-7.4326,2.4766-10.4209,4.8428c-1.4414,1.1426-2.8008,2.6631-4.3994,3.581
			c-1.6211,0.9317-3.3682-0.707-4.9004-1.1435c-2.874-0.8193-5.9815-1.2002-8.669-2.6006c-2.0625-1.0742-0.166-7.8271-0.3144-9.873
			c-0.1768-2.4073-1.126-7.9532-4.7022-7.375c-2.5752,0.416-6.541,4.1191-7.5761,6.5205c-2.2149,5.1425-2.4971,5.8681-4.1973,9.7158
			c-0.7773,1.7607-0.4844,4.7461-0.2647,6.5351c0.2745,2.2295-0.0878,3.503-0.3916,5.6905
			c-0.4453,3.1933-1.4433,5.9179-2.0644,8.9873c-0.1729,0.8506,0.4297,8.79,1.0215,8.79c0.4668,2.5029,3.1465,3.6231,5.2226,2.1289
			c10.1856-5.2324,9.1387-1.8076,14.6328,5.5762c0.9278,1.2471,2.3829,1.9707,3.9336,1.8808
			c0.628-0.0361,3.3145-1.1591,3.5303-0.9179c-5.8769,4.9297-10.415-2.8281-13.581-6.9033
			c-3.3721-4.3399-10.3643,6.0791-13.8643-0.5928c-1.2959,2.415-1.4951,6.1553-0.2168,8.6152
			c1.3213,2.541,1.0225,4.8584,0.8848,7.5869c-0.1328,2.4424-0.3379,5.1582,0.4414,7.5215c1.1728,3.5586,4.0185,4.4336,1.5,8.2471
			c-2.7403,4.1514,6.7402,4.6885,7.8388,0.3281c0.626-2.4883-0.6962-4.9033,0.4786-7.417c0.8916-1.9131,2.0966-5.0156-1.085-5.7119
			c2.0537-0.3691,3.25,2.5518,5.6934,2.4434c2.4179-0.1084,4.4658-0.626,6.7226,0.6191c-0.1396-1.3476-1.457-2.2471-1.2803-3.6758
			c1.586,2.2754,2.3321,4.1748,1.6397,6.9405c-0.7139,2.8564-0.2451,5.1679-0.3945,8.0146
			c-0.1026,1.959-0.8956,3.6299,0.5283,5.3682c1.2812,1.5644,4.0722,1.289,5.6728,0.5127c3.044-1.4756,1.6348-3.3047,1.2207-5.8711
			c-0.4541-2.8135,1.6787-5.4971,3.1368-7.6826c0.8916-1.3379,1.7822-2.6934,2.2402-4.25c0.4404-0.835,0.8359-5.043,0.2051-5.6973
			c0.8867,0.4267,0.7461,3.0058,0.8027,3.7148c1.0713-1.3906,0.9492-3.0449,1.2881-4.6279
			c-0.3926,1.7666,0.5273,3.1855-0.9141,5.165c4.5938,0.2754,6.4727-5.1503,11.042-2.1523
			c1.8545,1.2168,2.9453,3.2744,4.7334,4.5137c2.2041,1.5283,4.2549,2.0576,4.8613,5.1201
			c0.3868,1.9541-1.4736,3.5996-1.0459,5.5791c0.3096,1.4346,2.9541,1.7969,3.9873,1.3017
			c2.4707-1.1806,3.0479-3.9384,3.2598-6.3671C370.731,414.9497,371.6314,411.52,370.6812,408.6226
			C370.2261,407.2319,371.0308,409.689,370.6812,408.6226z M357.4214,405.6792c-0.0742,0.0117-0.1513,0.0156-0.2285,0.0215
			C357.3277,405.6509,357.4117,405.6382,357.4214,405.6792z"/>
		<path fill="#C6BE9E" d="M344.1519,410.5562c-0.3438-0.0293-0.9268-0.4121-1.1074,0.3457
			c-0.2764,1.1601-0.7969,2.2255-1.417,3.2343c-0.7324,1.1895-1.5127,2.3496-2.3174,3.5928
			c0.6465,0.1924,1.1689,0.0928,1.6748-0.1885c0.7754-0.4306,1.2324-1.1357,1.6475-1.8798c0.7861-1.4083,1.1162-2.9737,1.5527-4.5
			C344.2359,410.9849,344.6177,410.5952,344.1519,410.5562z"/>
		<path fill-rule="evenodd" clip-rule="evenodd" fill="#999898" d="M313.4244,380.2241c2.2744-2.1679,5.1923-5.456,10.8056-4.2939
			c5.6133,1.1611,7.7022,7.0625,7.1573,9.2881c-0.5469,2.2256-1.2012,15.7402-4.876,10.122
			c-5.0313-7.6923-6.1963-8.6093-13.5225-4.6591C306.233,394.3228,312.2974,381.2983,313.4244,380.2241z"/>
		<path d="M318.1646,372.3765c-2.2852-3.1143-7.5293,1.6894-3.3184,3.7968C316.7427,377.1226,319.5884,374.3179,318.1646,372.3765
			C317.8111,371.896,318.6246,373.0044,318.1646,372.3765z"/>
		<path fill-rule="evenodd" clip-rule="evenodd" d="M336.2613,378.5728c-2.5557-2.0596-5.3574,2.5898-2.7451,4.3213
			c1.0859,0.8271,3.2695,0.1982,3.9013-0.9366C338.1753,380.5962,337.396,379.4868,336.2613,378.5728
			C335.7808,378.1841,337.2281,379.3511,336.2613,378.5728z"/>
		<path fill-rule="evenodd" clip-rule="evenodd" fill="#171412" d="M327.8394,380.5903c-1.9814,2.3965-6.1416,2.6397-6.6201-1.0576
			C320.6548,375.1773,328.1509,378.0562,327.8394,380.5903C327.4947,381.0083,327.9273,379.8794,327.8394,380.5903z"/>
		<path fill-rule="evenodd" clip-rule="evenodd" fill="#D4AA9A" d="M350.0777,373.5327c-4.1153,2.7403-6.7988-4.3408-6.8311-7.084
			c-0.0459-3.9824,1.1309-6.165,4.6231-8.6123c4.0869-2.8652,9.7783-2.7041,8.1357,3.5479
			C354.8726,365.6919,354.1519,371.0952,350.0777,373.5327C348.1333,374.8276,351.3394,372.7788,350.0777,373.5327z"/>
		<path fill-rule="evenodd" clip-rule="evenodd" fill="#D4AA9A" d="M313.2398,352.5483c0.374-3.041,4.6738-7.8525,7.6875-8.6523
			c5.2275-1.3887,2.7041,11.2168,2.043,13.4189c-0.9893,3.3018-5.795,5.461-9.0469,4.8292
			c-1.5518-0.3018-4.4776-2.1163-3.8164-4.0508C310.8072,356.0483,312.9595,354.8218,313.2398,352.5483
			C313.521,350.2681,312.8853,355.4224,313.2398,352.5483z"/>
	</g>
</g>
<g id="OBJECTS">
	<g>
		<g>
			<g>
				<g>
					<g>
						<g>
							<path fill="#5E5E5E" d="M259.2876,406.0806c1.1299-0.1612,30.2627-20.2744,23.462-19.6182
								c-0.7422,0.0752-1.5508,0.1738-2.4004,0.2949c-6.9131,0.9951-16.545,3.4463-16.545,3.4463l-6.04-4.2803l-5.4912-3.913
								l-0.9326-0.6827l-6.3096,6.3223c0,0,2.4824,3.4951,5.3154,7.3838c1.0459,1.4326,2.1817,2.9619,3.2412,4.3672
								c1.1221,1.4971,2.2178,2.9131,3.1299,4.0381C258.0279,405.0542,259.0123,406.1206,259.2876,406.0806z"/>
						</g>
						<path fill="#D0D7E9" d="M253.6265,399.4399c4.499-2.5117,10.1777-9.2363,10.1777-9.2363l-6.04-4.2803l-5.4189-3.8388
							c-2.9776,2.3437-6.4952,5.1201-7.169,5.709c0,0,2.4131,3.4267,5.2412,7.3115
							C251.4615,396.5405,252.564,398.0317,253.6265,399.4399z"/>
					</g>
					<path fill="#1A2B36" d="M261.4322,391.4868c0.5176,0.0596,1.7744-0.123,2.166-0.5859
						c-0.0215,0.0937,0.0058,0.1963,0.1006,0.2432c1.084,0.5273,2.1172-0.9073,3.0517-1.6436
						c-0.0869,0.8281-0.3203,1.6445-0.2705,2.4902c0.0186,0.3057,0.3682,0.5879,0.6602,0.3858
						c1.2842-0.8965,1.9521-2.7158,3.5342-2.8496c-0.044,0.247,0.1113,0.54,0.3974,0.5048c1.1006-0.1328,2.0625-0.6494,2.8633-1.415
						c0.1855-0.1816-0.0049-0.5508-0.2617-0.456c-0.6201,0.2187-1.1748,0.5878-1.7813,0.8212
						c-0.0517-0.1045-0.1406-0.1953-0.2715-0.2265c-2.2382-0.5156-2.9248,1.0244-4.2138,2.2646
						c0.0986-0.7646,0.292-1.5107,0.2441-2.292c-0.0146-0.2578-0.2695-0.5254-0.5488-0.4248
						c-1.0459,0.3916-1.7813,1.2539-2.6436,1.9414C266.0474,387.5982,258.8697,391.2026,261.4322,391.4868z"/>
				</g>
				<g>
					<g>
						<rect x="145.231" y="354.9878" fill="#B5CAD9" width="7" height="14"/>
					</g>
					<path fill="#22403B" d="M187.231,345.9732c0,4.4619-4.7178,12.0146-9.603,12.0146h-56.1836
						c-4.8828,0-6.2134-7.5527-6.2134-12.0146v-0.3331c0-4.458,1.3306-7.6523,6.2134-7.6523h56.1836
						c4.8852,0,9.603,3.1943,9.603,7.6523V345.9732z"/>
					<g>
						<g>
							<path fill="#B5CAD9" d="M148.043,392.6958c1.8106-1.0713,4.1675-0.667,6.1719-0.5127
								c2.5356,0.1914,5.0669,0.3955,7.6108,0.3399c4.7115-0.0977,9.6397,0.0761,14,2.0576
								c3.5708,1.626,8.4024,4.8593,9.7451,8.7627c1.0352,3.0185,0.9629,7.8174-1.3554,10.2724
								c-0.4068,0.4307-1.0156-0.0234-0.9199-0.5371c0.2143-1.1719-0.3624-2.8447-0.4634-4.0527
								c-0.1782-2.1709,0.3149-3.8535-1.1836-5.7481c-2.6236-3.3193-6.4722-5.6191-10.5357-6.6259
								c-3.7666-0.9327-7.7046-0.668-11.5439-0.9053c-1.9287-0.1231-3.8272-0.4824-5.7212-0.835
								c-1.9058-0.3545-4.1387-0.4355-5.8047-1.4843C147.7774,393.2593,147.7637,392.8599,148.043,392.6958z"/>
							<path fill="#B5CAD9" d="M144.8321,392.6958c-1.8106-1.0713-4.167-0.667-6.1714-0.5127
								c-2.5371,0.1914-5.0674,0.3955-7.6123,0.3399c-4.7119-0.0977-9.6338,0.0761-13.9971,2.0576
								c-3.5723,1.626-8.4043,4.8593-9.7466,8.7627c-1.0366,3.0185-0.9599,7.8174,1.3555,10.2724
								c0.4077,0.4307,1.0176-0.0234,0.9224-0.5371c-0.2154-1.1719,0.3628-2.8447,0.4599-4.0527
								c0.1822-2.1709-0.313-3.8535,1.1851-5.7481c2.6216-3.3193,6.4726-5.6191,10.5327-6.6259
								c3.7686-0.9327,7.7056-0.668,11.5483-0.9053c1.9248-0.1231,3.8247-0.4824,5.7212-0.835
								c1.9038-0.3545,4.1353-0.4355,5.8023-1.4843C145.0982,393.2593,145.1128,392.8599,144.8321,392.6958z"/>
							<path fill="#B5CAD9" d="M126.6148,405.4038c0.2558-2.583,1.8266-5.1806,3.8784-6.7392
								c2.2822-1.7344,4.937-2.4473,7.7373-2.8291c1.3682-0.1875,2.7236-0.3711,4.0654-0.7139
								c1.3746-0.3525,2.6343-1.0303,4.0455-1.2315c0.7426-0.1074,1.4003,0.5577,0.9956,1.2969
								c-2.2691,4.1328-8.6343,3.3477-12.5098,4.6016c-2.7515,0.8916-4.8428,3.1836-5.5166,5.9795
								c-0.3364,1.4052-0.0513,2.9531-0.0313,4.374c0.0162,1.1797,0.3433,2.2656-0.2006,3.3359
								c-0.1866,0.3643-0.6514,0.2705-0.856,0C126.6011,411.3364,126.3653,407.98,126.6148,405.4038z"/>
							<path fill="#B5CAD9" d="M164.1802,405.4038c-0.2539-2.583-1.8247-5.1806-3.8764-6.7392
								c-2.2832-1.7344-4.9371-2.4473-7.7364-2.8291c-1.372-0.1875-2.7246-0.3711-4.0664-0.7139
								c-1.375-0.3525-2.6343-1.0303-4.0454-1.2315c-0.7427-0.1074-1.4023,0.5577-0.9951,1.2969
								c2.2681,4.1328,8.6328,3.3477,12.5093,4.6016c2.7519,0.8916,4.8413,3.1836,5.5166,5.9795
								c0.3349,1.4052,0.0512,2.9531,0.0312,4.374c-0.0166,1.1797-0.3457,2.2656,0.2007,3.3359c0.1856,0.3643,0.6499,0.2705,0.854,0
								C164.1949,411.3364,164.4312,407.98,164.1802,405.4038z"/>
						</g>
						<g>
							<g>
								<g>
									<g>
										<path fill="#5E5E5E" d="M136.0264,416.8999c0,0.2832-0.0176,0.5615-0.0566,0.8379
											c-0.4488,3.3008-3.5357,5.8535-7.27,5.8535c-3.7378,0-6.8194-2.5527-7.2735-5.8535
											c-0.0347-0.2764-0.0571-0.5547-0.0571-0.8379c0-3.6963,3.2822-6.6973,7.3306-6.6973
											C132.7466,410.2026,136.0264,413.2036,136.0264,416.8999z"/>
									</g>
								</g>
								<g>
									<g>
										<path fill="#5E5E5E" d="M115.4331,416.8999c0,0.2832-0.018,0.5615-0.0551,0.8379
											c-0.4536,3.3008-3.5366,5.8535-7.2749,5.8535c-3.732,0-6.815-2.5527-7.2735-5.8535
											c-0.0317-0.2764-0.0547-0.5547-0.0547-0.8379c0-3.6963,3.2823-6.6973,7.3282-6.6973
											C112.1504,410.2026,115.4331,413.2036,115.4331,416.8999z"/>
									</g>
								</g>
							</g>
							<g>
								<g>
									<g>
										<path fill="#5E5E5E" d="M171.4244,416.8999c0,0.2832-0.0215,0.5615-0.0586,0.8379
											c-0.4497,3.3008-3.5327,5.8535-7.2701,5.8535c-3.7417,0-6.8178-2.5527-7.2705-5.8535
											c-0.0376-0.2764-0.0527-0.5547-0.0527-0.8379c0-3.6963,3.2773-6.6973,7.3232-6.6973
											C168.1451,410.2026,171.4244,413.2036,171.4244,416.8999z"/>
									</g>
								</g>
								<g>
									<g>
										<path fill="#5E5E5E" d="M175.7515,416.8999c0,0.2832,0.021,0.5615,0.0606,0.8379
											c0.4521,3.3008,3.5317,5.8535,7.268,5.8535c3.7437,0,6.8213-2.5527,7.2739-5.8535
											c0.0333-0.2764,0.0533-0.5547,0.0533-0.8379c0-3.6963-3.2813-6.6973-7.3272-6.6973
											C179.0318,410.2026,175.7515,413.2036,175.7515,416.8999z"/>
									</g>
								</g>
							</g>
							<g>
								<rect x="141.231" y="368.9878" fill="#22403B" width="14" height="32"/>
							</g>
						</g>
					</g>
					<g>
						<path fill="#58A79A" d="M208.3155,330.353c-2.5855-2.4961-6.312-3.3769-11.4883-3.998
							c-5.8823-0.6992-3.1289-1.1309-15.2378-1.2734c-7.5508-0.0889-25.2461-0.9805-27.6299-9.8692
							c-0.7973-2.958-0.4639-6.6016-0.6557-9.6523c-0.1749-2.7823-0.3238-5.5655-0.461-8.3535
							c-0.25-5.1192-0.4892-10.2422-0.81-15.3575c-0.5806-9.3779-1.0894-18.7558-1.6744-28.1357
							c-0.1157-1.8486-0.3335-3.7217-0.3335-5.5703c0-5.3438-4.478-12.3018-12.1464-13.2373
							c-14.481-1.7686-45.3687-4.8526-48.2671,0c0,0,6.9756,80.1718,8.7715,86.5244c1.8002,6.3457,25.9702,11.8838,28.7695,12.999
							c1.8398,0.7315,3.5117,0.835,11.7305,0.8027c4.8593,5.4893-10.3931,9.7344,0,10.5928
							c2.3974,0.2051,60.2841-1.0234,61.833-0.9287c5.3183,0.3203,9.9047-3.2686,10.2407-8.0098
							C211.1246,334.5103,210.1626,332.1274,208.3155,330.353z"/>
						<g>
							<path fill="#65BFB2" d="M112.8497,345.1968c-9.8506-0.8164-17.4605-4.2246-22.6739-10.1836
								c-5.1748-5.9238-6.0239-12.2451-6.1391-13.4619c-0.0254-0.2862-0.0411-0.5772-0.044-0.878l-0.9565-78.9541
								c-0.0615-4.8535,3.145-9.0468,7.1645-9.3681c4.0196-0.3252,7.3208,3.3486,7.3819,8.1982
								c0.0898,7.2744,0.1713,14.5449,0.2539,21.8174c0.1469,13.0117,0.1645,26.0586,0.4804,39.0606
								c0.0747,2.7646,0.087,5.5136,0.0523,8.2861c-0.0615,4.4619-0.5161,10.2578,2.8931,12.9648
								c2.7802,2.21,5.5014,3.7139,8.8789,4.3291c2.9086,0.5274,5.9711,0.8037,8.9355,0.7618
								c9.1177-0.125,15.9731,0.1123,20.3882,0.7021c3.8852,0.5117,6.668,1.3359,8.5547,3.8252
								c1.3437,1.7734,2.0053,4.1875,1.8135,6.6172c-0.3819,4.8603-2.9878,7.2217-6.983,7.0137
								c-1.1694-0.0645-10.1528,0.9121-24.3711-0.5479C116.5474,345.1792,114.6509,345.3433,112.8497,345.1968z"/>
						</g>
					</g>
					<g>
						<g>
							<g>
								<path fill="#4D6F80" d="M134.3604,370.2349c-0.2647,0-0.5264-0.0811-0.7324-0.2471
									c-0.4766-0.3691-0.5332-1.0234-0.128-1.4531l11.1006-11.9121c0.4029-0.4287,1.1118-0.4864,1.5899-0.1094
									c0.4692,0.3662,0.5302,1.0185,0.1216,1.4482l-11.0977,11.9092C134.9908,370.1079,134.6695,370.2349,134.3604,370.2349z"/>
							</g>
						</g>
						<path fill="#4D6F80" d="M137.5611,370.6441c0,2.8037-2.2779,5.0791-5.0821,5.0791c-2.8066,0-5.0791-2.2754-5.0791-5.0791
							c0-2.7999,2.2725-5.0792,5.0791-5.0792C135.2832,365.5649,137.5611,367.8442,137.5611,370.6441z"/>
					</g>
				</g>
				<g>
					<path fill="#E6B48F" d="M234.1705,280.398c-3.8487-10.0733-19.6534-9.5684-25.5118-2.2676l-7.2461,4.833
						c5.419,4.3633,18.0391,1.9853,24.7901,3.0019C230.9068,286.6714,237.106,288.0894,234.1705,280.398z"/>
					<path fill="#DFE3EB" d="M151.7339,233.3052c0,0-3.4052,60.0918,62.3555,50.4805l2.7041-12.3799
						c0,0-29.9756-8.1944-35.6411-17.9375c0,0-4.4297-16.2403-9.3316-26.6665C165.0523,212.4028,156.6973,205.313,151.7339,233.3052
						z"/>
				</g>
				<path fill="#394A5C" d="M117.9913,300.0718c0,0-5.1783,28.1738,11.4711,29.4873c16.6499,1.3144,60.5318,9.7734,64.3628,15.3291
					c3.8326,5.5576,55.2339,54.4238,55.2339,54.4238l12.668-13.9814c0,0-42.0918-54.0069-58.0293-65.6153
					c-21.7466-15.8437-54.2739-21.6298-54.2739-21.6298L117.9913,300.0718z"/>
				<g>
					<g>
						<g>
							<g>
								<path fill="#5E5E5E" d="M232.939,419.1157c1.1426-0.0009,32.793-15.8574,25.9678-16.1513
									c-0.7471-0.0313-1.5606-0.0469-2.417-0.0459c-6.9844,0.0234-16.8643,1.1064-16.8643,1.1064l-5.3847-5.083l-4.8897-4.6396
									l-0.8281-0.8057l-7.1289,5.3799c0,0,1.9697,3.8086,4.2324,8.0537c0.834,1.5654,1.7461,3.2353,2.5986,4.7764
									c0.9043,1.6386,1.7911,3.1933,2.5352,4.4345C231.8345,417.9253,232.6607,419.1157,232.939,419.1157z"/>
							</g>
							<path fill="#D0D7E9" d="M228.2603,411.7495c4.8066-1.8574,11.3652-7.7246,11.3652-7.7246l-5.3847-5.083l-4.8291-4.5566
								c-3.2764,1.9072-7.1465,4.165-7.8946,4.6543c0,0,1.9073,3.7265,4.1709,7.9707
								C226.5191,408.5757,227.4058,410.2075,228.2603,411.7495z"/>
						</g>
						<path fill="#1A2B36" d="M237.0962,404.9663c0.5069,0.1299,1.7774,0.126,2.2295-0.2793
							c-0.0351,0.0879-0.0224,0.1934,0.0635,0.252c1,0.6758,2.2227-0.6006,3.2529-1.2012c-0.2041,0.8105-0.5468,1.585-0.6172,2.4287
							c-0.0214,0.3037,0.2842,0.6328,0.5987,0.4736c1.3994-0.7099,2.3144-2.414,3.8994-2.3252
							c-0.0781,0.2354,0.0342,0.5479,0.3252,0.5528c1.1084,0.0224,2.1318-0.3555,3.0293-1.0029
							c0.2099-0.1524,0.0742-0.544-0.1953-0.4854c-0.6426,0.1289-1.2451,0.416-1.878,0.5654
							c-0.0361-0.1152-0.1103-0.2138-0.2363-0.2627c-2.1455-0.8261-3.041,0.6026-4.4883,1.6543
							c0.2022-0.7431,0.501-1.457,0.5616-2.2373c0.0205-0.2578-0.1934-0.5566-0.4873-0.497
							c-1.0899,0.2392-1.9366,0.9931-2.8858,1.5556C242.2115,401.7564,234.5992,404.3257,237.0962,404.9663z"/>
					</g>
					<path fill="#496076" d="M107.8086,294.436c0,0-9.0581,27.1768,7.2466,30.7998c16.3062,3.6231,58.5767,18.1182,61.5977,24.1563
						c3.0195,6.0361,47.1015,61.5947,47.1015,61.5947l14.4942-12.0752c0,0-34.1485-59.3535-48.3111-73.0713
						c-19.3232-18.7207-50.7255-28.9853-50.7255-28.9853L107.8086,294.436z"/>
				</g>
				<path fill="#5E5E5E" d="M109.6211,288.3999c0,0,32.6099,4.8311,41.6685,3.0186l-0.6035,6.6425c0,0-31.4038,4.2266-42.8775-3.625
					L109.6211,288.3999z"/>
				<path fill="#F0F5FF" d="M109.6211,288.3999c-2.351-0.5605-14.749-71.8159-7.8505-77.9014
					c10.2656-9.059,62.1997-9.663,65.2202,12.0747c2.9902,21.5347-15.7012,68.8453-15.7012,68.8453
					S134.9849,294.438,109.6211,288.3999z"/>
				<g>
					<path fill="#E6B48F" d="M216.0552,284.022c-3.8467-10.0742-19.6553-9.5674-25.5132-2.2676l-7.2465,4.832
						c5.4194,4.3623,18.0385,1.9854,24.7895,3C212.7896,290.2954,218.9898,291.7124,216.0552,284.022z"/>
					<path fill="#F0F5FF" d="M110.0806,209.48c13.2783,0.3594,14.0332,17.9243,23.6943,30.6074
						c18.0796,23.7256,29.9214,29.582,38.6504,32.0059c10.8702,3.0195,22.3438,4.2275,22.3438,4.2275l-1.8115,16.3047
						c0,0-42.8775,1.209-63.4082-16.3047c-9.501-8.1045-16.9966-18.8809-22.668-29.9209
						c-4.5337-8.8193-9.6182-21.0757-6.438-31.1929c0.752-2.3818,2.1011-4.1674,4.5405-4.9502
						C106.7886,209.6792,108.4834,209.437,110.0806,209.48z"/>
				</g>
				<path fill="#DE9E85" d="M126.5821,187.5503c-0.4595,1.8105-3.6768,20.5317-3.6768,20.5317s17.4585,13.8882,22.5122,9.6621
					c0,0,1.3794-7.2446,0.9199-13.2851c-0.4614-6.0391-0.9199-13.8906-0.9199-13.8906L126.5821,187.5503z"/>
				<g>
					<polygon fill="#FFFFFF" points="139.7559,291.5776 141.5518,301.1597 149.7041,300.48 149.9307,290.9702 					"/>
					<polygon fill="#5E5E5E" points="142.6846,293.4605 142.877,299.2573 147.8926,298.6685 148.1192,293.2339 					"/>
				</g>
				<path fill="#6D6D6D" d="M158.9903,136.0718c-3.0591-2.1221,0.1909-7.3135-2.3692-11.4219
					c-6.6215-10.6348-16.7954,4.3067-23.9013,1.3579c-4.9595-2.0581-6.0493-4.8403-12.1284-2.9673
					c-4.6636,1.4356-8.896,5.2666-9.6329,10.3252c-0.5747,3.9375,2.8174,7.9058,2.3091,11.3116
					c-0.582,3.916-5.459,3.9013-7.1679,7.7011c-3.8545,8.5664,3.5991,24.917,13.9384,24.4561l20.3809-16.7578
					c7.9878-4.5557,14.2236-2.48,22.1929-4.5186c5.1591-1.3188,6.9941-6.3857,6.7939-11.3569
					C169.043,135.2393,163.876,139.4566,158.9903,136.0718z"/>
				<path fill="#E6B48F" d="M154.5093,144.5122c-0.9507-0.0078-2.0361,0.1294-3.3056,0.439
					c-5.7242,1.3833-11.3399,3.3076-17.0308,4.8428c-3.3452,0.9028-10.9658,2.6855-11.4229,7.2231
					c-0.291,2.918-0.0019,5.8315-0.2338,8.7427c-0.4312,5.4721-2.3663,10.2466-5.1036,14.7475
					c0.9019,1.9937,1.8697,3.9605,2.9517,5.8575c1.1719,2.0615,2.3735,4.0903,3.9346,5.8696
					c2.9951,3.4136,6.8237,6.1997,10.976,7.9038c5.0254,2.0664,11.2642,2.4502,15.7256-0.9688
					c4.0977-3.1308,6.2036-9.5971,7.6338-14.5366c1.3599-4.7007,0.2862-10.2851-0.0991-15.1938
					C157.9327,161.7251,159.2564,151.3013,154.5093,144.5122z"/>
				<g>
					<path fill="#FFFFFF" d="M128.4917,167.7373c0,3.7368,1.9424,6.7656,4.3379,6.7656c2.3946,0,4.336-3.0288,4.336-6.7656
						s-1.9414-6.7685-4.336-6.7685C130.4341,160.9688,128.4917,164.0005,128.4917,167.7373z"/>
					<g>
						<defs>
							<path id="SVGID_1_" d="M137.1656,167.7373c0,3.7339-1.9414,6.7656-4.3384,6.7656c-2.395,0-4.3374-3.0317-4.3374-6.7656
								c0-3.7368,1.9424-6.7656,4.3374-6.7656C135.2242,160.9717,137.1656,164.0005,137.1656,167.7373z"/>
						</defs>
						<clipPath id="SVGID_2_">
							<use xlink:href="#SVGID_1_"  overflow="visible"/>
						</clipPath>
						<g clip-path="url(#SVGID_2_)">
							<path fill="#745345" d="M131.1641,168.7275c-0.4429,2.7457,0.6553,5.2095,2.4556,5.5
								c1.8027,0.2911,3.6201-1.7026,4.0639-4.4472c0.4424-2.7451-0.6567-5.2056-2.4594-5.4966
								C133.4244,163.9927,131.6075,165.9834,131.1641,168.7275z"/>
							<path fill="#390A0A" d="M131.8619,168.9009c-0.3472,2.1514,0.4824,4.0742,1.8535,4.2954
								c1.3681,0.2207,2.7583-1.3442,3.1054-3.4951c0.3467-2.1485-0.4804-4.0703-1.8491-4.291
								C133.6006,165.189,132.2085,166.7524,131.8619,168.9009z"/>
							<path fill="#FFFFFF" d="M131.7378,165.1719c-0.0737,0.457,0.6211,0.9487,1.5533,1.0991
								c0.9296,0.1509,1.7461-0.0977,1.8203-0.5547c0.0732-0.4556-0.6245-0.9458-1.5537-1.0967
								C132.6255,164.4697,131.8116,164.7163,131.7378,165.1719z"/>
						</g>
					</g>
				</g>
				<g>
					<path fill="#FFFFFF" d="M146.6431,167.7373c0,3.7368,1.9429,6.7656,4.3379,6.7656s4.3364-3.0288,4.3364-6.7656
						s-1.9414-6.7685-4.3364-6.7685S146.6431,164.0005,146.6431,167.7373z"/>
					<g>
						<defs>
							<path id="SVGID_3_" d="M155.3174,167.7373c0,3.7339-1.9414,6.7656-4.3384,6.7656c-2.3959,0-4.3383-3.0317-4.3383-6.7656
								c0-3.7368,1.9424-6.7656,4.3383-6.7656C153.376,160.9717,155.3174,164.0005,155.3174,167.7373z"/>
						</defs>
						<clipPath id="SVGID_4_">
							<use xlink:href="#SVGID_3_"  overflow="visible"/>
						</clipPath>
						<g clip-path="url(#SVGID_4_)">
							<path fill="#745345" d="M149.316,168.7275c-0.4434,2.7457,0.6547,5.2095,2.4555,5.5
								c1.8023,0.2911,3.6206-1.7026,4.063-4.4472c0.4434-2.7451-0.6553-5.2056-2.458-5.4966
								C151.5752,163.9927,149.7583,165.9834,149.316,168.7275z"/>
							<path fill="#390A0A" d="M150.0137,168.9009c-0.3476,2.1514,0.4819,4.0742,1.8535,4.2954
								c1.3677,0.2207,2.7578-1.3442,3.105-3.4951c0.3467-2.1485-0.48-4.0703-1.8481-4.291
								C151.752,165.189,150.3599,166.7524,150.0137,168.9009z"/>
							<path fill="#FFFFFF" d="M149.8897,165.1719c-0.0742,0.457,0.6211,0.9487,1.5532,1.0991
								c0.9292,0.1509,1.7461-0.0977,1.8198-0.5547c0.0733-0.4556-0.6235-0.9458-1.5537-1.0967
								C150.7769,164.4697,149.9624,164.7163,149.8897,165.1719z"/>
						</g>
					</g>
				</g>
				<g>
					<path fill="#E6B48F" d="M119.0845,170.0151c0,0-9.8013-9.2827-9.77,1.0806c0.0317,10.3682,7.9341,13.0298,11.9853,10.8765
						C125.3506,179.8184,119.0845,170.0151,119.0845,170.0151z"/>
					<path fill="#DE9E85" d="M118.814,172.0649c0,0-6.5757-5.7631-7.3447-2.455c-0.7695,3.311,0.7363,6.8291,0.7363,6.8291
						s-0.2397-4.2495,3.3692-2.8238c0,0-0.9986,7.208,4.2656,3.7149C119.8404,177.3301,121.6641,174.7036,118.814,172.0649z"/>
				</g>
				<path fill="#C78E78" d="M146.0752,174.0503c-0.5879-2.8848-1.6235-7.3662-3.3442-6.7407
					c-1.8818,0.6865-0.8237,7.873-0.5273,9.2705c0.372,1.7471,3.0786,7.5698,5.7426,6.4048
					C150.252,181.9722,147.5479,176.8496,146.0752,174.0503z"/>
				<path fill="#713E3D" d="M128.104,156.5068c-1.9111,2.8667-0.955,5.4947-0.955,5.4947c1.9101-4.731,7.9082-2.6665,11.4301-4.104
					C139.4766,150.8887,130.0157,153.6377,128.104,156.5068z"/>
				<path fill="#713E3D" d="M154.5347,153.8594c2.0947,2.4116,2.0781,5.1367,2.0781,5.1367
					c-2.5693-4.2183-6.3393-1.0986-9.2241-1.8247C144.9678,150.5606,152.4375,151.4434,154.5347,153.8594z"/>
				<path fill="#DFE3EB" d="M161.729,266.187c-4.0146-2.6269-7.9165-5.1924-11.5932-8.2988
					c-3.6504-3.0859-7.1148-6.4766-10.3008-10.0381c-2.9004-3.2432-5.3506-6.8818-7.709-10.5361
					c-0.4892-1.5625-0.834-3.1826-1.0312-4.7852c-0.1382-1.1211-0.1089-2.2588,0.0644-3.374
					c0.1426-0.9209,0.6177-1.7168,0.7178-2.6406c0.0269-0.2461-0.3047-0.4214-0.5005-0.2871
					c-1.8159,1.2382-1.6025,4.3916-1.4141,6.3017c0.0538,0.543,0.1431,1.0752,0.252,1.6016
					c-1.8872-3.543-3.2061-7.3535-5.124-10.8863c-0.1138-0.2119-0.4063-0.059-0.3667,0.1548
					c1.7246,9.2705,7.354,18.0274,13.3799,25.0987c6.1919,7.2675,14.4043,14.5078,23.185,18.4423
					C161.795,267.1665,162.2081,266.4995,161.729,266.187z"/>
				<path fill="#DFE3EB" d="M139.2613,282.5991c-6.8306-4.8486-13.2852-9.5918-18.7432-16.0029
					c-2.6133-3.0693-5.085-6.2598-7.2925-9.6338c-2.2397-3.4238-3.7065-7.3076-5.9384-10.7041
					c-0.1348-0.2041-0.5313-0.1504-0.5025,0.1367c0.3408,3.4014,2.1616,6.7998,3.9536,9.7647
					c-1.2636-0.8037-2.7036-1.3877-4.0112-2.1231c-0.415-0.2343-0.9565,0.2471-0.6758,0.6748
					c1.4927,2.2764,4.7549,2.1709,6.3833,4.2959c0.0606,0.0782,0.1353,0.1241,0.2129,0.1534
					c1.898,2.8125,4.0234,5.4746,6.2173,8.0585c2.7681,3.2598,5.667,6.1885,9.0576,8.8047
					c3.4688,2.6778,7.2603,4.8975,10.8872,7.3487C139.292,283.6987,139.7256,282.9292,139.2613,282.5991z"/>
				<path fill="#FFFFFF" d="M137.9126,185c0,0,10.5147,3.8237,16.7286,0.4785C154.6412,185.4785,148.4273,206.5098,137.9126,185z"/>
			</g>
			<g>
				<g>
					<g>
						<path fill="#458077" d="M373.107,250.7036c-2.7637,0.8848-3.5322,2.4102-3.292,4.6045
							c0.4385,3.9815,7.0713,6.334,10.8711,3.9785c0.0791,0.1211,0.2285,0.2198,0.4687,0.2549
							c4.2198,0.5977,9.6543-0.2685,12.2354-3.1357c1.6562-1.8389,1.9062-3.9034,0.7265-5.96
							c-1.0986-1.916-4.2763-4.4941-2.2802-6.7002c1.5244-1.6875,3.8252-2.6728,5.9394-3.873
							c5.0518-2.8672,4.9473-7.2393-0.9726-9.0957c-3.4834-1.0928-1.0479-4.7266-1.1758-6.8648
							c-0.0791-1.3428-0.3281-2.7226-1.2637-3.9023c-1.667-2.0996-4.3906-3.9405-7.7139-4.2998
							c-6.9589-0.7525-10.1845,3.6816-9.7685,8.5381c0.1631,1.9018,0.7598,3.6879,1.2471,5.5502
							c0.1435,0.5499,1.4599,4.545-1.209,3.9971c-0.8262-0.167-1.5928-0.376-2.3799-0.6387
							c-2.4336-0.8261-4.7568-1.5146-7.3965-0.8056c-6.5615,1.7627-2.4248,10.2002,1.0674,12.5791
							C369.8072,246.0181,377.7486,249.2173,373.107,250.7036z"/>
						<path fill="#76B375" d="M375.066,253.4517c0.8496,0.9238,2.9824,0.6611,4.1308,1.3984
							c0.1084,0.0693,0.1807,0.1543,0.2754,0.2285c-0.0332-1.1992,0.0723-2.3769,0.4092-3.5566
							c-0.0059-0.0606-0.0098-0.1201,0.0127-0.1885c0.7373-2.1602,1.0185-4.2998-0.2061-6.4004
							c-0.8066-1.3848-3.039-2.3389-4.4775-3.3223c-2.1328-1.4599-2.9297-3.1982-2.2422-5.3085
							c0.2275-0.7061,1.6611-0.4063,1.4307,0.2988c-1.2344,3.7851,4.3789,5.0888,6.5703,7.7617
							c0.7471,0.9131,1.039,1.9824,1.0879,3.0801c2.1142-2.7207,4.7988-4.7168,5.2597-8.3389
							c0.4952-3.8848,0.044-7.9473-1.125-11.7363c-0.7304-2.3716-1.6464-4.7896,0.21-6.98
							c0.5166-0.6099,1.8018-0.0464,1.2832,0.5674c-2.2529,2.6582,0.2637,6.5737,0.751,9.4624
							c0.4707,2.791,0.6054,5.5703,0.3545,8.3574c0.3437-0.335,0.7265-0.6523,1.1699-0.9433
							c2.1611-1.4141,4.6533-1.9512,5.7685-4.1602c0.3379-0.6699,1.7754-0.3789,1.4327,0.3018
							c-0.7764,1.5332-2.0049,2.5527-3.7676,3.4814c-1.126,0.5918-2.3145,1.0566-3.2764,1.8164
							c-1,0.793-1.4961,1.9365-1.8642,2.9678c-0.0469,0.1338-0.1436,0.2197-0.2569,0.2832
							c-0.9092,1.8662-2.6992,3.5195-4.1709,5.0947c-2.1924,2.3438-2.8447,4.7656-2.832,7.3408
							c0.5859-0.7988,1.3652-1.5136,2.3096-2.0254c1.8711-1.0117,5.081-0.792,5.2246-2.9531c0.0469-0.7236,1.5322-0.7256,1.4844,0
							c-0.1006,1.5127-0.9356,2.3731-2.7793,2.9131c-1.253,0.3652-2.3887,0.5107-3.4541,1.2002
							c-1.3584,0.8828-2.1768,2.2353-2.4522,3.5518c-0.0166,0.0761-0.0527,0.1318-0.0928,0.1865
							c0.0391,0.2617,0.0733,0.5244,0.1192,0.791c0.123,0.7197-1.3623,0.7109-1.4834,0c-0.0264-0.1397-0.0401-0.2744-0.0625-0.4141
							c-0.1983-0.0439-0.3633-0.1592-0.4073-0.375c-0.246-1.2265-0.6455-2.0713-2.2636-2.5068
							c-1.3506-0.3662-2.459-0.3359-3.3516-1.3057C373.2359,253.4243,374.522,252.8608,375.066,253.4517z"/>
					</g>
					<g>
						<polygon fill="#98733F" points="393.3101,285.2915 396.3062,257.5015 366.3423,257.5015 367.648,285.2915 						"/>
						<polygon fill="#CC9252" points="358.6861,263.647 361.6783,254.5679 400.0269,253.2066 403.6246,264.1021 						"/>
					</g>
				</g>
				<g>
					<g>
						<g>
							<polygon fill="#B2B2B2" points="257.2242,209.7358 236.19,276.5044 335.0533,276.5044 356.0894,209.7358 							"/>
						</g>
						<g>
							<path fill="#B2B2B2" d="M335.8218,276.8452c0,4.7754-3.4355,8.1426-7.6758,8.1426H220.3267
								c-4.2412,0-7.6777-3.3672-7.6777-8.1426c0-0.1211,0.0136,0.1426,0.0175,0.1426h123.1377
								C335.8081,276.9878,335.8218,276.7241,335.8218,276.8452z"/>
							<rect x="252.231" y="276.9878" fill="#444444" width="68" height="4"/>
						</g>
					</g>
					<g>
						<polygon fill="#C4A577" points="168.128,426.895 192.9419,292.7085 173.4776,292.7085 160.8189,426.895 						"/>
						<polygon fill="#C4A577" points="354.1753,426.895 329.3599,292.7085 348.8257,292.7085 361.4839,426.895 						"/>
					</g>
					<rect x="120.231" y="284.9878" fill="#E4C188" width="301" height="10"/>
				</g>
			</g>
		</g>
		<g>
			<g>
				<path fill="#73C4BA" d="M370.231,182.6846c0,2.9096-2.4277,5.3032-5.3389,5.3032H224.6939
					c-2.9111,0-5.4629-2.3936-5.4629-5.3032V155.021c0-2.9097,2.5518-5.0332,5.4629-5.0332h140.1982
					c2.9112,0,5.3389,2.1235,5.3389,5.0332V182.6846z"/>
				<path fill="#E6EFFD" d="M370.231,155.2866v27.9283c0,2.9096-2.6484,4.7729-5.5586,4.7729H260.231v-38h104.4414
					C367.5826,149.9878,370.231,152.3765,370.231,155.2866z"/>
				<g>
					<path fill="#FFFFFF" d="M362.231,156.4878c0,0.8286-0.6719,1.5-1.5,1.5h-90c-0.8281,0-1.5-0.6714-1.5-1.5l0,0
						c0-0.8286,0.6719-1.5,1.5-1.5h90C361.5591,154.9878,362.231,155.6592,362.231,156.4878L362.231,156.4878z"/>
					<path fill="#FFFFFF" d="M362.231,164.4878c0,0.8286-0.6719,1.5-1.5,1.5h-90c-0.8281,0-1.5-0.6714-1.5-1.5l0,0
						c0-0.8286,0.6719-1.5,1.5-1.5h90C361.5591,162.9878,362.231,163.6592,362.231,164.4878L362.231,164.4878z"/>
					<path fill="#FFFFFF" d="M362.231,180.4878c0,0.8286-0.6934,1.5-1.5488,1.5h-89.9024c-0.8554,0-1.5488-0.6714-1.5488-1.5l0,0
						c0-0.8286,0.6934-1.5,1.5488-1.5h89.9024C361.5376,178.9878,362.231,179.6592,362.231,180.4878L362.231,180.4878z"/>
					<g>
						<path fill="#FFFFFF" d="M328.231,171.5317c0,0.856-1.3662,2.4561-2.2246,2.4561h-55.7022
							c-0.8574,0-1.0732-1.6001-1.0732-2.4561v-0.166c0-0.8559,0.2158-2.3779,1.0732-2.3779h55.7022
							c0.8584,0,2.2246,1.522,2.2246,2.3779V171.5317z"/>
						<path fill="#FFFFFF" d="M361.231,170.4878c0,0.8286-0.6719,1.5-1.5,1.5h-26c-0.8281,0-1.5-0.6714-1.5-1.5l0,0
							c0-0.8286,0.6719-1.5,1.5-1.5h26C360.5591,168.9878,361.231,169.6592,361.231,170.4878L361.231,170.4878z"/>
					</g>
				</g>
			</g>
			<g>
				<g>
					<path fill="#C4D5DC" d="M321.231,86.1294v27.5122c0,0.4507,0.1201,1.1353-0.1562,1.4522
						c-0.3311,0.3818-0.5333,0.894-1.0772,0.894h-36.6367c-0.1553,0-0.3067,0-0.4502,0l-0.3633-0.2603
						c-0.7764-0.4321-1.3164-1.246-1.3164-2.0859V86.1294c0-0.9951,1.1348-1.1416,2.1299-1.1416h36.6367
						C320.9927,84.9878,321.231,85.1343,321.231,86.1294z"/>
					<path fill="#DEEBF0" d="M321.231,86.1289v2.7637l-19.9424,12.7353L281.231,88.8545v-2.7256
						c0-0.9951,1.1309-1.1411,2.126-1.1411h36.6445C320.9956,84.9878,321.231,85.1338,321.231,86.1289z"/>
				</g>
				<g>
					<path fill="#B6D1DC" d="M348.231,104.2813v27.5122c0,0.4502-0.2002,1.0586-0.4766,1.3759
						c-0.3281,0.3819-0.8496,0.8184-1.3945,0.8184h-36.6357c-0.1563,0-0.3067,0-0.4502,0l-0.045-0.1846
						c-0.7763-0.4316-0.998-1.1704-0.998-2.0097v-27.5122c0-0.9961,0.498-2.2935,1.4932-2.2935h36.6357
						C347.357,101.9878,348.231,103.2852,348.231,104.2813z"/>
					<path fill="#CFE7F0" d="M348.231,104.2803v2.7637l-19.9395,12.7348l-20.0605-12.7724v-2.7261
						c0-0.9956,0.4932-2.2925,1.4893-2.2925h36.6445C347.3599,101.9878,348.231,103.2847,348.231,104.2803z"/>
				</g>
				<g>
					<path fill="#B7D1E6" d="M252.1753,41.7988c0,0.3238-0.0752,0.565-0.2207,0.7222c-0.1474,0.1592-0.3349,0.27-0.5605,0.335
						c-0.2285,0.0644-0.4746,0.103-0.7373,0.1152c-0.2656,0.0122-0.5156,0.0347-0.75,0.0674l-0.6797,0.0722
						c0.1924,1.4346,0.3125,2.8663,0.3564,4.2964c0.0479,1.4302,0.0713,2.8745,0.0713,4.333c0,0.4537-0.0136,0.9336-0.039,1.44
						c-0.0235,0.5058-0.0821,1.0088-0.1748,1.5068c-0.0928,0.4986-0.2276,0.9741-0.4034,1.4282
						c-0.1767,0.4537-0.416,0.8531-0.7187,1.1968c-0.3018,0.3443-0.6768,0.6201-1.1201,0.8267
						c-0.4453,0.206-0.9795,0.31-1.6006,0.31c-0.7149,0-1.3496-0.1479-1.9082-0.4438c-0.5586-0.2954-1.0313-0.6826-1.418-1.1602
						c-0.3857-0.478-0.6806-1.0234-0.8818-1.6352c-0.2012-0.6113-0.3028-1.2334-0.3028-1.8657c0-0.1289,0.0059-0.3399,0.0186-0.6314
						c0.0137-0.292,0.0469-0.5893,0.1025-0.8935c0.0528-0.3038,0.1377-0.5718,0.251-0.8023c0.1123-0.2309,0.2666-0.3462,0.46-0.3462
						c0.1094,0,0.2461,0.0269,0.4101,0.0791c0.1631,0.0528,0.3184,0.1236,0.4659,0.2129c0.1464,0.0889,0.2724,0.1924,0.3769,0.3101
						c0.1055,0.1167,0.1572,0.2407,0.1572,0.3706c0,0.3076-0.0371,0.6069-0.1123,0.8994c-0.0752,0.291-0.1133,0.5918-0.1133,0.8984
						c0,0.3325,0.0499,0.7017,0.1504,1.1065c0.1016,0.4052,0.252,0.7876,0.4541,1.1484c0.2012,0.3608,0.4541,0.6626,0.7627,0.9058
						c0.3067,0.2431,0.6641,0.3637,1.0762,0.3637c0.3018,0,0.5606-0.0542,0.7744-0.1635c0.2139-0.1094,0.3955-0.2554,0.542-0.4375
						c0.1465-0.1822,0.2647-0.3911,0.3535-0.626c0.0879-0.2349,0.1612-0.4736,0.2207-0.7173
						c0.1914-0.8174,0.3037-1.647,0.333-2.4849c0.0293-0.8383,0.043-1.687,0.043-2.5463c0-1.1099-0.0254-2.2198-0.0801-3.3296
						c-0.0556-1.1109-0.1533-2.2203-0.2959-3.3306c-0.5713,0.0654-1.1338,0.1338-1.6884,0.207
						c-0.5557,0.0723-1.1182,0.1094-1.6885,0.1094c-0.1426,0-0.2539-0.0288-0.334-0.0854
						c-0.0801-0.0562-0.1191-0.1578-0.1191-0.3038c0-0.2832,0.0878-0.5,0.2636-0.6503c0.1758-0.1495,0.3994-0.2569,0.668-0.3218
						c0.4453-0.1216,0.9014-0.208,1.3672-0.2613c0.4658-0.0522,0.9258-0.1113,1.3789-0.1762v-0.1944
						c0-0.1377,0.0508-0.2251,0.1523-0.2612c0.0996-0.0366,0.209-0.0552,0.3282-0.0552c0.1748,0,0.3476,0.0249,0.5146,0.0733
						c0.168,0.0488,0.3242,0.1294,0.4658,0.2431c0.4727-0.0732,0.9405-0.1601,1.4063-0.2612
						c0.4658-0.1016,0.9453-0.1523,1.4414-0.1523c0.1767,0,0.3164,0.0507,0.4238,0.1523
						C252.1216,41.4927,252.1753,41.6279,252.1753,41.7988z"/>
					<path fill="#B7D1E6" d="M262.065,51.6914c0,0.1699-0.0615,0.3482-0.1875,0.5347c-0.127,0.1865-0.2656,0.3237-0.416,0.4136
						c-0.043,0.0234-0.1133,0.0483-0.2149,0.0727c-0.0996,0.0239-0.206,0.0469-0.3203,0.0664
						c-0.1133,0.0205-0.2226,0.0405-0.3271,0.0611c-0.1065,0.02-0.1875,0.0346-0.2461,0.0424l0.3027,1.7984
						c0.0918,0.5595,0.1611,1.1201,0.207,1.6836c0.0459,0.563,0.1524,1.1206,0.3213,1.6709
						c0.0166,0.0483,0.0342,0.0932,0.0489,0.1338c0.0175,0.0405,0.0263,0.0932,0.0263,0.1577c0,0.1054-0.0312,0.1865-0.0937,0.2431
						c-0.0635,0.0567-0.1377,0.0996-0.2276,0.128c-0.0869,0.0283-0.1826,0.0463-0.2822,0.0542
						c-0.1025,0.0083-0.1943,0.0122-0.2783,0.0122h-0.1768c-0.2588,0-0.458-0.0201-0.5976-0.0606
						c-0.1397-0.0405-0.2451-0.1094-0.3213-0.2065c-0.0752-0.0972-0.127-0.2207-0.1504-0.3706
						c-0.0254-0.1504-0.0557-0.334-0.0879-0.5533c-0.2031-1.4824-0.4287-2.9653-0.6807-4.4477
						c-0.5214,0.0644-1.0449,0.126-1.5693,0.1821c-0.5234,0.0562-1.0508,0.1099-1.582,0.1582l-0.4004,2.3819
						c-0.0176,0.146-0.041,0.3452-0.0713,0.5957c-0.0303,0.2509-0.0625,0.5083-0.0996,0.7715
						c-0.0381,0.2631-0.0811,0.5083-0.127,0.7353c-0.0449,0.2271-0.0986,0.3931-0.1582,0.4985
						c-0.0488,0.0972-0.0957,0.1661-0.1386,0.2061c-0.0411,0.0405-0.1202,0.061-0.2374,0.061c-0.1513,0-0.3007-0.0263-0.4482-0.0791
						c-0.1465-0.0522-0.2783-0.126-0.3896-0.2182c-0.1133-0.0933-0.2051-0.2046-0.2715-0.335
						c-0.0674-0.1289-0.1016-0.2749-0.1016-0.4375c0-0.1611,0.0186-0.3237,0.0576-0.4858c0.0381-0.1617,0.0694-0.3238,0.0938-0.4859
						c0.0928-0.5351,0.1758-1.0674,0.2529-1.5981c0.0742-0.5303,0.1582-1.0601,0.251-1.586
						c-0.0586-0.0087-0.125-0.0224-0.2012-0.0424c-0.0752-0.0201-0.1494-0.0469-0.2197-0.0791
						c-0.0723-0.0323-0.1328-0.0733-0.1836-0.1221c-0.0508-0.0484-0.0762-0.105-0.0762-0.1699c0-0.0811,0.0322-0.1558,0.0957-0.2246
						c0.0625-0.0694,0.1387-0.1338,0.2266-0.1949c0.0879-0.0605,0.1777-0.1128,0.2715-0.1577
						c0.0908-0.0444,0.1718-0.0791,0.2383-0.103c0.1757-1.1343,0.3447-2.2651,0.5039-3.3911
						c0.1591-1.126,0.3017-2.2647,0.4287-3.4151c0.0332-0.3076,0.0625-0.6196,0.0888-0.9355
						c0.0244-0.3164,0.0518-0.6323,0.0811-0.9478c0.0283-0.3164,0.0664-0.6284,0.1142-0.936
						c0.045-0.3081,0.1094-0.6157,0.1944-0.9238c0.0762-0.2915,0.2012-0.5269,0.3779-0.7051
						c0.1758-0.1782,0.4365-0.2671,0.7822-0.2671c0.1006,0,0.1983,0.0083,0.2959,0.0239c0.0957,0.0166,0.1827,0.0489,0.2569,0.0972
						c0.2187,0.1055,0.4463,0.394,0.6806,0.8633c0.2354,0.4702,0.4698,1.039,0.7061,1.7075c0.2334,0.6685,0.46,1.3911,0.6748,2.1694
						c0.2129,0.7779,0.4082,1.5313,0.585,2.2603c0.1757,0.7295,0.3271,1.3877,0.4531,1.9751
						c0.126,0.5874,0.2187,1.0229,0.2773,1.3061c0.1768-0.0239,0.3516-0.0463,0.5283-0.0664
						c0.1768-0.0205,0.3526-0.0307,0.5293-0.0307c0.085,0,0.1817,0.0044,0.2891,0.0127c0.1104,0.0073,0.2129,0.0302,0.3096,0.0659
						c0.0967,0.0371,0.1767,0.0898,0.2392,0.1587C262.0347,51.4868,262.065,51.5776,262.065,51.6914z M258.1109,51.5942
						c-0.2188-1.1508-0.457-2.291-0.7119-3.4218c-0.2559-1.1299-0.5576-2.2578-0.9004-3.3843
						c-0.1524,1.2236-0.3164,2.439-0.4922,3.646c-0.1768,1.2075-0.3652,2.415-0.5664,3.6221
						c0.4521-0.065,0.9004-0.1353,1.3418-0.2124C257.2222,51.7666,257.6646,51.6831,258.1109,51.5942z"/>
					<path fill="#B7D1E6" d="M270.1568,46.2466c0,1.9204-0.167,3.8144-0.4981,5.6816c-0.332,1.8677-0.8877,3.6929-1.6689,5.4746
						c0.0264,0.0572,0.0635,0.1382,0.1123,0.2432c0.0518,0.1055,0.1016,0.2173,0.1514,0.335
						c0.0517,0.1172,0.0947,0.2285,0.1338,0.3335c0.038,0.1054,0.0556,0.1826,0.0556,0.2314c0,0.1133-0.0342,0.1982-0.0996,0.2554
						c-0.0684,0.0561-0.1523,0.0971-0.2519,0.1211c-0.1016,0.0244-0.2051,0.0371-0.3086,0.0371c-0.1065,0-0.1963,0-0.2715,0
						c-0.2198,0-0.4121-0.0127-0.5791-0.0371c-0.169-0.024-0.336-0.1099-0.5039-0.2549c-0.1182-0.0977-0.2549-0.3423-0.4102-0.7354
						c-0.1553-0.3935-0.3252-0.8828-0.5098-1.4707c-0.1845-0.5874-0.3769-1.25-0.5742-1.9868
						c-0.1972-0.7368-0.3935-1.4971-0.5918-2.2793c-0.1972-0.7817-0.3877-1.5596-0.5732-2.333
						c-0.1856-0.7734-0.3535-1.4927-0.5108-2.1577c-0.1543-0.6641-0.289-1.2515-0.4013-1.7617
						c-0.1143-0.5108-0.2002-0.8872-0.2598-1.1304c-0.0918-0.4131-0.1943-0.8218-0.3086-1.2275
						c-0.1123-0.4048-0.1699-0.8223-0.1699-1.252c0-0.1455,0.0557-0.2388,0.1631-0.2793c0.1103-0.04,0.2236-0.0605,0.3408-0.0605
						c0.2441,0,0.4736,0.0405,0.6934,0.1216c0.2177,0.0805,0.3896,0.2182,0.5166,0.413c0.0664,0.1133,0.1191,0.2652,0.1572,0.4556
						c0.0371,0.1904,0.0693,0.3462,0.0937,0.4678c0.2705,1.1831,0.5469,2.3598,0.8321,3.5312
						c0.2861,1.1709,0.5879,2.3433,0.9072,3.5176c0.2021,0.7378,0.4004,1.4663,0.5986,2.188
						c0.1973,0.7212,0.418,1.4424,0.6621,2.1631c0.419-1.2798,0.7178-2.5884,0.8936-3.9258
						c0.1768-1.3369,0.2646-2.6777,0.2646-4.022c0-0.2109-0.0019-0.4741-0.0058-0.7905c-0.0039-0.3159-0.0108-0.6538-0.0195-1.0146
						c-0.0079-0.3604-0.0235-0.731-0.044-1.1119c-0.0215-0.3813-0.0488-0.7451-0.081-1.0942
						c-0.0342-0.3477-0.0782-0.6699-0.1329-0.9663c-0.0546-0.2949-0.1191-0.5322-0.1943-0.7109
						c-0.0264-0.0645-0.0537-0.1236-0.083-0.1758c-0.0293-0.0528-0.0449-0.1153-0.0449-0.1885c0-0.0972,0.039-0.1743,0.1142-0.231
						c0.0762-0.0566,0.1641-0.1015,0.2657-0.1338c0.0996-0.0327,0.2041-0.0527,0.3144-0.061
						c0.1084-0.0073,0.1963-0.0117,0.2637-0.0117c0.2275,0,0.4258,0.022,0.5976,0.0669c0.1729,0.0449,0.3438,0.1518,0.5118,0.3218
						c0.0752,0.0732,0.1377,0.2392,0.1884,0.4985c0.0508,0.2588,0.0918,0.5669,0.126,0.9233c0.0332,0.357,0.0606,0.7398,0.082,1.149
						c0.0205,0.4091,0.0352,0.8042,0.043,1.1845c0.0088,0.3809,0.0137,0.7212,0.0137,1.021
						C270.1568,45.8784,270.1568,46.1006,270.1568,46.2466z"/>
					<path fill="#B7D1E6" d="M281.4351,51.6914c0,0.1699-0.0625,0.3482-0.1904,0.5347c-0.125,0.1865-0.2647,0.3237-0.4151,0.4136
						c-0.0429,0.0234-0.1132,0.0483-0.2138,0.0727c-0.1016,0.0239-0.209,0.0469-0.3213,0.0664
						c-0.1143,0.0205-0.2227,0.0405-0.3281,0.0611c-0.1045,0.02-0.1866,0.0346-0.2452,0.0424l0.3018,1.7984
						c0.0928,0.5595,0.1621,1.1201,0.208,1.6836c0.0459,0.563,0.1543,1.1206,0.3213,1.6709
						c0.0166,0.0483,0.0332,0.0932,0.0508,0.1338c0.0166,0.0405,0.0254,0.0932,0.0254,0.1577c0,0.1054-0.0313,0.1865-0.0948,0.2431
						c-0.0625,0.0567-0.1396,0.0996-0.2265,0.128c-0.0899,0.0283-0.1846,0.0463-0.2842,0.0542
						c-0.1006,0.0083-0.1934,0.0122-0.2764,0.0122h-0.1758c-0.2617,0-0.4609-0.0201-0.5996-0.0606
						c-0.1377-0.0405-0.2461-0.1094-0.3213-0.2065c-0.0742-0.0972-0.1259-0.2207-0.1503-0.3706
						c-0.0264-0.1504-0.0557-0.334-0.0889-0.5533c-0.2012-1.4824-0.4287-2.9653-0.6807-4.4477
						c-0.5195,0.0644-1.0439,0.126-1.5674,0.1821c-0.5253,0.0562-1.0527,0.1099-1.582,0.1582l-0.4023,2.3819
						c-0.0176,0.146-0.0401,0.3452-0.0694,0.5957c-0.0293,0.2509-0.0634,0.5083-0.1006,0.7715
						c-0.039,0.2631-0.08,0.5083-0.1269,0.7353c-0.0469,0.2271-0.0986,0.3931-0.1572,0.4985
						c-0.0498,0.0972-0.0967,0.1661-0.1387,0.2061c-0.042,0.0405-0.1221,0.061-0.2393,0.061c-0.1523,0-0.2998-0.0263-0.4472-0.0791
						c-0.1465-0.0522-0.2764-0.126-0.3907-0.2182c-0.1132-0.0933-0.2031-0.2046-0.2705-0.335
						c-0.0673-0.1289-0.1015-0.2749-0.1015-0.4375c0-0.1611,0.0195-0.3237,0.0576-0.4858c0.0371-0.1617,0.0684-0.3238,0.0937-0.4859
						c0.0928-0.5351,0.1768-1.0674,0.252-1.5981c0.0762-0.5303,0.1592-1.0601,0.2519-1.586
						c-0.0585-0.0087-0.1259-0.0224-0.2011-0.0424c-0.0762-0.0201-0.1494-0.0469-0.2207-0.0791
						c-0.0723-0.0323-0.1319-0.0733-0.1817-0.1221c-0.0517-0.0484-0.0761-0.105-0.0761-0.1699c0-0.0811,0.0312-0.1558,0.0937-0.2246
						c0.0645-0.0694,0.1397-0.1338,0.2275-0.1949c0.0889-0.0605,0.1778-0.1128,0.2715-0.1577
						c0.0909-0.0444,0.1709-0.0791,0.2373-0.103c0.1778-1.1343,0.3448-2.2651,0.5039-3.3911
						c0.1612-1.126,0.3038-2.2647,0.4297-3.4151c0.0332-0.3076,0.0625-0.6196,0.0879-0.9355
						c0.0254-0.3164,0.0528-0.6323,0.0821-0.9478c0.0302-0.3164,0.0673-0.6284,0.1132-0.936
						c0.0459-0.3081,0.1114-0.6157,0.1953-0.9238c0.0752-0.2915,0.2022-0.5269,0.379-0.7051
						c0.1767-0.1782,0.4355-0.2671,0.7802-0.2671c0.1006,0,0.1992,0.0083,0.2949,0.0239c0.0977,0.0166,0.1836,0.0489,0.2598,0.0972
						c0.2188,0.1055,0.4444,0.394,0.6797,0.8633c0.2354,0.4702,0.4717,1.039,0.7061,1.7075
						c0.2353,0.6685,0.4589,1.3911,0.6728,2.1694c0.2158,0.7779,0.4102,1.5313,0.5869,2.2603
						c0.1768,0.7295,0.3281,1.3877,0.4531,1.9751c0.127,0.5874,0.2188,1.0229,0.2764,1.3061
						c0.1768-0.0239,0.3535-0.0463,0.5303-0.0664c0.1758-0.0205,0.3525-0.0307,0.5293-0.0307c0.083,0,0.1797,0.0044,0.29,0.0127
						c0.1084,0.0073,0.2119,0.0302,0.3086,0.0659c0.0967,0.0371,0.1768,0.0898,0.2393,0.1587
						C281.4029,51.4868,281.4351,51.5776,281.4351,51.6914z M277.4781,51.5942c-0.2188-1.1508-0.4541-2.291-0.7119-3.4218
						c-0.2559-1.1299-0.5557-2.2578-0.9004-3.3843c-0.1514,1.2236-0.3145,2.439-0.4903,3.646
						c-0.1767,1.2075-0.3662,2.415-0.5674,3.6221c0.4532-0.065,0.9004-0.1353,1.3418-0.2124
						C276.5904,51.7666,277.0328,51.6831,277.4781,51.5942z"/>
				</g>
				<g>
					<path fill="#B7D1E6" d="M91.23,134.5269c0,0.2548-0.1084,0.4712-0.3247,0.6484c-0.2158,0.1772-0.4736,0.3188-0.7724,0.4248
						c-0.3003,0.105-0.605,0.1802-0.9161,0.2241c-0.3105,0.0445-0.5595,0.0664-0.7485,0.0664c-0.5327,0-1.0649-0.0854-1.5967-0.2578
						c-0.5327-0.1714-1.0093-0.4409-1.4316-0.8066c-0.3325-0.2774-0.5957-0.5767-0.7896-0.8985
						c-0.1943-0.3212-0.3413-0.6591-0.4414-1.0146c-0.0996-0.355-0.1631-0.7236-0.1909-1.1069
						c-0.0278-0.3819-0.042-0.7842-0.042-1.2056c-0.022-0.8213-0.039-1.6416-0.0498-2.4629
						c-0.0112-0.8203-0.0498-1.6411-0.1167-2.4619c-0.022-0.1773-0.0386-0.3599-0.0498-0.5493
						c-0.0107-0.1885-0.0332-0.377-0.0664-0.5655c-0.0332-0.1884-0.0776-0.3711-0.1328-0.5493
						c-0.0557-0.1772-0.1397-0.3432-0.25-0.4985c-0.1226,0.0332-0.2437,0.064-0.3657,0.0908
						c-0.1221,0.0278-0.2442,0.042-0.3667,0.042c-0.3218,0-0.5293-0.0723-0.6236-0.2168c-0.0937-0.1435-0.1411-0.3599-0.1411-0.6484
						c0-0.3218,0.0498-0.5742,0.1499-0.7564c0.0991-0.1836,0.2217-0.3305,0.3657-0.4419c0.1441-0.1103,0.3052-0.2094,0.482-0.2993
						c0.1782-0.0889,0.3388-0.2051,0.4829-0.3496c0.1445-0.1436,0.2666-0.3403,0.3662-0.5908
						c0.0996-0.249,0.1494-0.5899,0.1494-1.0225c0-0.5434-0.0806-1.0815-0.2412-1.6137c-0.1602-0.5328-0.3408-1.0674-0.5405-1.606
						c-0.1997-0.5376-0.3794-1.0864-0.5406-1.647c-0.1611-0.56-0.2412-1.1445-0.2412-1.7554c0-0.5761,0.0918-1.1059,0.2745-1.5888
						c0.1826-0.482,0.4433-0.8931,0.7822-1.2305c0.3384-0.3384,0.7431-0.6015,1.2143-0.7905
						c0.4712-0.1885,1.0005-0.2827,1.5889-0.2827c0.1333,0,0.3408,0.0219,0.6235,0.0664c0.2832,0.0439,0.5689,0.1108,0.857,0.1992
						c0.2881,0.0898,0.5405,0.2002,0.7568,0.333c0.2168,0.1328,0.3247,0.2886,0.3247,0.4658c0,0.1436-0.0752,0.2691-0.2246,0.374
						c-0.1499,0.106-0.3242,0.1919-0.5239,0.2583c-0.1997,0.0665-0.4024,0.1163-0.6074,0.15
						c-0.2051,0.0332-0.3628,0.0498-0.4747,0.0498c-0.0996,0-0.1987-0.0059-0.2993-0.0166
						c-0.0996-0.0108-0.1992-0.0166-0.2988-0.0166c-0.5552,0-0.9546,0.1635-1.1982,0.4902
						c-0.2442,0.3276-0.3663,0.7519-0.3663,1.2734c0,0.6211,0.0889,1.2256,0.2662,1.813c0.1777,0.5884,0.374,1.1704,0.5908,1.7466
						c0.2163,0.5776,0.416,1.1597,0.5991,1.7476c0.1831,0.5883,0.2749,1.1923,0.2749,1.8134c0,0.5547-0.1006,1.084-0.2998,1.5889
						c-0.2002,0.5044-0.4995,0.9512-0.8989,1.3394c0.3335,0.3881,0.5825,0.8818,0.749,1.4804
						c0.1665,0.5991,0.2832,1.2451,0.3491,1.9385c0.0664,0.6934,0.1006,1.4033,0.1006,2.1294c0,0.7266,0.0103,1.417,0.0327,2.0718
						c0.022,0.6543,0.0689,1.2387,0.1416,1.7549c0.0718,0.5156,0.2139,0.9067,0.4238,1.1728
						c0.1666,0.2217,0.3692,0.394,0.6075,0.5156c0.2387,0.1226,0.5024,0.1831,0.7905,0.1831c0.2104,0,0.3994-0.0332,0.5654-0.0996
						c0.1665-0.0669,0.3189-0.1382,0.458-0.2163c0.1382-0.0771,0.2681-0.1499,0.3907-0.2163
						c0.1215-0.0664,0.2495-0.1001,0.3828-0.1001c0.1435,0,0.2798,0.0503,0.4072,0.1504c0.1279,0.0991,0.2388,0.2246,0.333,0.374
						c0.0938,0.1494,0.1665,0.3076,0.2163,0.4741C91.2056,134.2603,91.23,134.4048,91.23,134.5269z"/>
					<path fill="#B7D1E6" d="M99.6685,121.9155c0,0.333-0.0474,0.5884-0.1416,0.7652c-0.0938,0.1777-0.2163,0.3222-0.3652,0.4331
						c-0.1504,0.1108-0.3081,0.2099-0.4746,0.2993c-0.1661,0.0889-0.3248,0.2051-0.4742,0.3496
						c-0.1499,0.144-0.2719,0.3413-0.3662,0.5908c-0.0947,0.249-0.1411,0.5904-0.1411,1.0225c0,0.5547,0.0801,1.0957,0.2412,1.6225
						c0.1607,0.5269,0.335,1.0591,0.5235,1.5977c0.1889,0.5376,0.3637,1.0869,0.5244,1.6465
						c0.1606,0.5605,0.2412,1.1455,0.2412,1.7554c0,0.5883-0.0908,1.1201-0.2744,1.5971c-0.1831,0.4766-0.4444,0.8848-0.7818,1.2222
						c-0.3383,0.3389-0.7461,0.602-1.2226,0.791c-0.4776,0.188-1.0044,0.2822-1.5811,0.2822c-0.1333,0-0.3408-0.0219-0.624-0.0664
						c-0.2827-0.0439-0.5659-0.1103-0.8481-0.1992c-0.2828-0.0893-0.5303-0.1973-0.7403-0.3252
						c-0.2109-0.1269-0.3164-0.2734-0.3164-0.4399c0-0.1446,0.0723-0.2691,0.2158-0.3745c0.1441-0.106,0.3169-0.1914,0.5161-0.2583
						c0.1998-0.066,0.3995-0.1163,0.5992-0.1495c0.1997-0.0332,0.3549-0.0502,0.4658-0.0502h0.6323
						c0.5322,0,0.9204-0.1636,1.1646-0.4908c0.2431-0.3266,0.3662-0.7514,0.3662-1.2724c0-0.6211-0.0918-1.2256-0.2744-1.8135
						c-0.1831-0.5879-0.3833-1.1699-0.5992-1.7466c-0.2163-0.5771-0.4135-1.1597-0.5908-1.7471
						c-0.1772-0.5883-0.2661-1.1919-0.2661-1.8139c0-0.5542,0.0996-1.0782,0.2993-1.5723c0.1997-0.4936,0.499-0.9341,0.8985-1.3223
						c-0.3326-0.3881-0.5791-0.8842-0.7403-1.4892c-0.1611-0.6045-0.2744-1.2529-0.3413-1.9463
						c-0.0664-0.6939-0.1025-1.4063-0.1079-2.1382c-0.0059-0.7319-0.0195-1.4248-0.0415-2.0801
						c-0.0225-0.6538-0.0698-1.2387-0.1411-1.7548c-0.0728-0.5162-0.2139-0.9068-0.4248-1.1724
						c-0.1553-0.2222-0.355-0.3941-0.5987-0.5161c-0.2441-0.1221-0.499-0.1831-0.7656-0.1831c-0.2217,0-0.4155,0.0332-0.582,0.0996
						c-0.167,0.0669-0.3193,0.1387-0.4575,0.2163c-0.1387,0.0776-0.2725,0.1499-0.3994,0.2163
						c-0.1275,0.0674-0.2579,0.1001-0.3912,0.1001c-0.1445,0-0.2768-0.0503-0.3989-0.1499
						c-0.1225-0.0996-0.2304-0.2246-0.3242-0.374c-0.0942-0.1504-0.1694-0.3081-0.2251-0.4746
						c-0.0552-0.1661-0.083-0.3106-0.083-0.4317c0-0.2558,0.1079-0.4722,0.3242-0.6494c0.2168-0.1777,0.4746-0.3188,0.7739-0.4248
						c0.2994-0.105,0.604-0.1802,0.9151-0.2241c0.31-0.0445,0.56-0.0664,0.7485-0.0664c0.5547,0,1.0923,0.0859,1.6143,0.2578
						c0.5205,0.1714,0.9922,0.4409,1.4135,0.8066c0.3331,0.2886,0.5962,0.5967,0.7906,0.9239
						c0.1938,0.3271,0.3413,0.6645,0.4404,1.0146c0.1001,0.3486,0.167,0.7153,0.2002,1.0977
						c0.0332,0.3828,0.0552,0.7797,0.0659,1.1894c0.023,0.8325,0.0337,1.6563,0.0337,2.4707c0,0.8154,0.0332,1.6343,0.0996,2.4541
						c0.0112,0.1782,0.0249,0.3609,0.0415,0.5498c0.0171,0.188,0.042,0.377,0.0747,0.565c0.0342,0.1889,0.0777,0.3745,0.1338,0.5571
						c0.0557,0.1836,0.1382,0.3472,0.2495,0.4912c0.1328-0.0332,0.2603-0.0645,0.3828-0.0913
						c0.1221-0.0278,0.2496-0.042,0.3819-0.042c0.2998,0,0.497,0.0776,0.5908,0.2329
						C99.6211,121.4385,99.6685,121.6499,99.6685,121.9155z"/>
				</g>
				<g>
					<path fill="#B7D1E6" d="M179.1592,168.3696c0,0.1607-0.0346,0.3086-0.1035,0.4463c-0.0684,0.1944-0.1343,0.3545-0.1968,0.4805
						c-0.0634,0.126-0.1411,0.2231-0.2319,0.2915c-0.0918,0.0688-0.2036,0.1172-0.335,0.146
						c-0.1308,0.0283-0.2993,0.043-0.5063,0.043h-4.666c-0.0801,0-0.1802-0.003-0.3003-0.0088
						c-0.1201-0.0059-0.2403-0.023-0.3599-0.0513c-0.1206-0.0288-0.2231-0.0747-0.3091-0.1372
						c-0.0859-0.063-0.1289-0.1572-0.1289-0.2832c0-0.2744,0.0977-0.5176,0.292-0.729c0.1944-0.2124,0.4292-0.3462,0.7031-0.4038
						c0.229-0.0337,0.4576-0.0537,0.6871-0.0596c0.2275-0.0054,0.457-0.02,0.6855-0.043c0.6523-0.0346,1.3042-0.0717,1.9561-0.1118
						c0.6518-0.0395,1.3144-0.06,1.9902-0.06c0.0796,0,0.1684,0.0029,0.2656,0.0088c0.0972,0.0053,0.189,0.0224,0.2749,0.0512
						c0.0855,0.0288,0.1543,0.0772,0.2056,0.1465C179.1329,168.1636,179.1592,168.2554,179.1592,168.3696z"/>
					<path fill="#B7D1E6" d="M190.9317,167.0659c0,0.1372-0.0371,0.2461-0.1113,0.3262c-0.0748,0.0801-0.1631,0.1372-0.2662,0.1709
						c-0.1025,0.0352-0.2177,0.0576-0.3432,0.0688c-0.126,0.0113-0.2403,0.0176-0.3433,0.0176
						c-0.2739,0-0.5088-0.0029-0.7031-0.0088c-0.1948-0.0053-0.3662-0.0424-0.5147-0.1113
						c-0.1489-0.0684-0.2802-0.1748-0.3945-0.3174c-0.1147-0.143-0.229-0.352-0.3437-0.6264
						c-0.4688-1.0176-0.8775-2.0611-1.2266-3.1309c-0.3486-1.0693-0.7061-2.1416-1.0723-3.2168
						c-0.2973,0.7778-0.6113,1.5439-0.9433,2.2993c-0.3321,0.7539-0.6685,1.5093-1.0127,2.2647
						c-0.1597,0.3427-0.3081,0.6889-0.4458,1.0376c-0.1372,0.3491-0.3086,0.6894-0.5142,1.0205
						c-0.103,0.1606-0.2041,0.2861-0.3008,0.3774c-0.0971,0.0913-0.2485,0.1372-0.4546,0.1372
						c-0.1489,0-0.3203-0.0395-0.5146-0.1201c-0.1948-0.0801-0.3809-0.1855-0.5576-0.3169
						c-0.1768-0.1318-0.3286-0.2808-0.4546-0.4463c-0.126-0.1655-0.1885-0.3286-0.1885-0.4888c0-0.0683,0.0571-0.246,0.1714-0.5317
						c0.1143-0.2861,0.2632-0.6265,0.4458-1.021c0.1831-0.3945,0.3804-0.8237,0.5918-1.2871
						c0.2119-0.4634,0.4175-0.9058,0.6182-1.3291c0.2002-0.4233,0.3769-0.8037,0.5317-1.1411
						c0.1543-0.3374,0.2598-0.5801,0.3174-0.729c0.2749-0.6402,0.5176-1.2842,0.729-1.9302
						c0.2114-0.6465,0.4141-1.2959,0.6089-1.9477c-0.0684-0.2056-0.1768-0.5372-0.3252-0.9947
						c-0.1494-0.457-0.3267-0.9868-0.5322-1.5874c-0.2056-0.6001-0.4288-1.2495-0.669-1.9468
						c-0.2407-0.6977-0.4809-1.4038-0.7207-2.1196c-0.2402-0.7138-0.4746-1.4062-0.7036-2.0752
						c-0.229-0.6689-0.4292-1.2724-0.6006-1.81c-0.1714-0.5371-0.3086-0.9834-0.4116-1.3384
						c-0.103-0.3545-0.1543-0.5723-0.1543-0.6519c0-0.103,0.0312-0.1831,0.0947-0.2402c0.062-0.0571,0.1392-0.103,0.2315-0.1372
						c0.0913-0.0342,0.1855-0.0542,0.2827-0.0601c0.0971-0.0058,0.1802-0.0083,0.2485-0.0083c0.481,0,0.8555,0.1026,1.1235,0.3081
						c0.2696,0.2066,0.501,0.5152,0.6954,0.9268c0.5146,1.144,0.9721,2.3105,1.3725,3.5c0.3999,1.1894,0.8008,2.3794,1.2012,3.5684
						c0.2056-1.0171,0.4087-2.0303,0.6089-3.0362c0.1997-1.0068,0.3857-2.0185,0.5576-3.0371
						c0.0459-0.2173,0.0913-0.4917,0.1372-0.8237c0.0459-0.3311,0.0942-0.6748,0.1455-1.0293
						c0.0513-0.3545,0.1089-0.689,0.1719-1.0034c0.0625-0.3145,0.1396-0.563,0.2319-0.7461
						c0.0571-0.126,0.1172-0.2149,0.1797-0.2661c0.063-0.0513,0.1743-0.0777,0.335-0.0777c0.1826,0,0.3711,0.0347,0.5659,0.1035
						c0.1943,0.0684,0.3686,0.1656,0.5229,0.2911c0.1548,0.1264,0.2803,0.2744,0.378,0.4462
						c0.0971,0.1719,0.1455,0.3604,0.1455,0.5664c0,0.8121-0.0855,1.6124-0.2569,2.4019c-0.1714,0.7891-0.3261,1.5898-0.4629,2.4019
						c-0.2636,1.4296-0.5151,2.8564-0.7553,4.2802c-0.2403,1.4243-0.5493,2.8345-0.9273,4.23
						c0.5498,1.6582,1.1104,3.2998,1.6826,4.9234c0.5718,1.624,1.2002,3.2319,1.8868,4.8208
						c0.0908,0.1953,0.1826,0.3862,0.2744,0.5751C190.8863,166.6284,190.9317,166.8374,190.9317,167.0659z"/>
				</g>
				<g>
					<path fill="#B7D1E6" d="M181.5415,215.1411c0,0.1182-0.059,0.2178-0.1767,0.2988c-0.1187,0.0801-0.2583,0.1446-0.419,0.1929
						c-0.1611,0.0484-0.3256,0.0806-0.4921,0.0967c-0.1661,0.0156-0.2984,0.0239-0.3941,0.0239c-0.1938,0-0.3608-0.0376-0.5-0.1123
						c-0.1396-0.0752-0.2744-0.1885-0.4033-0.3384c-0.1294-0.1396-0.3193-0.3681-0.5718-0.685
						c-0.2524-0.3169-0.5317-0.6743-0.8384-1.0718c-0.3061-0.3979-0.6206-0.8198-0.9433-1.2661
						c-0.3223-0.4453-0.6148-0.8696-0.878-1.273c-0.2631-0.4028-0.4785-0.7627-0.645-1.0795
						c-0.167-0.3174-0.2495-0.5562-0.2495-0.7178c0-0.2793,0.0806-0.5454,0.2417-0.7979c0.1611-0.2519,0.3062-0.4917,0.4351-0.7173
						l2.3535-4.3842c0.0425-0.0957,0.0991-0.2173,0.1689-0.3628c0.0699-0.145,0.1451-0.2818,0.2251-0.4107
						c0.0816-0.1284,0.1724-0.2417,0.2749-0.3384c0.1021-0.0966,0.2115-0.145,0.3301-0.145c0.1182,0,0.2363,0.0323,0.3545,0.0967
						c0.1182,0.0645,0.2256,0.145,0.3223,0.2422c0.0967,0.0967,0.1743,0.2041,0.2334,0.3218
						c0.0595,0.1181,0.0898,0.2314,0.0898,0.3384c0,0.1831-0.0327,0.3466-0.0981,0.4921c-0.064,0.1451-0.1284,0.293-0.1924,0.4424
						c-0.4409,0.8706-0.8814,1.7412-1.3223,2.6114c-0.4404,0.8706-0.8808,1.7412-1.3213,2.6113
						c0.1826,0.3657,0.4136,0.7495,0.6934,1.1528c0.2798,0.4028,0.5771,0.8062,0.894,1.2085
						c0.3169,0.4028,0.6368,0.7954,0.9595,1.1768c0.3223,0.3818,0.6231,0.7285,0.9024,1.0395
						c0.0747,0.0864,0.1669,0.1831,0.2744,0.2905c0.1074,0.1075,0.2114,0.2198,0.3139,0.3384
						c0.1021,0.1182,0.1905,0.2412,0.2661,0.3711C181.5039,214.9155,181.5415,215.0337,181.5415,215.1411z"/>
					<path fill="#B7D1E6" d="M190.0713,198.8296c0,0.3867-0.0478,0.7661-0.1445,1.1357c-0.0967,0.3711-0.188,0.7447-0.2744,1.1202
						c-0.3443,1.5908-0.6719,3.1733-0.9829,4.747c-0.312,1.5747-0.6392,3.1626-0.9834,4.7632
						c-0.3223,1.6016-0.6612,3.1973-1.0152,4.7876c-0.3545,1.5899-0.6723,3.1856-0.9511,4.7866
						c-0.022,0.1509-0.0435,0.3116-0.0645,0.4834c-0.0215,0.1724-0.0591,0.3365-0.1128,0.4922
						c-0.0542,0.1558-0.1347,0.2842-0.2422,0.3867c-0.1074,0.1016-0.2573,0.1529-0.4511,0.1529
						c-0.1504,0-0.3301-0.0293-0.5401-0.0884c-0.209-0.0591-0.4087-0.1397-0.5962-0.2422c-0.188-0.1016-0.3462-0.2251-0.4756-0.3706
						c-0.1284-0.145-0.1933-0.3086-0.1933-0.4917c0-0.064,0.0049-0.1284,0.0166-0.1934c0.0107-0.0644,0.0156-0.1289,0.0156-0.1928
						c0.1611-0.774,0.3335-1.5479,0.5156-2.3213c0.1827-0.7735,0.3658-1.5474,0.5484-2.3213l3.1914-14.2808
						c0.043-0.1714,0.0937-0.4214,0.1533-0.75c0.0586-0.3271,0.1231-0.6601,0.1929-0.999c0.0698-0.3384,0.1426-0.6577,0.2178-0.959
						c0.0751-0.3008,0.1455-0.5156,0.2094-0.6445c0.065-0.1182,0.1294-0.2017,0.1934-0.25
						c0.0644-0.0484,0.1616-0.0723,0.2905-0.0723c0.1719,0,0.3467,0.0347,0.5239,0.105c0.1768,0.0698,0.3379,0.1636,0.4834,0.2817
						c0.1451,0.1187,0.2608,0.2583,0.3467,0.419C190.0284,198.4746,190.0713,198.6465,190.0713,198.8296z"/>
					<path fill="#B7D1E6" d="M198.1827,208.5972c0,0.1284-0.0245,0.2583-0.0728,0.3867c-0.0483,0.1289-0.1074,0.2554-0.1768,0.3789
						c-0.0708,0.1235-0.1455,0.2471-0.2265,0.3706c-0.0801,0.1235-0.1475,0.2398-0.2007,0.3462l-2.354,4.3848
						c-0.0537,0.0962-0.1123,0.2177-0.1768,0.3623c-0.0649,0.145-0.1372,0.2876-0.2182,0.4277
						c-0.0801,0.1397-0.1714,0.2573-0.2739,0.354c-0.1016,0.0972-0.212,0.145-0.3306,0.145c-0.1177,0-0.2359-0.0317-0.354-0.0962
						c-0.1182-0.0644-0.2261-0.1455-0.3233-0.2422c-0.0957-0.0966-0.1743-0.2065-0.2334-0.33
						c-0.0586-0.1231-0.0883-0.2447-0.0883-0.3628c0-0.1616,0.0327-0.3198,0.0966-0.4756c0.0645-0.1553,0.1294-0.2979,0.1934-0.4273
						c0.4404-0.8916,0.8814-1.7675,1.3218-2.6274c0.4409-0.8589,0.8808-1.7349,1.3218-2.627
						c-0.1827-0.3657-0.4136-0.749-0.6929-1.1523c-0.2798-0.4028-0.5777-0.8061-0.895-1.2085
						c-0.3169-0.4033-0.6392-0.7954-0.9668-1.1772c-0.3282-0.3809-0.626-0.7281-0.8946-1.0401
						c-0.0752-0.0742-0.1665-0.1655-0.2739-0.2734c-0.1074-0.1069-0.2124-0.2207-0.314-0.3384
						c-0.1025-0.1186-0.1914-0.2363-0.2661-0.3545c-0.0756-0.1181-0.1128-0.2363-0.1128-0.355c0-0.1289,0.0586-0.2334,0.1773-0.3139
						c0.1177-0.0811,0.2573-0.1426,0.4189-0.1856c0.1612-0.0434,0.3247-0.0727,0.4912-0.0893
						c0.167-0.0157,0.2984-0.0235,0.3951-0.0235c0.1933,0,0.3598,0.0376,0.5,0.1128c0.1396,0.0752,0.2739,0.1773,0.4028,0.3062
						c0.1289,0.1504,0.3193,0.3847,0.5723,0.7011c0.2519,0.3169,0.5317,0.6744,0.8383,1.0718
						c0.3057,0.398,0.6202,0.8198,0.9424,1.2652c0.3228,0.4463,0.6153,0.8706,0.8784,1.2734
						c0.2637,0.4033,0.4786,0.7661,0.6455,1.0879C198.0992,208.1943,198.1827,208.4356,198.1827,208.5972z"/>
				</g>
				<g>
					<path fill="#B7D1E6" d="M12.5928,232.4185c0,0.2763-0.0044,0.6054-0.0122,0.9922c-0.0083,0.3847-0.0264,0.7998-0.0547,1.247
						c-0.0278,0.4463-0.0727,0.9053-0.1338,1.376c-0.0605,0.4697-0.1445,0.9336-0.2495,1.3887
						c-0.1059,0.4531-0.2392,0.8838-0.4013,1.289c-0.1631,0.4063-0.3594,0.7618-0.5909,1.0664
						c-0.2314,0.3038-0.5014,0.545-0.8095,0.7246c-0.3086,0.1778-0.6621,0.2676-1.0601,0.2676
						c-0.3813,0-0.7178-0.0801-1.0102-0.2373c-0.2916-0.1582-0.5459-0.3681-0.7608-0.6279
						c-0.2148-0.2598-0.3994-0.5547-0.5537-0.8887c-0.1543-0.331-0.2822-0.6777-0.3838-1.0342
						c-0.1011-0.3574-0.185-0.7119-0.249-1.0644c-0.0654-0.3545-0.1182-0.6768-0.1592-0.9688
						c-0.1128-0.7705-0.1982-1.542-0.2554-2.3134c-0.0566-0.7705-0.0849-1.5508-0.0849-2.3379c0-0.7871,0.0327-1.5762,0.0967-2.3682
						c0.0654-0.791,0.2031-1.5596,0.4145-2.3066c-0.0483-0.0733-0.0933-0.146-0.1343-0.2198
						c-0.0405-0.0722-0.061-0.1543-0.061-0.2431c0-0.0484,0.0044-0.0908,0.0127-0.128c0.0078-0.0361,0.0195-0.0747,0.0366-0.1157
						c0.105-0.3242,0.2471-0.6655,0.4263-1.0224c0.1777-0.357,0.3911-0.6841,0.6391-0.98c0.2471-0.2969,0.5293-0.5401,0.8457-0.731
						c0.3164-0.1904,0.6705-0.2856,1.0596-0.2856c0.3413,0,0.645,0.0654,0.9126,0.1948c0.2686,0.1294,0.5039,0.3042,0.707,0.5234
						c0.2027,0.2193,0.377,0.4688,0.5235,0.7486c0.146,0.2798,0.2695,0.5742,0.3716,0.8833
						c0.101,0.3081,0.1865,0.6172,0.2548,0.9243c0.0689,0.3091,0.1275,0.5972,0.1763,0.8647
						c0.1631,0.8931,0.2847,1.7857,0.3657,2.6792C12.5518,230.6089,12.5928,231.5093,12.5928,232.4185z M8.2344,226.2329
						c-0.146,0.3491-0.2637,0.7266-0.3535,1.1319c-0.0889,0.4062-0.1577,0.8203-0.2065,1.2421
						c-0.0489,0.4219-0.0811,0.8418-0.0977,1.2618c-0.0161,0.416-0.0244,0.8115-0.0244,1.1865c0,0.1377,0.0068,0.3623,0.0181,0.6738
						c0.0127,0.3135,0.0351,0.6738,0.0673,1.085c0.0323,0.4092,0.0733,0.8535,0.1226,1.333
						c0.0483,0.4795,0.1045,0.959,0.1689,1.4424c0.066,0.4824,0.1407,0.9453,0.2256,1.3886c0.0855,0.4424,0.1831,0.833,0.293,1.1739
						c0.1094,0.3408,0.229,0.6152,0.3589,0.8213c0.1299,0.207,0.2715,0.3125,0.4258,0.3125c0.1054,0,0.2055-0.0538,0.2983-0.1592
						c0.0938-0.1065,0.1768-0.2324,0.25-0.377c0.0723-0.1465,0.1357-0.2929,0.1885-0.4404
						c0.0527-0.1436,0.0918-0.2588,0.1152-0.3389c0.2442-0.7715,0.4146-1.5488,0.5117-2.332
						c0.0972-0.7842,0.1465-1.5801,0.1465-2.3926c0-0.5996-0.0146-1.2353-0.0425-1.9062c-0.0288-0.668-0.0796-1.3379-0.1523-2.0078
						c-0.0737-0.67-0.1748-1.3292-0.3042-1.9786c-0.1309-0.6494-0.2969-1.2588-0.4995-1.8261
						c-0.0654-0.1866-0.1387-0.3731-0.2193-0.5606c-0.0815-0.1865-0.1948-0.3491-0.3413-0.4873
						c-0.0161,0.0171-0.0732,0.1104-0.1699,0.2813c-0.0976,0.1689-0.2012,0.3569-0.3105,0.5595
						c-0.1094,0.2032-0.211,0.3951-0.3042,0.5782C8.3057,226.0811,8.2505,226.1919,8.2344,226.2329z"/>
					<path fill="#B7D1E6" d="M17.6846,239.8442c0,0.1866-0.0654,0.3106-0.1948,0.3711c-0.1294,0.0625-0.2759,0.0918-0.438,0.0918
						c-0.1221,0-0.2686-0.0166-0.439-0.0488c-0.1699-0.0322-0.3159-0.0723-0.4375-0.1221
						c-0.1626-0.0713-0.2802-0.1582-0.3535-0.2548c-0.0727-0.0977-0.124-0.2071-0.1523-0.3301
						c-0.0283-0.1201-0.0425-0.2481-0.0425-0.3819c0-0.1337-0.0039-0.2753-0.0122-0.4199c-0.1455-2.501-0.2637-4.9853-0.3535-7.4521
						c-0.0889-2.4678-0.1333-4.9507-0.1333-7.4507c0-0.1631,0.0239-0.292,0.0732-0.3897c0.0484-0.0976,0.1704-0.146,0.3648-0.146
						c0.2187,0,0.4453,0.0528,0.6757,0.1578c0.2315,0.1059,0.3956,0.2636,0.4932,0.4751c0.0322,0.0654,0.0552,0.1748,0.0674,0.3286
						c0.0112,0.1543,0.0215,0.3169,0.0303,0.4878c0.0078,0.1689,0.0112,0.3383,0.0112,0.5044c0,0.1665,0.0049,0.2944,0.0127,0.3842
						c0.0649,2.0938,0.1382,4.1797,0.2187,6.2578c0.0816,2.0782,0.2281,4.1631,0.4385,6.2588
						c0.0249,0.2823,0.0591,0.5635,0.1035,0.8399C17.6626,239.2808,17.6846,239.561,17.6846,239.8442z"/>
					<path fill="#B7D1E6" d="M26.7696,232.4185c0,0.2763-0.0049,0.6054-0.0117,0.9922c-0.0088,0.3847-0.0264,0.7998-0.0552,1.247
						c-0.0288,0.4463-0.0733,0.9053-0.1343,1.376c-0.061,0.4697-0.144,0.9336-0.2495,1.3887
						c-0.105,0.4531-0.2388,0.8838-0.4014,1.289c-0.1631,0.4063-0.3598,0.7618-0.5908,1.0664
						c-0.231,0.3038-0.501,0.545-0.8096,0.7246c-0.3086,0.1778-0.6611,0.2676-1.059,0.2676c-0.3819,0-0.7183-0.0801-1.0103-0.2373
						c-0.2925-0.1582-0.5464-0.3681-0.7612-0.6279c-0.2154-0.2598-0.3999-0.5547-0.5542-0.8887
						c-0.1543-0.331-0.2823-0.6777-0.3828-1.0342c-0.1021-0.3574-0.1851-0.7119-0.25-1.0644
						c-0.0655-0.3545-0.1177-0.6768-0.1587-0.9688c-0.1133-0.7705-0.1983-1.542-0.2559-2.3134
						c-0.0561-0.7705-0.084-1.5508-0.084-2.3379c0-0.7871,0.0318-1.5762,0.0967-2.3682c0.0649-0.791,0.2021-1.5596,0.4136-2.3066
						c-0.0484-0.0733-0.0928-0.146-0.1338-0.2198c-0.041-0.0722-0.0606-0.1543-0.0606-0.2431c0-0.0484,0.0039-0.0908,0.0122-0.128
						c0.0074-0.0361,0.0196-0.0747,0.0362-0.1157c0.1054-0.3242,0.248-0.6655,0.4258-1.0224c0.1787-0.357,0.3925-0.6841,0.6401-0.98
						c0.2476-0.2969,0.5298-0.5401,0.8457-0.731c0.3164-0.1904,0.6694-0.2856,1.0591-0.2856c0.3413,0,0.646,0.0654,0.9136,0.1948
						c0.2675,0.1294,0.5029,0.3042,0.7065,0.5234c0.2026,0.2193,0.377,0.4688,0.5229,0.7486
						c0.1465,0.2798,0.2701,0.5742,0.3716,0.8833c0.1016,0.3081,0.1861,0.6172,0.2554,0.9243
						c0.0688,0.3091,0.1284,0.5972,0.1768,0.8647c0.1621,0.8931,0.2836,1.7857,0.3652,2.6792
						C26.7295,230.6089,26.7696,231.5093,26.7696,232.4185z M22.4112,226.2329c-0.146,0.3491-0.2637,0.7266-0.3535,1.1319
						c-0.0894,0.4062-0.1578,0.8203-0.2066,1.2421c-0.0488,0.4219-0.0815,0.8418-0.0981,1.2618
						c-0.0161,0.416-0.0235,0.8115-0.0235,1.1865c0,0.1377,0.0054,0.3623,0.0181,0.6738c0.0122,0.3135,0.0342,0.6738,0.0664,1.085
						c0.0327,0.4092,0.0737,0.8535,0.1221,1.333c0.0488,0.4795,0.1054,0.959,0.1699,1.4424
						c0.0649,0.4824,0.1406,0.9453,0.2261,1.3886c0.0854,0.4424,0.1826,0.833,0.292,1.1739
						c0.1098,0.3408,0.229,0.6152,0.3593,0.8213c0.1294,0.207,0.272,0.3125,0.4263,0.3125c0.1055,0,0.2046-0.0538,0.2979-0.1592
						c0.0932-0.1065,0.1772-0.2324,0.2495-0.377c0.0732-0.1465,0.1357-0.2929,0.1889-0.4404
						c0.0528-0.1436,0.0909-0.2588,0.1158-0.3389c0.2436-0.7715,0.414-1.5488,0.5112-2.332c0.0976-0.7842,0.146-1.5801,0.146-2.3926
						c0-0.5996-0.0142-1.2353-0.0425-1.9062c-0.0283-0.668-0.0791-1.3379-0.1523-2.0078c-0.0728-0.67-0.1748-1.3292-0.3037-1.9786
						c-0.1304-0.6494-0.2969-1.2588-0.4996-1.8261c-0.0649-0.1866-0.1386-0.3731-0.2192-0.5606
						c-0.0815-0.1865-0.1948-0.3491-0.3408-0.4873c-0.0166,0.0171-0.0737,0.1104-0.1704,0.2813
						c-0.0977,0.1689-0.2012,0.3569-0.3106,0.5595c-0.1093,0.2032-0.2119,0.3951-0.3047,0.5782
						C22.482,226.0811,22.4278,226.1919,22.4112,226.2329z"/>
					<path fill="#B7D1E6" d="M31.8609,239.8442c0,0.1866-0.0645,0.3106-0.1939,0.3711c-0.1308,0.0625-0.2763,0.0918-0.4389,0.0918
						c-0.1211,0-0.2676-0.0166-0.4385-0.0488c-0.1704-0.0322-0.3164-0.0723-0.4375-0.1221
						c-0.1631-0.0713-0.2808-0.1582-0.354-0.2548c-0.0723-0.0977-0.1235-0.2071-0.1519-0.3301
						c-0.0283-0.1201-0.0424-0.2481-0.0424-0.3819c0-0.1337-0.0044-0.2753-0.0127-0.4199c-0.1451-2.501-0.2632-4.9853-0.3526-7.4521
						c-0.0893-2.4678-0.1338-4.9507-0.1338-7.4507c0-0.1631,0.024-0.292,0.0728-0.3897c0.0483-0.0976,0.1699-0.146,0.3652-0.146
						c0.2193,0,0.4444,0.0528,0.6758,0.1578c0.2314,0.1059,0.3955,0.2636,0.4927,0.4751c0.0327,0.0654,0.0556,0.1748,0.0669,0.3286
						c0.0127,0.1543,0.0229,0.3169,0.0312,0.4878c0.0073,0.1689,0.0117,0.3383,0.0117,0.5044c0,0.1665,0.0039,0.2944,0.0122,0.3842
						c0.0655,2.0938,0.1382,4.1797,0.2198,6.2578c0.0805,2.0782,0.227,4.1631,0.438,6.2588c0.0244,0.2823,0.059,0.5635,0.103,0.8399
						C31.8394,239.2808,31.8609,239.561,31.8609,239.8442z"/>
					<path fill="#B7D1E6" d="M40.9463,232.4185c0,0.2763-0.0039,0.6054-0.0122,0.9922c-0.0083,0.3847-0.0263,0.7998-0.0547,1.247
						c-0.0288,0.4463-0.0727,0.9053-0.1342,1.376c-0.0611,0.4697-0.1436,0.9336-0.2491,1.3887
						c-0.1059,0.4531-0.2397,0.8838-0.4023,1.289c-0.1621,0.4063-0.3594,0.7618-0.5899,1.0664
						c-0.2314,0.3038-0.5014,0.545-0.81,0.7246c-0.3086,0.1778-0.6616,0.2676-1.0586,0.2676c-0.3823,0-0.7188-0.0801-1.0107-0.2373
						c-0.2925-0.1582-0.5459-0.3681-0.7608-0.6279c-0.2153-0.2598-0.4009-0.5547-0.5552-0.8887
						c-0.1533-0.331-0.2817-0.6777-0.3828-1.0342c-0.101-0.3574-0.1845-0.7119-0.25-1.0644
						c-0.0644-0.3545-0.1177-0.6768-0.1582-0.9688c-0.1133-0.7705-0.1992-1.542-0.2553-2.3134
						c-0.0567-0.7705-0.0855-1.5508-0.0855-2.3379c0-0.7871,0.0322-1.5762,0.0972-2.3682c0.0659-0.791,0.2031-1.5596,0.4145-2.3066
						c-0.0483-0.0733-0.0937-0.146-0.1343-0.2198c-0.0405-0.0722-0.0605-0.1543-0.0605-0.2431c0-0.0484,0.0039-0.0908,0.0117-0.128
						c0.0083-0.0361,0.0205-0.0747,0.0366-0.1157c0.105-0.3242,0.2481-0.6655,0.4258-1.0224c0.1797-0.357,0.3926-0.6841,0.6397-0.98
						c0.248-0.2969,0.5298-0.5401,0.8462-0.731c0.3164-0.1904,0.6694-0.2856,1.059-0.2856c0.3418,0,0.6451,0.0654,0.9141,0.1948
						c0.2671,0.1294,0.5024,0.3042,0.7056,0.5234c0.2026,0.2193,0.3769,0.4688,0.5229,0.7486
						c0.1465,0.2798,0.27,0.5742,0.3716,0.8833c0.1016,0.3081,0.187,0.6172,0.2559,0.9243
						c0.0688,0.3091,0.1284,0.5972,0.1767,0.8647c0.1621,0.8931,0.2837,1.7857,0.3653,2.6792
						C40.9053,230.6089,40.9463,231.5093,40.9463,232.4185z M36.5874,226.2329c-0.146,0.3491-0.2636,0.7266-0.3525,1.1319
						c-0.0893,0.4062-0.1592,0.8203-0.208,1.2421c-0.0483,0.4219-0.0806,0.8418-0.0972,1.2618
						c-0.0156,0.416-0.0234,0.8115-0.0234,1.1865c0,0.1377,0.0059,0.3623,0.0181,0.6738c0.0117,0.3135,0.0337,0.6738,0.0669,1.085
						c0.0317,0.4092,0.0727,0.8535,0.1215,1.333c0.0484,0.4795,0.1055,0.959,0.1704,1.4424
						c0.0655,0.4824,0.1402,0.9453,0.2247,1.3886c0.0859,0.4424,0.1835,0.833,0.2929,1.1739
						c0.1094,0.3408,0.229,0.6152,0.3589,0.8213c0.1299,0.207,0.2725,0.3125,0.4263,0.3125c0.105,0,0.2051-0.0538,0.2988-0.1592
						c0.0923-0.1065,0.1763-0.2324,0.249-0.377c0.0733-0.1465,0.1358-0.2929,0.189-0.4404
						c0.0527-0.1436,0.0908-0.2588,0.1157-0.3389c0.2432-0.7715,0.4136-1.5488,0.5103-2.332
						c0.0981-0.7842,0.1474-1.5801,0.1474-2.3926c0-0.5996-0.0146-1.2353-0.0429-1.9062c-0.0288-0.668-0.0796-1.3379-0.1529-2.0078
						c-0.0722-0.67-0.1743-1.3292-0.3037-1.9786c-0.1303-0.6494-0.2959-1.2588-0.499-1.8261
						c-0.0654-0.1866-0.1387-0.3731-0.2192-0.5606c-0.0816-0.1865-0.1949-0.3491-0.3409-0.4873
						c-0.017,0.0171-0.0737,0.1104-0.1709,0.2813c-0.0976,0.1689-0.2006,0.3569-0.3105,0.5595
						c-0.1094,0.2032-0.2105,0.3951-0.3047,0.5782C36.6582,226.0811,36.604,226.1919,36.5874,226.2329z"/>
					<path fill="#B7D1E6" d="M46.0381,239.8442c0,0.1866-0.0649,0.3106-0.1948,0.3711c-0.1304,0.0625-0.2764,0.0918-0.4385,0.0918
						c-0.1216,0-0.2675-0.0166-0.4384-0.0488c-0.17-0.0322-0.3165-0.0723-0.438-0.1221c-0.1631-0.0713-0.2803-0.1582-0.3531-0.2548
						c-0.0732-0.0977-0.124-0.2071-0.1523-0.3301c-0.0288-0.1201-0.0425-0.2481-0.0425-0.3819c0-0.1337-0.0044-0.2753-0.0132-0.4199
						c-0.145-2.501-0.2632-4.9853-0.352-7.4521c-0.0894-2.4678-0.1343-4.9507-0.1343-7.4507c0-0.1631,0.0244-0.292,0.0732-0.3897
						c0.0494-0.0976,0.1705-0.146,0.3648-0.146c0.2202,0,0.4448,0.0528,0.6767,0.1578c0.231,0.1059,0.3951,0.2636,0.4927,0.4751
						c0.0322,0.0654,0.0542,0.1748,0.0669,0.3286c0.0122,0.1543,0.022,0.3169,0.0308,0.4878
						c0.0073,0.1689,0.0117,0.3383,0.0117,0.5044c0,0.1665,0.0034,0.2944,0.0117,0.3842c0.0659,2.0938,0.1387,4.1797,0.2197,6.2578
						c0.0811,2.0782,0.2266,4.1631,0.438,6.2588c0.0249,0.2823,0.0591,0.5635,0.1035,0.8399
						C46.0152,239.2808,46.0381,239.561,46.0381,239.8442z"/>
					<path fill="#B7D1E6" d="M51.2759,239.8442c0,0.1866-0.0654,0.3106-0.1953,0.3711c-0.1294,0.0625-0.2754,0.0918-0.438,0.0918
						c-0.122,0-0.268-0.0166-0.4385-0.0488c-0.1704-0.0322-0.3164-0.0723-0.4379-0.1221c-0.1626-0.0713-0.2803-0.1582-0.3536-0.2548
						c-0.0727-0.0977-0.123-0.2071-0.1518-0.3301c-0.0288-0.1201-0.0425-0.2481-0.0425-0.3819c0-0.1337-0.0044-0.2753-0.0122-0.4199
						c-0.1465-2.501-0.2642-4.9853-0.353-7.4521c-0.0899-2.4678-0.1343-4.9507-0.1343-7.4507c0-0.1631,0.0244-0.292,0.0732-0.3897
						c0.0484-0.0976,0.1704-0.146,0.3658-0.146c0.2187,0,0.4438,0.0528,0.6757,0.1578c0.2305,0.1059,0.3951,0.2636,0.4927,0.4751
						c0.0327,0.0654,0.0547,0.1748,0.0664,0.3286c0.0127,0.1543,0.0225,0.3169,0.0303,0.4878
						c0.0083,0.1689,0.0127,0.3383,0.0127,0.5044c0,0.1665,0.0039,0.2944,0.0127,0.3842c0.0649,2.0938,0.1377,4.1797,0.2187,6.2578
						c0.0811,2.0782,0.2271,4.1631,0.439,6.2588c0.0234,0.2823,0.0581,0.5635,0.1025,0.8399
						C51.2539,239.2808,51.2759,239.561,51.2759,239.8442z"/>
				</g>
				<g>
					<path fill="#B7D1E6" d="M318.065,65.9131c0,0.2759-0.0039,0.6064-0.0117,0.9922c-0.0088,0.3852-0.0274,0.8017-0.0547,1.248
						c-0.0274,0.4463-0.0733,0.9048-0.1348,1.3755c-0.0605,0.4707-0.1426,0.9331-0.25,1.3877
						c-0.1045,0.4551-0.2392,0.8843-0.4004,1.291c-0.1631,0.4063-0.3594,0.7613-0.5918,1.065
						c-0.2304,0.3047-0.501,0.5459-0.8095,0.7251c-0.3077,0.1777-0.6612,0.2671-1.0586,0.2671
						c-0.3819,0-0.7178-0.0791-1.0098-0.2369c-0.293-0.1591-0.5459-0.3676-0.7607-0.6274
						c-0.2159-0.2593-0.4004-0.5557-0.5557-0.8887c-0.1533-0.333-0.2813-0.6772-0.3828-1.0346
						c-0.1016-0.357-0.1846-0.7124-0.2481-1.0655c-0.0664-0.3535-0.1191-0.6758-0.1601-0.9677
						c-0.1123-0.771-0.1992-1.542-0.2549-2.3135c-0.0566-0.771-0.085-1.5503-0.085-2.3379c0-0.7866,0.0323-1.5762,0.0967-2.3682
						c0.0654-0.791,0.2022-1.56,0.4141-2.3071c-0.0479-0.0728-0.0938-0.1455-0.1338-0.2192
						c-0.041-0.0728-0.0615-0.1539-0.0615-0.2437c0-0.0483,0.0039-0.0903,0.0127-0.1274c0.0078-0.0362,0.0205-0.0752,0.038-0.1158
						c0.1036-0.3242,0.2461-0.665,0.4248-1.0224c0.1788-0.357,0.3916-0.6841,0.6387-0.98c0.2481-0.2964,0.5303-0.54,0.8467-0.7305
						c0.3154-0.1914,0.6709-0.2866,1.0586-0.2866c0.3418,0,0.6465,0.0659,0.9141,0.1953c0.2666,0.1294,0.5039,0.3047,0.706,0.5235
						c0.2022,0.2192,0.376,0.4687,0.5234,0.7485c0.1456,0.2798,0.2706,0.5742,0.3711,0.8833
						c0.1016,0.3081,0.1875,0.6167,0.2549,0.9243c0.0703,0.3091,0.128,0.5972,0.1768,0.8652
						c0.1631,0.8921,0.2842,1.7852,0.3662,2.6788C318.024,64.1025,318.065,65.0039,318.065,65.9131z M313.7066,59.728
						c-0.1465,0.3492-0.2637,0.7266-0.3526,1.1319c-0.0898,0.4062-0.1582,0.8203-0.208,1.2417
						c-0.0478,0.4223-0.08,0.8423-0.0976,1.2607c-0.0156,0.4175-0.0235,0.814-0.0235,1.187c0,0.1382,0.0069,0.3633,0.0186,0.6753
						c0.0107,0.3125,0.0342,0.6738,0.0664,1.084c0.0322,0.4097,0.0723,0.8545,0.1221,1.3335
						c0.0488,0.478,0.1045,0.9595,0.1699,1.4429c0.0664,0.4824,0.1396,0.9448,0.2256,1.3872
						c0.0849,0.4424,0.1826,0.834,0.292,1.1758c0.1103,0.3408,0.2304,0.6142,0.3594,0.8208
						c0.1298,0.207,0.2714,0.3105,0.4267,0.3105c0.1055,0,0.2041-0.0522,0.2979-0.1582c0.0937-0.1055,0.1767-0.2314,0.25-0.3774
						c0.0713-0.1455,0.1357-0.292,0.1875-0.438c0.0537-0.146,0.0918-0.2603,0.1162-0.3408c0.2441-0.7715,0.414-1.5484,0.5117-2.3311
						c0.0976-0.7842,0.1455-1.5811,0.1455-2.3931c0-0.6006-0.0137-1.2358-0.042-1.9052c-0.0293-0.6695-0.0791-1.3389-0.1523-2.0088
						c-0.0743-0.67-0.1748-1.3291-0.3047-1.979c-0.1299-0.6495-0.2969-1.2578-0.499-1.8257
						c-0.0655-0.1865-0.1377-0.3731-0.2198-0.5606c-0.081-0.1865-0.1943-0.3491-0.3398-0.4868
						c-0.0176,0.0161-0.0733,0.1094-0.1709,0.2803c-0.0977,0.1694-0.2002,0.3569-0.3115,0.5596
						c-0.1084,0.2031-0.21,0.3964-0.3038,0.5786C313.7789,59.5757,313.7232,59.6875,313.7066,59.728z"/>
					<path fill="#B7D1E6" d="M323.1578,73.3394c0,0.1865-0.0664,0.3105-0.1954,0.3715c-0.1308,0.0606-0.2773,0.0914-0.4384,0.0914
						c-0.1221,0-0.2676-0.0162-0.4395-0.0484c-0.1689-0.0327-0.3154-0.0737-0.4375-0.1221
						c-0.1611-0.0732-0.2803-0.1582-0.3525-0.2553c-0.0733-0.0972-0.124-0.2071-0.1524-0.3286
						c-0.0293-0.1221-0.0429-0.25-0.0429-0.3843s-0.0049-0.2739-0.0118-0.4199c-0.1455-2.5-0.2636-4.9834-0.3525-7.4512
						c-0.0908-2.4673-0.1357-4.9502-0.1357-7.4507c0-0.1631,0.0254-0.292,0.0742-0.3901c0.0478-0.0972,0.1709-0.1455,0.3652-0.1455
						c0.2188,0,0.4444,0.0522,0.6748,0.1577c0.2324,0.1059,0.3965,0.2636,0.4942,0.4751c0.0312,0.0654,0.0556,0.1748,0.0664,0.3286
						c0.0127,0.1543,0.0224,0.3164,0.0312,0.4873c0.0069,0.1694,0.0117,0.3389,0.0117,0.5049c0,0.1665,0.0049,0.2944,0.0118,0.3843
						c0.0644,2.0932,0.1377,4.1796,0.2187,6.2573c0.0811,2.0781,0.2275,4.1635,0.4395,6.2583
						c0.0244,0.2842,0.0586,0.5644,0.1025,0.8393C323.1353,72.7754,323.1578,73.0557,323.1578,73.3394z"/>
					<path fill="#B7D1E6" d="M332.2427,65.9131c0,0.2759-0.0058,0.6064-0.0127,0.9922c-0.0088,0.3852-0.0254,0.8017-0.0547,1.248
						c-0.0283,0.4463-0.0732,0.9048-0.1338,1.3755c-0.0615,0.4707-0.1445,0.9331-0.25,1.3877
						c-0.1054,0.4551-0.2392,0.8843-0.4013,1.291c-0.1641,0.4063-0.3604,0.7613-0.5908,1.065
						c-0.2325,0.3047-0.502,0.5459-0.8086,0.7251c-0.3086,0.1777-0.6641,0.2671-1.0606,0.2671
						c-0.3818,0-0.7187-0.0791-1.0097-0.2369c-0.294-0.1591-0.5469-0.3676-0.7618-0.6274
						c-0.2148-0.2593-0.4004-0.5557-0.5537-0.8887c-0.1543-0.333-0.2822-0.6772-0.3828-1.0346
						c-0.1025-0.357-0.1855-0.7124-0.25-1.0655c-0.0664-0.3535-0.1182-0.6758-0.1592-0.9677
						c-0.1132-0.771-0.1982-1.542-0.2558-2.3135c-0.0567-0.771-0.084-1.5503-0.084-2.3379c0-0.7866,0.0322-1.5762,0.0967-2.3682
						c0.0644-0.791,0.2021-1.56,0.414-2.3071c-0.0478-0.0728-0.0937-0.1455-0.1347-0.2192
						c-0.0401-0.0728-0.0606-0.1539-0.0606-0.2437c0-0.0483,0.0039-0.0903,0.0137-0.1274c0.0068-0.0362,0.0185-0.0752,0.0361-0.1158
						c0.1045-0.3242,0.2481-0.665,0.4258-1.0224c0.1777-0.357,0.3916-0.6841,0.6397-0.98c0.246-0.2964,0.5292-0.54,0.8447-0.7305
						c0.3174-0.1914,0.6709-0.2866,1.0605-0.2866c0.3399,0,0.6446,0.0659,0.9131,0.1953c0.2686,0.1294,0.5029,0.3047,0.7061,0.5235
						c0.2031,0.2192,0.3779,0.4687,0.5224,0.7485c0.1475,0.2798,0.2705,0.5742,0.3711,0.8833
						c0.1026,0.3081,0.1875,0.6167,0.2569,0.9243c0.0683,0.3091,0.1279,0.5972,0.1767,0.8652
						c0.1631,0.8921,0.2832,1.7852,0.3643,2.6788C332.2017,64.1025,332.2427,65.0039,332.2427,65.9131z M327.8833,59.728
						c-0.1455,0.3492-0.2636,0.7266-0.3535,1.1319c-0.0898,0.4062-0.1582,0.8203-0.206,1.2417
						c-0.0489,0.4223-0.0821,0.8423-0.0977,1.2607c-0.0166,0.4175-0.0244,0.814-0.0244,1.187c0,0.1382,0.0059,0.3633,0.0176,0.6753
						c0.0137,0.3125,0.0351,0.6738,0.0664,1.084c0.0342,0.4097,0.0742,0.8545,0.123,1.3335c0.0489,0.478,0.1055,0.9595,0.17,1.4429
						c0.0654,0.4824,0.1406,0.9448,0.2255,1.3872c0.085,0.4424,0.1827,0.834,0.292,1.1758
						c0.1104,0.3408,0.2295,0.6142,0.3594,0.8208c0.1289,0.207,0.2725,0.3105,0.4268,0.3105c0.1045,0,0.2031-0.0522,0.2978-0.1582
						c0.0928-0.1055,0.1758-0.2314,0.249-0.3774c0.0743-0.1455,0.1368-0.292,0.1885-0.438c0.0528-0.146,0.0908-0.2603,0.1153-0.3408
						c0.2441-0.7715,0.416-1.5484,0.5126-2.3311c0.0977-0.7842,0.1456-1.5811,0.1456-2.3931c0-0.6006-0.0137-1.2358-0.043-1.9052
						c-0.0283-0.6695-0.0781-1.3389-0.1524-2.0088c-0.0712-0.67-0.1738-1.3291-0.3037-1.979
						c-0.1298-0.6495-0.2968-1.2578-0.499-1.8257c-0.0664-0.1865-0.1377-0.3731-0.2187-0.5606
						c-0.0821-0.1865-0.1944-0.3491-0.3418-0.4868c-0.0157,0.0161-0.0733,0.1094-0.17,0.2803
						c-0.0976,0.1694-0.2011,0.3569-0.3105,0.5596c-0.1094,0.2031-0.2119,0.3964-0.3037,0.5786
						C327.9546,59.5757,327.899,59.6875,327.8833,59.728z"/>
					<path fill="#B7D1E6" d="M337.3335,73.3394c0,0.1865-0.0654,0.3105-0.1943,0.3715c-0.1309,0.0606-0.2754,0.0914-0.4394,0.0914
						c-0.1202,0-0.2676-0.0162-0.4375-0.0484c-0.17-0.0327-0.3174-0.0737-0.4385-0.1221c-0.1621-0.0732-0.2803-0.1582-0.3526-0.2553
						c-0.0732-0.0972-0.125-0.2071-0.1523-0.3286c-0.0283-0.1221-0.042-0.25-0.042-0.3843s-0.0039-0.2739-0.0137-0.4199
						c-0.1445-2.5-0.2627-4.9834-0.3525-7.4512c-0.0899-2.4673-0.1338-4.9502-0.1338-7.4507c0-0.1631,0.0234-0.292,0.0732-0.3901
						c0.0489-0.0972,0.17-0.1455,0.3653-0.1455c0.2187,0,0.4443,0.0522,0.6758,0.1577c0.2304,0.1059,0.3955,0.2636,0.4921,0.4751
						c0.0332,0.0654,0.0557,0.1748,0.0665,0.3286c0.0136,0.1543,0.0224,0.3164,0.0312,0.4873
						c0.0078,0.1694,0.0127,0.3389,0.0127,0.5049c0,0.1665,0.0039,0.2944,0.0117,0.3843c0.0654,2.0932,0.1387,4.1796,0.2188,6.2573
						c0.082,2.0781,0.2285,4.1635,0.4384,6.2583c0.0245,0.2842,0.0596,0.5644,0.1036,0.8393
						C337.3111,72.7754,337.3335,73.0557,337.3335,73.3394z"/>
					<path fill="#B7D1E6" d="M346.4185,65.9131c0,0.2759-0.0049,0.6064-0.0117,0.9922c-0.0078,0.3852-0.0264,0.8017-0.0557,1.248
						c-0.0283,0.4463-0.0732,0.9048-0.1338,1.3755c-0.0605,0.4707-0.1435,0.9331-0.248,1.3877
						c-0.1074,0.4551-0.2412,0.8843-0.4024,1.291c-0.163,0.4063-0.3603,0.7613-0.5908,1.065
						c-0.2324,0.3047-0.501,0.5459-0.8096,0.7251c-0.3085,0.1777-0.6611,0.2671-1.0595,0.2671
						c-0.3828,0-0.7178-0.0791-1.0108-0.2369c-0.292-0.1591-0.5459-0.3676-0.7607-0.6274
						c-0.2149-0.2593-0.4004-0.5557-0.5547-0.8887c-0.1533-0.333-0.2812-0.6772-0.3818-1.0346
						c-0.1035-0.357-0.1856-0.7124-0.25-1.0655c-0.0664-0.3535-0.1182-0.6758-0.1592-0.9677
						c-0.1123-0.771-0.1992-1.542-0.2559-2.3135c-0.0556-0.771-0.0849-1.5503-0.0849-2.3379c0-0.7866,0.0322-1.5762,0.0976-2.3682
						c0.0645-0.791,0.2032-1.56,0.4141-2.3071c-0.0488-0.0728-0.0928-0.1455-0.1328-0.2192
						c-0.043-0.0728-0.0615-0.1539-0.0615-0.2437c0-0.0483,0.0039-0.0903,0.0117-0.1274c0.0068-0.0362,0.0205-0.0752,0.0361-0.1158
						c0.1055-0.3242,0.2481-0.665,0.4268-1.0224c0.1787-0.357,0.3916-0.6841,0.6396-0.98c0.2471-0.2964,0.5293-0.54,0.8457-0.7305
						c0.3164-0.1914,0.669-0.2866,1.0596-0.2866c0.3398,0,0.6445,0.0659,0.9131,0.1953c0.2675,0.1294,0.5029,0.3047,0.706,0.5235
						c0.2022,0.2192,0.377,0.4687,0.5225,0.7485c0.1465,0.2798,0.2695,0.5742,0.3721,0.8833
						c0.1015,0.3081,0.1865,0.6167,0.2558,0.9243c0.0684,0.3091,0.1279,0.5972,0.1768,0.8652
						c0.1621,0.8921,0.2832,1.7852,0.3642,2.6788C346.3785,64.1025,346.4185,65.0039,346.4185,65.9131z M342.0601,59.728
						c-0.1465,0.3492-0.2637,0.7266-0.3525,1.1319c-0.0899,0.4062-0.1582,0.8203-0.208,1.2417
						c-0.0489,0.4223-0.0811,0.8423-0.0977,1.2607c-0.0156,0.4175-0.0234,0.814-0.0234,1.187c0,0.1382,0.0048,0.3633,0.0185,0.6753
						c0.0117,0.3125,0.0342,0.6738,0.0674,1.084c0.0312,0.4097,0.0713,0.8545,0.1211,1.3335
						c0.0478,0.478,0.1045,0.9595,0.1699,1.4429c0.0645,0.4824,0.1406,0.9448,0.2246,1.3872c0.086,0.4424,0.1836,0.834,0.293,1.1758
						c0.1094,0.3408,0.2285,0.6142,0.3594,0.8208c0.1289,0.207,0.2724,0.3105,0.4257,0.3105c0.1055,0,0.2051-0.0522,0.2989-0.1582
						c0.0928-0.1055,0.1758-0.2314,0.25-0.3774c0.0722-0.1455,0.1347-0.292,0.1885-0.438c0.0527-0.146,0.0908-0.2603,0.1162-0.3408
						c0.2422-0.7715,0.4131-1.5484,0.5097-2.3311c0.0977-0.7842,0.1465-1.5811,0.1465-2.3931c0-0.6006-0.0146-1.2358-0.043-1.9052
						c-0.0283-0.6695-0.0791-1.3389-0.1513-2.0088c-0.0733-0.67-0.1748-1.3291-0.3037-1.979
						c-0.1319-0.6495-0.2979-1.2578-0.5-1.8257c-0.0645-0.1865-0.1387-0.3731-0.2188-0.5606
						c-0.081-0.1865-0.1953-0.3491-0.3418-0.4868c-0.0166,0.0161-0.0732,0.1094-0.1709,0.2803
						c-0.0967,0.1694-0.2002,0.3569-0.3105,0.5596c-0.1084,0.2031-0.21,0.3964-0.3037,0.5786
						C342.1304,59.5757,342.0767,59.6875,342.0601,59.728z"/>
					<path fill="#B7D1E6" d="M351.5103,73.3394c0,0.1865-0.0645,0.3105-0.1943,0.3715c-0.1309,0.0606-0.2764,0.0914-0.4385,0.0914
						c-0.1221,0-0.2676-0.0162-0.4385-0.0484c-0.1709-0.0327-0.3164-0.0737-0.4385-0.1221
						c-0.1631-0.0732-0.2793-0.1582-0.3535-0.2553c-0.0722-0.0972-0.123-0.2071-0.1523-0.3286
						c-0.0283-0.1221-0.042-0.25-0.042-0.3843s-0.0039-0.2739-0.0127-0.4199c-0.1455-2.5-0.2637-4.9834-0.3526-7.4512
						c-0.0898-2.4673-0.1337-4.9502-0.1337-7.4507c0-0.1631,0.0234-0.292,0.0722-0.3901c0.0498-0.0972,0.1719-0.1455,0.3662-0.1455
						c0.2188,0,0.4444,0.0522,0.6758,0.1577c0.2315,0.1059,0.3955,0.2636,0.4932,0.4751c0.0322,0.0654,0.0537,0.1748,0.0674,0.3286
						c0.0107,0.1543,0.0224,0.3164,0.0302,0.4873c0.0069,0.1694,0.0118,0.3389,0.0118,0.5049c0,0.1665,0.0029,0.2944,0.0117,0.3843
						c0.0654,2.0932,0.1377,4.1796,0.2197,6.2573c0.0801,2.0781,0.2266,4.1635,0.4375,6.2583
						c0.0254,0.2842,0.0596,0.5644,0.1035,0.8393C351.4869,72.7754,351.5103,73.0557,351.5103,73.3394z"/>
					<path fill="#B7D1E6" d="M356.7486,73.3394c0,0.1865-0.0664,0.3105-0.1944,0.3715c-0.1308,0.0606-0.2773,0.0914-0.4394,0.0914
						c-0.1211,0-0.2676-0.0162-0.4395-0.0484c-0.1689-0.0327-0.3154-0.0737-0.4375-0.1221
						c-0.1611-0.0732-0.2793-0.1582-0.3525-0.2553c-0.0723-0.0972-0.124-0.2071-0.1523-0.3286
						c-0.0293-0.1221-0.042-0.25-0.042-0.3843s-0.0059-0.2739-0.0127-0.4199c-0.1465-2.5-0.2647-4.9834-0.3526-7.4512
						c-0.0908-2.4673-0.1338-4.9502-0.1338-7.4507c0-0.1631,0.0235-0.292,0.0723-0.3901c0.0479-0.0972,0.1709-0.1455,0.3662-0.1455
						c0.2188,0,0.4444,0.0522,0.6738,0.1577c0.2325,0.1059,0.3965,0.2636,0.4942,0.4751c0.0322,0.0654,0.0556,0.1748,0.0664,0.3286
						c0.0137,0.1543,0.0225,0.3164,0.0303,0.4873c0.0088,0.1694,0.0127,0.3389,0.0127,0.5049c0,0.1665,0.0048,0.2944,0.0127,0.3843
						c0.0634,2.0932,0.1376,4.1796,0.2187,6.2573c0.082,2.0781,0.2275,4.1635,0.4385,6.2583
						c0.0234,0.2842,0.0586,0.5644,0.1035,0.8393C356.7261,72.7754,356.7486,73.0557,356.7486,73.3394z"/>
				</g>
				<g>
					<path fill="#B7D1E6" d="M210.8999,24.8911c-2.3501-2.3823-5.5717-4.1494-8.9472-4.3364
						c-3.6153-0.2012-7.0152,1.8242-9.4937,4.3364c-2.9184,2.959-3.0298,7.4903-1.4463,11.1133
						c0.9703,2.2202,2.7198,3.9365,4.2676,5.748c2.3076,2.7002,2.6773,5.5674,2.1128,8.9776
						c-0.25,1.5039-0.4761,3.0264,0.5723,4.2666c0.2529,2.188,1.5068,4.1108,4.0093,3.8379c1.8149-0.1992,3.7045-2.2945,3.7373-4.23
						c0.7158-1.1616,0.5087-2.5259,0.2856-3.8745c-0.5654-3.4102-0.1997-6.2774,2.1069-8.9776
						c1.5484-1.8115,3.2896-3.5278,4.2603-5.748C213.9468,32.3814,213.8169,27.8501,210.8999,24.8911z M202.1558,57.5962
						c-1.6567,0.5977-2.5825-0.5688-3.124-1.8882c0.8198,0.294,1.8369,0.2925,2.6645,0.043
						c0.7056,0.2134,1.5503,0.2456,2.292,0.0679C203.6465,56.584,203.1568,57.2358,202.1558,57.5962z M201.9253,51.523
						c-0.0478,0.8711-0.2763,2.541,0.6001,3.1142c0.0201,0.0137,0.0401,0.022,0.0601,0.0322c-0.02,0.002-0.04,0.0064-0.0596,0.0088
						c-0.0771-0.0381-0.1631-0.0571-0.2485-0.041c-0.186,0.0366-0.3814,0.0557-0.5801,0.0645
						c-0.0918-0.0044-0.1836-0.0108-0.2734-0.0205c0.3535-5.0201-0.1695-10.1075-0.524-15.1123
						c-0.081-1.148-0.2148-2.3233-0.4614-3.4688c0.4365,0.0356,0.9531,0.0669,1.5083,0.0767
						c0.0567,1.3335,0.1895,2.6074,0.1377,3.4887C201.8531,43.6157,202.1407,47.5698,201.9253,51.523z M210.5923,36.5796
						c-1.9917,3.417-5.4946,5.6206-6.1601,9.7627c-0.3179,1.9751,0.2343,3.8086,0.3794,5.7524
						c0.0639,0.856,0.0981,2.0445-0.9644,2.335c-0.1465,0.0405-0.3008,0.0757-0.457,0.1084
						c-0.0098-0.0874-0.0332-0.168-0.0659-0.2441c0.0551-0.2178,0.0029-0.4683-0.2266-0.6353
						c-0.1074-0.0781,0.1118-1.8301,0.1392-2.1357c0.0776-0.8731,0.1943-1.7432,0.2534-2.6182
						c0.2202-3.2661-0.1792-6.5674,0.0122-9.8452c0.04-0.6734-0.0874-1.7627-0.1499-2.9126c2.27-0.147,4.647-0.8384,4.9209-3.105
						c0.2837-2.3521-2.688-3.5654-4.5244-2.6055c-1.4229,0.7437-1.7857,2.5181-1.8218,4.3946
						c-0.5825-0.0127-1.2178-0.0513-1.8618-0.1358c-0.4273-1.3462-1.0567-2.6137-2.0044-3.6938
						c-1.5244-1.7383-4.2285-0.2803-3.5899,1.9917c0.4942,1.7588,2.5855,2.561,4.4209,2.9043
						c0.7207,2.7534,0.7124,5.664,0.9932,8.4824c0.3394,3.4014,0.1953,6.8154,0.4292,10.2168
						c-0.2647-0.0459-0.5249-0.1006-0.7671-0.167c-1.062-0.2905-1.0283-1.479-0.9643-2.335
						c0.1455-1.9438,0.6967-3.7773,0.3798-5.7524c-0.6655-4.1421-4.1694-6.3457-6.1606-9.7627
						c-2.0161-3.4585-2.1719-7.6704,0.5903-10.79c3.0464-3.4419,8.4888-4.2144,12.627-2.5586
						c1.4692,0.5879,2.9194,1.3579,3.9829,2.5586C212.7632,28.9092,212.608,33.1211,210.5923,36.5796z M203.3223,34.8106
						c0.0288-1.5464,0.3369-2.9527,1.4961-3.3389c1.0562-0.3521,2.6685,0.8257,1.8169,1.9267
						C205.8516,34.4102,204.5708,34.7261,203.3223,34.8106z M198.3936,34.3496c-0.8276-0.2451-1.5962-0.6074-2.1904-1.1445
						c-0.4624-0.418-0.3667-1.1895,0.1191-1.5635c0.1987-0.1533,0.7622,0.5405,0.8608,0.6509
						C197.6983,32.8648,198.0997,33.6143,198.3936,34.3496z"/>
					<path fill="#B7D1E6" d="M187.4341,40.5181c-1.3388,0.3398-2.6299,1.2314-3.6435,2.1538
						c-0.3174,0.2895,0.0971,0.8262,0.458,0.5937c1.1557-0.7451,2.7871-1.0722,3.4956-2.3432
						C187.8623,40.71,187.6695,40.459,187.4341,40.5181z"/>
					<path fill="#B7D1E6" d="M182.4429,31.7637c-0.6772-0.2178-1.5215,0.1015-2.2124,0.1592
						c-0.9507,0.0791-1.9023,0.1264-2.855,0.1713c-0.6435,0.0308-0.6396,0.9571,0,0.9961c1.2989,0.0796,4.5987,0.8726,5.314-0.7207
						C182.8008,32.1216,182.7159,31.8516,182.4429,31.7637z"/>
					<path fill="#B7D1E6" d="M183.6631,23.3516c-0.2534-0.9849-1.7812-1.6475-2.5722-2.1089
						c-0.5913-0.3462-1.9019-1.0376-2.4854-0.3545c-0.2344,0.2739-0.02,0.8061,0.3838,0.6606
						c-0.1597,0.0577-0.1973-0.0234,0.0562,0.1016c0.1562,0.0767,0.2988,0.1865,0.4389,0.2881
						c0.4326,0.3149,0.8936,0.5976,1.3379,0.8955c0.6108,0.4121,1.5039,1.3022,2.312,1.2119
						C183.4869,24.0059,183.7593,23.7256,183.6631,23.3516z"/>
					<path fill="#B7D1E6" d="M191.5079,12.4971c-0.1348-0.4414-0.5245-1.3169-0.9234-1.7364
						c-0.0571-0.0683-0.1982-0.121-0.2617-0.1567c-0.0044-0.0029-0.0918-0.0058-0.0918-0.0078v0.0024
						c0-0.0712-0.21-0.0712-0.4014,0.0157c-0.1645,0.0756-0.1972,0.2705-0.209,0.437c-0.0566,0.8076,0.5123,1.7573,0.6714,2.5434
						c0.2559,1.2681,0.4854,2.9458,1.7476,3.6031c0.2598,0.1352,0.6035-0.0298,0.6001-0.3413
						C192.6246,15.437,191.9229,13.8525,191.5079,12.4971z"/>
					<path fill="#B7D1E6" d="M204.9751,11.7744c0.0225-1.0127-0.0849-2.0088-0.7275-2.8203
						c-0.3257-0.4116-0.9805,0.0337-0.8467,0.4922c0.2666,0.917,0.125,1.9761,0.0508,2.9131
						c-0.0591,0.7534-0.3437,1.8428,0.4126,2.3222c0.1416,0.0899,0.3384,0.0845,0.481,0
						C205.1758,14.1885,204.9561,12.6025,204.9751,11.7744z"/>
					<path fill="#B7D1E6" d="M219.5064,14.3877c-0.7539-0.6636-1.9053,0.2905-2.5108,0.7534
						c-0.913,0.6988-1.7138,1.5816-2.4062,2.4961c-0.4043,0.5357,0.4854,1.207,0.9258,0.7134
						c0.7646-0.8599,1.667-1.562,2.6054-2.2232C218.4498,15.895,220.2242,15.0205,219.5064,14.3877z"/>
					<path fill="#B7D1E6" d="M224.983,28.2632c-1.1768-1.8682-4.2745-0.4531-6.0049-0.6655
						c-0.5381-0.0664-0.6162,0.7783-0.1241,0.9194c0.919,0.2637,1.8819,0.3193,2.8311,0.333
						c0.9463,0.0147,1.9639,0.1978,2.8984,0.1104C224.9136,28.9292,225.1861,28.5845,224.983,28.2632z"/>
					<path fill="#B7D1E6" d="M219.2749,42.4243c-0.3066-0.6006-1.1621-1.039-1.7138-1.4096
						c-0.6875-0.4615-1.4219-0.6797-2.2471-0.7247c-0.5713-0.0317-0.6523,0.814-0.1309,0.9693
						c0.6905,0.2075,1.2305,0.6753,1.7676,1.1411c0.4766,0.4126,1.1426,1,1.8116,0.916
						C219.2134,43.2603,219.4956,42.8579,219.2749,42.4243z"/>
				</g>
			</g>
			<g>
				<g>
					<path fill="#6DAECD" d="M235.0162,73.9878h-50.5611c-3.2983,0-6.2241,3.0728-6.2241,6.3706v39.0166
						c0,3.2974,2.9258,5.6128,6.2241,5.6128h14.6763l-3.5288,10.3521l12.9385-10.3521h26.4751c3.2988,0,6.2148-2.3154,6.2148-5.6128
						V80.3584C241.231,77.0606,238.315,73.9878,235.0162,73.9878z"/>
					<path fill="#FFFFFF" d="M228.231,101.9878v-8h-4.4609c-0.3155-1-0.7471-2.0718-1.2774-2.9966l3.3799-3.4023l-5.583-5.5952
						l-3.2324,3.4306c-0.9512-0.5166-1.8262-0.9316-2.8262-1.2265v-4.21h-7v4.2769c-2,0.3183-2.7588,0.7607-3.7178,1.309
						l-3.5898-3.2631l-5.7456,5.583l3.2392,3.6352c-0.5356,0.9844-1.04,2.459-1.3349,3.459h-3.8511v7h3.9834
						c0.332,1,0.7925,2.2642,1.3608,3.2314l-3.2324,3.2994l5.584,5.6176l3.7778-3.3418c0.9756,0.5162,2.5264,0.9424,3.5264,1.2247
						v4.9687h7v-5.1685c1-0.3286,2.0781-0.7783,3.0117-1.3271l3.3613,3.3486l5.5899-5.5835l-3.4688-3.3759
						c0.4981-0.941,0.8975-1.8936,1.1778-2.8936H228.231z M200.7027,98.0762c0-5.1231,4.167-9.2901,9.29-9.2901
						c5.1221,0,9.2891,4.167,9.2891,9.2901c0,5.1216-4.167,9.289-9.2891,9.289
						C204.8697,107.3652,200.7027,103.1978,200.7027,98.0762z"/>
				</g>
				<g>
					<path fill="#F1CC4E" d="M16.979,86.9878h50.5611c3.2983,0,6.6909,2.1738,6.6909,5.4717v39.0161
						c0,3.2983-3.3926,5.5122-6.6909,5.5122H52.8648l3.5283,10.3516l-12.9394-10.3516H16.979c-3.2978,0-5.748-2.2139-5.748-5.5122
						V92.4595C11.231,89.1616,13.6812,86.9878,16.979,86.9878z"/>
					<g>
						<g>
							<path fill="#FFFFFF" d="M24.7945,118.0732h-2.8633v-12.5668h2.8633v5.0117h4.0522v-5.0117H31.71v12.5668h-2.8633v-5.0415
								h-4.0522V118.0732z"/>
							<path fill="#FFFFFF" d="M32.3946,105.5064h8.8349v2.5136h-2.9853v10.0532h-2.8633V108.02h-2.9863V105.5064z"/>
							<path fill="#FFFFFF" d="M52.4395,110.625h-0.0762l-2.5747,7.3721h-1.706l-2.5738-7.3721h-0.0761l-0.5938,7.4482h-2.8642
								l1.1274-12.5668h3.0469l2.7866,7.2509l2.7881-7.2509h3.0469l1.1269,12.5668h-2.8643L52.4395,110.625z"/>
							<path fill="#FFFFFF" d="M60.2974,115.5606h4.3262v2.5126h-7.19v-12.5668h2.8638V115.5606z"/>
						</g>
					</g>
				</g>
				<g>
					<path fill="#CDCC4A" d="M89.1529,39.9878h50.5615c3.2988,0,6.5166,2.9302,6.5166,6.2285v39.0161
						c0,3.2984-3.2178,4.7554-6.5166,4.7554h-14.6758l3.5293,10.3511l-12.9394-10.3511H89.1529
						c-3.2979,0-5.9219-1.457-5.9219-4.7554V46.2163C83.231,42.918,85.855,39.9878,89.1529,39.9878z"/>
					<g>
						<g>
							<path fill="#FFFFFF" d="M105.8545,69.6148l1.6211,3.2421c0,0-1.8647,1.5406-5.4922,1.5406
								c-4.7221,0-9.0586-3.8501-9.0586-8.6328c0-4.8028,4.3169-8.6944,9.0586-8.6944c3.6275,0,5.4922,1.5405,5.4922,1.5405
								l-1.6211,3.2422c0,0-1.3374-1.0337-3.2832-1.0337c-3.83,0-5.5127,2.6758-5.5127,4.9043c0,2.25,1.6827,4.9248,5.5127,4.9248
								C104.5171,70.6484,105.8545,69.6148,105.8545,69.6148z"/>
							<path fill="#FFFFFF" d="M120.7881,58.6514l-1.54,3.04c0,0-1.6621-1.1557-3.3848-1.1557
								c-1.2973,0-1.9858,0.5883-1.9858,1.4995c0,0.9326,1.5806,1.6015,3.4858,2.4121c1.8648,0.79,3.9107,2.3711,3.9107,4.56
								c0,3.9922-3.0391,5.3902-6.3018,5.3902c-3.9116,0-6.2827-2.209-6.2827-2.209l1.9053-3.2022c0,0,2.2285,1.8858,4.0932,1.8858
								c0.8316,0,2.4117-0.0821,2.4117-1.6416c0-1.2163-1.7828-1.7637-3.7691-2.7569c-2.0068-0.9926-3.1821-2.5532-3.1821-4.2959
								c0-3.1211,2.7563-5.1074,5.4516-5.1074C118.6402,57.0703,120.7881,58.6514,120.7881,58.6514z"/>
							<path fill="#FFFFFF" d="M134.5064,58.6514l-1.54,3.04c0,0-1.6622-1.1557-3.3848-1.1557
								c-1.2969,0-1.9854,0.5883-1.9854,1.4995c0,0.9326,1.5801,1.6015,3.4859,2.4121c1.8642,0.79,3.9106,2.3711,3.9106,4.56
								c0,3.9922-3.04,5.3902-6.3022,5.3902c-3.9116,0-6.2827-2.209-6.2827-2.209l1.9052-3.2022c0,0,2.2285,1.8858,4.0938,1.8858
								c0.8305,0,2.4111-0.0821,2.4111-1.6416c0-1.2163-1.7827-1.7637-3.769-2.7569c-2.0069-0.9926-3.1822-2.5532-3.1822-4.2959
								c0-3.1211,2.7564-5.1074,5.4517-5.1074C132.358,57.0703,134.5064,58.6514,134.5064,58.6514z"/>
						</g>
					</g>
				</g>
				<g>
					<path fill="#73C4BA" d="M29.9449,156.9878h50.561c3.2983,0,6.7251,2.187,6.7251,5.4854v39.0156
						c0,3.2988-3.4268,5.499-6.7251,5.499H65.8301l3.5288,10.3516l-12.9394-10.3516H29.9449c-3.2989,0-6.7139-2.2002-6.7139-5.499
						v-39.0156C23.231,159.1748,26.646,156.9878,29.9449,156.9878z"/>
					<g>
						<g>
							<path fill="#FFFFFF" d="M48.252,186.042l1.6235,3.2466c0,0-1.8667,1.542-5.4995,1.542c-4.728,0-9.0703-3.855-9.0703-8.6436
								c0-4.8096,4.3223-8.7055,9.0703-8.7055c3.6328,0,5.4995,1.5429,5.4995,1.5429l-1.6235,3.2461
								c0,0-1.3394-1.0347-3.2871-1.0347c-3.835,0-5.52,2.6788-5.52,4.9107c0,2.2524,1.685,4.9307,5.52,4.9307
								C46.9126,187.0772,48.252,186.042,48.252,186.042z"/>
							<path fill="#FFFFFF" d="M55.4942,187.3198v-3.6518h-3.6533v-3.1045h3.6533v-3.6528h3.104v3.6528h3.6533v3.1045h-3.6533
								v3.6518H55.4942z"/>
							<path fill="#FFFFFF" d="M68.8443,187.3198v-3.6518h-3.6524v-3.1045h3.6524v-3.6528h3.104v3.6528h3.6528v3.1045h-3.6528
								v3.6518H68.8443z"/>
						</g>
					</g>
				</g>
				<g>
					<path fill="#D1D4FC" d="M14.8184,315.9878h50.5615c3.2984,0,6.8511-3.1387,6.8511-6.4365v-39.0166
						c0-3.2979-3.5527-6.5469-6.8511-6.5469H50.7037l3.5288-10.3516l-12.939,10.3516H14.8184c-3.2978,0-5.5874,3.249-5.5874,6.5469
						v39.0166C9.231,312.8491,11.5206,315.9878,14.8184,315.9878z"/>
					<g>
						<g>
							<path fill="#FFFFFF" d="M36.7583,294.7749c0,3.9688-2.2534,6.0752-6.2949,6.0752c-2.8901,0-4.7275-1.9355-4.7275-1.9355
								l1.4697-3.8457c0,0,1.4453,1.372,2.6211,1.372c1.3228,0,2.3267-0.8076,2.3267-2.8418v-13.3242h4.6049V294.7749z"/>
							<path fill="#FFFFFF" d="M53.2911,281.8179l-1.8619,3.6738c0,0-2.0087-1.3965-4.0903-1.3965
								c-1.5683,0-2.4009,0.711-2.4009,1.8135c0,1.127,1.9107,1.9346,4.2129,2.9141c2.2534,0.955,4.7276,2.8662,4.7276,5.5117
								c0,4.8252-3.6744,6.5156-7.6177,6.5156c-4.7271,0-7.5933-2.6699-7.5933-2.6699l2.3032-3.8711
								c0,0,2.6939,2.2783,4.9468,2.2783c1.0049,0,2.9156-0.0976,2.9156-1.9824c0-1.4707-2.1558-2.1318-4.5567-3.333
								c-2.4248-1.1992-3.8452-3.086-3.8452-5.1914c0-3.7725,3.3311-6.1739,6.5894-6.1739
								C50.6944,279.9067,53.2911,281.8179,53.2911,281.8179z"/>
						</g>
					</g>
				</g>
			</g>
		</g>
	</g>
	<g>
	</g>
	<g>
	</g>
	<g>
	</g>
	<g>
	</g>
	<g>
	</g>
	<g>
	</g>
</g>
</svg>
