<?xml version="1.0" encoding="utf-8"?>
<!-- Generator: Adobe Illustrator 16.0.4, SVG Export Plug-In . SVG Version: 6.00 Build 0)  -->
<!DOCTYPE svg PUBLIC "-//W3C//DTD SVG 1.1//EN" "http://www.w3.org/Graphics/SVG/1.1/DTD/svg11.dtd">
<svg version="1.1" id="Ebene_1" xmlns="http://www.w3.org/2000/svg" xmlns:xlink="http://www.w3.org/1999/xlink" x="0px" y="0px"
	 width="1311.04px" height="269.014px" viewBox="0 0 1311.04 269.014" enable-background="new 0 0 1311.04 269.014"
	 xml:space="preserve">
<g>
	<defs>
		<rect id="SVGID_1_" width="1311.041" height="269.014"/>
	</defs>
	<clipPath id="SVGID_2_">
		<use xlink:href="#SVGID_1_"  overflow="visible"/>
	</clipPath>
	<path clip-path="url(#SVGID_2_)" fill="#FFFFFF" d="M262.43,135.506c0,70.497-56.71,127.646-126.665,127.646
		C65.811,263.152,9.1,206.003,9.1,135.506C9.1,65.01,65.811,7.861,135.765,7.861C205.72,7.861,262.43,65.01,262.43,135.506"/>
	<path clip-path="url(#SVGID_2_)" fill-rule="evenodd" clip-rule="evenodd" fill="#689BC8" d="M132.598,42.481
		c3.88-3.493,8.187-6.552,13.264-8.846c0.793,1.267-1.208,2.949-2.211,4.424c-3.221,4.734-6.66,11.391-7.185,19.344
		c-0.118,4.795-0.176,4.114,0,6.632c0.647,10.834,8.135,19.954,9.396,29.847c1.959,15.368-9.283,24.445-15.475,30.402
		c4.982-24.697-17.307-34.603-14.924-55.274c0.977-8.456,5.957-13.872,10.503-19.897C128.752,46.265,130.393,44.874,132.598,42.481"
		/>
	<path clip-path="url(#SVGID_2_)" fill-rule="evenodd" clip-rule="evenodd" fill="#6A9CC8" d="M194.5,87.803
		c-0.488,28.252-38.333,19.151-40.346,45.876c-5.362-12.143-5.662-26.01,1.104-33.715c11.05-12.584,35.765-15.471,31.506-42.56
		c4.815,4.578,6.766,12.025,7.736,20.45V87.803z"/>
	<path clip-path="url(#SVGID_2_)" fill-rule="evenodd" clip-rule="evenodd" fill="#689BC8" d="M119.396,122.078
		c-0.335,4.092-1.507,8.441-2.211,12.711c-2.31-10.885-10.7-17.661-20.45-21.556c-11.95-4.773-20.851-9.091-22.663-24.872
		c-1.302-11.351,2.322-21.973,7.186-29.296C77,91.909,114.256,87.951,119.396,113.232
		C120.453,117.654,119.597,119.203,119.396,122.078"/>
	<path clip-path="url(#SVGID_2_)" fill-rule="evenodd" clip-rule="evenodd" fill="#FF5C09" d="M222.137,75.09
		c0.087-1.354-1.797-6.222-0.552-6.633c1.044,4.854,3.882,11.225,3.868,17.135v11.055c-1.729,20.562-10.737,33.849-21.003,45.874
		c-2.258,1.798-9.259,7.945-12.206,9.398c-22.8,13.357-40.984,49.343-20.405,83.459c-15.352-12.099-30.292-24.608-33.715-48.64
		v-7.185c4.824-25.899,20.219-39.445,40.347-51.403C200.062,115.326,222.338,110.568,222.137,75.09"/>
	<path clip-path="url(#SVGID_2_)" fill-rule="evenodd" clip-rule="evenodd" fill="#FF5C09" d="M48.032,82.275
		c1.141,10.473,4.67,18.97,9.948,25.425c7.369,9.012,19.352,12.39,29.847,18.24c19.718,10.995,39.238,26.812,43.666,54.168v6.631
		c-3.212,24.058-18.569,35.966-33.164,48.639c3.447-10.556,10.189-22.242,6.632-39.242C95.736,152.035,41.664,144.125,43.61,87.25
		c0.241-7.032,2.445-11.938,3.869-18.793"/>
	<path clip-path="url(#SVGID_2_)" fill="#101F8A" d="M134.506,266.324c-72.684,0-131.816-59.132-131.816-131.815
		C2.69,61.825,61.822,2.69,134.506,2.69c72.685,0,131.818,59.134,131.818,131.818C266.324,207.192,207.191,266.324,134.506,266.324
		 M134.506,15.431c-65.659,0-119.076,53.418-119.076,119.078c0,65.659,53.417,119.075,119.076,119.075
		c65.66,0,119.078-53.416,119.078-119.075C253.584,68.849,200.166,15.431,134.506,15.431"/>
</g>
<g>
	<path fill="#101F8A" d="M381.434,104.657h-35.612V42.822h35.612v10.743h-22.501v13.577h20.936v10.743h-20.936V93.83h22.501V104.657
		z"/>
	<path fill="#101F8A" d="M434.344,104.657h-12.9V77.039c0-3.411-0.515-5.97-1.544-7.676c-1.029-1.706-2.671-2.559-4.927-2.559
		c-1.691,0-3.102,0.338-4.229,1.015c-1.128,0.677-2.023,1.678-2.686,3.003c-0.663,1.326-1.135,2.961-1.417,4.906
		c-0.282,1.946-0.423,4.173-0.423,6.683v22.247h-12.9V57.372h9.854l1.734,6.048h0.719c0.677-1.212,1.501-2.255,2.475-3.13
		c0.973-0.874,2.037-1.593,3.193-2.157s2.383-0.979,3.68-1.248c1.297-0.268,2.623-0.402,3.976-0.402
		c2.312,0,4.412,0.332,6.302,0.994c1.889,0.663,3.51,1.699,4.864,3.108c1.354,1.411,2.396,3.208,3.13,5.393
		c0.733,2.186,1.1,4.801,1.1,7.846V104.657z"/>
	<path fill="#101F8A" d="M468.391,105.503c-3.383,0-6.5-0.494-9.347-1.48c-2.848-0.987-5.301-2.475-7.359-4.462
		c-2.059-1.988-3.659-4.497-4.801-7.528c-1.142-3.031-1.713-6.591-1.713-10.679c0-4.145,0.521-7.768,1.565-10.87
		c1.043-3.101,2.502-5.688,4.377-7.761c1.875-2.073,4.13-3.63,6.767-4.674c2.636-1.042,5.562-1.565,8.776-1.565
		c3.13,0,5.956,0.473,8.48,1.417c2.523,0.945,4.667,2.333,6.429,4.166c1.762,1.833,3.115,4.082,4.061,6.746
		c0.944,2.665,1.417,5.717,1.417,9.157v6.26h-28.845c0.056,1.805,0.345,3.433,0.867,4.885c0.521,1.453,1.254,2.679,2.199,3.68
		c0.944,1.001,2.086,1.77,3.426,2.305c1.339,0.536,2.869,0.804,4.589,0.804c1.438,0,2.798-0.078,4.082-0.233
		c1.283-0.154,2.53-0.387,3.743-0.698c1.212-0.31,2.411-0.698,3.595-1.163c1.184-0.465,2.396-1.008,3.637-1.628v9.981
		c-1.128,0.592-2.263,1.093-3.405,1.501c-1.142,0.409-2.347,0.755-3.616,1.037c-1.269,0.281-2.637,0.486-4.103,0.613
		C471.747,105.439,470.139,105.503,468.391,105.503z M466.742,65.662c-2.284,0-4.181,0.804-5.688,2.411
		c-1.509,1.607-2.376,4.131-2.601,7.571h16.453c-0.029-1.438-0.211-2.763-0.55-3.976c-0.338-1.212-0.846-2.263-1.523-3.151
		s-1.522-1.586-2.538-2.094S468.095,65.662,466.742,65.662z"/>
	<path fill="#101F8A" d="M522.613,56.483c0.338,0,0.712,0.007,1.121,0.021c0.408,0.014,0.803,0.042,1.184,0.084
		s0.733,0.084,1.058,0.127c0.324,0.042,0.571,0.092,0.74,0.148V68.96c-0.226-0.056-0.536-0.112-0.93-0.169
		c-0.396-0.056-0.811-0.106-1.248-0.148c-0.437-0.042-0.867-0.07-1.29-0.085c-0.423-0.014-0.776-0.021-1.058-0.021
		c-1.664,0-3.193,0.211-4.589,0.634c-1.396,0.423-2.595,1.107-3.595,2.051c-1.001,0.945-1.776,2.186-2.326,3.722
		c-0.55,1.537-0.825,3.419-0.825,5.646v24.065h-12.9V57.372h9.77l1.903,7.105h0.634c0.677-1.212,1.41-2.312,2.2-3.299
		c0.789-0.987,1.67-1.825,2.643-2.517c0.973-0.69,2.073-1.227,3.299-1.607C519.631,56.674,521.034,56.483,522.613,56.483z"/>
	<path fill="#101F8A" d="M573.898,57.457v7.021l-6.894,2.157c0.564,0.959,0.958,1.953,1.185,2.982
		c0.225,1.029,0.338,2.136,0.338,3.32c0,2.397-0.38,4.589-1.142,6.577s-1.89,3.687-3.384,5.096c-1.495,1.411-3.37,2.503-5.625,3.278
		c-2.256,0.776-4.878,1.163-7.867,1.163c-0.649,0-1.354-0.035-2.115-0.105c-0.762-0.07-1.326-0.148-1.692-0.233
		c-0.564,0.48-1.009,0.98-1.333,1.501c-0.324,0.522-0.486,1.149-0.486,1.882c0,0.592,0.183,1.064,0.55,1.417
		c0.366,0.353,0.846,0.634,1.438,0.846c0.592,0.211,1.283,0.353,2.073,0.423c0.789,0.071,1.607,0.106,2.453,0.106h7.359
		c2.284,0,4.328,0.261,6.133,0.782c1.804,0.522,3.334,1.318,4.589,2.39c1.254,1.072,2.221,2.432,2.897,4.082s1.015,3.616,1.015,5.9
		c0,2.678-0.536,5.096-1.607,7.253c-1.072,2.157-2.672,3.989-4.8,5.498c-2.129,1.508-4.773,2.665-7.93,3.468
		c-3.158,0.804-6.81,1.206-10.955,1.206c-3.214,0-6.02-0.303-8.417-0.91c-2.397-0.606-4.398-1.48-6.006-2.622
		s-2.812-2.517-3.616-4.124c-0.804-1.607-1.206-3.426-1.206-5.456c0-1.72,0.296-3.214,0.888-4.483
		c0.592-1.269,1.381-2.354,2.369-3.257c0.987-0.902,2.107-1.635,3.362-2.199c1.254-0.563,2.544-1,3.87-1.311
		c-0.592-0.254-1.178-0.606-1.755-1.058c-0.578-0.451-1.1-0.973-1.565-1.564c-0.465-0.592-0.846-1.248-1.142-1.967
		c-0.296-0.719-0.444-1.473-0.444-2.263c0-0.902,0.134-1.72,0.402-2.453c0.268-0.733,0.656-1.417,1.163-2.051
		c0.508-0.635,1.142-1.233,1.903-1.798c0.761-0.563,1.621-1.142,2.58-1.734c-2.481-1.071-4.448-2.792-5.9-5.16
		c-1.453-2.368-2.178-5.16-2.178-8.374c0-2.538,0.395-4.807,1.185-6.81c0.789-2.002,1.945-3.701,3.468-5.097
		c1.522-1.396,3.411-2.459,5.667-3.193c2.255-0.732,4.849-1.1,7.782-1.1c0.563,0,1.198,0.036,1.903,0.106
		c0.705,0.071,1.402,0.155,2.094,0.254c0.69,0.099,1.333,0.205,1.924,0.317c0.592,0.113,1.058,0.211,1.396,0.296H573.898z
		 M540.062,111.34c0,0.705,0.148,1.388,0.444,2.051c0.296,0.662,0.783,1.248,1.459,1.755c0.677,0.507,1.565,0.909,2.665,1.205
		c1.1,0.296,2.453,0.444,4.061,0.444c4.398,0,7.711-0.621,9.939-1.861c2.227-1.241,3.341-2.905,3.341-4.991
		c0-1.776-0.691-2.96-2.072-3.553c-1.382-0.592-3.525-0.888-6.429-0.888h-5.963c-0.762,0-1.58,0.091-2.453,0.275
		c-0.875,0.183-1.678,0.5-2.411,0.952c-0.733,0.451-1.347,1.05-1.84,1.798C540.309,109.274,540.062,110.212,540.062,111.34z
		 M544.715,72.852c0,2.566,0.479,4.554,1.438,5.963c0.958,1.411,2.411,2.115,4.356,2.115c2.03,0,3.496-0.704,4.398-2.115
		c0.902-1.409,1.354-3.397,1.354-5.963c0-2.538-0.444-4.553-1.333-6.048s-2.362-2.242-4.419-2.242
		C546.646,64.562,544.715,67.326,544.715,72.852z"/>
	<path fill="#101F8A" d="M582.019,45.148c0-1.212,0.183-2.22,0.55-3.024c0.366-0.804,0.867-1.452,1.501-1.945
		c0.634-0.493,1.381-0.839,2.242-1.037c0.86-0.197,1.769-0.296,2.728-0.296c0.958,0,1.861,0.099,2.707,0.296
		c0.846,0.198,1.586,0.543,2.22,1.037c0.634,0.494,1.142,1.142,1.522,1.945c0.381,0.804,0.571,1.812,0.571,3.024
		c0,1.185-0.19,2.186-0.571,3.003c-0.38,0.818-0.888,1.474-1.522,1.967c-0.634,0.494-1.375,0.846-2.22,1.058
		c-0.846,0.211-1.749,0.317-2.707,0.317c-0.959,0-1.868-0.105-2.728-0.317c-0.86-0.211-1.607-0.564-2.242-1.058
		c-0.634-0.493-1.135-1.148-1.501-1.967C582.202,47.334,582.019,46.333,582.019,45.148z M595.468,104.657h-12.9V57.372h12.9V104.657
		z"/>
	<path fill="#101F8A" d="M629.77,105.503c-3.383,0-6.5-0.494-9.347-1.48c-2.848-0.987-5.301-2.475-7.359-4.462
		c-2.059-1.988-3.659-4.497-4.801-7.528c-1.142-3.031-1.713-6.591-1.713-10.679c0-4.145,0.521-7.768,1.565-10.87
		c1.043-3.101,2.502-5.688,4.377-7.761c1.875-2.073,4.13-3.63,6.767-4.674c2.636-1.042,5.562-1.565,8.776-1.565
		c3.13,0,5.956,0.473,8.48,1.417c2.523,0.945,4.667,2.333,6.429,4.166c1.762,1.833,3.115,4.082,4.061,6.746
		c0.944,2.665,1.417,5.717,1.417,9.157v6.26h-28.845c0.056,1.805,0.345,3.433,0.867,4.885c0.521,1.453,1.254,2.679,2.199,3.68
		c0.944,1.001,2.086,1.77,3.426,2.305c1.339,0.536,2.869,0.804,4.589,0.804c1.438,0,2.798-0.078,4.082-0.233
		c1.283-0.154,2.53-0.387,3.743-0.698c1.212-0.31,2.411-0.698,3.595-1.163c1.184-0.465,2.396-1.008,3.637-1.628v9.981
		c-1.128,0.592-2.263,1.093-3.405,1.501c-1.142,0.409-2.347,0.755-3.616,1.037c-1.269,0.281-2.637,0.486-4.103,0.613
		C633.125,105.439,631.518,105.503,629.77,105.503z M628.12,65.662c-2.284,0-4.181,0.804-5.688,2.411
		c-1.509,1.607-2.376,4.131-2.601,7.571h16.453c-0.029-1.438-0.211-2.763-0.55-3.976c-0.338-1.212-0.846-2.263-1.523-3.151
		s-1.522-1.586-2.538-2.094S629.474,65.662,628.12,65.662z"/>
	<path fill="#101F8A" d="M698.456,57.457v7.021l-6.894,2.157c0.563,0.959,0.958,1.953,1.184,2.982s0.339,2.136,0.339,3.32
		c0,2.397-0.381,4.589-1.143,6.577c-0.761,1.988-1.889,3.687-3.383,5.096c-1.495,1.411-3.37,2.503-5.626,3.278
		c-2.256,0.776-4.878,1.163-7.866,1.163c-0.649,0-1.354-0.035-2.115-0.105c-0.761-0.07-1.325-0.148-1.691-0.233
		c-0.564,0.48-1.009,0.98-1.332,1.501c-0.325,0.522-0.486,1.149-0.486,1.882c0,0.592,0.183,1.064,0.55,1.417
		c0.366,0.353,0.846,0.634,1.438,0.846s1.283,0.353,2.072,0.423c0.789,0.071,1.607,0.106,2.453,0.106h7.359
		c2.284,0,4.328,0.261,6.133,0.782c1.805,0.522,3.334,1.318,4.589,2.39c1.255,1.072,2.221,2.432,2.897,4.082s1.015,3.616,1.015,5.9
		c0,2.678-0.535,5.096-1.606,7.253c-1.072,2.157-2.672,3.989-4.801,5.498c-2.129,1.508-4.772,2.665-7.931,3.468
		s-6.81,1.206-10.954,1.206c-3.214,0-6.021-0.303-8.417-0.91s-4.398-1.48-6.005-2.622c-1.607-1.142-2.812-2.517-3.617-4.124
		c-0.804-1.607-1.206-3.426-1.206-5.456c0-1.72,0.296-3.214,0.888-4.483c0.592-1.269,1.381-2.354,2.369-3.257
		c0.986-0.902,2.107-1.635,3.362-2.199c1.255-0.563,2.545-1,3.87-1.311c-0.592-0.254-1.178-0.606-1.755-1.058
		c-0.578-0.451-1.1-0.973-1.565-1.564c-0.465-0.592-0.846-1.248-1.142-1.967c-0.296-0.719-0.444-1.473-0.444-2.263
		c0-0.902,0.134-1.72,0.402-2.453c0.268-0.733,0.655-1.417,1.163-2.051c0.507-0.635,1.142-1.233,1.902-1.798
		c0.762-0.563,1.621-1.142,2.58-1.734c-2.481-1.071-4.448-2.792-5.899-5.16c-1.453-2.368-2.179-5.16-2.179-8.374
		c0-2.538,0.395-4.807,1.185-6.81c0.789-2.002,1.945-3.701,3.468-5.097c1.522-1.396,3.411-2.459,5.668-3.193
		c2.255-0.732,4.85-1.1,7.782-1.1c0.563,0,1.198,0.036,1.903,0.106c0.704,0.071,1.402,0.155,2.094,0.254
		c0.69,0.099,1.332,0.205,1.924,0.317c0.592,0.113,1.058,0.211,1.396,0.296H698.456z M664.62,111.34
		c0,0.705,0.148,1.388,0.444,2.051c0.296,0.662,0.782,1.248,1.459,1.755c0.677,0.507,1.565,0.909,2.665,1.205
		c1.1,0.296,2.453,0.444,4.06,0.444c4.399,0,7.712-0.621,9.939-1.861c2.228-1.241,3.342-2.905,3.342-4.991
		c0-1.776-0.691-2.96-2.072-3.553c-1.382-0.592-3.525-0.888-6.43-0.888h-5.963c-0.762,0-1.58,0.091-2.453,0.275
		c-0.874,0.183-1.678,0.5-2.411,0.952c-0.733,0.451-1.347,1.05-1.84,1.798C664.867,109.274,664.62,110.212,664.62,111.34z
		 M669.272,72.852c0,2.566,0.479,4.554,1.438,5.963c0.958,1.411,2.411,2.115,4.356,2.115c2.03,0,3.496-0.704,4.398-2.115
		c0.902-1.409,1.354-3.397,1.354-5.963c0-2.538-0.444-4.553-1.332-6.048c-0.889-1.495-2.362-2.242-4.42-2.242
		C671.204,64.562,669.272,67.326,669.272,72.852z"/>
	<path fill="#101F8A" d="M727.894,105.503c-3.384,0-6.5-0.494-9.348-1.48c-2.848-0.987-5.301-2.475-7.359-4.462
		s-3.658-4.497-4.8-7.528c-1.143-3.031-1.713-6.591-1.713-10.679c0-4.145,0.521-7.768,1.564-10.87
		c1.043-3.101,2.502-5.688,4.378-7.761c1.874-2.073,4.13-3.63,6.767-4.674c2.637-1.042,5.562-1.565,8.776-1.565
		c3.13,0,5.956,0.473,8.48,1.417c2.522,0.945,4.666,2.333,6.429,4.166c1.762,1.833,3.115,4.082,4.06,6.746s1.417,5.717,1.417,9.157
		v6.26H717.7c0.057,1.805,0.345,3.433,0.867,4.885c0.521,1.453,1.254,2.679,2.199,3.68c0.944,1.001,2.086,1.77,3.426,2.305
		c1.339,0.536,2.869,0.804,4.589,0.804c1.438,0,2.798-0.078,4.082-0.233c1.282-0.154,2.53-0.387,3.742-0.698
		c1.213-0.31,2.411-0.698,3.596-1.163c1.184-0.465,2.396-1.008,3.637-1.628v9.981c-1.128,0.592-2.263,1.093-3.404,1.501
		c-1.142,0.409-2.348,0.755-3.616,1.037c-1.269,0.281-2.637,0.486-4.103,0.613C731.248,105.439,729.642,105.503,727.894,105.503z
		 M726.244,65.662c-2.284,0-4.181,0.804-5.689,2.411c-1.509,1.607-2.375,4.131-2.601,7.571h16.452
		c-0.028-1.438-0.211-2.763-0.55-3.976c-0.338-1.212-0.846-2.263-1.522-3.151s-1.522-1.586-2.537-2.094
		C728.781,65.916,727.597,65.662,726.244,65.662z"/>
	<path fill="#101F8A" d="M798.482,104.657h-12.899V77.039c0-3.411-0.516-5.97-1.544-7.676c-1.03-1.706-2.672-2.559-4.928-2.559
		c-1.691,0-3.102,0.338-4.229,1.015c-1.128,0.677-2.023,1.678-2.686,3.003c-0.663,1.326-1.136,2.961-1.417,4.906
		c-0.282,1.946-0.423,4.173-0.423,6.683v22.247h-12.899V57.372h9.854l1.733,6.048h0.72c0.677-1.212,1.501-2.255,2.474-3.13
		c0.973-0.874,2.037-1.593,3.193-2.157s2.383-0.979,3.68-1.248c1.297-0.268,2.622-0.402,3.976-0.402
		c2.312,0,4.413,0.332,6.302,0.994c1.889,0.663,3.511,1.699,4.864,3.108c1.354,1.411,2.396,3.208,3.13,5.393
		c0.732,2.186,1.1,4.801,1.1,7.846V104.657z"/>
	<path fill="#101F8A" d="M852.535,80.93c0,3.948-0.501,7.444-1.501,10.489c-1.002,3.045-2.439,5.611-4.314,7.698
		c-1.875,2.087-4.159,3.673-6.852,4.758c-2.693,1.085-5.717,1.628-9.072,1.628c-3.13,0-6.006-0.543-8.628-1.628
		c-2.622-1.085-4.886-2.671-6.788-4.758c-1.903-2.086-3.392-4.652-4.463-7.698s-1.606-6.541-1.606-10.489
		c0-3.918,0.5-7.401,1.501-10.447c1.001-3.045,2.438-5.604,4.314-7.676c1.875-2.072,4.151-3.644,6.83-4.716
		c2.679-1.071,5.71-1.607,9.094-1.607c3.13,0,6.006,0.536,8.628,1.607c2.622,1.072,4.885,2.644,6.788,4.716s3.391,4.631,4.462,7.676
		C851.999,73.528,852.535,77.011,852.535,80.93z M822.506,80.93c0,4.709,0.662,8.255,1.988,10.637
		c1.325,2.383,3.481,3.574,6.471,3.574c2.961,0,5.104-1.198,6.429-3.595c1.325-2.396,1.988-5.935,1.988-10.616
		c0-4.708-0.663-8.226-1.988-10.552s-3.496-3.489-6.513-3.489c-2.961,0-5.097,1.163-6.408,3.489
		C823.162,72.704,822.506,76.221,822.506,80.93z"/>
	<path fill="#101F8A" d="M895.168,90.615c0,2.481-0.451,4.652-1.354,6.514c-0.902,1.861-2.185,3.412-3.849,4.652
		c-1.664,1.241-3.68,2.171-6.048,2.792c-2.368,0.62-5.02,0.93-7.951,0.93c-1.552,0-2.989-0.049-4.314-0.148
		c-1.325-0.099-2.58-0.261-3.764-0.486c-1.185-0.225-2.327-0.507-3.427-0.846s-2.214-0.761-3.341-1.269V92.096
		c1.185,0.592,2.432,1.128,3.743,1.607c1.311,0.479,2.615,0.895,3.912,1.248c1.297,0.353,2.559,0.628,3.785,0.825
		c1.227,0.198,2.361,0.296,3.405,0.296c1.155,0,2.143-0.105,2.96-0.317c0.817-0.212,1.487-0.508,2.01-0.888
		c0.521-0.381,0.901-0.832,1.142-1.354c0.239-0.521,0.359-1.079,0.359-1.671c0-0.592-0.092-1.121-0.274-1.586
		c-0.185-0.465-0.6-0.958-1.248-1.48c-0.649-0.521-1.601-1.113-2.854-1.776c-1.256-0.662-2.939-1.473-5.055-2.432
		c-2.059-0.931-3.842-1.854-5.351-2.771c-1.509-0.916-2.749-1.938-3.722-3.066c-0.973-1.127-1.699-2.417-2.178-3.87
		c-0.48-1.452-0.72-3.179-0.72-5.181c0-2.2,0.423-4.124,1.27-5.773c0.846-1.649,2.044-3.024,3.595-4.124s3.419-1.924,5.604-2.475
		c2.185-0.55,4.616-0.825,7.295-0.825c2.819,0,5.499,0.325,8.036,0.973c2.538,0.649,5.146,1.622,7.825,2.918l-3.892,9.136
		c-2.143-1.015-4.188-1.846-6.133-2.495c-1.945-0.648-3.891-0.973-5.837-0.973c-1.748,0-3.01,0.311-3.785,0.931
		c-0.775,0.621-1.163,1.466-1.163,2.538c0,0.564,0.099,1.065,0.296,1.501c0.197,0.438,0.593,0.888,1.185,1.354
		s1.424,0.973,2.495,1.522s2.468,1.22,4.188,2.009c2.002,0.874,3.807,1.741,5.414,2.601c1.606,0.86,2.988,1.84,4.145,2.939
		s2.044,2.383,2.665,3.849C894.857,86.753,895.168,88.529,895.168,90.615z"/>
	<path fill="#101F8A" d="M936.828,90.615c0,2.481-0.451,4.652-1.354,6.514c-0.902,1.861-2.185,3.412-3.849,4.652
		c-1.664,1.241-3.68,2.171-6.048,2.792c-2.368,0.62-5.02,0.93-7.951,0.93c-1.552,0-2.989-0.049-4.314-0.148
		c-1.325-0.099-2.58-0.261-3.764-0.486c-1.185-0.225-2.327-0.507-3.427-0.846s-2.214-0.761-3.341-1.269V92.096
		c1.185,0.592,2.432,1.128,3.743,1.607c1.311,0.479,2.615,0.895,3.912,1.248c1.297,0.353,2.559,0.628,3.785,0.825
		c1.227,0.198,2.361,0.296,3.405,0.296c1.155,0,2.143-0.105,2.96-0.317c0.817-0.212,1.487-0.508,2.01-0.888
		c0.521-0.381,0.901-0.832,1.142-1.354c0.239-0.521,0.359-1.079,0.359-1.671c0-0.592-0.092-1.121-0.274-1.586
		c-0.185-0.465-0.6-0.958-1.248-1.48c-0.649-0.521-1.601-1.113-2.854-1.776c-1.256-0.662-2.939-1.473-5.055-2.432
		c-2.059-0.931-3.842-1.854-5.351-2.771c-1.509-0.916-2.749-1.938-3.722-3.066c-0.973-1.127-1.699-2.417-2.178-3.87
		c-0.48-1.452-0.72-3.179-0.72-5.181c0-2.2,0.423-4.124,1.27-5.773c0.846-1.649,2.044-3.024,3.595-4.124s3.419-1.924,5.604-2.475
		c2.185-0.55,4.616-0.825,7.295-0.825c2.819,0,5.499,0.325,8.036,0.973c2.538,0.649,5.146,1.622,7.825,2.918l-3.892,9.136
		c-2.143-1.015-4.188-1.846-6.133-2.495c-1.945-0.648-3.891-0.973-5.837-0.973c-1.748,0-3.01,0.311-3.785,0.931
		c-0.775,0.621-1.163,1.466-1.163,2.538c0,0.564,0.099,1.065,0.296,1.501c0.197,0.438,0.593,0.888,1.185,1.354
		s1.424,0.973,2.495,1.522s2.468,1.22,4.188,2.009c2.002,0.874,3.807,1.741,5.414,2.601c1.606,0.86,2.988,1.84,4.145,2.939
		s2.044,2.383,2.665,3.849C936.518,86.753,936.828,88.529,936.828,90.615z"/>
	<path fill="#101F8A" d="M967.746,105.503c-3.384,0-6.5-0.494-9.348-1.48c-2.848-0.987-5.301-2.475-7.359-4.462
		s-3.658-4.497-4.8-7.528c-1.143-3.031-1.713-6.591-1.713-10.679c0-4.145,0.521-7.768,1.564-10.87
		c1.043-3.101,2.502-5.688,4.378-7.761c1.874-2.073,4.13-3.63,6.767-4.674c2.637-1.042,5.562-1.565,8.776-1.565
		c3.13,0,5.956,0.473,8.48,1.417c2.522,0.945,4.666,2.333,6.429,4.166c1.762,1.833,3.115,4.082,4.06,6.746s1.417,5.717,1.417,9.157
		v6.26h-28.845c0.057,1.805,0.345,3.433,0.867,4.885c0.521,1.453,1.254,2.679,2.199,3.68c0.944,1.001,2.086,1.77,3.426,2.305
		c1.339,0.536,2.869,0.804,4.589,0.804c1.438,0,2.798-0.078,4.082-0.233c1.282-0.154,2.53-0.387,3.742-0.698
		c1.213-0.31,2.411-0.698,3.596-1.163c1.184-0.465,2.396-1.008,3.637-1.628v9.981c-1.128,0.592-2.263,1.093-3.404,1.501
		c-1.142,0.409-2.348,0.755-3.616,1.037c-1.269,0.281-2.637,0.486-4.103,0.613C971.101,105.439,969.494,105.503,967.746,105.503z
		 M966.097,65.662c-2.284,0-4.181,0.804-5.689,2.411c-1.509,1.607-2.375,4.131-2.601,7.571h16.452
		c-0.028-1.438-0.211-2.763-0.55-3.976c-0.338-1.212-0.846-2.263-1.522-3.151s-1.522-1.586-2.537-2.094
		C968.634,65.916,967.449,65.662,966.097,65.662z"/>
	<path fill="#101F8A" d="M1038.336,104.657h-12.899V77.039c0-3.411-0.516-5.97-1.544-7.676c-1.03-1.706-2.672-2.559-4.928-2.559
		c-1.691,0-3.102,0.338-4.229,1.015c-1.128,0.677-2.023,1.678-2.686,3.003c-0.663,1.326-1.136,2.961-1.417,4.906
		c-0.282,1.946-0.423,4.173-0.423,6.683v22.247h-12.899V57.372h9.854l1.733,6.048h0.72c0.677-1.212,1.501-2.255,2.474-3.13
		c0.973-0.874,2.037-1.593,3.193-2.157s2.383-0.979,3.68-1.248c1.297-0.268,2.622-0.402,3.976-0.402
		c2.312,0,4.413,0.332,6.302,0.994c1.889,0.663,3.511,1.699,4.864,3.108c1.354,1.411,2.396,3.208,3.13,5.393
		c0.732,2.186,1.1,4.801,1.1,7.846V104.657z"/>
	<path fill="#101F8A" d="M1083.126,90.615c0,2.481-0.451,4.652-1.354,6.514c-0.902,1.861-2.185,3.412-3.849,4.652
		c-1.664,1.241-3.68,2.171-6.048,2.792c-2.368,0.62-5.02,0.93-7.951,0.93c-1.552,0-2.989-0.049-4.314-0.148
		c-1.325-0.099-2.58-0.261-3.764-0.486c-1.185-0.225-2.327-0.507-3.427-0.846s-2.214-0.761-3.341-1.269V92.096
		c1.185,0.592,2.432,1.128,3.743,1.607c1.311,0.479,2.615,0.895,3.912,1.248c1.297,0.353,2.559,0.628,3.785,0.825
		c1.227,0.198,2.361,0.296,3.405,0.296c1.155,0,2.143-0.105,2.96-0.317c0.817-0.212,1.487-0.508,2.01-0.888
		c0.521-0.381,0.901-0.832,1.142-1.354c0.239-0.521,0.359-1.079,0.359-1.671c0-0.592-0.092-1.121-0.274-1.586
		c-0.185-0.465-0.6-0.958-1.248-1.48c-0.649-0.521-1.601-1.113-2.854-1.776c-1.256-0.662-2.939-1.473-5.055-2.432
		c-2.059-0.931-3.842-1.854-5.351-2.771c-1.509-0.916-2.749-1.938-3.722-3.066c-0.973-1.127-1.699-2.417-2.178-3.87
		c-0.48-1.452-0.72-3.179-0.72-5.181c0-2.2,0.423-4.124,1.27-5.773c0.846-1.649,2.044-3.024,3.595-4.124s3.419-1.924,5.604-2.475
		c2.185-0.55,4.616-0.825,7.295-0.825c2.819,0,5.499,0.325,8.036,0.973c2.538,0.649,5.146,1.622,7.825,2.918l-3.892,9.136
		c-2.143-1.015-4.188-1.846-6.133-2.495c-1.945-0.648-3.891-0.973-5.837-0.973c-1.748,0-3.01,0.311-3.785,0.931
		c-0.775,0.621-1.163,1.466-1.163,2.538c0,0.564,0.099,1.065,0.296,1.501c0.197,0.438,0.593,0.888,1.185,1.354
		s1.424,0.973,2.495,1.522s2.468,1.22,4.188,2.009c2.002,0.874,3.807,1.741,5.414,2.601c1.606,0.86,2.988,1.84,4.145,2.939
		s2.044,2.383,2.665,3.849C1082.815,86.753,1083.126,88.529,1083.126,90.615z"/>
	<path fill="#101F8A" d="M1112.944,105.503c-3.384,0-6.437-0.465-9.157-1.396c-2.722-0.931-5.048-2.375-6.979-4.335
		c-1.932-1.959-3.412-4.468-4.441-7.528c-1.029-3.059-1.543-6.717-1.543-10.976c0-4.708,0.528-8.649,1.586-11.821
		c1.057-3.172,2.552-5.716,4.483-7.634c1.931-1.917,4.257-3.284,6.979-4.103c2.721-0.817,5.744-1.227,9.072-1.227
		c2.424,0,4.835,0.296,7.232,0.888c2.396,0.592,4.652,1.424,6.767,2.496l-3.722,9.812c-1.861-0.818-3.652-1.487-5.371-2.009
		c-1.721-0.521-3.356-0.782-4.906-0.782c-3.13,0-5.4,1.191-6.81,3.574c-1.41,2.383-2.115,5.957-2.115,10.722
		c0,4.737,0.705,8.234,2.115,10.489c1.409,2.256,3.622,3.383,6.64,3.383c2.453,0,4.681-0.317,6.683-0.952
		c2.002-0.634,4.046-1.444,6.133-2.432v10.743c-1.043,0.508-2.059,0.959-3.045,1.354c-0.987,0.395-1.981,0.719-2.981,0.973
		c-1.002,0.254-2.045,0.444-3.13,0.571C1115.348,105.439,1114.185,105.503,1112.944,105.503z"/>
	<path fill="#101F8A" d="M1177.527,104.657h-12.899V77.039c0-3.411-0.529-5.97-1.587-7.676c-1.057-1.706-2.686-2.559-4.885-2.559
		c-1.664,0-3.06,0.338-4.188,1.015c-1.128,0.677-2.029,1.678-2.706,3.003c-0.677,1.326-1.157,2.961-1.438,4.906
		c-0.282,1.946-0.423,4.173-0.423,6.683v22.247h-12.899V38.847h12.899v13.407c0,1.185-0.028,2.432-0.085,3.743
		s-0.127,2.517-0.211,3.616c-0.113,1.297-0.212,2.566-0.296,3.807h0.677c1.381-2.453,3.144-4.222,5.286-5.308
		c2.143-1.085,4.568-1.628,7.275-1.628c2.34,0,4.462,0.332,6.365,0.994c1.903,0.663,3.531,1.699,4.885,3.108
		c1.354,1.411,2.396,3.208,3.13,5.393c0.732,2.186,1.1,4.801,1.1,7.846V104.657z"/>
	<path fill="#101F8A" d="M1218.258,104.657l-2.496-6.429h-0.38c-0.931,1.269-1.861,2.362-2.792,3.278
		c-0.931,0.917-1.945,1.67-3.045,2.263s-2.334,1.029-3.701,1.311c-1.368,0.282-2.954,0.423-4.758,0.423
		c-1.918,0-3.694-0.303-5.329-0.909c-1.636-0.606-3.053-1.522-4.251-2.749s-2.136-2.777-2.812-4.652
		c-0.677-1.875-1.015-4.096-1.015-6.662c0-5.019,1.606-8.719,4.821-11.103c3.214-2.382,8.021-3.701,14.423-3.954l7.528-0.254v-3.553
		c0-1.946-0.564-3.384-1.692-4.314c-1.128-0.931-2.707-1.396-4.736-1.396c-2.03,0-4.012,0.296-5.942,0.888
		c-1.932,0.592-3.87,1.382-5.815,2.369l-4.188-8.543c2.368-1.325,4.99-2.369,7.866-3.13c2.877-0.761,5.894-1.142,9.052-1.142
		c5.893,0,10.411,1.382,13.556,4.145c3.144,2.764,4.716,6.965,4.716,12.604v31.51H1218.258z M1214.451,82.749l-4.272,0.169
		c-1.72,0.057-3.172,0.282-4.355,0.676c-1.185,0.396-2.137,0.924-2.855,1.586c-0.719,0.663-1.241,1.453-1.564,2.368
		c-0.325,0.917-0.486,1.939-0.486,3.066c0,1.974,0.479,3.377,1.438,4.208c0.958,0.832,2.213,1.248,3.765,1.248
		c1.184,0,2.283-0.204,3.299-0.613c1.015-0.408,1.896-1.015,2.644-1.818c0.746-0.804,1.332-1.791,1.755-2.961
		c0.423-1.169,0.635-2.517,0.635-4.039V82.749z"/>
	<path fill="#101F8A" d="M1265.12,67.057h-9.602v37.6h-12.899v-37.6h-7.105V60.84l7.105-3.468v-3.468c0-3.017,0.366-5.52,1.1-7.507
		c0.732-1.988,1.776-3.574,3.13-4.758s2.988-2.023,4.906-2.517c1.917-0.493,4.074-0.74,6.471-0.74c2.594,0,4.779,0.205,6.556,0.613
		c1.776,0.409,3.284,0.867,4.525,1.375l-3.045,9.474c-0.874-0.31-1.791-0.592-2.749-0.846c-0.959-0.254-2.087-0.381-3.384-0.381
		c-1.691,0-2.884,0.543-3.574,1.628c-0.691,1.086-1.036,2.474-1.036,4.166v2.96h9.602V67.057z"/>
	<path fill="#101F8A" d="M1293.288,95.226c1.269,0,2.475-0.141,3.616-0.423c1.143-0.282,2.306-0.635,3.489-1.058v9.601
		c-1.213,0.621-2.714,1.135-4.504,1.543c-1.791,0.409-3.743,0.613-5.858,0.613c-2.059,0-3.976-0.24-5.752-0.719
		s-3.313-1.318-4.61-2.517c-1.297-1.198-2.319-2.805-3.066-4.822c-0.747-2.016-1.12-4.546-1.12-7.592V67.057h-6.175v-5.456
		l7.105-4.314l3.722-9.981h8.247v10.066h11.505v9.686h-11.505v22.797c0,1.833,0.451,3.187,1.354,4.061
		S1291.822,95.226,1293.288,95.226z"/>
</g>
<g>
	<path fill="#101F8A" d="M365.201,194.812v30.846h-17.045v-80.386h21.994c10.3,0,17.905,1.989,22.818,5.966
		c4.912,3.978,7.368,10.017,7.368,18.117c0,2.749-0.367,5.242-1.1,7.478c-0.734,2.236-1.714,4.226-2.942,5.966
		c-1.229,1.741-2.639,3.263-4.233,4.563c-1.595,1.302-3.271,2.392-5.031,3.271c4.069,6.525,7.716,12.354,10.942,17.484
		c1.393,2.2,2.74,4.344,4.041,6.434c1.301,2.089,2.465,3.959,3.492,5.608c1.026,1.649,1.869,2.969,2.529,3.959l0.935,1.539h-18.914
		l-17.43-30.846H365.201z M365.201,180.957h4.619c4.729,0,8.119-0.943,10.172-2.832c2.052-1.887,3.079-4.664,3.079-8.33
		c0-3.812-1.1-6.523-3.299-8.137c-2.2-1.613-5.608-2.42-10.227-2.42h-4.344V180.957z"/>
	<path fill="#101F8A" d="M471.098,225.658h-16.77v-35.904c0-4.435-0.687-7.761-2.062-9.979c-1.375-2.217-3.492-3.326-6.351-3.326
		c-2.163,0-3.978,0.44-5.443,1.319c-1.467,0.88-2.639,2.182-3.519,3.904c-0.88,1.724-1.503,3.849-1.869,6.378
		c-0.367,2.529-0.55,5.425-0.55,8.688v28.921h-16.77v-85.554h16.77v17.43c0,1.539-0.037,3.161-0.11,4.866
		c-0.074,1.704-0.165,3.271-0.275,4.701c-0.147,1.687-0.275,3.336-0.385,4.948h0.88c1.795-3.189,4.086-5.489,6.873-6.9
		c2.786-1.411,5.938-2.117,9.458-2.117c3.042,0,5.8,0.432,8.275,1.292c2.474,0.862,4.591,2.209,6.351,4.042
		c1.759,1.833,3.115,4.17,4.068,7.01c0.953,2.841,1.43,6.241,1.43,10.199V225.658z"/>
	<path fill="#101F8A" d="M515.359,226.757c-4.398,0-8.449-0.642-12.151-1.925c-3.703-1.282-6.892-3.216-9.567-5.8
		c-2.676-2.585-4.756-5.847-6.241-9.787c-1.484-3.94-2.227-8.568-2.227-13.884c0-5.388,0.678-10.098,2.034-14.131
		c1.356-4.031,3.252-7.395,5.691-10.089c2.437-2.694,5.369-4.719,8.797-6.076c3.427-1.355,7.23-2.034,11.409-2.034
		c4.069,0,7.743,0.614,11.024,1.842c3.28,1.229,6.066,3.034,8.357,5.416c2.29,2.384,4.05,5.306,5.278,8.77
		c1.228,3.465,1.842,7.433,1.842,11.904v8.138h-37.499c0.073,2.346,0.449,4.463,1.127,6.351c0.678,1.888,1.63,3.482,2.859,4.783
		c1.228,1.302,2.712,2.301,4.454,2.997c1.741,0.696,3.729,1.044,5.966,1.044c1.869,0,3.637-0.101,5.306-0.302
		c1.667-0.201,3.29-0.504,4.866-0.907c1.576-0.403,3.134-0.907,4.673-1.513c1.54-0.604,3.115-1.31,4.729-2.116v12.976
		c-1.466,0.77-2.941,1.421-4.426,1.952c-1.485,0.531-3.052,0.981-4.701,1.347c-1.649,0.366-3.428,0.633-5.333,0.798
		C519.721,226.675,517.632,226.757,515.359,226.757z M513.215,174.963c-2.969,0-5.435,1.045-7.396,3.134
		c-1.961,2.09-3.088,5.37-3.381,9.842h21.388c-0.037-1.869-0.275-3.592-0.715-5.168c-0.439-1.576-1.1-2.941-1.979-4.097
		c-0.88-1.154-1.979-2.062-3.299-2.722C516.514,175.293,514.975,174.963,513.215,174.963z"/>
	<path fill="#101F8A" d="M553.078,148.296c0-1.575,0.238-2.887,0.715-3.932c0.476-1.044,1.127-1.887,1.952-2.528
		s1.796-1.091,2.914-1.348c1.118-0.256,2.3-0.385,3.546-0.385s2.419,0.129,3.519,0.385c1.1,0.257,2.062,0.706,2.887,1.348
		s1.484,1.484,1.979,2.528c0.495,1.045,0.742,2.356,0.742,3.932c0,1.54-0.248,2.841-0.742,3.904
		c-0.495,1.063-1.155,1.915-1.979,2.557s-1.787,1.1-2.887,1.374c-1.1,0.275-2.273,0.413-3.519,0.413s-2.429-0.138-3.546-0.413
		c-1.118-0.274-2.089-0.732-2.914-1.374s-1.476-1.493-1.952-2.557C553.316,151.137,553.078,149.836,553.078,148.296z
		 M570.563,225.658h-16.77v-61.471h16.77V225.658z"/>
	<path fill="#101F8A" d="M641.491,225.658h-16.77v-35.904c0-4.435-0.669-7.761-2.007-9.979c-1.338-2.217-3.473-3.326-6.405-3.326
		c-2.199,0-4.033,0.44-5.499,1.319c-1.466,0.88-2.63,2.182-3.491,3.904c-0.862,1.724-1.476,3.849-1.842,6.378
		c-0.367,2.529-0.55,5.425-0.55,8.688v28.921h-16.77v-61.471h12.811l2.254,7.862h0.935c0.88-1.576,1.952-2.933,3.216-4.069
		c1.265-1.136,2.648-2.07,4.151-2.804c1.502-0.732,3.097-1.273,4.784-1.622c1.686-0.348,3.409-0.522,5.168-0.522
		c3.005,0,5.736,0.432,8.192,1.292c2.455,0.862,4.563,2.209,6.323,4.042c1.759,1.833,3.115,4.17,4.068,7.01
		c0.953,2.841,1.43,6.241,1.43,10.199V225.658z"/>
	<path fill="#101F8A" d="M653.312,202.345v-13.746h29.526v13.746H653.312z"/>
	<path fill="#101F8A" d="M713.354,194.812v30.846H696.31v-80.386h21.993c10.3,0,17.905,1.989,22.817,5.966
		c4.912,3.978,7.368,10.017,7.368,18.117c0,2.749-0.367,5.242-1.1,7.478c-0.733,2.236-1.714,4.226-2.941,5.966
		c-1.229,1.741-2.64,3.263-4.234,4.563c-1.594,1.302-3.271,2.392-5.03,3.271c4.068,6.525,7.716,12.354,10.941,17.484
		c1.393,2.2,2.739,4.344,4.041,6.434c1.301,2.089,2.465,3.959,3.491,5.608s1.87,2.969,2.529,3.959l0.935,1.539h-18.914
		l-17.43-30.846H713.354z M713.354,180.957h4.618c4.729,0,8.118-0.943,10.172-2.832c2.053-1.887,3.079-4.664,3.079-8.33
		c0-3.812-1.1-6.523-3.299-8.137s-5.608-2.42-10.228-2.42h-4.343V180.957z"/>
	<path fill="#101F8A" d="M806.11,225.658l-2.255-7.862h-0.88c-0.916,1.576-2.007,2.923-3.271,4.041s-2.648,2.044-4.15,2.776
		c-1.504,0.734-3.099,1.273-4.784,1.622c-1.687,0.348-3.409,0.522-5.168,0.522c-3.006,0-5.737-0.432-8.192-1.292
		c-2.456-0.861-4.563-2.208-6.323-4.041s-3.116-4.16-4.069-6.983c-0.953-2.822-1.429-6.213-1.429-10.172v-40.082h16.77v35.903
		c0,4.436,0.668,7.763,2.007,9.979c1.338,2.219,3.473,3.326,6.405,3.326c2.199,0,4.032-0.439,5.499-1.319
		c1.465-0.88,2.629-2.181,3.491-3.903c0.86-1.723,1.475-3.849,1.842-6.378c0.366-2.529,0.55-5.425,0.55-8.688v-28.921h16.77v61.471
		H806.11z"/>
	<path fill="#101F8A" d="M889.85,225.658h-16.77v-35.904c0-4.435-0.688-7.761-2.062-9.979c-1.374-2.217-3.491-3.326-6.351-3.326
		c-2.163,0-3.978,0.44-5.443,1.319c-1.466,0.88-2.639,2.182-3.519,3.904c-0.88,1.724-1.503,3.849-1.869,6.378
		c-0.367,2.529-0.55,5.425-0.55,8.688v28.921h-16.771v-85.554h16.771v17.43c0,1.539-0.037,3.161-0.11,4.866
		c-0.074,1.704-0.165,3.271-0.274,4.701c-0.147,1.687-0.275,3.336-0.385,4.948h0.879c1.796-3.189,4.087-5.489,6.873-6.9
		c2.785-1.411,5.938-2.117,9.457-2.117c3.042,0,5.801,0.432,8.275,1.292c2.474,0.862,4.591,2.209,6.351,4.042
		c1.759,1.833,3.115,4.17,4.068,7.01c0.953,2.841,1.43,6.241,1.43,10.199V225.658z"/>
	<path fill="#101F8A" d="M939.17,163.032c0.439,0,0.925,0.01,1.457,0.027c0.531,0.02,1.045,0.056,1.539,0.11
		c0.495,0.055,0.953,0.11,1.375,0.165c0.421,0.055,0.742,0.119,0.962,0.192v15.726c-0.294-0.073-0.696-0.146-1.209-0.221
		c-0.514-0.072-1.055-0.137-1.622-0.192c-0.569-0.055-1.128-0.091-1.678-0.109s-1.008-0.028-1.374-0.028
		c-2.163,0-4.151,0.275-5.966,0.825s-3.373,1.439-4.674,2.667c-1.301,1.229-2.309,2.841-3.023,4.838
		c-0.715,1.999-1.072,4.445-1.072,7.341v31.285h-16.771v-61.471h12.701l2.475,9.236h0.825c0.879-1.575,1.832-3.005,2.858-4.288
		s2.172-2.373,3.437-3.271s2.694-1.595,4.289-2.09C935.294,163.28,937.116,163.032,939.17,163.032z"/>
	<path fill="#101F8A" d="M1012.242,226.757c-4.398,0-8.449-0.642-12.151-1.925c-3.702-1.282-6.892-3.216-9.567-5.8
		c-2.676-2.585-4.756-5.847-6.24-9.787s-2.227-8.568-2.227-13.884c0-5.388,0.678-10.098,2.034-14.131
		c1.355-4.031,3.253-7.395,5.69-10.089s5.37-4.719,8.798-6.076c3.427-1.355,7.23-2.034,11.409-2.034
		c4.068,0,7.743,0.614,11.023,1.842c3.28,1.229,6.066,3.034,8.357,5.416c2.291,2.384,4.05,5.306,5.278,8.77
		c1.229,3.465,1.843,7.433,1.843,11.904v8.138h-37.499c0.073,2.346,0.448,4.463,1.127,6.351c0.678,1.888,1.631,3.482,2.859,4.783
		c1.228,1.302,2.712,2.301,4.454,2.997c1.74,0.696,3.729,1.044,5.965,1.044c1.87,0,3.638-0.101,5.307-0.302
		c1.667-0.201,3.289-0.504,4.865-0.907s3.135-0.907,4.674-1.513c1.54-0.604,3.115-1.31,4.729-2.116v12.976
		c-1.467,0.77-2.941,1.421-4.426,1.952s-3.052,0.981-4.701,1.347c-1.649,0.366-3.428,0.633-5.333,0.798
		C1016.604,226.675,1014.515,226.757,1012.242,226.757z M1010.098,174.963c-2.969,0-5.435,1.045-7.395,3.134
		c-1.962,2.09-3.089,5.37-3.382,9.842h21.389c-0.037-1.869-0.275-3.592-0.715-5.168c-0.44-1.576-1.1-2.941-1.979-4.097
		c-0.88-1.154-1.979-2.062-3.299-2.722C1013.396,175.293,1011.857,174.963,1010.098,174.963z"/>
	<path fill="#101F8A" d="M1082.511,180.516h31.89v41.678c-2.126,0.696-4.271,1.329-6.433,1.896c-2.163,0.569-4.408,1.045-6.735,1.43
		c-2.328,0.385-4.766,0.688-7.312,0.907c-2.549,0.22-5.251,0.33-8.11,0.33c-6.012,0-11.336-0.889-15.973-2.667
		c-4.638-1.777-8.541-4.416-11.712-7.917c-3.171-3.5-5.58-7.826-7.229-12.977c-1.649-5.149-2.475-11.097-2.475-17.842
		c0-6.304,0.916-12.004,2.749-17.1c1.833-5.095,4.536-9.43,8.11-13.004c3.573-3.573,7.973-6.322,13.195-8.247
		c5.224-1.925,11.208-2.887,17.952-2.887c4.289,0,8.485,0.459,12.592,1.375c4.104,0.916,7.862,2.108,11.271,3.573l-5.664,13.636
		c-2.493-1.245-5.306-2.29-8.439-3.134c-3.134-0.843-6.425-1.265-9.869-1.265c-3.739,0-7.103,0.651-10.09,1.952
		c-2.988,1.302-5.545,3.144-7.67,5.525c-2.126,2.384-3.758,5.261-4.894,8.633c-1.137,3.373-1.704,7.13-1.704,11.271
		c0,3.959,0.393,7.579,1.182,10.859c0.788,3.28,2.025,6.112,3.712,8.494c1.686,2.384,3.857,4.234,6.515,5.554
		s5.837,1.979,9.54,1.979c2.419,0,4.462-0.11,6.131-0.33c1.667-0.22,3.234-0.476,4.701-0.77v-16.77h-15.23V180.516z"/>
</g>
</svg>
