<?xml version="1.0" encoding="utf-8"?>
<!-- Generator: Adobe Illustrator 16.0.4, SVG Export Plug-In . SVG Version: 6.00 Build 0)  -->
<!DOCTYPE svg PUBLIC "-//W3C//DTD SVG 1.1//EN" "http://www.w3.org/Graphics/SVG/1.1/DTD/svg11.dtd">
<svg version="1.1" id="Ebene_1" xmlns="http://www.w3.org/2000/svg" xmlns:xlink="http://www.w3.org/1999/xlink" x="0px" y="0px"
	 width="514.964px" height="92.879px" viewBox="0 0 514.964 92.879" enable-background="new 0 0 514.964 92.879"
	 xml:space="preserve">
<g>
	<g>
		<path fill-rule="evenodd" clip-rule="evenodd" fill="#1C529E" d="M290.016,86.457c-1.756-1.841-4.296-1.229-6.4-2.035
			c-5.663-2.17-9.848-5.586-10.588-12.001c-0.799-6.917,1.852-11.976,7.967-15.298c9.261-5.033,19.484-5.156,29.616-5.646
			c2.992-0.145,6.023-0.276,8.988,0.041c3.519,0.375,3.824-1.436,3.545-4.129c-0.376-3.612-2.36-5.991-5.802-6.592
			c-4.306-0.753-8.879-1.086-11.738,3.204c-1.157,1.736-2.154,2.542-4.263,2.508c-7.495-0.12-14.995-0.134-22.489-0.002
			c-2.709,0.049-3.093-0.911-2.324-3.241c1.463-4.43,4.577-7.255,8.605-9.22c10.695-5.214,22.204-5.356,33.696-5.021
			c6.965,0.203,13.945,0.766,20.637,3.181c9.605,3.468,13.569,8.967,13.741,19.021c0.171,9.982-0.709,19.992,0.633,29.942
			c0.308,2.281-0.542,2.92-2.681,2.899c-7.33-0.072-14.661,0.024-21.991-0.052c-2.813-0.029-2.812-0.162-3.827-6.809
			c-4.675,5.834-11.342,6.821-17.325,9.25C302.016,86.457,296.016,86.457,290.016,86.457z M317.137,61.963
			c-3.584,0.314-7.135,0.226-10.369,1.798c-2.189,1.064-3.988,2.55-3.712,5.349c0.26,2.641,1.959,4.146,4.293,4.998
			c4.201,1.531,10.424-0.11,13.281-3.564c1.74-2.104,3.34-4.672,2.235-7.301C321.838,60.799,318.99,62.586,317.137,61.963z"/>
		<path fill-rule="evenodd" clip-rule="evenodd" fill="#B4B4B3" d="M101.016,86.457c-3.458-0.987-6.946-1.881-10.368-2.979
			c-12.252-3.932-19.432-12.404-19.435-24.206c-0.003-12.151,4.022-20.801,16.782-25.605c17.097-6.437,34.491-6.466,51.286,1.464
			c9.725,4.592,13.682,12.973,13.853,23.502c0.052,3.208-1.237,3.895-4.129,3.872c-13.979-0.107-27.958-0.057-41.937-0.043
			c-5.474,0.006-5.682,0.459-4.118,5.669c1.33,4.429,4.41,6.604,8.688,6.997c3.754,0.344,7.386-0.395,9.259-4.287
			c0.982-2.039,2.579-2.289,4.521-2.279c7.488,0.039,14.978-0.025,22.466,0.031c4.493,0.033,5.487,1.643,3.061,5.39
			c-5.069,7.829-13.296,9.915-21.747,11.452c-1.415,0.258-3.05-0.398-4.181,1.021C117.016,86.457,109.016,86.457,101.016,86.457z
			 M111.658,51.576c2.156,0,4.313,0.049,6.469-0.011c4.111-0.113,4.933-1.447,3.25-5.275c-1.502-3.417-4.217-4.808-7.888-4.983
			c-4.305-0.207-7.956,0.755-10.131,4.776c-2.29,4.236-1.516,5.44,3.323,5.491C108.34,51.592,109.999,51.577,111.658,51.576z"/>
		<path fill-rule="evenodd" clip-rule="evenodd" fill="#1C529E" d="M390.016,86.457c-2.357-2.043-5.485-1.904-8.229-2.846
			c-15.003-5.145-21.905-16.895-18.684-32.396c1.43-6.88,5.095-12.541,11.526-15.474c18.803-8.575,38.022-8.771,57.171-1.268
			c6.337,2.483,10.551,7.349,11.592,14.528c0.364,2.514,0.109,3.579-2.795,3.519c-7.994-0.169-15.995-0.128-23.992-0.015
			c-2.248,0.032-3.178-0.689-3.662-2.939c-0.946-4.404-3.812-7.064-8.448-6.985c-4.56,0.078-7.358,2.752-8.581,7.045
			c-1.736,6.096-1.525,12.2,0.468,18.182c1.231,3.696,3.938,5.693,7.938,5.634c4.249-0.063,7.734-1.733,8.587-6.093
			c0.635-3.248,2.109-3.867,5.04-3.797c7.327,0.176,14.673,0.303,21.989-0.034c4.391-0.202,4.716,1.747,3.752,5.054
			c-1.815,6.219-6.29,9.961-11.787,12.859c-5.01,2.643-10.762,2.817-15.885,5.027C407.349,86.457,398.683,86.457,390.016,86.457z"/>
		<path fill-rule="evenodd" clip-rule="evenodd" fill="#1C529E" d="M475.016,86.457c-2.6-1.762-5.922-1.83-8.479-3.809
			c-4.826-3.735-6.132-8.965-6.323-14.579c-0.204-5.987-0.175-11.992,0.01-17.981c0.085-2.778-0.705-4.158-3.593-3.612
			c-4.859,0.919-6.092-1.472-5.488-5.758c0.161-1.143,0.155-2.345,0.001-3.49c-0.567-4.222,0.528-6.728,5.455-5.793
			c2.723,0.517,3.718-0.956,3.222-3.418c-0.986-4.894,1.472-6.603,5.868-7.696c7.083-1.762,14.047-4.054,20.966-6.401
			c3.37-1.143,4.889-0.87,4.589,3.184c-0.281,3.81,0.032,7.659-0.093,11.485c-0.07,2.166,0.721,2.95,2.88,2.896
			c4.326-0.109,8.656-0.028,12.985-0.025c0,5,0,10,0,15c-2.161,0.002-4.322,0.004-6.483,0.004c-9.35,0.002-9.35,0.002-9.35,9.328
			c0,14.281,1.634,15.794,15.833,14.668c0,4.666,0,9.334,0,14c-2.551,1.132-5.604,0.251-8,2
			C491.016,86.457,483.016,86.457,475.016,86.457z"/>
		<path fill-rule="evenodd" clip-rule="evenodd" fill="#B4B4B3" d="M7.016,31.457c8.32,0,16.646,0.174,24.958-0.08
			c3.78-0.116,5.577,0.798,5.173,4.905c-0.17,1.735,0.519,3.555,1.088,6.958c3.685-9.572,10.622-12.451,18.633-13.665
			c3.542-0.537,5.94,0.166,5.234,4.563c-0.183,1.135-0.011,2.326-0.03,3.49c-0.064,3.82,1.114,8.349-0.539,11.275
			c-1.96,3.472-6.955,0.997-10.583,1.565c-7.27,1.139-11.625,5.646-11.907,13.109c-0.213,5.65-0.217,11.318-0.028,16.969
			c0.104,3.105-1.048,4.013-4.046,3.965c-9.315-0.148-18.635-0.055-27.953-0.055C7.016,66.791,7.016,49.123,7.016,31.457z"/>
		<path fill-rule="evenodd" clip-rule="evenodd" fill="#B4B4B3" d="M184.308,84.458c-3.664,0-7.345-0.218-10.987,0.062
			c-3.636,0.279-4.492-1.238-4.428-4.607c0.185-9.656-0.069-19.32,0.136-28.977c0.073-3.467-0.969-5.035-4.489-4.471
			c-3.905,0.626-5.073-1.241-4.609-4.825c0.17-1.311,0.179-2.682,0-3.99c-0.608-4.45,0.501-7.128,5.735-6.228
			c2.238,0.385,3.388-0.614,3.305-3.062c-0.575-16.968,10.48-21.229,24.086-21.854c6.467-0.297,12.938-0.066,19.402,0.819
			c2.771,0.379,3.933,1.25,3.62,3.977c-0.038,0.329-0.008,0.666-0.004,0.999c0.113,8.493,0.116,8.529-8.205,9.139
			c-2.65,0.194-4.908,1.085-6.426,3.271c-1.156,1.666-2.019,3.667-1.113,5.642c0.892,1.946,2.951,1.039,4.485,1.064
			c10.49,0.179,10.332,0.145,10.346,10.672c0.005,3.604-1.239,4.448-4.62,4.444c-10.523-0.014-10.523,0.117-10.523,10.775
			c-0.001,7.661-0.144,15.326,0.065,22.982c0.09,3.312-1.033,4.422-4.287,4.222C191.98,84.277,188.139,84.458,184.308,84.458z"/>
		<path fill-rule="evenodd" clip-rule="evenodd" fill="#B4B4B3" d="M260.958,46.656c0,10.985-0.124,21.973,0.071,32.954
			c0.063,3.536-0.664,5.094-4.626,4.937c-7.644-0.304-15.312-0.203-22.964-0.033c-3.081,0.068-4.454-0.618-4.434-4.09
			c0.133-22.635,0.129-45.272,0.003-67.907c-0.019-3.382,1.199-4.249,4.365-4.176c7.819,0.179,15.648,0.203,23.466-0.008
			c3.394-0.091,4.216,1.217,4.175,4.37C260.868,24.019,260.957,35.338,260.958,46.656z"/>
		<path fill-rule="evenodd" clip-rule="evenodd" fill="#FEFEFE" d="M317.137,61.963c1.854,0.623,4.701-1.164,5.729,1.279
			c1.104,2.629-0.495,5.197-2.235,7.301c-2.857,3.454-9.08,5.096-13.281,3.564c-2.334-0.852-4.033-2.357-4.293-4.998
			c-0.276-2.799,1.522-4.284,3.712-5.349C310.002,62.188,313.553,62.277,317.137,61.963z"/>
	</g>
</g>
<g>
</g>
<g>
</g>
<g>
</g>
<g>
</g>
<g>
</g>
<g>
</g>
</svg>
