<?xml version="1.0" encoding="utf-8"?>
<!-- Generator: Adobe Illustrator 16.0.4, SVG Export Plug-In . SVG Version: 6.00 Build 0)  -->
<!DOCTYPE svg PUBLIC "-//W3C//DTD SVG 1.1//EN" "http://www.w3.org/Graphics/SVG/1.1/DTD/svg11.dtd">
<svg version="1.1" id="Ebene_1" xmlns="http://www.w3.org/2000/svg" xmlns:xlink="http://www.w3.org/1999/xlink" x="0px" y="0px"
	 width="1293.977px" height="286.58px" viewBox="0 0 1293.977 286.58" enable-background="new 0 0 1293.977 286.58"
	 xml:space="preserve">
<g>
	<path d="M90.792,190.964v23.051c-6.953,1.608-13.868,2.414-20.746,2.414c-28.393,0-42.589-14.306-42.589-42.918v-56.089H6.822
		V94.48h20.636l5.049-42.698h23.709V94.48h33.478v22.941H56.217v51.48c0,5.854,0.749,10.5,2.25,13.939
		c1.499,3.44,3.787,5.91,6.86,7.409c3.073,1.5,7.135,2.25,12.184,2.25C81.023,192.5,85.45,191.989,90.792,190.964z"/>
	<path d="M101.878,211.38v-21.515c11.635,3.513,23.709,5.269,36.223,5.269c8.488,0,14.69-1.262,18.605-3.786
		c3.914-2.524,5.872-6.202,5.872-11.031c0-3.878-1.025-6.842-3.073-8.892c-2.049-2.048-5.562-3.584-10.538-4.61l-18.221-3.402
		c-11.05-2.194-19.099-6.054-24.148-11.58c-5.049-5.524-7.574-12.933-7.574-22.227c0-7.464,1.957-13.957,5.872-19.483
		c3.914-5.524,9.86-9.824,17.837-12.897c7.975-3.073,17.854-4.61,29.637-4.61c11.048,0,21.257,1.245,30.625,3.732v21.404
		c-9.44-2.561-19.393-3.842-29.856-3.842c-18.075,0-27.112,4.978-27.112,14.928c0,3.513,1.005,6.312,3.019,8.397
		c2.012,2.085,5.434,3.641,10.263,4.665l18.221,3.403c10.976,2.195,19.044,5.945,24.203,11.25
		c5.159,5.307,7.738,12.861,7.738,22.667c0,7.684-1.976,14.308-5.927,19.867c-3.952,5.562-9.752,9.843-17.398,12.843
		c-7.647,2.999-16.887,4.5-27.715,4.5C124.819,216.429,112.636,214.744,101.878,211.38z"/>
	<path d="M219.052,200.952c-9.843-10.318-14.764-25.758-14.764-46.321c0-20.708,4.847-36.222,14.544-46.54
		c9.695-10.318,23.435-15.478,41.217-15.478c17.782,0,31.52,5.159,41.217,15.478c9.695,10.317,14.544,25.795,14.544,46.431
		c0,13.758-2.25,25.246-6.75,34.465c-4.5,9.221-10.922,16.1-19.264,20.636c-8.342,4.538-18.259,6.806-29.747,6.806
		C242.559,216.429,228.893,211.27,219.052,200.952z M280.082,185.256c4.5-6,6.75-16.171,6.75-30.516
		c0-14.56-2.25-24.861-6.75-30.898s-11.179-9.056-20.032-9.056c-8.855,0-15.532,3.002-20.032,9.001
		c-4.5,6.001-6.75,16.173-6.75,30.514c0,9.879,1.043,17.746,3.128,23.6c2.085,5.855,5.085,10.043,9.001,12.568
		c3.914,2.524,8.798,3.786,14.653,3.786C268.903,194.256,275.581,191.257,280.082,185.256z"/>
	<path d="M320.64,253.2c6.586-8.855,11.232-17.673,13.94-26.453c2.707-8.781,4.062-19.319,4.062-31.613V94.48h28.868v99.337
		c0,14.197-2.178,26.893-6.531,38.088c-4.354,11.196-11.58,22.465-21.678,33.809L320.64,253.2z M339.135,69.619
		c-3.037-2.671-4.555-6.531-4.555-11.58c0-5.05,1.518-8.928,4.555-11.636c3.036-2.706,7.591-4.062,13.666-4.062
		c6.073,0,10.628,1.355,13.666,4.062c3.036,2.708,4.556,6.586,4.556,11.636c0,5.049-1.52,8.909-4.556,11.58
		c-3.037,2.672-7.592,4.006-13.666,4.006C346.726,73.625,342.171,72.291,339.135,69.619z"/>
	<path d="M477.382,214.233l-36.003-49.832h-16.575v49.832h-28.758V36.853h28.758V141.13h16.355l33.04-46.65h30.954l-40.174,57.736
		l44.016,62.018H477.382z"/>
	<path d="M588.133,97.169c7.536,3.037,13.153,8.031,16.849,14.982c3.694,6.953,5.543,16.394,5.543,28.32v73.761h-23.819
		l-1.976-12.402h-1.537c-3.586,4.758-8.215,8.36-13.885,10.811c-5.672,2.451-11.947,3.678-18.825,3.678
		c-7.831,0-14.599-1.392-20.307-4.172c-5.708-2.779-10.081-6.713-13.117-11.8c-3.037-5.085-4.555-11.067-4.555-17.946
		c0-11.121,3.804-19.72,11.416-25.795c7.61-6.072,19.648-9.768,36.113-11.086l22.392-2.086v-4.719
		c0-6.073-0.971-10.848-2.909-14.324c-1.94-3.475-4.977-5.944-9.11-7.409c-4.135-1.463-9.678-2.195-16.629-2.195
		c-4.903,0-10.208,0.422-15.916,1.263c-5.708,0.842-11.196,2.104-16.465,3.786V97.773c5.415-1.683,11.471-2.964,18.166-3.842
		c6.696-0.878,13.043-1.317,19.044-1.317C570.752,92.614,580.595,94.133,588.133,97.169z M571.723,193.489
		c3.988-1.61,7.555-4.173,10.702-7.684v-25.467l-19.648,1.756c-7.538,0.732-13.045,2.545-16.52,5.434
		c-3.477,2.892-5.214,6.936-5.214,12.129c0,5.27,1.554,9.295,4.665,12.074c3.109,2.783,7.665,4.171,13.666,4.171
		C563.617,195.902,567.733,195.099,571.723,193.489z"/>
	<g>
		<path fill="#65BDB0" d="M661.703,279.515L730.499,6.682h38.073l-68.796,272.833H661.703z"/>
		<path fill="#65BDB0" d="M733.109,279.515L801.905,6.682h38.073l-68.796,272.833H733.109z"/>
	</g>
	<path d="M889.476,201.116c-10.026-10.207-15.038-25.739-15.038-46.594c0-21.001,5.341-36.57,16.026-46.706
		c10.683-10.135,26.305-15.203,46.87-15.203c9.293,0,17.964,0.952,26.015,2.854v23.051c-7.977-1.683-15.405-2.525-22.282-2.525
		c-8.562,0-15.551,1.281-20.965,3.842c-5.417,2.562-9.44,6.642-12.075,12.239s-3.952,12.97-3.952,22.117
		c0,13.831,2.761,23.765,8.287,29.802c5.524,6.037,13.995,9.056,25.411,9.056c3.731,0,7.629-0.347,11.689-1.043
		c4.062-0.694,8.688-1.773,13.886-3.237v23.05c-9.368,3.073-19.319,4.61-29.856,4.61C914.173,216.429,899.5,211.325,889.476,201.116
		z"/>
	<path d="M990.184,200.952c-9.844-10.318-14.764-25.758-14.764-46.321c0-20.708,4.847-36.222,14.543-46.54
		c9.695-10.318,23.436-15.478,41.217-15.478c17.783,0,31.52,5.159,41.217,15.478c9.695,10.317,14.545,25.795,14.545,46.431
		c0,13.758-2.25,25.246-6.752,34.465c-4.5,9.221-10.92,16.1-19.264,20.636c-8.342,4.538-18.258,6.806-29.746,6.806
		C1013.689,216.429,1000.023,211.27,990.184,200.952z M1051.213,185.256c4.5-6,6.75-16.171,6.75-30.516
		c0-14.56-2.25-24.861-6.75-30.898s-11.18-9.056-20.033-9.056s-15.531,3.002-20.031,9.001c-4.5,6.001-6.75,16.173-6.75,30.514
		c0,9.879,1.041,17.746,3.127,23.6c2.086,5.855,5.086,10.043,9.002,12.568c3.912,2.524,8.797,3.786,14.652,3.786
		C1040.033,194.256,1046.713,191.257,1051.213,185.256z"/>
	<path d="M1265.857,103.536c6.877,7.282,10.318,18.789,10.318,34.521v76.176h-28.649v-74.64c0-7.902-1.592-13.556-4.774-16.958
		c-3.184-3.403-7.629-5.104-13.337-5.104c-4.099,0-8.122,0.878-12.074,2.635c-3.951,1.756-7.354,4.464-10.208,8.122
		c0.292,2.415,0.439,5.416,0.439,9.001v76.945h-28.21v-74.64c0-7.975-1.501-13.646-4.5-17.014
		c-3.002-3.364-7.354-5.049-13.062-5.049c-4.391,0-8.671,1.043-12.842,3.128c-4.172,2.086-7.648,5.179-10.428,9.275v84.299h-28.759
		V94.48h23.819l1.976,12.733h1.536c4.317-4.83,9.348-8.47,15.093-10.922c5.744-2.451,12.02-3.678,18.825-3.678
		c6.731,0,12.695,1.301,17.892,3.897c5.195,2.598,9.366,6.641,12.513,12.129c5.05-5.488,10.702-9.531,16.959-12.129
		c6.257-2.597,12.678-3.897,19.264-3.897C1249.574,92.614,1258.979,96.255,1265.857,103.536z"/>
</g>
<g>
</g>
<g>
</g>
<g>
</g>
<g>
</g>
<g>
</g>
<g>
</g>
</svg>
