<?xml version="1.0" encoding="UTF-8"?>
<svg id="Ebene_1" xmlns="http://www.w3.org/2000/svg" version="1.1" viewBox="0 0 377.2 131.7">
  <!-- Generator: Adobe Illustrator 30.2.1, SVG Export Plug-In . SVG Version: 2.1.1 Build 1)  -->
  <defs>
    <style>
      .st0 {
        fill: #1d1d1b;
      }
    </style>
  </defs>
  <polygon class="st0" points="206.9 .31 195.07 .31 195.07 12.1 206.9 12.06 206.9 .31"/>
  <path class="st0" d="M76.88,47.37c0-8.64,8.64-8.64,16.41-8.64.18,0,10.58.35,14.29,1.06l2.12-11.11c-4.06-.88-10.94-1.76-15.7-1.76-15.52,0-29.46,1.76-29.46,19.4,0,30.17,36.52,17.46,36.52,34.93,0,10.94-9,11.47-20.11,11.47-.18,0-11.29-.35-14.99-1.06l-2.12,11.11c4.06.88,11.64,1.76,16.41,1.76,19.05,0,32.99-1.76,32.99-22.93,0-31.58-36.34-17.64-36.34-34.22h-.02Z"/>
  <path class="st0" d="M153.16,26.91c-24.52,0-29.64,12.35-29.64,38.81s5.12,38.81,29.64,38.81,29.64-12.17,29.64-38.81-5.12-38.81-29.64-38.81ZM153.16,92.71c-13.05,0-17.82-4.94-17.82-26.99s4.76-26.99,17.82-26.99,17.82,5.12,17.82,26.99-4.76,26.99-17.82,26.99h0Z"/>
  <path class="st0" d="M206.92,28.67h-11.82v64.04c0,12.59-3.71,22.52-11.12,29.81l8.29,8.82c15.52-14.11,14.64-13.94,14.64-38.63V28.67h.01Z"/>
  <polygon class="st0" points="270.61 28.67 255.26 28.67 232.86 60.95 263.2 102.76 278.9 102.76 248.03 60.95 270.61 28.67"/>
  <path class="st0" d="M308.43,26.55c-4.76,0-18.52,1.23-22.58,2.12l2.12,11.11c4.59-.88,15.88-1.41,21.52-1.41,14.47,0,16.41,3.53,16.76,16.93-5.29-1.23-19.05-1.59-23.64-1.59-17.82.35-18.7,10.58-18.7,25.4,0,18.7,4.06,31.05,42.69,18.35l1.76,5.29h9.7v-39.34c0-24.52.18-36.87-29.64-36.87h0ZM326.25,84.59c-29.28,10.58-30.52,5.82-30.52-7.41,0-4.94-.35-11.29,8.47-11.64,5.29-.35,17.64.71,22.05,1.76v17.29Z"/>
  <g>
    <path class="st0" d="M356.94,96.18c0,1.19.31,4.63.53,5.65l2.78-.53c-.22-1.15-.35-3.97-.35-5.39,0-3.62.88-4.11,4.24-4.19-.31,1.32-.4,4.77-.4,5.92.09,4.46,2.65,4.68,6.36,4.68,4.68,0,7.77-1.02,4.59-10.68l1.32-.44v-2.43h-9.84c-6.13,0-9.23-.04-9.23,7.42h0ZM367.14,91.72h4.33c2.65,7.33,1.46,7.64-1.86,7.64-1.23,0-2.83.09-2.91-2.12-.09-1.32.18-4.41.44-5.52h0Z"/>
    <path class="st0" d="M357.48,74.2h13.99c2.65,7.33,1.46,7.64-2.21,7.64h-11.79v2.96h12.85c4.5,0,7.55-1.02,4.37-10.68l1.32-.44v-2.43h-18.54v2.96h.01Z"/>
    <path class="st0" d="M343.79,56.67h13.55l-.18,4.33c-.09,4.37,1.99,6.27,9.36,6.27,6.89,0,12.01-1.02,8.12-10.68l1.37-.44v-2.43h-32.23v2.96h.01ZM360.3,56.67h11.21c3.35,7.33.71,7.64-4.77,7.64-5.08,0-6.71-.8-6.62-3.58l.18-4.06h0Z"/>
    <rect class="st0" x="357.48" y="46.08" width="18.54" height="2.96"/>
    <path class="st0" d="M366.75,26.61c-6.62,0-9.71,1.28-9.71,7.42s3.09,7.42,9.71,7.42,9.71-1.28,9.71-7.42-3.04-7.42-9.71-7.42ZM366.75,38.49c-5.47,0-6.75-1.19-6.75-4.46s1.28-4.46,6.75-4.46,6.75,1.19,6.75,4.46-1.23,4.46-6.75,4.46Z"/>
    <polygon class="st0" points="350.53 46.08 350.53 49.04 353.48 49.04 353.47 46.08 350.53 46.08"/>
  </g>
  <polygon class="st0" points="183.98 12.1 183.98 .28 .37 .28 .37 12.1 29.43 12.1 29.43 102.76 41.35 102.76 41.35 12.1 183.98 12.1"/>
  <polygon class="st0" points="220.16 .31 220.16 1.1 220.16 1.1 220.16 102.76 231.98 102.76 231.98 12.12 242.45 12.11 254.26 12.08 376.92 11.86 376.92 .31 220.16 .31"/>
</svg>